<svg width="175" height="175" viewBox="0 0 175 175" fill="none" xmlns="http://www.w3.org/2000/svg">
<rect width="175" height="175" rx="87.5" fill="white"/>
<path d="M81.6752 107.227C81.6752 101.725 85.5531 39.433 91.0173 41.0302C94.7189 42.095 90.3122 71.9101 90.136 76.1694C89.9597 82.7358 89.4309 89.4797 89.4309 96.0461C89.4309 98.3533 90.4885 114.326 89.9597 114.681C95.0714 110.776 97.7154 101.903 103.532 99.0631C110.583 95.5137 109.701 103.677 107.057 107.404C103.356 112.906 98.9493 118.053 94.8951 123.199C92.4274 126.394 88.3733 135.267 82.9091 133.847C80.0888 133.138 80.6176 131.363 79.7363 129.588C78.3262 126.926 76.916 124.441 74.9771 121.957C71.2755 116.988 65.9876 111.664 63.6961 105.985C61.2284 100.305 65.635 93.739 71.9806 97.8208C75.6822 100.128 80.0888 109.534 81.4989 113.616C82.0277 111.841 81.6752 109.179 81.6752 107.227Z" fill="#222221"/>
</svg>
