<svg width="175" height="175" viewBox="0 0 175 175" fill="none" xmlns="http://www.w3.org/2000/svg">
<rect width="175" height="175" rx="87.5" fill="white"/>
<path d="M84.5938 58.4215V109.712L76.1385 101.216C75.1949 100.267 73.6615 100.264 72.7135 101.207C71.7653 102.151 71.7618 103.685 72.7052 104.633L85.2991 117.287C85.2998 117.288 85.3006 117.289 85.3014 117.29C86.2449 118.235 87.7833 118.238 88.73 117.29C88.7308 117.289 88.7316 117.288 88.7323 117.288L101.326 104.633C102.269 103.685 102.266 102.151 101.318 101.208C100.37 100.264 98.8364 100.268 97.8929 101.216L89.4376 109.712V58.4215C89.4376 57.0839 88.3533 55.9996 87.0157 55.9996C85.6781 55.9996 84.5938 57.0839 84.5938 58.4215Z" fill="black"/>
</svg>
