<svg width="100" height="50" viewBox="0 0 100 50" fill="none" xmlns="http://www.w3.org/2000/svg">
<path d="M17.5482 13.6201C15.8675 13.6201 13.9562 14.7019 11.8141 16.8653C10.3312 18.3405 9.17779 20.2417 8.35393 22.5691C7.59598 24.7653 7.217 26.9944 7.217 29.2562C7.217 31.7475 7.76075 33.7143 8.84824 35.1566C9.73801 36.4023 10.809 37.0251 12.0613 37.0251C12.9181 37.0251 13.6101 36.6317 14.1374 35.845L16.1147 37.2709C15.0931 37.8282 13.8903 38.1068 12.5062 38.1068C10.0016 38.1068 7.62893 36.9759 5.38804 34.7141C2.98237 32.3212 1.77954 29.5676 1.77954 26.4535C1.77954 21.7332 3.6085 17.4882 7.26644 13.7185V13.6201H0V11.7517H17.5482V13.6201Z" fill="black"/>
<path d="M34.0583 33.1898V13.6201H18.5863C18.5863 14.1774 19.5749 14.6855 21.5521 15.1444C24.3203 15.8 26.1328 16.3409 26.9896 16.767C28.9669 17.6849 29.9555 18.9797 29.9555 20.6514C29.9555 22.7166 28.9504 24.4212 26.9402 25.7651C29.7084 27.0763 32.0646 29.5512 34.0089 33.1898H34.0583ZM20.1681 27.6828C21.1897 27.1911 22.409 26.7485 23.826 26.3552C25.6385 25.7324 26.5447 25.0604 26.5447 24.3392C26.5447 23.3886 25.6385 22.5855 23.826 21.9299C22.1783 21.4054 20.5141 20.8809 18.8334 20.3564C17.0209 19.6353 16.1147 18.7174 16.1147 17.6029C16.1147 16.849 16.6584 15.5214 17.7459 13.6201H15.2743V11.7517H37.9634V13.6201H35.9367V39.0902L35.1953 38.3035C34.7998 35.6483 32.9873 33.3209 29.7578 31.3214C27.418 29.9118 24.9959 29.0104 22.4913 28.617C22.2277 28.7153 21.997 28.8629 21.7993 29.0595C21.3379 29.5512 21.1073 30.1741 21.1073 30.928C21.1073 31.7147 21.4039 32.4523 21.997 33.1407C22.6232 33.8946 23.447 34.3699 24.4686 34.5666L20.0692 37.7626C18.3226 36.2548 17.4493 34.4355 17.4493 32.3048C17.4493 30.7969 17.9931 29.5348 19.0806 28.5187C19.4101 28.1909 19.7726 27.9122 20.1681 27.6828Z" fill="black"/>
<path d="M43.6975 13.6201H42.2145V38.0085H41.9674C41.7367 38.0085 41.4071 37.779 40.9787 37.3201C40.5503 36.8612 40.3361 36.4023 40.3361 35.9434V13.6201H37.8151V11.7517H40.8799C40.9458 11.4894 40.9787 11.2763 40.9787 11.1124C40.9787 10.4568 40.5833 9.93236 39.7924 9.539C39.0344 9.11286 38.0129 8.89979 36.7276 8.89979C36.2333 8.89979 35.3271 8.96535 34.0089 9.09647C32.6907 9.19481 31.7515 9.24398 31.1913 9.24398C29.247 9.24398 27.418 8.47365 25.7044 6.93299C23.9578 5.39232 22.5243 3.26162 21.4039 0.540871L22.2442 0C22.9033 1.90124 23.7601 3.19606 24.8146 3.88444C25.7703 4.54004 27.2203 4.86784 29.1646 4.86784C29.7907 4.86784 30.4993 4.81867 31.2902 4.72033C32.0481 4.58921 32.5754 4.52365 32.872 4.52365C35.3765 4.52365 37.4526 5.16286 39.1003 6.44128C40.781 7.71971 41.7861 9.48983 42.1157 11.7517H43.6975V13.6201Z" fill="black"/>
<path d="M71.6263 13.6201H69.4019V38.0085H69.1547C68.924 38.0085 68.5945 37.779 68.1661 37.3201C67.7377 36.8612 67.5235 36.4023 67.5235 35.9434V27.4861C67.0621 26.5355 66.436 26.0602 65.6451 26.0602C65.0519 26.0602 62.8769 27.3714 59.1201 29.9938C55.3633 32.5834 52.727 33.8782 51.2111 33.8782C49.9918 33.8782 47.8003 31.5508 44.6367 26.8961L45.4276 26.3552C46.0537 27.3058 46.4986 27.8958 46.7622 28.1253C47.1906 28.5842 47.6685 28.8137 48.1957 28.8137C49.1185 28.8137 51.3099 27.5844 54.7701 25.1259C54.9349 24.3392 54.2099 23.5197 52.5952 22.6674C51.0133 21.9463 49.4315 21.2087 47.8497 20.4548C46.1361 19.5041 45.2793 18.5207 45.2793 17.5046C45.2793 16.7834 45.9384 15.4886 47.2565 13.6201H43.4998V11.7517H71.6263V13.6201ZM67.5235 25.9618V13.6201H48.0969C48.031 14.2429 48.756 14.8822 50.2719 15.5378C52.9082 16.6523 54.3747 17.2915 54.6713 17.4554C56.2531 18.3732 57.044 19.4714 57.044 20.7498C57.044 21.1104 56.6156 22.3396 55.7588 24.4375C59.0872 22.1102 61.2621 20.9465 62.2837 20.9465C63.9974 20.9465 65.7439 22.6183 67.5235 25.9618Z" fill="black"/>
<path d="M78.1513 49.711C74.6581 46.5313 72.0382 44.4006 70.2916 43.3189C70.3246 44.9579 69.9127 46.2691 69.0559 47.2525C68.1661 48.2687 67.1445 48.7768 65.9911 48.7768C64.7388 48.7768 63.7008 48.3342 62.8769 47.4492C62.0531 46.5969 61.6411 45.4987 61.6411 44.1548C61.6411 42.778 62.0366 41.6799 62.8275 40.8604C63.6184 40.0409 64.5246 39.6311 65.5462 39.6311C66.7655 39.6311 67.8201 40.0409 68.7098 40.8604C68.8087 40.5653 68.8581 40.2212 68.8581 39.8278C68.8581 38.9755 68.578 37.566 68.0178 35.5992C68.2814 35.6975 68.578 35.9597 68.9076 36.3859C69.9951 37.8282 70.5388 39.6475 70.5388 41.8438C71.857 42.7288 74.2626 44.8431 77.7558 48.1867L78.1513 49.711ZM68.5615 42.3846C67.9025 41.9585 67.0127 41.7454 65.8922 41.7454C63.882 41.7454 62.8769 42.2535 62.8769 43.2697C62.8769 44.0892 63.4866 44.499 64.7059 44.499C65.6286 44.499 66.5019 44.2859 67.3258 43.8597C68.1167 43.4336 68.5286 42.9419 68.5615 42.3846Z" fill="black"/>
<path d="M90.262 33.1898V13.6201H74.7899C74.7899 14.1774 75.7785 14.6855 77.7558 15.1444C80.524 15.8 82.3365 16.3409 83.1933 16.767C85.1705 17.6849 86.1592 18.9797 86.1592 20.6514C86.1592 22.7166 85.1541 24.4212 83.1438 25.7651C85.912 27.0763 88.2682 29.5512 90.2126 33.1898H90.262ZM76.3717 27.6828C77.3933 27.1911 78.6126 26.7485 80.0297 26.3552C81.8421 25.7324 82.7484 25.0604 82.7484 24.3392C82.7484 23.3886 81.8421 22.5855 80.0297 21.9299C78.3819 21.4054 76.7177 20.8809 75.0371 20.3564C73.2246 19.6353 72.3183 18.7174 72.3183 17.6029C72.3183 16.849 72.8621 15.5214 73.9496 13.6201H71.478V11.7517H94.1671V13.6201H92.1404V39.0902L91.3989 38.3035C91.0035 35.6483 89.191 33.3209 85.9614 31.3214C83.6217 29.9118 81.1995 29.0104 78.695 28.617C78.4314 28.7153 78.2007 28.8629 78.003 29.0595C77.5416 29.5512 77.3109 30.1741 77.3109 30.928C77.3109 31.7147 77.6075 32.4523 78.2007 33.1407C78.8268 33.8946 79.6507 34.3699 80.6723 34.5666L76.2729 37.7626C74.5263 36.2548 73.653 34.4355 73.653 32.3048C73.653 30.7969 74.1967 29.5348 75.2842 28.5187C75.6138 28.1909 75.9763 27.9122 76.3717 27.6828Z" fill="black"/>
<path d="M84.0336 7.03133C85.2859 7.09689 86.291 7.12967 87.0489 7.12967C88.7626 7.12967 90.0807 7.7361 91.0035 8.94896C91.8273 9.99792 92.2228 11.2436 92.1898 12.6859H90.9046C90.9375 12.6531 90.954 12.1286 90.954 11.1124C90.954 9.63734 89.537 8.89979 86.7029 8.89979C86.4063 8.89979 85.7967 8.91618 84.8739 8.94896C83.9183 8.98174 83.2757 9.01452 82.9461 9.0473C82.0893 9.17842 81.4796 9.24398 81.1171 9.24398C79.5024 9.24398 78.1183 8.8834 76.9649 8.16224C75.7785 7.4083 75.1854 6.44128 75.1854 5.2612C75.1854 3.72054 76.0092 2.52407 77.6569 1.67178C79.4365 0.721162 82.0563 0.245851 85.5166 0.245851C89.4711 0.245851 92.6017 1.32759 94.9085 3.49108C97.1165 5.589 98.2864 8.34253 98.4182 11.7517H100V13.6201H98.4182V38.0085H98.171C97.9403 38.0085 97.6108 37.779 97.1824 37.3201C96.754 36.8612 96.5398 36.4023 96.5398 35.9434V13.6201H94.0188V11.7517H96.5398C96.3421 5.4251 92.9313 2.26183 86.3075 2.26183C82.5507 2.26183 80.6723 3.14689 80.6723 4.91701C80.6723 5.73651 80.9853 6.31016 81.6115 6.63797C81.974 6.83465 82.7813 6.96577 84.0336 7.03133Z" fill="black"/>
</svg>
