<svg width="54" height="172" viewBox="0 0 54 172" fill="none" xmlns="http://www.w3.org/2000/svg">
<g clip-path="url(#clip0_801_6)">
<path d="M0.240234 0H53.3202V171.358H0.240234V0Z" fill="white"/>
<path d="M20.2871 153.665V151.765H24.1751V147.672H20.2871V145.772H30.5181V147.672H25.9281V151.765H30.5181V153.665H20.2871ZM30.1381 142.236C29.8071 142.801 29.3541 143.233 28.7791 143.53C28.2041 143.827 27.5571 143.976 26.8351 143.976C26.1141 143.976 25.4661 143.827 24.8921 143.53C24.3236 143.239 23.8513 142.789 23.5321 142.236C23.2011 141.672 23.0351 141.004 23.0351 140.234C23.0351 139.464 23.2011 138.796 23.5321 138.232C23.8513 137.679 24.3236 137.229 24.8921 136.938C25.4661 136.641 26.1151 136.493 26.8351 136.493C27.5581 136.493 28.2041 136.641 28.7791 136.938C29.3475 137.229 29.8195 137.678 30.1381 138.232C30.4691 138.796 30.6351 139.464 30.6351 140.234C30.6351 141.004 30.4691 141.672 30.1381 142.236V142.236ZM28.4351 138.889C28.0001 138.559 27.4681 138.393 26.8341 138.393C26.2011 138.393 25.6681 138.559 25.2331 138.889C24.8001 139.221 24.5841 139.669 24.5841 140.235C24.5841 140.799 24.8011 141.248 25.2331 141.58C25.6681 141.911 26.2011 142.077 26.8341 142.077C27.4681 142.077 28.0001 141.911 28.4351 141.58C28.8701 141.248 29.0841 140.8 29.0841 140.235C29.0851 139.669 28.8701 139.221 28.4351 138.889ZM23.1511 134.852V133.039H24.3371C23.9529 132.773 23.6289 132.429 23.3861 132.03C23.1535 131.647 23.0316 131.207 23.0341 130.759C23.0341 130.077 23.2241 129.53 23.6041 129.114C23.9851 128.701 24.5361 128.493 25.2561 128.493H30.5181V130.305H25.7971C25.3781 130.305 25.0701 130.401 24.8761 130.59C24.6811 130.78 24.5841 131.037 24.5841 131.359C24.5841 131.661 24.6991 131.939 24.9341 132.192C25.1681 132.446 25.5111 132.65 25.9641 132.805C26.4181 132.961 26.9571 133.039 27.5801 133.039H30.5181V134.852H23.1511V134.852ZM30.1381 125.136C29.8192 125.689 29.3473 126.138 28.7791 126.43C28.2041 126.727 27.5571 126.875 26.8351 126.875C26.1141 126.875 25.4661 126.727 24.8921 126.43C24.3238 126.138 23.8516 125.689 23.5321 125.136C23.2011 124.571 23.0351 123.904 23.0351 123.134C23.0351 122.363 23.2011 121.696 23.5321 121.131C23.8513 120.578 24.3236 120.129 24.8921 119.838C25.4661 119.541 26.1151 119.392 26.8351 119.392C27.5581 119.392 28.2041 119.541 28.7791 119.838C29.3541 120.135 29.8071 120.566 30.1381 121.131C30.4691 121.696 30.6351 122.363 30.6351 123.134C30.6361 123.903 30.4691 124.57 30.1381 125.136V125.136ZM28.4351 121.789C28.0001 121.458 27.4681 121.292 26.8341 121.292C26.2011 121.292 25.6681 121.458 25.2331 121.789C24.8001 122.12 24.5841 122.567 24.5841 123.134C24.5841 123.698 24.8011 124.147 25.2331 124.478C25.6681 124.81 26.2011 124.976 26.8341 124.976C27.4681 124.976 28.0001 124.81 28.4351 124.478C28.8701 124.147 29.0841 123.699 29.0841 123.134C29.0851 122.567 28.8701 122.12 28.4351 121.789ZM23.1511 117.75V115.938H24.3501C23.9311 115.673 23.6081 115.352 23.3781 114.972C23.1481 114.592 23.0331 114.188 23.0331 113.759C23.0331 113.487 23.0831 113.19 23.1791 112.867L24.8611 113.203C24.7229 113.432 24.6519 113.695 24.6561 113.963C24.6561 114.539 24.9171 115.011 25.4391 115.381C25.9601 115.751 26.7811 115.938 27.9001 115.938H30.5171V117.75H23.1511V117.75ZM30.0521 111.252C29.6611 111.763 29.1951 112.103 28.6491 112.268L27.8731 110.822C28.2541 110.684 28.5531 110.493 28.7661 110.245C28.9811 109.996 29.0871 109.701 29.0871 109.36C29.0956 109.129 29.0373 108.9 28.9191 108.702C28.8071 108.527 28.6251 108.439 28.3711 108.439C28.1461 108.439 27.9651 108.544 27.8231 108.752C27.6811 108.962 27.5321 109.286 27.3771 109.725C27.3581 109.793 27.3191 109.895 27.2601 110.032C27.0361 110.597 26.7541 111.036 26.4121 111.347C26.0721 111.66 25.6331 111.814 25.0981 111.814C24.7171 111.814 24.3711 111.712 24.0591 111.508C23.7422 111.297 23.4857 111.008 23.3151 110.668C23.1244 110.295 23.0286 109.88 23.0361 109.461C23.0361 108.964 23.1411 108.512 23.3501 108.102C23.5611 107.694 23.8561 107.377 24.2361 107.153L25.2291 108.235C24.7991 108.527 24.5851 108.921 24.5851 109.419C24.581 109.599 24.635 109.776 24.7391 109.923C24.7827 109.989 24.8423 110.043 24.9124 110.08C24.9825 110.117 25.0608 110.136 25.1401 110.135C25.3161 110.135 25.4781 110.032 25.6301 109.828C25.7801 109.623 25.9641 109.224 26.1771 108.629C26.3821 108.065 26.6511 107.628 26.9821 107.321C27.3141 107.013 27.7381 106.861 28.2531 106.861C28.9741 106.861 29.5521 107.09 29.9851 107.548C30.4181 108.006 30.6351 108.605 30.6351 109.345C30.6361 110.104 30.4411 110.741 30.0521 111.252ZM35.7211 17.0059L30.9391 31.9749H27.6731L25.0891 22.2929L22.5051 31.9749H19.2371L14.4551 17.0059H18.1681L20.8411 27.2819L23.3661 17.0059H26.8111L29.3351 27.2819L32.0091 17.0059H35.7211ZM38.2181 27.1629C39.6441 27.1629 40.7141 28.2309 40.7141 29.6579C40.7141 31.0829 39.6441 32.1529 38.2181 32.1529C36.7931 32.1529 35.7241 31.0829 35.7241 29.6579C35.7231 28.2309 36.7931 27.1629 38.2181 27.1629" fill="black"/>
</g>
<defs>
<clipPath id="clip0_801_6">
<rect width="53.08" height="171.358" fill="white" transform="translate(0.240234)"/>
</clipPath>
</defs>
</svg>
