<svg width="54" height="172" viewBox="0 0 54 172" fill="none" xmlns="http://www.w3.org/2000/svg">
<g clip-path="url(#clip0_712_15)">
<path d="M0 0H53.08V171.358H0V0Z" fill="white"/>
<path d="M20.0488 153.585V151.583L26.8008 147.826H20.0488V145.926H30.2788V147.928L23.5268 151.685H30.2788V153.585H20.0488ZM29.8998 142.382C29.5806 142.935 29.1088 143.384 28.5408 143.675C27.9658 143.972 27.3178 144.121 26.5968 144.121C25.8758 144.121 25.2278 143.972 24.6528 143.675C24.0848 143.384 23.613 142.935 23.2938 142.382C22.9628 141.818 22.7968 141.15 22.7968 140.379C22.7968 139.61 22.9628 138.942 23.2938 138.377C23.6135 137.824 24.0852 137.375 24.6528 137.083C25.2278 136.786 25.8768 136.638 26.5968 136.638C27.3188 136.638 27.9658 136.786 28.5408 137.083C29.1086 137.375 29.5804 137.824 29.8998 138.377C30.2298 138.942 30.3958 139.61 30.3958 140.379C30.3968 141.149 30.2298 141.817 29.8998 142.382ZM28.1968 139.034C27.7618 138.703 27.2298 138.537 26.5958 138.537C25.9618 138.537 25.4288 138.703 24.9948 139.034C24.5608 139.366 24.3448 139.814 24.3448 140.379C24.3448 140.944 24.5618 141.393 24.9948 141.725C25.4288 142.055 25.9618 142.221 26.5958 142.221C27.2298 142.221 27.7618 142.055 28.1968 141.725C28.6308 141.393 28.8458 140.945 28.8458 140.379C28.8468 139.814 28.6308 139.366 28.1968 139.034ZM22.9128 134.996V133.184H24.0978C23.6678 132.901 23.3458 132.591 23.1248 132.255C22.9058 131.919 22.7958 131.523 22.7958 131.065C22.7958 130.586 22.9228 130.163 23.1758 129.793C23.4298 129.423 23.8108 129.16 24.3168 129.003C23.8388 128.741 23.4658 128.412 23.1988 128.018C22.939 127.647 22.7987 127.206 22.7968 126.753C22.7968 126.071 22.9968 125.535 23.3958 125.146C23.7958 124.755 24.3528 124.561 25.0638 124.561H30.2818V126.373H25.3708C24.6888 126.373 24.3478 126.676 24.3478 127.28C24.3478 127.747 24.6118 128.13 25.1368 128.426C25.6638 128.725 26.4228 128.872 27.4168 128.872H30.2818V130.685H25.3708C24.6888 130.685 24.3478 130.988 24.3478 131.591C24.3478 132.059 24.6228 132.442 25.1738 132.738C25.7248 133.036 26.5258 133.184 27.5778 133.184H30.2818V134.996H22.9128V134.996ZM21.6268 122.457C21.4018 122.681 21.1248 122.793 20.7938 122.793C20.4628 122.793 20.1858 122.681 19.9608 122.457C19.8507 122.348 19.7641 122.218 19.7063 122.075C19.6485 121.932 19.6208 121.778 19.6248 121.624C19.6248 121.293 19.7358 121.015 19.9608 120.791C20.1858 120.566 20.4628 120.455 20.7938 120.455C21.1248 120.455 21.4018 120.566 21.6268 120.791C21.8518 121.015 21.9638 121.293 21.9638 121.624C21.9638 121.956 21.8518 122.232 21.6268 122.457ZM22.9128 120.718H30.2788V122.531H22.9128V120.718ZM22.9128 118.668V116.856H24.0978C23.7139 116.589 23.3899 116.246 23.1468 115.847C22.9149 115.463 22.7934 115.023 22.7958 114.575C22.7958 113.894 22.9858 113.346 23.3658 112.931C23.7458 112.517 24.2968 112.31 25.0168 112.31H30.2798V114.122H25.5578C25.1398 114.122 24.8308 114.218 24.6378 114.407C24.4428 114.597 24.3448 114.854 24.3448 115.176C24.3448 115.478 24.4608 115.756 24.6958 116.009C24.9288 116.263 25.2728 116.467 25.7258 116.622C26.1788 116.778 26.7178 116.856 27.3408 116.856H30.2788V118.668H22.9128V118.668ZM29.8338 109.129C29.4764 109.646 28.9799 110.051 28.4018 110.298C27.832 110.544 27.2177 110.671 26.5968 110.671C25.9753 110.672 25.3602 110.545 24.7898 110.298C24.2108 110.05 23.7328 109.66 23.3578 109.129C22.9828 108.598 22.7948 107.933 22.7948 107.134C22.7948 106.363 22.9778 105.721 23.3438 105.204C23.6896 104.703 24.1681 104.307 24.7258 104.063C25.2638 103.824 25.846 103.7 26.4348 103.699H27.1808V108.77C27.6278 108.75 28.0188 108.587 28.3488 108.28C28.6808 107.973 28.8468 107.556 28.8468 107.032C28.8468 106.622 28.7538 106.278 28.5698 106.001C28.3838 105.723 28.0968 105.472 27.7068 105.248L28.2488 103.786C28.9388 104.089 29.4728 104.51 29.8408 105.051C30.2118 105.592 30.3968 106.286 30.3968 107.134C30.3968 107.933 30.2088 108.598 29.8338 109.129V109.129ZM25.7488 105.555C25.3388 105.643 25.0028 105.816 24.7398 106.075C24.4778 106.333 24.3448 106.685 24.3448 107.135C24.3448 107.563 24.4818 107.919 24.7538 108.202C25.0258 108.484 25.3578 108.66 25.7478 108.727V105.555H25.7488ZM29.8338 100.878C29.4588 101.409 28.9818 101.799 28.4018 102.047C27.8316 102.293 27.217 102.42 26.5958 102.42C25.9746 102.42 25.36 102.293 24.7898 102.047C24.2108 101.799 23.7328 101.409 23.3578 100.878C22.9828 100.347 22.7948 99.6818 22.7948 98.8828C22.7948 98.1128 22.9778 97.4708 23.3438 96.9528C23.6897 96.4518 24.1682 96.0571 24.7258 95.8128C25.2638 95.5733 25.8459 95.4489 26.4348 95.4478H27.1808V100.52C27.6168 100.504 28.032 100.33 28.3488 100.03C28.6808 99.7228 28.8468 99.3058 28.8468 98.7808C28.8468 98.3708 28.7538 98.0278 28.5698 97.7498C28.3838 97.4728 28.0968 97.2218 27.7068 96.9968L28.2488 95.5348C28.9388 95.8368 29.4728 96.2588 29.8408 96.7998C30.2118 97.3408 30.3968 98.0338 30.3968 98.8828C30.3968 99.6818 30.2088 100.347 29.8338 100.878V100.878ZM25.7488 97.3048C25.3388 97.3928 25.0028 97.5658 24.7398 97.8238C24.4778 98.0818 24.3448 98.4348 24.3448 98.8838C24.3448 99.3128 24.4818 99.6678 24.7538 99.9508C25.0258 100.233 25.3578 100.409 25.7478 100.477V97.3048H25.7488ZM35.4818 16.9258L30.6998 31.8948H27.4338L24.8498 22.2128L22.2658 31.8948H18.9978L14.2168 16.9258H17.9298L20.6028 27.2018L23.1268 16.9258H26.5718L29.0958 27.2018L31.7698 16.9258H35.4818ZM37.9798 27.0828C39.4058 27.0828 40.4748 28.1508 40.4748 29.5778C40.4748 31.0028 39.4058 32.0728 37.9798 32.0728C36.5548 32.0728 35.4848 31.0028 35.4848 29.5778C35.4838 28.1508 36.5548 27.0828 37.9798 27.0828Z" fill="black"/>
</g>
<defs>
<clipPath id="clip0_712_15">
<rect width="53.08" height="171.358" fill="white"/>
</clipPath>
</defs>
</svg>
