<svg width="54" height="172" viewBox="0 0 54 172" fill="none" xmlns="http://www.w3.org/2000/svg">
<g clip-path="url(#clip0_801_2)">
<path d="M0.160156 0H53.2402V171.358H0.160156V0Z" fill="black"/>
<path d="M20.207 153.665V151.765H24.095V147.672H20.207V145.772H30.438V147.672H25.848V151.765H30.438V153.665H20.207ZM30.058 142.236C29.727 142.801 29.274 143.233 28.699 143.53C28.124 143.827 27.477 143.976 26.755 143.976C26.034 143.976 25.386 143.827 24.812 143.53C24.2435 143.239 23.7712 142.789 23.452 142.236C23.121 141.672 22.955 141.004 22.955 140.234C22.955 139.464 23.121 138.796 23.452 138.232C23.7712 137.679 24.2435 137.229 24.812 136.938C25.386 136.641 26.035 136.493 26.755 136.493C27.478 136.493 28.124 136.641 28.699 136.938C29.2674 137.229 29.7394 137.678 30.058 138.232C30.389 138.796 30.555 139.464 30.555 140.234C30.555 141.004 30.389 141.672 30.058 142.236V142.236ZM28.355 138.889C27.92 138.559 27.388 138.393 26.754 138.393C26.121 138.393 25.588 138.559 25.153 138.889C24.72 139.221 24.504 139.669 24.504 140.235C24.504 140.799 24.721 141.248 25.153 141.58C25.588 141.911 26.121 142.077 26.754 142.077C27.388 142.077 27.92 141.911 28.355 141.58C28.79 141.248 29.004 140.8 29.004 140.235C29.005 139.669 28.79 139.221 28.355 138.889ZM23.071 134.852V133.039H24.257C23.8728 132.773 23.5488 132.429 23.306 132.03C23.0734 131.647 22.9516 131.207 22.954 130.759C22.954 130.077 23.144 129.53 23.524 129.114C23.905 128.701 24.456 128.493 25.176 128.493H30.438V130.305H25.717C25.298 130.305 24.99 130.401 24.796 130.59C24.601 130.78 24.504 131.037 24.504 131.359C24.504 131.661 24.619 131.939 24.854 132.192C25.088 132.446 25.431 132.65 25.884 132.805C26.338 132.961 26.877 133.039 27.5 133.039H30.438V134.852H23.071V134.852ZM30.058 125.136C29.7391 125.689 29.2672 126.138 28.699 126.43C28.124 126.727 27.477 126.875 26.755 126.875C26.034 126.875 25.386 126.727 24.812 126.43C24.2437 126.138 23.7715 125.689 23.452 125.136C23.121 124.571 22.955 123.904 22.955 123.134C22.955 122.363 23.121 121.696 23.452 121.131C23.7712 120.578 24.2435 120.129 24.812 119.838C25.386 119.541 26.035 119.392 26.755 119.392C27.478 119.392 28.124 119.541 28.699 119.838C29.274 120.135 29.727 120.566 30.058 121.131C30.389 121.696 30.555 122.363 30.555 123.134C30.556 123.903 30.389 124.57 30.058 125.136V125.136ZM28.355 121.789C27.92 121.458 27.388 121.292 26.754 121.292C26.121 121.292 25.588 121.458 25.153 121.789C24.72 122.12 24.504 122.567 24.504 123.134C24.504 123.698 24.721 124.147 25.153 124.478C25.588 124.81 26.121 124.976 26.754 124.976C27.388 124.976 27.92 124.81 28.355 124.478C28.79 124.147 29.004 123.699 29.004 123.134C29.005 122.567 28.79 122.12 28.355 121.789ZM23.071 117.75V115.938H24.27C23.851 115.673 23.528 115.352 23.298 114.972C23.068 114.592 22.953 114.188 22.953 113.759C22.953 113.487 23.003 113.19 23.099 112.867L24.781 113.203C24.6429 113.432 24.5718 113.695 24.576 113.963C24.576 114.539 24.837 115.011 25.359 115.381C25.88 115.751 26.701 115.938 27.82 115.938H30.437V117.75H23.071V117.75ZM29.972 111.252C29.581 111.763 29.115 112.103 28.569 112.268L27.793 110.822C28.174 110.684 28.473 110.493 28.686 110.245C28.901 109.996 29.007 109.701 29.007 109.36C29.0155 109.129 28.9572 108.9 28.839 108.702C28.727 108.527 28.545 108.439 28.291 108.439C28.066 108.439 27.885 108.544 27.743 108.752C27.601 108.962 27.452 109.286 27.297 109.725C27.278 109.793 27.239 109.895 27.18 110.032C26.956 110.597 26.674 111.036 26.332 111.347C25.992 111.66 25.553 111.814 25.018 111.814C24.637 111.814 24.291 111.712 23.979 111.508C23.6621 111.297 23.4056 111.008 23.235 110.668C23.0444 110.295 22.9485 109.88 22.956 109.461C22.956 108.964 23.061 108.512 23.27 108.102C23.481 107.694 23.776 107.377 24.156 107.153L25.149 108.235C24.719 108.527 24.505 108.921 24.505 109.419C24.5009 109.599 24.5549 109.776 24.659 109.923C24.7026 109.989 24.7622 110.043 24.8323 110.08C24.9024 110.117 24.9807 110.136 25.06 110.135C25.236 110.135 25.398 110.032 25.55 109.828C25.7 109.623 25.884 109.224 26.097 108.629C26.302 108.065 26.571 107.628 26.902 107.321C27.234 107.013 27.658 106.861 28.173 106.861C28.894 106.861 29.472 107.09 29.905 107.548C30.338 108.006 30.555 108.605 30.555 109.345C30.556 110.104 30.361 110.741 29.972 111.252ZM35.641 17.0059L30.859 31.9749H27.593L25.009 22.2929L22.425 31.9749H19.157L14.375 17.0059H18.088L20.761 27.2819L23.286 17.0059H26.731L29.255 27.2819L31.929 17.0059H35.641ZM38.138 27.1629C39.564 27.1629 40.634 28.2309 40.634 29.6579C40.634 31.0829 39.564 32.1529 38.138 32.1529C36.713 32.1529 35.644 31.0829 35.644 29.6579C35.643 28.2309 36.713 27.1629 38.138 27.1629" fill="white"/>
</g>
<defs>
<clipPath id="clip0_801_2">
<rect width="53.08" height="171.358" fill="white" transform="translate(0.160156)"/>
</clipPath>
</defs>
</svg>
