<svg width="372" height="479" viewBox="0 0 372 479" fill="none" xmlns="http://www.w3.org/2000/svg">
<path d="M247.106 24.9428L173.56 16.7582C106.32 9.2755 45.7454 57.7182 38.2627 124.958L5.63518 418.148C4.2608 430.498 13.1584 441.624 25.5086 442.999L297.828 473.303C310.178 474.678 321.304 465.78 322.678 453.43L355.306 160.24C362.788 93.0001 314.346 32.4255 247.106 24.9428Z" fill="#EF847E" stroke="#131313" stroke-width="5"/>
<path d="M243.68 37.6424L174.109 29.9003C112.359 23.0284 56.7289 67.5165 49.857 129.267L18.2249 413.513C17.4613 420.374 22.4045 426.555 29.2657 427.319L297.609 457.181C304.47 457.945 310.651 453.001 311.415 446.14L343.047 161.895C349.919 100.144 305.431 44.5143 243.68 37.6424Z" fill="#EF847E" stroke="#131313" stroke-width="5"/>
<path d="M150.512 348.645L128.448 346.19C128.735 346.775 129.047 347.363 129.384 347.954C129.726 348.495 130.071 349.012 130.419 349.503C134.477 351.464 137.132 353.369 138.385 355.219C140.378 357.655 141.184 360.587 140.802 364.015C140.421 367.444 138.739 370.125 135.757 372.057C133.526 373.569 130.263 374.64 125.967 375.269C128.611 377.273 131.371 379.819 134.248 382.906C137.174 385.999 140.29 389.641 143.597 393.832L144.084 398.264C142.346 395.806 140.391 393.476 138.222 391.272C136.058 389.019 133.582 386.857 130.794 384.786C128.138 382.881 125.361 381.163 122.462 379.633C119.564 378.103 116.64 376.797 113.692 375.714L109.859 364.722C113.172 367.053 116.945 368.63 121.18 369.454C124.383 370.062 127.298 369.858 129.927 368.842C133.544 367.534 135.435 365.456 135.601 362.607C135.701 361.712 135.648 360.826 135.444 359.948C135.29 359.075 134.975 358.286 134.5 357.579C134.075 356.878 133.537 356.29 132.886 355.815C132.234 355.34 131.461 355.052 130.567 354.953C130.169 354.909 129.791 354.917 129.432 354.977C129.123 355.044 128.764 355.104 128.355 355.16C128.134 357.147 127.088 358.867 125.215 360.319C123.294 361.765 121.364 362.381 119.426 362.165C118.183 362.027 117.082 361.527 116.121 360.665C115.166 359.754 114.758 358.677 114.896 357.435C115.156 355.099 116.382 353.123 118.575 351.505C120.656 349.976 123.028 349.234 125.689 349.279C125.778 348.483 124.958 347.26 123.23 345.609L109.813 344.116L106.103 339.477L134.429 342.629C134.975 342.69 135.577 342.707 136.234 342.679C136.897 342.602 137.512 342.495 138.081 342.357C139.682 341.981 140.544 341.247 140.666 340.154C140.782 339.11 139.998 338.243 138.314 337.553C137.789 337.293 137.207 337.103 136.566 336.981C135.931 336.81 135.266 336.685 134.57 336.608C133.875 336.531 133.002 336.459 131.953 336.392C130.954 336.331 129.753 336.273 128.35 336.218C126.948 336.162 125.722 336.101 124.673 336.035C123.674 335.974 122.826 335.905 122.13 335.827C119 335.479 116.203 334.388 113.741 332.554C110.909 330.428 109.653 327.924 109.974 325.042C110.04 324.445 110.493 323.54 111.332 322.325C112.166 321.16 112.876 320.661 113.461 320.827C113.61 320.843 113.782 320.887 113.975 320.959C114.174 320.981 114.372 321.003 114.571 321.026C113.284 321.738 112.558 322.839 112.392 324.33C112.237 325.721 112.856 326.947 114.247 328.007C115.357 328.886 116.682 329.41 118.222 329.582C118.818 329.648 120.017 329.731 121.817 329.831C123.672 329.886 126.104 329.956 129.113 330.039C134.32 330.719 138.155 332.202 140.617 334.489C143.085 336.725 143.979 339.768 143.299 343.616L146.802 344.006L150.512 348.645ZM177.129 351.607C173.915 352.004 171.077 352.871 168.614 354.206C166.151 355.542 163.992 357.314 162.137 359.523C160.447 361.598 159.077 363.961 158.027 366.612C156.978 369.262 156.265 372.276 155.889 375.656C155.607 378.643 156.103 381.415 157.378 383.971C159.647 387.997 162.09 389.778 164.707 389.315C163.829 388.613 163.211 387.84 162.852 386.995C162.543 386.156 162.436 385.314 162.53 384.469C162.674 383.177 163.317 382.142 164.46 381.364C165.653 380.591 166.895 380.276 168.187 380.42C169.579 380.575 170.708 381.279 171.574 382.533C172.447 383.736 172.786 385.208 172.592 386.947C172.482 387.941 172.181 388.838 171.689 389.639C171.198 390.439 170.568 391.124 169.8 391.693C169.038 392.211 168.166 392.592 167.183 392.835C166.25 393.083 165.286 393.152 164.292 393.042C159.423 392.5 155.967 389.65 153.924 384.492C152.18 380.274 151.599 375.555 152.179 370.338C152.987 363.082 156.731 356.33 163.414 350.081L149.549 348.538L145.84 343.899L173.494 346.977L177.129 351.607ZM233.585 408.601C229.715 403.592 225.26 399.55 220.219 396.473C215.234 393.353 209.671 391.124 203.531 389.787L200.22 381.57C201.368 382.1 202.428 382.52 203.4 382.829C204.377 383.089 205.313 383.269 206.207 383.368C208.593 383.634 210.857 383.634 212.999 383.369C215.141 383.105 217.157 382.625 219.045 381.929C221.508 381.046 223.43 379.826 224.81 378.269C226.241 376.718 227.078 374.849 227.321 372.663C227.658 369.631 225.839 367.895 221.864 367.452L220.713 367.626L220.828 369.299C220.309 371.706 218.39 374.033 215.071 376.28C213.563 377.169 212.028 377.853 210.465 378.333C208.952 378.819 207.6 378.995 206.407 378.863C205.711 378.785 205.074 378.639 204.494 378.423C203.92 378.158 203.332 377.791 202.73 377.321C199.626 381.705 196.478 384.901 193.286 386.911C190.144 388.926 187.381 389.8 184.995 389.535C183.256 389.341 181.763 388.068 180.515 385.716C179.273 383.767 178.73 382.096 178.884 380.705L182.061 352.156L175.875 351.468L172.239 346.837L233.213 353.623L236.848 358.253L206.361 354.86C207.962 359.466 211.098 362.028 215.769 362.548C216.017 362.576 216.418 362.595 216.97 362.606C217.522 362.617 218.052 362.601 218.56 362.557C219.068 362.513 219.573 362.493 220.076 362.499C220.578 362.505 221.003 362.527 221.351 362.565C225.111 363.135 227.822 364.77 229.484 367.47C231.245 370.181 231.807 373.036 231.172 376.034C230.807 379.314 228.968 382.052 225.654 384.249C223.578 385.729 220.414 387.263 216.162 388.853C220.794 391.984 224.018 394.431 225.834 396.193C226.878 397.214 228.04 398.526 229.321 400.127C230.657 401.685 232.039 403.499 233.469 405.57L233.585 408.601ZM196.933 371.771C196.486 371.269 195.608 370.567 194.3 369.667C194.062 369.54 193.778 369.383 193.447 369.195C193.171 368.963 192.853 368.651 192.494 368.259C190.452 366.723 188.947 365.323 187.981 364.059C187.021 362.745 186.223 361.323 185.588 359.793L185.439 359.776L183.067 381.095C182.879 382.784 183.381 383.696 184.574 383.828C185.717 383.955 187.155 383.462 188.889 382.346C190.673 381.237 192.741 379.606 195.094 377.453C195.712 376.867 196.179 376.291 196.494 375.722C196.858 375.159 197.082 374.504 197.165 373.759C197.203 373.411 197.217 373.061 197.206 372.707C197.195 372.354 197.104 372.042 196.933 371.771ZM202.56 354.437L186.236 352.621C186.147 353.416 186.186 354.2 186.351 354.973C186.517 355.746 186.702 356.345 186.906 356.77C187.254 357.262 187.739 357.869 188.363 358.593C189.037 359.321 189.782 360.084 190.599 360.879C191.107 361.288 192.07 361.898 193.489 362.71C194.958 363.527 196.38 364.314 197.754 365.071L200.446 366.653L200.297 366.637C200.391 366.698 200.506 366.786 200.645 366.902C200.788 366.968 200.956 367.037 201.15 367.109L202.56 354.437ZM215.114 367.078C211.188 365.736 208.193 363.264 206.129 359.664L204.718 372.336C204.536 373.976 204.967 374.854 206.01 374.97C206.905 375.069 207.854 374.898 208.859 374.457C209.87 373.966 210.845 373.345 211.783 372.594C212.733 371.744 213.512 370.849 214.119 369.911C214.777 368.978 215.13 368.061 215.18 367.161L215.114 367.078Z" fill="#131313"/>
<path d="M150.512 348.645L150.429 349.39L152.228 349.591L151.098 348.177L150.512 348.645ZM128.448 346.19L128.531 345.444L127.173 345.293L127.775 346.52L128.448 346.19ZM129.384 347.954L128.732 348.325L128.741 348.34L128.75 348.355L129.384 347.954ZM130.419 349.503L129.806 349.936L129.918 350.094L130.092 350.178L130.419 349.503ZM138.385 355.219L137.764 355.64L137.783 355.668L137.805 355.694L138.385 355.219ZM135.757 372.057L135.349 371.427L135.343 371.432L135.336 371.436L135.757 372.057ZM125.967 375.269L125.858 374.527L124.088 374.786L125.514 375.866L125.967 375.269ZM134.248 382.906L133.699 383.418L133.703 383.422L134.248 382.906ZM143.597 393.832L144.342 393.75L144.319 393.537L144.185 393.368L143.597 393.832ZM144.084 398.264L143.472 398.697L145.147 401.064L144.83 398.182L144.084 398.264ZM138.222 391.272L137.681 391.792L137.687 391.799L138.222 391.272ZM130.794 384.786L131.241 384.184L131.231 384.177L130.794 384.786ZM113.692 375.714L112.984 375.961L113.101 376.296L113.434 376.418L113.692 375.714ZM109.859 364.722L110.291 364.109L108.383 362.767L109.151 364.969L109.859 364.722ZM121.18 369.454L121.037 370.19L121.041 370.19L121.18 369.454ZM129.927 368.842L129.672 368.137L129.664 368.14L129.656 368.143L129.927 368.842ZM135.601 362.607L134.856 362.524L134.854 362.543L134.852 362.563L135.601 362.607ZM135.444 359.948L134.706 360.079L134.709 360.098L134.714 360.118L135.444 359.948ZM134.5 357.579L133.859 357.968L133.868 357.983L133.878 357.997L134.5 357.579ZM132.886 355.815L132.444 356.421L132.444 356.421L132.886 355.815ZM129.432 354.977L129.307 354.238L129.291 354.241L129.275 354.244L129.432 354.977ZM128.355 355.16L128.255 354.416L127.675 354.495L127.61 355.077L128.355 355.16ZM125.215 360.319L125.667 360.918L125.675 360.912L125.215 360.319ZM116.121 360.665L115.604 361.208L115.612 361.216L115.621 361.224L116.121 360.665ZM118.575 351.505L118.131 350.901L118.129 350.902L118.575 351.505ZM125.689 349.279L125.677 350.028L126.359 350.04L126.435 349.362L125.689 349.279ZM123.23 345.609L123.748 345.067L123.565 344.892L123.313 344.864L123.23 345.609ZM109.813 344.116L109.227 344.584L109.421 344.827L109.73 344.861L109.813 344.116ZM106.103 339.477L106.186 338.732L104.387 338.532L105.518 339.946L106.103 339.477ZM136.234 342.679L136.265 343.429L136.293 343.428L136.321 343.424L136.234 342.679ZM138.081 342.357L137.91 341.626L137.904 341.628L138.081 342.357ZM138.314 337.553L137.981 338.225L138.005 338.237L138.029 338.247L138.314 337.553ZM136.566 336.981L136.371 337.705L136.398 337.713L136.426 337.718L136.566 336.981ZM131.953 336.392L132.001 335.644L131.999 335.644L131.953 336.392ZM128.35 336.218L128.321 336.967L128.321 336.967L128.35 336.218ZM124.673 336.035L124.72 335.286L124.719 335.286L124.673 336.035ZM113.741 332.554L113.291 333.154L113.293 333.156L113.741 332.554ZM111.332 322.325L110.723 321.889L110.715 321.899L111.332 322.325ZM113.461 320.827L113.257 321.548L113.317 321.565L113.378 321.572L113.461 320.827ZM113.975 320.959L113.714 321.662L113.8 321.694L113.892 321.705L113.975 320.959ZM114.571 321.026L114.934 321.682L116.996 320.541L114.654 320.28L114.571 321.026ZM114.247 328.007L114.712 327.419L114.702 327.411L114.247 328.007ZM121.817 329.831L121.775 330.58L121.785 330.58L121.794 330.581L121.817 329.831ZM129.113 330.039L129.211 329.296L129.172 329.291L129.134 329.29L129.113 330.039ZM140.617 334.489L140.106 335.038L140.113 335.045L140.617 334.489ZM143.299 343.616L142.56 343.486L142.421 344.273L143.216 344.362L143.299 343.616ZM146.802 344.006L147.388 343.538L147.194 343.295L146.885 343.261L146.802 344.006ZM150.595 347.9L128.531 345.444L128.365 346.935L150.429 349.39L150.595 347.9ZM127.775 346.52C128.069 347.12 128.388 347.722 128.732 348.325L130.035 347.583C129.706 347.005 129.401 346.43 129.121 345.86L127.775 346.52ZM128.75 348.355C129.098 348.906 129.451 349.434 129.806 349.936L131.031 349.07C130.691 348.59 130.353 348.084 130.018 347.553L128.75 348.355ZM130.092 350.178C134.13 352.129 136.629 353.964 137.764 355.64L139.006 354.799C137.636 352.775 134.824 350.799 130.745 348.828L130.092 350.178ZM137.805 355.694C139.657 357.957 140.418 360.683 140.057 363.933L141.548 364.098C141.949 360.49 141.099 357.352 138.966 354.744L137.805 355.694ZM140.057 363.933C139.701 367.13 138.149 369.613 135.349 371.427L136.165 372.686C139.329 370.636 141.14 367.758 141.548 364.098L140.057 363.933ZM135.336 371.436C133.239 372.858 130.103 373.905 125.858 374.527L126.075 376.011C130.422 375.375 133.813 374.281 136.178 372.678L135.336 371.436ZM125.514 375.866C128.116 377.839 130.845 380.354 133.699 383.418L134.796 382.395C131.898 379.285 129.106 376.708 126.42 374.671L125.514 375.866ZM133.703 383.422C136.61 386.495 139.712 390.119 143.008 394.297L144.185 393.368C140.868 389.163 137.737 385.503 134.792 382.391L133.703 383.422ZM142.851 393.915L143.339 398.346L144.83 398.182L144.342 393.75L142.851 393.915ZM144.697 397.83C142.934 395.339 140.953 392.978 138.756 390.746L137.687 391.799C139.829 393.974 141.757 396.273 143.472 398.697L144.697 397.83ZM138.763 390.753C136.567 388.466 134.059 386.277 131.241 384.184L130.346 385.388C133.105 387.437 135.549 389.572 137.681 391.792L138.763 390.753ZM131.231 384.177C128.547 382.251 125.741 380.516 122.813 378.97L122.112 380.296C124.981 381.81 127.729 383.51 130.356 385.395L131.231 384.177ZM122.813 378.97C119.886 377.425 116.932 376.105 113.951 375.01L113.434 376.418C116.349 377.489 119.242 378.781 122.112 380.296L122.813 378.97ZM114.4 375.467L110.567 364.476L109.151 364.969L112.984 375.961L114.4 375.467ZM109.428 365.336C112.832 367.731 116.706 369.348 121.037 370.19L121.324 368.717C117.185 367.913 113.511 366.375 110.291 364.109L109.428 365.336ZM121.041 370.19C124.358 370.82 127.419 370.615 130.197 369.542L129.656 368.143C127.178 369.1 124.407 369.303 121.32 368.717L121.041 370.19ZM130.182 369.548C132.065 368.867 133.56 367.964 134.613 366.807C135.676 365.639 136.257 364.243 136.35 362.65L134.852 362.563C134.779 363.819 134.332 364.887 133.503 365.798C132.664 366.72 131.406 367.51 129.672 368.137L130.182 369.548ZM136.347 362.69C136.456 361.71 136.398 360.739 136.175 359.778L134.714 360.118C134.899 360.913 134.946 361.714 134.856 362.524L136.347 362.69ZM136.183 359.817C136.011 358.846 135.658 357.958 135.123 357.161L133.878 357.997C134.292 358.614 134.569 359.305 134.706 360.079L136.183 359.817ZM135.142 357.19C134.666 356.406 134.061 355.743 133.328 355.209L132.444 356.421C133.014 356.836 133.485 357.35 133.859 357.968L135.142 357.19ZM133.328 355.209C132.559 354.648 131.659 354.32 130.65 354.207L130.484 355.698C131.264 355.785 131.91 356.031 132.444 356.421L133.328 355.209ZM130.65 354.207C130.19 354.156 129.741 354.165 129.307 354.238L129.557 355.717C129.841 355.669 130.149 355.661 130.484 355.698L130.65 354.207ZM129.275 354.244C128.989 354.305 128.65 354.363 128.255 354.416L128.456 355.903C128.878 355.846 129.257 355.782 129.589 355.711L129.275 354.244ZM127.61 355.077C127.415 356.826 126.5 358.374 124.756 359.726L125.675 360.912C127.675 359.36 128.853 357.469 129.101 355.242L127.61 355.077ZM124.764 359.72C122.958 361.079 121.215 361.609 119.509 361.419L119.343 362.91C121.513 363.152 123.629 362.451 125.666 360.918L124.764 359.72ZM119.509 361.419C118.427 361.299 117.47 360.868 116.622 360.107L115.621 361.224C116.694 362.186 117.94 362.754 119.343 362.91L119.509 361.419ZM116.639 360.123C115.842 359.362 115.531 358.513 115.642 357.518L114.151 357.352C113.985 358.842 114.49 360.146 115.604 361.208L116.639 360.123ZM115.642 357.518C115.875 355.424 116.966 353.624 119.02 352.109L118.129 350.902C115.798 352.622 114.438 354.775 114.151 357.352L115.642 357.518ZM119.019 352.11C120.964 350.681 123.174 349.986 125.677 350.028L125.702 348.529C122.882 348.481 120.349 349.271 118.131 350.901L119.019 352.11ZM126.435 349.362C126.51 348.691 126.199 347.997 125.764 347.347C125.311 346.671 124.631 345.91 123.748 345.067L122.712 346.151C123.558 346.959 124.151 347.635 124.518 348.182C124.902 348.756 124.958 349.071 124.944 349.196L126.435 349.362ZM123.313 344.864L109.896 343.371L109.73 344.861L123.147 346.354L123.313 344.864ZM110.399 343.648L106.689 339.009L105.518 339.946L109.227 344.584L110.399 343.648ZM106.02 340.223L134.346 343.375L134.511 341.884L106.186 338.732L106.02 340.223ZM134.346 343.375C134.937 343.44 135.577 343.457 136.265 343.429L136.203 341.93C135.577 341.956 135.014 341.94 134.511 341.884L134.346 343.375ZM136.321 343.424C137.01 343.344 137.656 343.232 138.258 343.085L137.904 341.628C137.369 341.758 136.784 341.86 136.147 341.934L136.321 343.424ZM138.252 343.087C139.12 342.883 139.861 342.567 140.415 342.095C140.986 341.608 141.328 340.979 141.411 340.237L139.92 340.071C139.881 340.422 139.732 340.706 139.442 340.954C139.134 341.216 138.643 341.455 137.91 341.626L138.252 343.087ZM141.411 340.237C141.496 339.476 141.239 338.791 140.721 338.218C140.224 337.668 139.492 337.225 138.598 336.859L138.029 338.247C138.82 338.571 139.322 338.907 139.608 339.224C139.875 339.518 139.952 339.788 139.92 340.071L141.411 340.237ZM138.646 336.881C138.054 336.588 137.406 336.377 136.706 336.244L136.426 337.718C137.008 337.828 137.524 337.999 137.981 338.225L138.646 336.881ZM136.762 336.257C136.088 336.075 135.385 335.944 134.653 335.863L134.487 337.353C135.148 337.427 135.775 337.545 136.371 337.705L136.762 336.257ZM134.653 335.863C133.941 335.783 133.056 335.711 132.001 335.644L131.906 337.141C132.948 337.207 133.808 337.278 134.487 337.353L134.653 335.863ZM131.999 335.644C130.992 335.582 129.786 335.524 128.38 335.468L128.321 336.967C129.72 337.022 130.915 337.08 131.908 337.141L131.999 335.644ZM128.38 335.468C126.982 335.413 125.762 335.352 124.72 335.286L124.626 336.783C125.682 336.85 126.914 336.912 128.321 336.967L128.38 335.468ZM124.719 335.286C123.727 335.226 122.893 335.158 122.213 335.082L122.047 336.573C122.76 336.652 123.62 336.722 124.627 336.784L124.719 335.286ZM122.213 335.082C119.211 334.748 116.542 333.705 114.189 331.953L113.293 333.156C115.865 335.071 118.788 336.21 122.047 336.573L122.213 335.082ZM114.191 331.955C111.516 329.946 110.435 327.681 110.719 325.125L109.228 324.959C108.871 328.166 110.301 330.91 113.291 333.154L114.191 331.955ZM110.719 325.125C110.738 324.955 110.824 324.671 111.034 324.251C111.239 323.84 111.542 323.342 111.949 322.752L110.715 321.899C110.284 322.523 109.94 323.085 109.692 323.58C109.45 324.065 109.276 324.533 109.228 324.959L110.719 325.125ZM111.942 322.762C112.338 322.209 112.666 321.87 112.922 321.69C113.046 321.603 113.134 321.567 113.186 321.553C113.233 321.541 113.251 321.546 113.257 321.548L113.666 320.105C113.074 319.937 112.516 320.142 112.058 320.464C111.604 320.783 111.161 321.276 110.723 321.889L111.942 322.762ZM113.378 321.572C113.449 321.58 113.558 321.604 113.714 321.662L114.236 320.256C114.005 320.17 113.772 320.107 113.544 320.081L113.378 321.572ZM113.892 321.705C113.892 321.705 113.893 321.705 113.893 321.705C113.893 321.705 113.894 321.705 113.894 321.705C113.895 321.705 113.895 321.705 113.895 321.705C113.896 321.705 113.896 321.705 113.896 321.705C113.897 321.705 113.897 321.705 113.898 321.705C113.898 321.705 113.898 321.705 113.899 321.705C113.899 321.705 113.9 321.705 113.9 321.705C113.9 321.706 113.901 321.706 113.901 321.706C113.902 321.706 113.902 321.706 113.902 321.706C113.903 321.706 113.903 321.706 113.903 321.706C113.904 321.706 113.904 321.706 113.905 321.706C113.905 321.706 113.905 321.706 113.906 321.706C113.906 321.706 113.907 321.706 113.907 321.706C113.907 321.706 113.908 321.706 113.908 321.706C113.909 321.706 113.909 321.706 113.909 321.707C113.91 321.707 113.91 321.707 113.91 321.707C113.911 321.707 113.911 321.707 113.912 321.707C113.912 321.707 113.912 321.707 113.913 321.707C113.913 321.707 113.914 321.707 113.914 321.707C113.914 321.707 113.915 321.707 113.915 321.707C113.915 321.707 113.916 321.707 113.916 321.707C113.917 321.707 113.917 321.707 113.917 321.707C113.918 321.707 113.918 321.707 113.919 321.708C113.919 321.708 113.919 321.708 113.92 321.708C113.92 321.708 113.921 321.708 113.921 321.708C113.921 321.708 113.922 321.708 113.922 321.708C113.922 321.708 113.923 321.708 113.923 321.708C113.924 321.708 113.924 321.708 113.924 321.708C113.925 321.708 113.925 321.708 113.926 321.708C113.926 321.708 113.926 321.708 113.927 321.708C113.927 321.708 113.928 321.709 113.928 321.709C113.928 321.709 113.929 321.709 113.929 321.709C113.929 321.709 113.93 321.709 113.93 321.709C113.931 321.709 113.931 321.709 113.931 321.709C113.932 321.709 113.932 321.709 113.933 321.709C113.933 321.709 113.933 321.709 113.934 321.709C113.934 321.709 113.935 321.709 113.935 321.709C113.935 321.709 113.936 321.709 113.936 321.709C113.936 321.71 113.937 321.71 113.937 321.71C113.938 321.71 113.938 321.71 113.938 321.71C113.939 321.71 113.939 321.71 113.94 321.71C113.94 321.71 113.94 321.71 113.941 321.71C113.941 321.71 113.942 321.71 113.942 321.71C113.942 321.71 113.943 321.71 113.943 321.71C113.943 321.71 113.944 321.71 113.944 321.71C113.945 321.71 113.945 321.71 113.945 321.711C113.946 321.711 113.946 321.711 113.947 321.711C113.947 321.711 113.947 321.711 113.948 321.711C113.948 321.711 113.948 321.711 113.949 321.711C113.949 321.711 113.95 321.711 113.95 321.711C113.95 321.711 113.951 321.711 113.951 321.711C113.952 321.711 113.952 321.711 113.952 321.711C113.953 321.711 113.953 321.711 113.954 321.711C113.954 321.711 113.954 321.712 113.955 321.712C113.955 321.712 113.955 321.712 113.956 321.712C113.956 321.712 113.957 321.712 113.957 321.712C113.957 321.712 113.958 321.712 113.958 321.712C113.959 321.712 113.959 321.712 113.959 321.712C113.96 321.712 113.96 321.712 113.961 321.712C113.961 321.712 113.961 321.712 113.962 321.712C113.962 321.712 113.962 321.712 113.963 321.712C113.963 321.713 113.964 321.713 113.964 321.713C113.964 321.713 113.965 321.713 113.965 321.713C113.966 321.713 113.966 321.713 113.966 321.713C113.967 321.713 113.967 321.713 113.968 321.713C113.968 321.713 113.968 321.713 113.969 321.713C113.969 321.713 113.969 321.713 113.97 321.713C113.97 321.713 113.971 321.713 113.971 321.713C113.971 321.713 113.972 321.713 113.972 321.713C113.973 321.714 113.973 321.714 113.973 321.714C113.974 321.714 113.974 321.714 113.975 321.714C113.975 321.714 113.975 321.714 113.976 321.714C113.976 321.714 113.976 321.714 113.977 321.714C113.977 321.714 113.978 321.714 113.978 321.714C113.978 321.714 113.979 321.714 113.979 321.714C113.98 321.714 113.98 321.714 113.98 321.714C113.981 321.714 113.981 321.714 113.981 321.715C113.982 321.715 113.982 321.715 113.983 321.715C113.983 321.715 113.983 321.715 113.984 321.715C113.984 321.715 113.985 321.715 113.985 321.715C113.985 321.715 113.986 321.715 113.986 321.715C113.987 321.715 113.987 321.715 113.987 321.715C113.988 321.715 113.988 321.715 113.988 321.715C113.989 321.715 113.989 321.715 113.99 321.715C113.99 321.715 113.99 321.716 113.991 321.716C113.991 321.716 113.992 321.716 113.992 321.716C113.992 321.716 113.993 321.716 113.993 321.716C113.994 321.716 113.994 321.716 113.994 321.716C113.995 321.716 113.995 321.716 113.995 321.716C113.996 321.716 113.996 321.716 113.997 321.716C113.997 321.716 113.997 321.716 113.998 321.716C113.998 321.716 113.999 321.716 113.999 321.716C113.999 321.717 114 321.717 114 321.717C114.001 321.717 114.001 321.717 114.001 321.717C114.002 321.717 114.002 321.717 114.002 321.717C114.003 321.717 114.003 321.717 114.004 321.717C114.004 321.717 114.004 321.717 114.005 321.717C114.005 321.717 114.006 321.717 114.006 321.717C114.006 321.717 114.007 321.717 114.007 321.717C114.008 321.717 114.008 321.717 114.008 321.718C114.009 321.718 114.009 321.718 114.009 321.718C114.01 321.718 114.01 321.718 114.011 321.718C114.011 321.718 114.011 321.718 114.012 321.718C114.012 321.718 114.013 321.718 114.013 321.718C114.013 321.718 114.014 321.718 114.014 321.718C114.014 321.718 114.015 321.718 114.015 321.718C114.016 321.718 114.016 321.718 114.016 321.718C114.017 321.718 114.017 321.719 114.018 321.719C114.018 321.719 114.018 321.719 114.019 321.719C114.019 321.719 114.02 321.719 114.02 321.719C114.02 321.719 114.021 321.719 114.021 321.719C114.021 321.719 114.022 321.719 114.022 321.719C114.023 321.719 114.023 321.719 114.023 321.719C114.024 321.719 114.024 321.719 114.025 321.719C114.025 321.719 114.025 321.719 114.026 321.719C114.026 321.72 114.027 321.72 114.027 321.72C114.027 321.72 114.028 321.72 114.028 321.72C114.028 321.72 114.029 321.72 114.029 321.72C114.03 321.72 114.03 321.72 114.03 321.72C114.031 321.72 114.031 321.72 114.032 321.72C114.032 321.72 114.032 321.72 114.033 321.72C114.033 321.72 114.034 321.72 114.034 321.72C114.034 321.72 114.035 321.72 114.035 321.72C114.035 321.721 114.036 321.721 114.036 321.721C114.037 321.721 114.037 321.721 114.037 321.721C114.038 321.721 114.038 321.721 114.039 321.721C114.039 321.721 114.039 321.721 114.04 321.721C114.04 321.721 114.041 321.721 114.041 321.721C114.041 321.721 114.042 321.721 114.042 321.721C114.042 321.721 114.043 321.721 114.043 321.721C114.044 321.721 114.044 321.721 114.044 321.722C114.045 321.722 114.045 321.722 114.046 321.722C114.046 321.722 114.046 321.722 114.047 321.722C114.047 321.722 114.047 321.722 114.048 321.722C114.048 321.722 114.049 321.722 114.049 321.722C114.049 321.722 114.05 321.722 114.05 321.722C114.051 321.722 114.051 321.722 114.051 321.722C114.052 321.722 114.052 321.722 114.053 321.722C114.053 321.722 114.053 321.723 114.054 321.723C114.054 321.723 114.054 321.723 114.055 321.723C114.055 321.723 114.056 321.723 114.056 321.723C114.056 321.723 114.057 321.723 114.057 321.723C114.058 321.723 114.058 321.723 114.058 321.723C114.059 321.723 114.059 321.723 114.06 321.723C114.06 321.723 114.06 321.723 114.061 321.723C114.061 321.723 114.061 321.723 114.062 321.723C114.062 321.724 114.063 321.724 114.063 321.724C114.063 321.724 114.064 321.724 114.064 321.724C114.065 321.724 114.065 321.724 114.065 321.724C114.066 321.724 114.066 321.724 114.067 321.724C114.067 321.724 114.067 321.724 114.068 321.724C114.068 321.724 114.068 321.724 114.069 321.724C114.069 321.724 114.07 321.724 114.07 321.724C114.07 321.724 114.071 321.724 114.071 321.725C114.072 321.725 114.072 321.725 114.072 321.725C114.073 321.725 114.073 321.725 114.074 321.725C114.074 321.725 114.074 321.725 114.075 321.725C114.075 321.725 114.075 321.725 114.076 321.725C114.076 321.725 114.077 321.725 114.077 321.725C114.077 321.725 114.078 321.725 114.078 321.725C114.079 321.725 114.079 321.725 114.079 321.725C114.08 321.725 114.08 321.726 114.08 321.726C114.081 321.726 114.081 321.726 114.082 321.726C114.082 321.726 114.082 321.726 114.083 321.726C114.083 321.726 114.084 321.726 114.084 321.726C114.084 321.726 114.085 321.726 114.085 321.726C114.086 321.726 114.086 321.726 114.086 321.726C114.087 321.726 114.087 321.726 114.087 321.726C114.088 321.726 114.088 321.726 114.089 321.726C114.089 321.727 114.089 321.727 114.09 321.727C114.09 321.727 114.091 321.727 114.091 321.727C114.091 321.727 114.092 321.727 114.092 321.727C114.093 321.727 114.093 321.727 114.093 321.727C114.094 321.727 114.094 321.727 114.094 321.727C114.095 321.727 114.095 321.727 114.096 321.727C114.096 321.727 114.096 321.727 114.097 321.727C114.097 321.727 114.098 321.727 114.098 321.727C114.098 321.728 114.099 321.728 114.099 321.728C114.1 321.728 114.1 321.728 114.1 321.728C114.101 321.728 114.101 321.728 114.101 321.728C114.102 321.728 114.102 321.728 114.103 321.728C114.103 321.728 114.103 321.728 114.104 321.728C114.104 321.728 114.105 321.728 114.105 321.728C114.105 321.728 114.106 321.728 114.106 321.728C114.107 321.728 114.107 321.728 114.107 321.729C114.108 321.729 114.108 321.729 114.108 321.729C114.109 321.729 114.109 321.729 114.11 321.729C114.11 321.729 114.11 321.729 114.111 321.729C114.111 321.729 114.112 321.729 114.112 321.729C114.112 321.729 114.113 321.729 114.113 321.729C114.113 321.729 114.114 321.729 114.114 321.729C114.115 321.729 114.115 321.729 114.115 321.729C114.116 321.729 114.116 321.73 114.117 321.73C114.117 321.73 114.117 321.73 114.118 321.73C114.118 321.73 114.119 321.73 114.119 321.73C114.119 321.73 114.12 321.73 114.12 321.73C114.12 321.73 114.121 321.73 114.121 321.73C114.122 321.73 114.122 321.73 114.122 321.73C114.123 321.73 114.123 321.73 114.124 321.73C114.124 321.73 114.124 321.73 114.125 321.73C114.125 321.731 114.126 321.731 114.126 321.731C114.126 321.731 114.127 321.731 114.127 321.731C114.127 321.731 114.128 321.731 114.128 321.731C114.129 321.731 114.129 321.731 114.129 321.731C114.13 321.731 114.13 321.731 114.131 321.731C114.131 321.731 114.131 321.731 114.132 321.731C114.132 321.731 114.133 321.731 114.133 321.731C114.133 321.731 114.134 321.731 114.134 321.732C114.134 321.732 114.135 321.732 114.135 321.732C114.136 321.732 114.136 321.732 114.136 321.732C114.137 321.732 114.137 321.732 114.138 321.732C114.138 321.732 114.138 321.732 114.139 321.732C114.139 321.732 114.14 321.732 114.14 321.732C114.14 321.732 114.141 321.732 114.141 321.732C114.141 321.732 114.142 321.732 114.142 321.732C114.143 321.732 114.143 321.733 114.143 321.733C114.144 321.733 114.144 321.733 114.145 321.733C114.145 321.733 114.145 321.733 114.146 321.733C114.146 321.733 114.146 321.733 114.147 321.733C114.147 321.733 114.148 321.733 114.148 321.733C114.148 321.733 114.149 321.733 114.149 321.733C114.15 321.733 114.15 321.733 114.15 321.733C114.151 321.733 114.151 321.733 114.152 321.733C114.152 321.734 114.152 321.734 114.153 321.734C114.153 321.734 114.153 321.734 114.154 321.734C114.154 321.734 114.155 321.734 114.155 321.734C114.155 321.734 114.156 321.734 114.156 321.734C114.157 321.734 114.157 321.734 114.157 321.734C114.158 321.734 114.158 321.734 114.159 321.734C114.159 321.734 114.159 321.734 114.16 321.734C114.16 321.734 114.16 321.734 114.161 321.734C114.161 321.735 114.162 321.735 114.162 321.735C114.162 321.735 114.163 321.735 114.163 321.735C114.164 321.735 114.164 321.735 114.164 321.735C114.165 321.735 114.165 321.735 114.166 321.735C114.166 321.735 114.166 321.735 114.167 321.735C114.167 321.735 114.167 321.735 114.168 321.735C114.168 321.735 114.169 321.735 114.169 321.735C114.169 321.735 114.17 321.735 114.17 321.736C114.171 321.736 114.171 321.736 114.171 321.736C114.172 321.736 114.172 321.736 114.173 321.736C114.173 321.736 114.173 321.736 114.174 321.736C114.174 321.736 114.174 321.736 114.175 321.736C114.175 321.736 114.176 321.736 114.176 321.736C114.176 321.736 114.177 321.736 114.177 321.736C114.178 321.736 114.178 321.736 114.178 321.736C114.179 321.736 114.179 321.737 114.179 321.737C114.18 321.737 114.18 321.737 114.181 321.737C114.181 321.737 114.181 321.737 114.182 321.737C114.182 321.737 114.183 321.737 114.183 321.737C114.183 321.737 114.184 321.737 114.184 321.737C114.185 321.737 114.185 321.737 114.185 321.737C114.186 321.737 114.186 321.737 114.186 321.737C114.187 321.737 114.187 321.737 114.188 321.737C114.188 321.738 114.188 321.738 114.189 321.738C114.189 321.738 114.19 321.738 114.19 321.738C114.19 321.738 114.191 321.738 114.191 321.738C114.192 321.738 114.192 321.738 114.192 321.738C114.193 321.738 114.193 321.738 114.193 321.738C114.194 321.738 114.194 321.738 114.195 321.738C114.195 321.738 114.195 321.738 114.196 321.738C114.196 321.738 114.197 321.738 114.197 321.739C114.197 321.739 114.198 321.739 114.198 321.739C114.199 321.739 114.199 321.739 114.199 321.739C114.2 321.739 114.2 321.739 114.2 321.739C114.201 321.739 114.201 321.739 114.202 321.739C114.202 321.739 114.202 321.739 114.203 321.739C114.203 321.739 114.204 321.739 114.204 321.739C114.204 321.739 114.205 321.739 114.205 321.739C114.206 321.739 114.206 321.74 114.206 321.74C114.207 321.74 114.207 321.74 114.207 321.74C114.208 321.74 114.208 321.74 114.209 321.74C114.209 321.74 114.209 321.74 114.21 321.74C114.21 321.74 114.211 321.74 114.211 321.74C114.211 321.74 114.212 321.74 114.212 321.74C114.212 321.74 114.213 321.74 114.213 321.74C114.214 321.74 114.214 321.74 114.214 321.74C114.215 321.741 114.215 321.741 114.216 321.741C114.216 321.741 114.216 321.741 114.217 321.741C114.217 321.741 114.218 321.741 114.218 321.741C114.218 321.741 114.219 321.741 114.219 321.741C114.219 321.741 114.22 321.741 114.22 321.741C114.221 321.741 114.221 321.741 114.221 321.741C114.222 321.741 114.222 321.741 114.223 321.741C114.223 321.741 114.223 321.741 114.224 321.741C114.224 321.742 114.225 321.742 114.225 321.742C114.225 321.742 114.226 321.742 114.226 321.742C114.226 321.742 114.227 321.742 114.227 321.742C114.228 321.742 114.228 321.742 114.228 321.742C114.229 321.742 114.229 321.742 114.23 321.742C114.23 321.742 114.23 321.742 114.231 321.742C114.231 321.742 114.232 321.742 114.232 321.742C114.232 321.742 114.233 321.742 114.233 321.743C114.233 321.743 114.234 321.743 114.234 321.743C114.235 321.743 114.235 321.743 114.235 321.743C114.236 321.743 114.236 321.743 114.237 321.743C114.237 321.743 114.237 321.743 114.238 321.743C114.238 321.743 114.239 321.743 114.239 321.743C114.239 321.743 114.24 321.743 114.24 321.743C114.24 321.743 114.241 321.743 114.241 321.743C114.242 321.743 114.242 321.744 114.242 321.744C114.243 321.744 114.243 321.744 114.244 321.744C114.244 321.744 114.244 321.744 114.245 321.744C114.245 321.744 114.245 321.744 114.246 321.744C114.246 321.744 114.247 321.744 114.247 321.744C114.247 321.744 114.248 321.744 114.248 321.744C114.249 321.744 114.249 321.744 114.249 321.744C114.25 321.744 114.25 321.744 114.251 321.744C114.251 321.745 114.251 321.745 114.252 321.745C114.252 321.745 114.252 321.745 114.253 321.745C114.253 321.745 114.254 321.745 114.254 321.745C114.254 321.745 114.255 321.745 114.255 321.745C114.256 321.745 114.256 321.745 114.256 321.745C114.257 321.745 114.257 321.745 114.258 321.745C114.258 321.745 114.258 321.745 114.259 321.745C114.259 321.745 114.259 321.745 114.26 321.746C114.26 321.746 114.261 321.746 114.261 321.746C114.261 321.746 114.262 321.746 114.262 321.746C114.263 321.746 114.263 321.746 114.263 321.746C114.264 321.746 114.264 321.746 114.265 321.746C114.265 321.746 114.265 321.746 114.266 321.746C114.266 321.746 114.266 321.746 114.267 321.746C114.267 321.746 114.268 321.746 114.268 321.746C114.268 321.746 114.269 321.747 114.269 321.747C114.27 321.747 114.27 321.747 114.27 321.747C114.271 321.747 114.271 321.747 114.272 321.747C114.272 321.747 114.272 321.747 114.273 321.747C114.273 321.747 114.273 321.747 114.274 321.747C114.274 321.747 114.275 321.747 114.275 321.747C114.275 321.747 114.276 321.747 114.276 321.747C114.277 321.747 114.277 321.747 114.277 321.747C114.278 321.748 114.278 321.748 114.278 321.748C114.279 321.748 114.279 321.748 114.28 321.748C114.28 321.748 114.28 321.748 114.281 321.748C114.281 321.748 114.282 321.748 114.282 321.748C114.282 321.748 114.283 321.748 114.283 321.748C114.284 321.748 114.284 321.748 114.284 321.748C114.285 321.748 114.285 321.748 114.285 321.748C114.286 321.748 114.286 321.748 114.287 321.748C114.287 321.749 114.287 321.749 114.288 321.749C114.288 321.749 114.289 321.749 114.289 321.749C114.289 321.749 114.29 321.749 114.29 321.749C114.291 321.749 114.291 321.749 114.291 321.749C114.292 321.749 114.292 321.749 114.292 321.749C114.293 321.749 114.293 321.749 114.294 321.749C114.294 321.749 114.294 321.749 114.295 321.749C114.295 321.749 114.296 321.749 114.296 321.75C114.296 321.75 114.297 321.75 114.297 321.75C114.298 321.75 114.298 321.75 114.298 321.75C114.299 321.75 114.299 321.75 114.299 321.75C114.3 321.75 114.3 321.75 114.301 321.75C114.301 321.75 114.301 321.75 114.302 321.75C114.302 321.75 114.303 321.75 114.303 321.75C114.303 321.75 114.304 321.75 114.304 321.75C114.305 321.75 114.305 321.751 114.305 321.751C114.306 321.751 114.306 321.751 114.306 321.751C114.307 321.751 114.307 321.751 114.308 321.751C114.308 321.751 114.308 321.751 114.309 321.751C114.309 321.751 114.31 321.751 114.31 321.751C114.31 321.751 114.311 321.751 114.311 321.751C114.311 321.751 114.312 321.751 114.312 321.751C114.313 321.751 114.313 321.751 114.313 321.751C114.314 321.752 114.314 321.752 114.315 321.752C114.315 321.752 114.315 321.752 114.316 321.752C114.316 321.752 114.317 321.752 114.317 321.752C114.317 321.752 114.318 321.752 114.318 321.752C114.318 321.752 114.319 321.752 114.319 321.752C114.32 321.752 114.32 321.752 114.32 321.752C114.321 321.752 114.321 321.752 114.322 321.752C114.322 321.752 114.322 321.752 114.323 321.753C114.323 321.753 114.324 321.753 114.324 321.753C114.324 321.753 114.325 321.753 114.325 321.753C114.325 321.753 114.326 321.753 114.326 321.753C114.327 321.753 114.327 321.753 114.327 321.753C114.328 321.753 114.328 321.753 114.329 321.753C114.329 321.753 114.329 321.753 114.33 321.753C114.33 321.753 114.331 321.753 114.331 321.753C114.331 321.753 114.332 321.754 114.332 321.754C114.332 321.754 114.333 321.754 114.333 321.754C114.334 321.754 114.334 321.754 114.334 321.754C114.335 321.754 114.335 321.754 114.336 321.754C114.336 321.754 114.336 321.754 114.337 321.754C114.337 321.754 114.338 321.754 114.338 321.754C114.338 321.754 114.339 321.754 114.339 321.754C114.339 321.754 114.34 321.754 114.34 321.754C114.341 321.754 114.341 321.755 114.341 321.755C114.342 321.755 114.342 321.755 114.343 321.755C114.343 321.755 114.343 321.755 114.344 321.755C114.344 321.755 114.344 321.755 114.345 321.755C114.345 321.755 114.346 321.755 114.346 321.755C114.346 321.755 114.347 321.755 114.347 321.755C114.348 321.755 114.348 321.755 114.348 321.755C114.349 321.755 114.349 321.755 114.35 321.755C114.35 321.756 114.35 321.756 114.351 321.756C114.351 321.756 114.351 321.756 114.352 321.756C114.352 321.756 114.353 321.756 114.353 321.756C114.353 321.756 114.354 321.756 114.354 321.756C114.355 321.756 114.355 321.756 114.355 321.756C114.356 321.756 114.356 321.756 114.357 321.756C114.357 321.756 114.357 321.756 114.358 321.756C114.358 321.756 114.358 321.756 114.359 321.757C114.359 321.757 114.36 321.757 114.36 321.757C114.36 321.757 114.361 321.757 114.361 321.757C114.362 321.757 114.362 321.757 114.362 321.757C114.363 321.757 114.363 321.757 114.364 321.757C114.364 321.757 114.364 321.757 114.365 321.757C114.365 321.757 114.365 321.757 114.366 321.757C114.366 321.757 114.367 321.757 114.367 321.757C114.367 321.757 114.368 321.758 114.368 321.758C114.369 321.758 114.369 321.758 114.369 321.758C114.37 321.758 114.37 321.758 114.371 321.758C114.371 321.758 114.371 321.758 114.372 321.758C114.372 321.758 114.372 321.758 114.373 321.758C114.373 321.758 114.374 321.758 114.374 321.758C114.374 321.758 114.375 321.758 114.375 321.758C114.376 321.758 114.376 321.758 114.376 321.758C114.377 321.759 114.377 321.759 114.377 321.759C114.378 321.759 114.378 321.759 114.379 321.759C114.379 321.759 114.379 321.759 114.38 321.759C114.38 321.759 114.381 321.759 114.381 321.759C114.381 321.759 114.382 321.759 114.382 321.759C114.383 321.759 114.383 321.759 114.383 321.759C114.384 321.759 114.384 321.759 114.384 321.759C114.385 321.759 114.385 321.759 114.386 321.76C114.386 321.76 114.386 321.76 114.387 321.76C114.387 321.76 114.388 321.76 114.388 321.76C114.388 321.76 114.389 321.76 114.389 321.76C114.39 321.76 114.39 321.76 114.39 321.76C114.391 321.76 114.391 321.76 114.391 321.76C114.392 321.76 114.392 321.76 114.393 321.76C114.393 321.76 114.393 321.76 114.394 321.76C114.394 321.76 114.395 321.761 114.395 321.761C114.395 321.761 114.396 321.761 114.396 321.761C114.397 321.761 114.397 321.761 114.397 321.761C114.398 321.761 114.398 321.761 114.398 321.761C114.399 321.761 114.399 321.761 114.4 321.761C114.4 321.761 114.4 321.761 114.401 321.761C114.401 321.761 114.402 321.761 114.402 321.761C114.402 321.761 114.403 321.761 114.403 321.761C114.404 321.761 114.404 321.762 114.404 321.762C114.405 321.762 114.405 321.762 114.405 321.762C114.406 321.762 114.406 321.762 114.407 321.762C114.407 321.762 114.407 321.762 114.408 321.762C114.408 321.762 114.409 321.762 114.409 321.762C114.409 321.762 114.41 321.762 114.41 321.762C114.41 321.762 114.411 321.762 114.411 321.762C114.412 321.762 114.412 321.762 114.412 321.762C114.413 321.763 114.413 321.763 114.414 321.763C114.414 321.763 114.414 321.763 114.415 321.763C114.415 321.763 114.416 321.763 114.416 321.763C114.416 321.763 114.417 321.763 114.417 321.763C114.417 321.763 114.418 321.763 114.418 321.763C114.419 321.763 114.419 321.763 114.419 321.763C114.42 321.763 114.42 321.763 114.421 321.763C114.421 321.763 114.421 321.763 114.422 321.764C114.422 321.764 114.423 321.764 114.423 321.764C114.423 321.764 114.424 321.764 114.424 321.764C114.424 321.764 114.425 321.764 114.425 321.764C114.426 321.764 114.426 321.764 114.426 321.764C114.427 321.764 114.427 321.764 114.428 321.764C114.428 321.764 114.428 321.764 114.429 321.764C114.429 321.764 114.43 321.764 114.43 321.764C114.43 321.764 114.431 321.765 114.431 321.765C114.431 321.765 114.432 321.765 114.432 321.765C114.433 321.765 114.433 321.765 114.433 321.765C114.434 321.765 114.434 321.765 114.435 321.765C114.435 321.765 114.435 321.765 114.436 321.765C114.436 321.765 114.437 321.765 114.437 321.765C114.437 321.765 114.438 321.765 114.438 321.765C114.438 321.765 114.439 321.765 114.439 321.765C114.44 321.766 114.44 321.766 114.44 321.766C114.441 321.766 114.441 321.766 114.442 321.766C114.442 321.766 114.442 321.766 114.443 321.766C114.443 321.766 114.443 321.766 114.444 321.766C114.444 321.766 114.445 321.766 114.445 321.766C114.445 321.766 114.446 321.766 114.446 321.766C114.447 321.766 114.447 321.766 114.447 321.766C114.448 321.766 114.448 321.766 114.449 321.767C114.449 321.767 114.449 321.767 114.45 321.767C114.45 321.767 114.45 321.767 114.451 321.767C114.451 321.767 114.452 321.767 114.452 321.767C114.452 321.767 114.453 321.767 114.453 321.767C114.454 321.767 114.454 321.767 114.454 321.767C114.455 321.767 114.455 321.767 114.456 321.767C114.456 321.767 114.456 321.767 114.457 321.767C114.457 321.767 114.457 321.768 114.458 321.768C114.458 321.768 114.459 321.768 114.459 321.768C114.459 321.768 114.46 321.768 114.46 321.768C114.461 321.768 114.461 321.768 114.461 321.768C114.462 321.768 114.462 321.768 114.463 321.768C114.463 321.768 114.463 321.768 114.464 321.768C114.464 321.768 114.464 321.768 114.465 321.768C114.465 321.768 114.466 321.768 114.466 321.768C114.466 321.768 114.467 321.769 114.467 321.769C114.468 321.769 114.468 321.769 114.468 321.769C114.469 321.769 114.469 321.769 114.47 321.769C114.47 321.769 114.47 321.769 114.471 321.769C114.471 321.769 114.471 321.769 114.472 321.769C114.472 321.769 114.473 321.769 114.473 321.769C114.473 321.769 114.474 321.769 114.474 321.769C114.475 321.769 114.475 321.769 114.475 321.769C114.476 321.77 114.476 321.77 114.476 321.77C114.477 321.77 114.477 321.77 114.478 321.77C114.478 321.77 114.478 321.77 114.479 321.77C114.479 321.77 114.48 321.77 114.48 321.77C114.48 321.77 114.481 321.77 114.481 321.77C114.482 321.77 114.482 321.77 114.482 321.77C114.483 321.77 114.483 321.77 114.483 321.77C114.484 321.77 114.484 321.77 114.485 321.771C114.485 321.771 114.485 321.771 114.486 321.771C114.486 321.771 114.487 321.771 114.487 321.771C114.487 321.771 114.488 321.771 114.488 321.771L114.654 320.28C114.654 320.28 114.653 320.28 114.653 320.28C114.652 320.28 114.652 320.28 114.652 320.28C114.651 320.28 114.651 320.28 114.651 320.28C114.65 320.28 114.65 320.28 114.649 320.28C114.649 320.28 114.649 320.28 114.648 320.279C114.648 320.279 114.647 320.279 114.647 320.279C114.647 320.279 114.646 320.279 114.646 320.279C114.645 320.279 114.645 320.279 114.645 320.279C114.644 320.279 114.644 320.279 114.644 320.279C114.643 320.279 114.643 320.279 114.642 320.279C114.642 320.279 114.642 320.279 114.641 320.279C114.641 320.279 114.64 320.279 114.64 320.279C114.64 320.279 114.639 320.278 114.639 320.278C114.639 320.278 114.638 320.278 114.638 320.278C114.637 320.278 114.637 320.278 114.637 320.278C114.636 320.278 114.636 320.278 114.635 320.278C114.635 320.278 114.635 320.278 114.634 320.278C114.634 320.278 114.633 320.278 114.633 320.278C114.633 320.278 114.632 320.278 114.632 320.278C114.632 320.278 114.631 320.278 114.631 320.278C114.63 320.277 114.63 320.277 114.63 320.277C114.629 320.277 114.629 320.277 114.628 320.277C114.628 320.277 114.628 320.277 114.627 320.277C114.627 320.277 114.626 320.277 114.626 320.277C114.626 320.277 114.625 320.277 114.625 320.277C114.625 320.277 114.624 320.277 114.624 320.277C114.623 320.277 114.623 320.277 114.623 320.277C114.622 320.277 114.622 320.277 114.621 320.276C114.621 320.276 114.621 320.276 114.62 320.276C114.62 320.276 114.619 320.276 114.619 320.276C114.619 320.276 114.618 320.276 114.618 320.276C114.618 320.276 114.617 320.276 114.617 320.276C114.616 320.276 114.616 320.276 114.616 320.276C114.615 320.276 114.615 320.276 114.614 320.276C114.614 320.276 114.614 320.276 114.613 320.276C114.613 320.276 114.612 320.275 114.612 320.275C114.612 320.275 114.611 320.275 114.611 320.275C114.611 320.275 114.61 320.275 114.61 320.275C114.609 320.275 114.609 320.275 114.609 320.275C114.608 320.275 114.608 320.275 114.607 320.275C114.607 320.275 114.607 320.275 114.606 320.275C114.606 320.275 114.606 320.275 114.605 320.275C114.605 320.275 114.604 320.275 114.604 320.275C114.604 320.275 114.603 320.274 114.603 320.274C114.602 320.274 114.602 320.274 114.602 320.274C114.601 320.274 114.601 320.274 114.6 320.274C114.6 320.274 114.6 320.274 114.599 320.274C114.599 320.274 114.599 320.274 114.598 320.274C114.598 320.274 114.597 320.274 114.597 320.274C114.597 320.274 114.596 320.274 114.596 320.274C114.595 320.274 114.595 320.274 114.595 320.274C114.594 320.273 114.594 320.273 114.593 320.273C114.593 320.273 114.593 320.273 114.592 320.273C114.592 320.273 114.592 320.273 114.591 320.273C114.591 320.273 114.59 320.273 114.59 320.273C114.59 320.273 114.589 320.273 114.589 320.273C114.588 320.273 114.588 320.273 114.588 320.273C114.587 320.273 114.587 320.273 114.586 320.273C114.586 320.273 114.586 320.273 114.585 320.272C114.585 320.272 114.585 320.272 114.584 320.272C114.584 320.272 114.583 320.272 114.583 320.272C114.583 320.272 114.582 320.272 114.582 320.272C114.581 320.272 114.581 320.272 114.581 320.272C114.58 320.272 114.58 320.272 114.579 320.272C114.579 320.272 114.579 320.272 114.578 320.272C114.578 320.272 114.578 320.272 114.577 320.272C114.577 320.272 114.576 320.271 114.576 320.271C114.576 320.271 114.575 320.271 114.575 320.271C114.574 320.271 114.574 320.271 114.574 320.271C114.573 320.271 114.573 320.271 114.573 320.271C114.572 320.271 114.572 320.271 114.571 320.271C114.571 320.271 114.571 320.271 114.57 320.271C114.57 320.271 114.569 320.271 114.569 320.271C114.569 320.271 114.568 320.271 114.568 320.271C114.567 320.27 114.567 320.27 114.567 320.27C114.566 320.27 114.566 320.27 114.566 320.27C114.565 320.27 114.565 320.27 114.564 320.27C114.564 320.27 114.564 320.27 114.563 320.27C114.563 320.27 114.562 320.27 114.562 320.27C114.562 320.27 114.561 320.27 114.561 320.27C114.56 320.27 114.56 320.27 114.56 320.27C114.559 320.27 114.559 320.27 114.559 320.269C114.558 320.269 114.558 320.269 114.557 320.269C114.557 320.269 114.557 320.269 114.556 320.269C114.556 320.269 114.555 320.269 114.555 320.269C114.555 320.269 114.554 320.269 114.554 320.269C114.553 320.269 114.553 320.269 114.553 320.269C114.552 320.269 114.552 320.269 114.552 320.269C114.551 320.269 114.551 320.269 114.55 320.269C114.55 320.269 114.55 320.268 114.549 320.268C114.549 320.268 114.548 320.268 114.548 320.268C114.548 320.268 114.547 320.268 114.547 320.268C114.546 320.268 114.546 320.268 114.546 320.268C114.545 320.268 114.545 320.268 114.545 320.268C114.544 320.268 114.544 320.268 114.543 320.268C114.543 320.268 114.543 320.268 114.542 320.268C114.542 320.268 114.541 320.268 114.541 320.268C114.541 320.268 114.54 320.267 114.54 320.267C114.54 320.267 114.539 320.267 114.539 320.267C114.538 320.267 114.538 320.267 114.538 320.267C114.537 320.267 114.537 320.267 114.536 320.267C114.536 320.267 114.536 320.267 114.535 320.267C114.535 320.267 114.534 320.267 114.534 320.267C114.534 320.267 114.533 320.267 114.533 320.267C114.533 320.267 114.532 320.267 114.532 320.267C114.531 320.266 114.531 320.266 114.531 320.266C114.53 320.266 114.53 320.266 114.529 320.266C114.529 320.266 114.529 320.266 114.528 320.266C114.528 320.266 114.527 320.266 114.527 320.266C114.527 320.266 114.526 320.266 114.526 320.266C114.526 320.266 114.525 320.266 114.525 320.266C114.524 320.266 114.524 320.266 114.524 320.266C114.523 320.266 114.523 320.266 114.522 320.265C114.522 320.265 114.522 320.265 114.521 320.265C114.521 320.265 114.52 320.265 114.52 320.265C114.52 320.265 114.519 320.265 114.519 320.265C114.519 320.265 114.518 320.265 114.518 320.265C114.517 320.265 114.517 320.265 114.517 320.265C114.516 320.265 114.516 320.265 114.515 320.265C114.515 320.265 114.515 320.265 114.514 320.265C114.514 320.265 114.513 320.264 114.513 320.264C114.513 320.264 114.512 320.264 114.512 320.264C114.512 320.264 114.511 320.264 114.511 320.264C114.51 320.264 114.51 320.264 114.51 320.264C114.509 320.264 114.509 320.264 114.508 320.264C114.508 320.264 114.508 320.264 114.507 320.264C114.507 320.264 114.507 320.264 114.506 320.264C114.506 320.264 114.505 320.264 114.505 320.264C114.505 320.263 114.504 320.263 114.504 320.263C114.503 320.263 114.503 320.263 114.503 320.263C114.502 320.263 114.502 320.263 114.501 320.263C114.501 320.263 114.501 320.263 114.5 320.263C114.5 320.263 114.5 320.263 114.499 320.263C114.499 320.263 114.498 320.263 114.498 320.263C114.498 320.263 114.497 320.263 114.497 320.263C114.496 320.263 114.496 320.263 114.496 320.262C114.495 320.262 114.495 320.262 114.494 320.262C114.494 320.262 114.494 320.262 114.493 320.262C114.493 320.262 114.493 320.262 114.492 320.262C114.492 320.262 114.491 320.262 114.491 320.262C114.491 320.262 114.49 320.262 114.49 320.262C114.489 320.262 114.489 320.262 114.489 320.262C114.488 320.262 114.488 320.262 114.487 320.262C114.487 320.262 114.487 320.261 114.486 320.261C114.486 320.261 114.486 320.261 114.485 320.261C114.485 320.261 114.484 320.261 114.484 320.261C114.484 320.261 114.483 320.261 114.483 320.261C114.482 320.261 114.482 320.261 114.482 320.261C114.481 320.261 114.481 320.261 114.481 320.261C114.48 320.261 114.48 320.261 114.479 320.261C114.479 320.261 114.479 320.261 114.478 320.261C114.478 320.261 114.477 320.26 114.477 320.26C114.477 320.26 114.476 320.26 114.476 320.26C114.475 320.26 114.475 320.26 114.475 320.26C114.474 320.26 114.474 320.26 114.474 320.26C114.473 320.26 114.473 320.26 114.472 320.26C114.472 320.26 114.472 320.26 114.471 320.26C114.471 320.26 114.47 320.26 114.47 320.26C114.47 320.26 114.469 320.26 114.469 320.26C114.468 320.259 114.468 320.259 114.468 320.259C114.467 320.259 114.467 320.259 114.467 320.259C114.466 320.259 114.466 320.259 114.465 320.259C114.465 320.259 114.465 320.259 114.464 320.259C114.464 320.259 114.463 320.259 114.463 320.259C114.463 320.259 114.462 320.259 114.462 320.259C114.461 320.259 114.461 320.259 114.461 320.259C114.46 320.259 114.46 320.259 114.46 320.258C114.459 320.258 114.459 320.258 114.458 320.258C114.458 320.258 114.458 320.258 114.457 320.258C114.457 320.258 114.456 320.258 114.456 320.258C114.456 320.258 114.455 320.258 114.455 320.258C114.454 320.258 114.454 320.258 114.454 320.258C114.453 320.258 114.453 320.258 114.453 320.258C114.452 320.258 114.452 320.258 114.451 320.258C114.451 320.258 114.451 320.257 114.45 320.257C114.45 320.257 114.449 320.257 114.449 320.257C114.449 320.257 114.448 320.257 114.448 320.257C114.448 320.257 114.447 320.257 114.447 320.257C114.446 320.257 114.446 320.257 114.446 320.257C114.445 320.257 114.445 320.257 114.444 320.257C114.444 320.257 114.444 320.257 114.443 320.257C114.443 320.257 114.442 320.257 114.442 320.257C114.442 320.256 114.441 320.256 114.441 320.256C114.441 320.256 114.44 320.256 114.44 320.256C114.439 320.256 114.439 320.256 114.439 320.256C114.438 320.256 114.438 320.256 114.437 320.256C114.437 320.256 114.437 320.256 114.436 320.256C114.436 320.256 114.435 320.256 114.435 320.256C114.435 320.256 114.434 320.256 114.434 320.256C114.434 320.256 114.433 320.256 114.433 320.255C114.432 320.255 114.432 320.255 114.432 320.255C114.431 320.255 114.431 320.255 114.43 320.255C114.43 320.255 114.43 320.255 114.429 320.255C114.429 320.255 114.428 320.255 114.428 320.255C114.428 320.255 114.427 320.255 114.427 320.255C114.427 320.255 114.426 320.255 114.426 320.255C114.425 320.255 114.425 320.255 114.425 320.255C114.424 320.255 114.424 320.255 114.423 320.254C114.423 320.254 114.423 320.254 114.422 320.254C114.422 320.254 114.421 320.254 114.421 320.254C114.421 320.254 114.42 320.254 114.42 320.254C114.42 320.254 114.419 320.254 114.419 320.254C114.418 320.254 114.418 320.254 114.418 320.254C114.417 320.254 114.417 320.254 114.416 320.254C114.416 320.254 114.416 320.254 114.415 320.254C114.415 320.254 114.415 320.253 114.414 320.253C114.414 320.253 114.413 320.253 114.413 320.253C114.413 320.253 114.412 320.253 114.412 320.253C114.411 320.253 114.411 320.253 114.411 320.253C114.41 320.253 114.41 320.253 114.409 320.253C114.409 320.253 114.409 320.253 114.408 320.253C114.408 320.253 114.408 320.253 114.407 320.253C114.407 320.253 114.406 320.253 114.406 320.253C114.406 320.252 114.405 320.252 114.405 320.252C114.404 320.252 114.404 320.252 114.404 320.252C114.403 320.252 114.403 320.252 114.402 320.252C114.402 320.252 114.402 320.252 114.401 320.252C114.401 320.252 114.401 320.252 114.4 320.252C114.4 320.252 114.399 320.252 114.399 320.252C114.399 320.252 114.398 320.252 114.398 320.252C114.397 320.252 114.397 320.252 114.397 320.251C114.396 320.251 114.396 320.251 114.395 320.251C114.395 320.251 114.395 320.251 114.394 320.251C114.394 320.251 114.394 320.251 114.393 320.251C114.393 320.251 114.392 320.251 114.392 320.251C114.392 320.251 114.391 320.251 114.391 320.251C114.39 320.251 114.39 320.251 114.39 320.251C114.389 320.251 114.389 320.251 114.388 320.251C114.388 320.251 114.388 320.25 114.387 320.25C114.387 320.25 114.387 320.25 114.386 320.25C114.386 320.25 114.385 320.25 114.385 320.25C114.385 320.25 114.384 320.25 114.384 320.25C114.383 320.25 114.383 320.25 114.383 320.25C114.382 320.25 114.382 320.25 114.382 320.25C114.381 320.25 114.381 320.25 114.38 320.25C114.38 320.25 114.38 320.25 114.379 320.25C114.379 320.249 114.378 320.249 114.378 320.249C114.378 320.249 114.377 320.249 114.377 320.249C114.376 320.249 114.376 320.249 114.376 320.249C114.375 320.249 114.375 320.249 114.375 320.249C114.374 320.249 114.374 320.249 114.373 320.249C114.373 320.249 114.373 320.249 114.372 320.249C114.372 320.249 114.371 320.249 114.371 320.249C114.371 320.249 114.37 320.249 114.37 320.248C114.369 320.248 114.369 320.248 114.369 320.248C114.368 320.248 114.368 320.248 114.368 320.248C114.367 320.248 114.367 320.248 114.366 320.248C114.366 320.248 114.366 320.248 114.365 320.248C114.365 320.248 114.364 320.248 114.364 320.248C114.364 320.248 114.363 320.248 114.363 320.248C114.362 320.248 114.362 320.248 114.362 320.248C114.361 320.248 114.361 320.248 114.361 320.247C114.36 320.247 114.36 320.247 114.359 320.247C114.359 320.247 114.359 320.247 114.358 320.247C114.358 320.247 114.357 320.247 114.357 320.247C114.357 320.247 114.356 320.247 114.356 320.247C114.355 320.247 114.355 320.247 114.355 320.247C114.354 320.247 114.354 320.247 114.354 320.247C114.353 320.247 114.353 320.247 114.352 320.247C114.352 320.247 114.352 320.246 114.351 320.246C114.351 320.246 114.35 320.246 114.35 320.246C114.35 320.246 114.349 320.246 114.349 320.246C114.349 320.246 114.348 320.246 114.348 320.246C114.347 320.246 114.347 320.246 114.347 320.246C114.346 320.246 114.346 320.246 114.345 320.246C114.345 320.246 114.345 320.246 114.344 320.246C114.344 320.246 114.343 320.246 114.343 320.246C114.343 320.245 114.342 320.245 114.342 320.245C114.342 320.245 114.341 320.245 114.341 320.245C114.34 320.245 114.34 320.245 114.34 320.245C114.339 320.245 114.339 320.245 114.338 320.245C114.338 320.245 114.338 320.245 114.337 320.245C114.337 320.245 114.336 320.245 114.336 320.245C114.336 320.245 114.335 320.245 114.335 320.245C114.335 320.245 114.334 320.245 114.334 320.244C114.333 320.244 114.333 320.244 114.333 320.244C114.332 320.244 114.332 320.244 114.331 320.244C114.331 320.244 114.331 320.244 114.33 320.244C114.33 320.244 114.329 320.244 114.329 320.244C114.329 320.244 114.328 320.244 114.328 320.244C114.328 320.244 114.327 320.244 114.327 320.244C114.326 320.244 114.326 320.244 114.326 320.244C114.325 320.244 114.325 320.243 114.324 320.243C114.324 320.243 114.324 320.243 114.323 320.243C114.323 320.243 114.322 320.243 114.322 320.243C114.322 320.243 114.321 320.243 114.321 320.243C114.321 320.243 114.32 320.243 114.32 320.243C114.319 320.243 114.319 320.243 114.319 320.243C114.318 320.243 114.318 320.243 114.317 320.243C114.317 320.243 114.317 320.243 114.316 320.243C114.316 320.242 114.316 320.242 114.315 320.242C114.315 320.242 114.314 320.242 114.314 320.242C114.314 320.242 114.313 320.242 114.313 320.242C114.312 320.242 114.312 320.242 114.312 320.242C114.311 320.242 114.311 320.242 114.31 320.242C114.31 320.242 114.31 320.242 114.309 320.242C114.309 320.242 114.309 320.242 114.308 320.242C114.308 320.242 114.307 320.242 114.307 320.241C114.307 320.241 114.306 320.241 114.306 320.241C114.305 320.241 114.305 320.241 114.305 320.241C114.304 320.241 114.304 320.241 114.303 320.241C114.303 320.241 114.303 320.241 114.302 320.241C114.302 320.241 114.302 320.241 114.301 320.241C114.301 320.241 114.3 320.241 114.3 320.241C114.3 320.241 114.299 320.241 114.299 320.241C114.298 320.241 114.298 320.241 114.298 320.24C114.297 320.24 114.297 320.24 114.296 320.24C114.296 320.24 114.296 320.24 114.295 320.24C114.295 320.24 114.295 320.24 114.294 320.24C114.294 320.24 114.293 320.24 114.293 320.24C114.293 320.24 114.292 320.24 114.292 320.24C114.291 320.24 114.291 320.24 114.291 320.24C114.29 320.24 114.29 320.24 114.289 320.24C114.289 320.24 114.289 320.239 114.288 320.239C114.288 320.239 114.288 320.239 114.287 320.239C114.287 320.239 114.286 320.239 114.286 320.239C114.286 320.239 114.285 320.239 114.285 320.239C114.284 320.239 114.284 320.239 114.284 320.239C114.283 320.239 114.283 320.239 114.283 320.239C114.282 320.239 114.282 320.239 114.281 320.239C114.281 320.239 114.281 320.239 114.28 320.239C114.28 320.238 114.279 320.238 114.279 320.238C114.279 320.238 114.278 320.238 114.278 320.238C114.277 320.238 114.277 320.238 114.277 320.238C114.276 320.238 114.276 320.238 114.276 320.238C114.275 320.238 114.275 320.238 114.274 320.238C114.274 320.238 114.274 320.238 114.273 320.238C114.273 320.238 114.272 320.238 114.272 320.238C114.272 320.238 114.271 320.238 114.271 320.237C114.27 320.237 114.27 320.237 114.27 320.237C114.269 320.237 114.269 320.237 114.269 320.237C114.268 320.237 114.268 320.237 114.267 320.237C114.267 320.237 114.267 320.237 114.266 320.237C114.266 320.237 114.265 320.237 114.265 320.237C114.265 320.237 114.264 320.237 114.264 320.237C114.263 320.237 114.263 320.237 114.263 320.237C114.262 320.237 114.262 320.236 114.262 320.236C114.261 320.236 114.261 320.236 114.26 320.236C114.26 320.236 114.26 320.236 114.259 320.236C114.259 320.236 114.258 320.236 114.258 320.236C114.258 320.236 114.257 320.236 114.257 320.236C114.256 320.236 114.256 320.236 114.256 320.236C114.255 320.236 114.255 320.236 114.255 320.236C114.254 320.236 114.254 320.236 114.253 320.236C114.253 320.235 114.253 320.235 114.252 320.235C114.252 320.235 114.251 320.235 114.251 320.235C114.251 320.235 114.25 320.235 114.25 320.235C114.25 320.235 114.249 320.235 114.249 320.235C114.248 320.235 114.248 320.235 114.248 320.235C114.247 320.235 114.247 320.235 114.246 320.235C114.246 320.235 114.246 320.235 114.245 320.235C114.245 320.235 114.244 320.235 114.244 320.234C114.244 320.234 114.243 320.234 114.243 320.234C114.243 320.234 114.242 320.234 114.242 320.234C114.241 320.234 114.241 320.234 114.241 320.234C114.24 320.234 114.24 320.234 114.239 320.234C114.239 320.234 114.239 320.234 114.238 320.234C114.238 320.234 114.237 320.234 114.237 320.234C114.237 320.234 114.236 320.234 114.236 320.234C114.236 320.234 114.235 320.234 114.235 320.233C114.234 320.233 114.234 320.233 114.234 320.233C114.233 320.233 114.233 320.233 114.232 320.233C114.232 320.233 114.232 320.233 114.231 320.233C114.231 320.233 114.23 320.233 114.23 320.233C114.23 320.233 114.229 320.233 114.229 320.233C114.229 320.233 114.228 320.233 114.228 320.233C114.227 320.233 114.227 320.233 114.227 320.233C114.226 320.233 114.226 320.232 114.225 320.232C114.225 320.232 114.225 320.232 114.224 320.232C114.224 320.232 114.223 320.232 114.223 320.232C114.223 320.232 114.222 320.232 114.222 320.232C114.222 320.232 114.221 320.232 114.221 320.232C114.22 320.232 114.22 320.232 114.22 320.232C114.219 320.232 114.219 320.232 114.218 320.232C114.218 320.232 114.218 320.232 114.217 320.232C114.217 320.231 114.217 320.231 114.216 320.231C114.216 320.231 114.215 320.231 114.215 320.231C114.215 320.231 114.214 320.231 114.214 320.231C114.213 320.231 114.213 320.231 114.213 320.231C114.212 320.231 114.212 320.231 114.211 320.231C114.211 320.231 114.211 320.231 114.21 320.231C114.21 320.231 114.21 320.231 114.209 320.231C114.209 320.231 114.208 320.231 114.208 320.23C114.208 320.23 114.207 320.23 114.207 320.23C114.206 320.23 114.206 320.23 114.206 320.23C114.205 320.23 114.205 320.23 114.204 320.23C114.204 320.23 114.204 320.23 114.203 320.23C114.203 320.23 114.203 320.23 114.202 320.23C114.202 320.23 114.201 320.23 114.201 320.23C114.201 320.23 114.2 320.23 114.2 320.23C114.199 320.23 114.199 320.229 114.199 320.229C114.198 320.229 114.198 320.229 114.197 320.229C114.197 320.229 114.197 320.229 114.196 320.229C114.196 320.229 114.196 320.229 114.195 320.229C114.195 320.229 114.194 320.229 114.194 320.229C114.194 320.229 114.193 320.229 114.193 320.229C114.192 320.229 114.192 320.229 114.192 320.229C114.191 320.229 114.191 320.229 114.19 320.229C114.19 320.228 114.19 320.228 114.189 320.228C114.189 320.228 114.189 320.228 114.188 320.228C114.188 320.228 114.187 320.228 114.187 320.228C114.187 320.228 114.186 320.228 114.186 320.228C114.185 320.228 114.185 320.228 114.185 320.228C114.184 320.228 114.184 320.228 114.184 320.228C114.183 320.228 114.183 320.228 114.182 320.228C114.182 320.228 114.182 320.228 114.181 320.227C114.181 320.227 114.18 320.227 114.18 320.227C114.18 320.227 114.179 320.227 114.179 320.227C114.178 320.227 114.178 320.227 114.178 320.227C114.177 320.227 114.177 320.227 114.177 320.227C114.176 320.227 114.176 320.227 114.175 320.227C114.175 320.227 114.175 320.227 114.174 320.227C114.174 320.227 114.173 320.227 114.173 320.227C114.173 320.227 114.172 320.227 114.172 320.226C114.171 320.226 114.171 320.226 114.171 320.226C114.17 320.226 114.17 320.226 114.17 320.226C114.169 320.226 114.169 320.226 114.168 320.226C114.168 320.226 114.168 320.226 114.167 320.226C114.167 320.226 114.166 320.226 114.166 320.226C114.166 320.226 114.165 320.226 114.165 320.226C114.164 320.226 114.164 320.226 114.164 320.226C114.163 320.226 114.163 320.225 114.163 320.225C114.162 320.225 114.162 320.225 114.161 320.225C114.161 320.225 114.161 320.225 114.16 320.225C114.16 320.225 114.159 320.225 114.159 320.225C114.159 320.225 114.158 320.225 114.158 320.225C114.157 320.225 114.157 320.225 114.157 320.225C114.156 320.225 114.156 320.225 114.156 320.225C114.155 320.225 114.155 320.225 114.154 320.225C114.154 320.224 114.154 320.224 114.153 320.224C114.153 320.224 114.152 320.224 114.152 320.224C114.152 320.224 114.151 320.224 114.151 320.224C114.151 320.224 114.15 320.224 114.15 320.224C114.149 320.224 114.149 320.224 114.149 320.224C114.148 320.224 114.148 320.224 114.147 320.224C114.147 320.224 114.147 320.224 114.146 320.224C114.146 320.224 114.145 320.224 114.145 320.223C114.145 320.223 114.144 320.223 114.144 320.223C114.144 320.223 114.143 320.223 114.143 320.223C114.142 320.223 114.142 320.223 114.142 320.223C114.141 320.223 114.141 320.223 114.14 320.223C114.14 320.223 114.14 320.223 114.139 320.223C114.139 320.223 114.138 320.223 114.138 320.223C114.138 320.223 114.137 320.223 114.137 320.223C114.137 320.223 114.136 320.222 114.136 320.222C114.135 320.222 114.135 320.222 114.135 320.222C114.134 320.222 114.134 320.222 114.133 320.222C114.133 320.222 114.133 320.222 114.132 320.222C114.132 320.222 114.131 320.222 114.131 320.222C114.131 320.222 114.13 320.222 114.13 320.222C114.13 320.222 114.129 320.222 114.129 320.222C114.128 320.222 114.128 320.222 114.128 320.222C114.127 320.221 114.127 320.221 114.126 320.221C114.126 320.221 114.126 320.221 114.125 320.221C114.125 320.221 114.124 320.221 114.124 320.221C114.124 320.221 114.123 320.221 114.123 320.221C114.123 320.221 114.122 320.221 114.122 320.221C114.121 320.221 114.121 320.221 114.121 320.221C114.12 320.221 114.12 320.221 114.119 320.221C114.119 320.221 114.119 320.221 114.118 320.22C114.118 320.22 114.118 320.22 114.117 320.22C114.117 320.22 114.116 320.22 114.116 320.22C114.116 320.22 114.115 320.22 114.115 320.22C114.114 320.22 114.114 320.22 114.114 320.22C114.113 320.22 114.113 320.22 114.112 320.22C114.112 320.22 114.112 320.22 114.111 320.22C114.111 320.22 114.111 320.22 114.11 320.22C114.11 320.22 114.109 320.22 114.109 320.219C114.109 320.219 114.108 320.219 114.108 320.219C114.107 320.219 114.107 320.219 114.107 320.219C114.106 320.219 114.106 320.219 114.105 320.219C114.105 320.219 114.105 320.219 114.104 320.219C114.104 320.219 114.104 320.219 114.103 320.219C114.103 320.219 114.102 320.219 114.102 320.219C114.102 320.219 114.101 320.219 114.101 320.219C114.1 320.219 114.1 320.218 114.1 320.218C114.099 320.218 114.099 320.218 114.098 320.218C114.098 320.218 114.098 320.218 114.097 320.218C114.097 320.218 114.097 320.218 114.096 320.218C114.096 320.218 114.095 320.218 114.095 320.218C114.095 320.218 114.094 320.218 114.094 320.218C114.093 320.218 114.093 320.218 114.093 320.218C114.092 320.218 114.092 320.218 114.091 320.218C114.091 320.217 114.091 320.217 114.09 320.217C114.09 320.217 114.09 320.217 114.089 320.217C114.089 320.217 114.088 320.217 114.088 320.217C114.088 320.217 114.087 320.217 114.087 320.217C114.086 320.217 114.086 320.217 114.086 320.217C114.085 320.217 114.085 320.217 114.085 320.217C114.084 320.217 114.084 320.217 114.083 320.217C114.083 320.217 114.083 320.217 114.082 320.216C114.082 320.216 114.081 320.216 114.081 320.216C114.081 320.216 114.08 320.216 114.08 320.216C114.079 320.216 114.079 320.216 114.079 320.216C114.078 320.216 114.078 320.216 114.078 320.216C114.077 320.216 114.077 320.216 114.076 320.216C114.076 320.216 114.076 320.216 114.075 320.216C114.075 320.216 114.074 320.216 114.074 320.216C114.074 320.216 114.073 320.215 114.073 320.215C114.072 320.215 114.072 320.215 114.072 320.215C114.071 320.215 114.071 320.215 114.071 320.215C114.07 320.215 114.07 320.215 114.069 320.215C114.069 320.215 114.069 320.215 114.068 320.215C114.068 320.215 114.067 320.215 114.067 320.215C114.067 320.215 114.066 320.215 114.066 320.215C114.065 320.215 114.065 320.215 114.065 320.215C114.064 320.214 114.064 320.214 114.064 320.214C114.063 320.214 114.063 320.214 114.062 320.214C114.062 320.214 114.062 320.214 114.061 320.214C114.061 320.214 114.06 320.214 114.06 320.214C114.06 320.214 114.059 320.214 114.059 320.214C114.058 320.214 114.058 320.214 114.058 320.214L113.892 321.705ZM114.208 320.369C112.703 321.202 111.839 322.52 111.647 324.247L113.138 324.413C113.277 323.158 113.865 322.273 114.934 321.682L114.208 320.369ZM111.647 324.247C111.455 325.968 112.252 327.43 113.792 328.604L114.702 327.411C113.459 326.464 113.019 325.475 113.138 324.413L111.647 324.247ZM113.781 328.596C115.012 329.569 116.473 330.142 118.139 330.327L118.305 328.836C116.891 328.679 115.701 328.202 114.712 327.419L113.781 328.596ZM118.139 330.327C118.76 330.396 119.979 330.48 121.775 330.58L121.858 329.082C120.055 328.982 118.877 328.9 118.305 328.836L118.139 330.327ZM121.794 330.581C123.65 330.636 126.083 330.706 129.093 330.789L129.134 329.29C126.125 329.206 123.694 329.137 121.839 329.081L121.794 330.581ZM129.016 330.783C134.149 331.453 137.806 332.903 140.106 335.038L141.127 333.939C138.503 331.502 134.491 329.985 129.211 329.296L129.016 330.783ZM140.113 335.045C142.354 337.076 143.204 339.84 142.56 343.486L144.037 343.747C144.753 339.696 143.815 336.375 141.12 333.933L140.113 335.045ZM143.216 344.362L146.719 344.752L146.885 343.261L143.382 342.871L143.216 344.362ZM146.216 344.475L149.926 349.113L151.098 348.177L147.388 343.538L146.216 344.475ZM177.129 351.607L177.221 352.351L178.539 352.189L177.719 351.144L177.129 351.607ZM162.137 359.523L161.562 359.04L161.555 359.049L162.137 359.523ZM158.027 366.612L157.33 366.335L157.33 366.335L158.027 366.612ZM155.889 375.656L155.143 375.573L155.142 375.585L155.889 375.656ZM157.378 383.971L156.707 384.306L156.716 384.323L156.725 384.339L157.378 383.971ZM164.707 389.315L164.838 390.053L166.471 389.764L165.175 388.729L164.707 389.315ZM162.852 386.995L162.149 387.254L162.155 387.272L162.162 387.288L162.852 386.995ZM164.46 381.364L164.052 380.734L164.045 380.739L164.038 380.744L164.46 381.364ZM171.574 382.533L170.958 382.959L170.962 382.966L170.967 382.973L171.574 382.533ZM171.689 389.639L171.05 389.246L171.05 389.246L171.689 389.639ZM169.8 391.693L170.223 392.312L170.235 392.304L170.247 392.295L169.8 391.693ZM167.183 392.835L167.003 392.107L166.99 392.11L167.183 392.835ZM153.924 384.492L154.622 384.216L154.618 384.206L153.924 384.492ZM163.414 350.081L163.926 350.629L165.116 349.516L163.497 349.335L163.414 350.081ZM149.549 348.538L148.963 349.006L149.158 349.249L149.466 349.283L149.549 348.538ZM145.84 343.899L145.922 343.154L144.123 342.954L145.254 344.368L145.84 343.899ZM173.494 346.977L174.084 346.514L173.889 346.266L173.577 346.231L173.494 346.977ZM177.037 350.863C173.745 351.27 170.814 352.16 168.257 353.547L168.972 354.866C171.34 353.581 174.086 352.739 177.221 352.351L177.037 350.863ZM168.257 353.547C165.709 354.929 163.477 356.762 161.562 359.04L162.711 360.005C164.508 357.867 166.594 356.155 168.972 354.866L168.257 353.547ZM161.555 359.049C159.813 361.188 158.406 363.619 157.33 366.335L158.725 366.888C159.748 364.304 161.08 362.009 162.718 359.996L161.555 359.049ZM157.33 366.335C156.252 369.058 155.526 372.139 155.143 375.573L156.634 375.738C157.004 372.413 157.704 369.465 158.725 366.888L157.33 366.335ZM155.142 375.585C154.848 378.704 155.366 381.617 156.707 384.306L158.049 383.637C156.84 381.212 156.366 378.581 156.636 375.726L155.142 375.585ZM156.725 384.339C159.022 388.415 161.711 390.607 164.838 390.053L164.576 388.576C162.469 388.949 160.272 387.578 158.032 383.603L156.725 384.339ZM165.175 388.729C164.373 388.088 163.843 387.41 163.543 386.702L162.162 387.288C162.579 388.271 163.286 389.139 164.239 389.901L165.175 388.729ZM163.556 386.736C163.285 386 163.195 385.275 163.275 384.552L161.784 384.386C161.677 385.353 161.801 386.312 162.149 387.254L163.556 386.736ZM163.275 384.552C163.393 383.493 163.907 382.648 164.882 381.983L164.038 380.744C162.727 381.636 161.954 382.861 161.784 384.386L163.275 384.552ZM164.868 381.993C165.93 381.305 167.001 381.043 168.104 381.165L168.27 379.675C166.79 379.51 165.376 379.877 164.052 380.734L164.868 381.993ZM168.104 381.165C169.259 381.294 170.202 381.866 170.958 382.959L172.191 382.106C171.214 380.692 169.898 379.856 168.27 379.675L168.104 381.165ZM170.967 382.973C171.711 383.999 172.024 385.276 171.847 386.864L173.338 387.03C173.548 385.14 173.182 383.474 172.182 382.093L170.967 382.973ZM171.847 386.864C171.748 387.756 171.48 388.546 171.05 389.246L172.328 390.031C172.881 389.131 173.216 388.127 173.338 387.03L171.847 386.864ZM171.05 389.246C170.61 389.964 170.046 390.577 169.354 391.09L170.247 392.295C171.09 391.67 171.786 390.915 172.328 390.031L171.05 389.246ZM169.378 391.073C168.697 391.537 167.908 391.883 167.003 392.107L167.363 393.563C168.424 393.301 169.38 392.886 170.223 392.312L169.378 391.073ZM166.99 392.11C166.15 392.334 165.28 392.397 164.375 392.296L164.21 393.787C165.292 393.908 166.35 393.833 167.376 393.56L166.99 392.11ZM164.375 392.296C162.071 392.04 160.13 391.243 158.525 389.919C156.916 388.592 155.607 386.705 154.622 384.216L153.227 384.769C154.284 387.437 155.724 389.554 157.571 391.077C159.422 392.603 161.644 393.502 164.21 393.787L164.375 392.296ZM154.618 384.206C152.929 380.12 152.356 375.532 152.925 370.421L151.434 370.255C150.841 375.579 151.432 380.427 153.231 384.779L154.618 384.206ZM152.925 370.421C153.708 363.385 157.34 356.788 163.926 350.629L162.901 349.533C156.123 355.873 152.266 362.78 151.434 370.255L152.925 370.421ZM163.497 349.335L149.632 347.793L149.466 349.283L163.331 350.826L163.497 349.335ZM150.135 348.07L146.425 343.431L145.254 344.368L148.963 349.006L150.135 348.07ZM145.757 344.645L173.411 347.722L173.577 346.231L145.922 343.154L145.757 344.645ZM172.904 347.44L176.539 352.07L177.719 351.144L174.084 346.514L172.904 347.44ZM233.585 408.601L232.991 409.059L234.423 410.913L234.334 408.572L233.585 408.601ZM220.219 396.473L219.821 397.109L219.828 397.113L220.219 396.473ZM203.531 389.787L202.836 390.067L202.984 390.435L203.372 390.519L203.531 389.787ZM200.22 381.57L200.534 380.889L198.817 380.096L199.524 381.85L200.22 381.57ZM203.4 382.829L203.172 383.544L203.19 383.549L203.207 383.554L203.4 382.829ZM212.999 383.369L212.907 382.625L212.907 382.625L212.999 383.369ZM219.045 381.929L218.792 381.223L218.786 381.225L219.045 381.929ZM224.81 378.269L224.259 377.761L224.254 377.766L224.249 377.772L224.81 378.269ZM221.864 367.452L221.947 366.707L221.849 366.696L221.752 366.711L221.864 367.452ZM220.713 367.626L220.601 366.884L219.917 366.987L219.964 367.678L220.713 367.626ZM220.828 369.299L221.561 369.457L221.584 369.353L221.576 369.247L220.828 369.299ZM215.071 376.28L215.452 376.926L215.472 376.914L215.491 376.901L215.071 376.28ZM210.465 378.333L210.245 377.616L210.236 377.619L210.465 378.333ZM204.494 378.423L204.179 379.104L204.206 379.116L204.233 379.126L204.494 378.423ZM202.73 377.321L203.191 376.73L202.572 376.247L202.118 376.888L202.73 377.321ZM193.286 386.911L192.887 386.276L192.881 386.279L193.286 386.911ZM180.515 385.716L181.178 385.365L181.164 385.338L181.148 385.313L180.515 385.716ZM182.061 352.156L182.807 352.239L182.89 351.494L182.144 351.411L182.061 352.156ZM175.875 351.468L175.285 351.931L175.479 352.178L175.792 352.213L175.875 351.468ZM172.239 346.837L172.322 346.092L170.546 345.894L171.649 347.3L172.239 346.837ZM233.213 353.623L233.803 353.159L233.609 352.912L233.296 352.877L233.213 353.623ZM236.848 358.253L236.765 358.998L238.542 359.196L237.438 357.79L236.848 358.253ZM206.361 354.86L206.444 354.115L205.263 353.983L205.653 355.106L206.361 354.86ZM216.97 362.606L216.985 361.856L216.985 361.856L216.97 362.606ZM218.56 362.557L218.625 363.304L218.625 363.304L218.56 362.557ZM220.076 362.499L220.067 363.249L220.067 363.249L220.076 362.499ZM221.351 362.565L221.463 361.824L221.449 361.822L221.434 361.82L221.351 362.565ZM229.484 367.47L228.845 367.863L228.85 367.871L228.855 367.878L229.484 367.47ZM231.172 376.034L230.438 375.879L230.43 375.915L230.426 375.951L231.172 376.034ZM225.654 384.249L225.24 383.624L225.229 383.631L225.219 383.639L225.654 384.249ZM216.162 388.853L215.899 388.15L214.537 388.66L215.742 389.474L216.162 388.853ZM225.834 396.193L226.359 395.657L226.357 395.654L225.834 396.193ZM229.321 400.127L228.735 400.596L228.743 400.606L228.751 400.616L229.321 400.127ZM233.469 405.57L234.219 405.541L234.21 405.323L234.086 405.143L233.469 405.57ZM196.933 371.771L197.567 371.37L197.534 371.319L197.493 371.273L196.933 371.771ZM194.3 369.667L194.725 369.049L194.69 369.026L194.654 369.006L194.3 369.667ZM193.447 369.195L192.964 369.769L193.017 369.813L193.077 369.847L193.447 369.195ZM192.494 368.259L193.048 367.752L193.001 367.701L192.945 367.659L192.494 368.259ZM187.981 364.059L187.376 364.501L187.38 364.508L187.385 364.514L187.981 364.059ZM185.588 359.793L186.281 359.506L186.111 359.097L185.671 359.048L185.588 359.793ZM185.439 359.776L185.522 359.031L184.777 358.948L184.694 359.693L185.439 359.776ZM188.889 382.346L188.493 381.71L188.484 381.716L188.889 382.346ZM195.094 377.453L195.6 378.006L195.609 377.997L195.094 377.453ZM196.494 375.722L195.864 375.314L195.85 375.336L195.837 375.359L196.494 375.722ZM197.206 372.707L196.457 372.73L196.457 372.73L197.206 372.707ZM202.56 354.437L203.305 354.52L203.388 353.775L202.643 353.692L202.56 354.437ZM186.236 352.621L186.319 351.875L185.573 351.792L185.49 352.538L186.236 352.621ZM186.906 356.77L186.23 357.095L186.257 357.152L186.294 357.203L186.906 356.77ZM188.363 358.593L187.795 359.082L187.804 359.092L187.812 359.101L188.363 358.593ZM190.599 360.879L190.076 361.416L190.101 361.441L190.129 361.463L190.599 360.879ZM193.489 362.71L193.117 363.361L193.124 363.365L193.489 362.71ZM197.754 365.071L198.134 364.424L198.125 364.419L198.116 364.414L197.754 365.071ZM200.446 366.653L200.363 367.399L200.826 366.007L200.446 366.653ZM200.297 366.637L200.38 365.891L199.889 367.266L200.297 366.637ZM200.645 366.902L200.162 367.476L200.239 367.541L200.33 367.583L200.645 366.902ZM201.15 367.109L200.888 367.812L201.789 368.147L201.895 367.192L201.15 367.109ZM215.114 367.078L215.699 366.61L215.563 366.439L215.356 366.369L215.114 367.078ZM206.129 359.664L206.779 359.291L205.637 357.299L205.383 359.581L206.129 359.664ZM208.859 374.457L209.161 375.143L209.174 375.138L209.187 375.131L208.859 374.457ZM211.783 372.594L212.252 373.179L212.268 373.166L212.284 373.153L211.783 372.594ZM214.119 369.911L213.506 369.479L213.498 369.491L213.49 369.503L214.119 369.911ZM215.18 367.161L215.929 367.203L215.945 366.916L215.766 366.693L215.18 367.161ZM234.178 408.142C230.256 403.066 225.734 398.96 220.61 395.833L219.828 397.113C224.785 400.139 229.173 404.118 232.991 409.059L234.178 408.142ZM220.617 395.838C215.553 392.668 209.909 390.408 203.691 389.054L203.372 390.519C209.433 391.839 214.914 394.037 219.821 397.109L220.617 395.838ZM204.227 389.506L200.915 381.289L199.524 381.85L202.836 390.067L204.227 389.506ZM199.905 382.251C201.075 382.791 202.165 383.223 203.172 383.544L203.627 382.115C202.691 381.817 201.661 381.409 200.534 380.889L199.905 382.251ZM203.207 383.554C204.216 383.822 205.189 384.009 206.124 384.114L206.29 382.623C205.437 382.528 204.538 382.356 203.592 382.104L203.207 383.554ZM206.124 384.114C208.562 384.385 210.884 384.386 213.091 384.114L212.907 382.625C210.829 382.882 208.624 382.882 206.29 382.623L206.124 384.114ZM213.091 384.114C215.286 383.842 217.358 383.35 219.305 382.633L218.786 381.225C216.955 381.9 214.996 382.367 212.907 382.625L213.091 384.114ZM219.298 382.635C221.85 381.72 223.889 380.439 225.372 378.767L224.249 377.772C222.971 379.213 221.166 380.372 218.792 381.223L219.298 382.635ZM225.362 378.778C226.905 377.104 227.806 375.084 228.066 372.746L226.576 372.58C226.349 374.615 225.576 376.332 224.259 377.761L225.362 378.778ZM228.066 372.746C228.255 371.053 227.843 369.609 226.728 368.544C225.647 367.513 224.008 366.936 221.947 366.707L221.781 368.198C223.695 368.411 224.953 368.924 225.692 369.629C226.396 370.301 226.725 371.241 226.576 372.58L228.066 372.746ZM221.752 366.711L220.601 366.884L220.824 368.367L221.976 368.194L221.752 366.711ZM219.964 367.678L220.08 369.351L221.576 369.247L221.461 367.574L219.964 367.678ZM220.095 369.141C219.635 371.271 217.904 373.456 214.65 375.659L215.491 376.901C218.875 374.611 220.982 372.142 221.561 369.457L220.095 369.141ZM214.69 375.634C213.229 376.495 211.748 377.155 210.245 377.616L210.686 379.05C212.308 378.552 213.897 377.842 215.452 376.926L214.69 375.634ZM210.236 377.619C208.793 378.082 207.549 378.235 206.49 378.117L206.324 379.608C207.65 379.756 209.112 379.555 210.695 379.047L210.236 377.619ZM206.49 378.117C205.847 378.046 205.27 377.912 204.755 377.72L204.233 379.126C204.877 379.366 205.575 379.525 206.324 379.608L206.49 378.117ZM204.808 377.742C204.296 377.506 203.757 377.171 203.191 376.73L202.269 377.913C202.907 378.411 203.544 378.811 204.179 379.104L204.808 377.742ZM202.118 376.888C199.049 381.223 195.968 384.336 192.887 386.276L193.686 387.545C196.988 385.466 200.203 382.187 203.342 377.755L202.118 376.888ZM192.881 386.279C189.808 388.25 187.22 389.028 185.078 388.789L184.912 390.28C187.541 390.573 190.48 389.601 193.691 387.542L192.881 386.279ZM185.078 388.789C183.695 388.636 182.373 387.618 181.178 385.365L179.853 386.067C181.153 388.519 182.817 390.047 184.912 390.28L185.078 388.789ZM181.148 385.313C179.942 383.421 179.503 381.929 179.63 380.788L178.139 380.622C177.956 382.263 178.604 384.112 179.883 386.119L181.148 385.313ZM179.63 380.788L182.807 352.239L181.316 352.073L178.139 380.622L179.63 380.788ZM182.144 351.411L175.958 350.722L175.792 352.213L181.978 352.901L182.144 351.411ZM176.465 351.004L172.829 346.374L171.649 347.3L175.285 351.931L176.465 351.004ZM172.156 347.582L233.13 354.368L233.296 352.877L172.322 346.092L172.156 347.582ZM232.623 354.086L236.258 358.716L237.438 357.79L233.803 353.159L232.623 354.086ZM236.931 357.508L206.444 354.115L206.278 355.606L236.765 358.998L236.931 357.508ZM205.653 355.106C206.489 357.513 207.744 359.431 209.439 360.817C211.136 362.204 213.23 363.02 215.686 363.293L215.852 361.803C213.636 361.556 211.827 360.831 210.388 359.655C208.948 358.478 207.834 356.813 207.07 354.614L205.653 355.106ZM215.686 363.293C215.971 363.325 216.4 363.345 216.955 363.356L216.985 361.856C216.435 361.845 216.064 361.826 215.852 361.803L215.686 363.293ZM216.955 363.356C217.531 363.368 218.088 363.35 218.625 363.304L218.495 361.809C218.016 361.851 217.513 361.867 216.985 361.856L216.955 363.356ZM218.625 363.304C219.109 363.262 219.59 363.244 220.067 363.249L220.084 361.749C219.557 361.743 219.027 361.763 218.495 361.809L218.625 363.304ZM220.067 363.249C220.555 363.254 220.953 363.276 221.268 363.311L221.434 361.82C221.053 361.778 220.602 361.755 220.084 361.749L220.067 363.249ZM221.239 363.307C224.829 363.851 227.322 365.388 228.845 367.863L230.122 367.077C228.322 364.151 225.394 362.419 221.463 361.824L221.239 363.307ZM228.855 367.878C230.514 370.433 231.03 373.087 230.438 375.879L231.905 376.19C232.585 372.986 231.975 369.929 230.113 367.061L228.855 367.878ZM230.426 375.951C230.091 378.965 228.41 381.522 225.24 383.624L226.069 384.874C229.525 382.582 231.523 379.663 231.917 376.117L230.426 375.951ZM225.219 383.639C223.222 385.061 220.13 386.569 215.899 388.15L216.425 389.555C220.698 387.958 223.934 386.396 226.089 384.86L225.219 383.639ZM215.742 389.474C220.37 392.603 223.547 395.019 225.312 396.731L226.357 395.654C224.489 393.843 221.218 391.365 216.582 388.231L215.742 389.474ZM225.31 396.728C226.325 397.722 227.466 399.009 228.735 400.596L229.906 399.659C228.614 398.042 227.431 396.706 226.359 395.657L225.31 396.728ZM228.751 400.616C230.067 402.149 231.434 403.942 232.852 405.996L234.086 405.143C232.645 403.056 231.246 401.22 229.89 399.639L228.751 400.616ZM232.72 405.598L232.835 408.629L234.334 408.572L234.219 405.541L232.72 405.598ZM197.493 371.273C196.98 370.696 196.034 369.95 194.725 369.049L193.875 370.285C195.182 371.185 195.992 371.842 196.373 372.27L197.493 371.273ZM194.654 369.006C194.423 368.883 194.145 368.728 193.817 368.542L193.077 369.847C193.411 370.037 193.701 370.198 193.946 370.328L194.654 369.006ZM193.929 368.621C193.687 368.417 193.394 368.131 193.048 367.752L191.941 368.765C192.313 369.171 192.654 369.509 192.964 369.769L193.929 368.621ZM192.945 367.659C190.928 366.143 189.484 364.791 188.577 363.604L187.385 364.514C188.41 365.856 189.975 367.303 192.044 368.858L192.945 367.659ZM188.587 363.616C187.662 362.351 186.893 360.981 186.281 359.506L184.896 360.08C185.553 361.664 186.379 363.138 187.376 364.501L188.587 363.616ZM185.671 359.048L185.522 359.031L185.356 360.522L185.505 360.538L185.671 359.048ZM184.694 359.693L182.321 381.012L183.812 381.178L186.185 359.859L184.694 359.693ZM182.321 381.012C182.22 381.922 182.286 382.755 182.646 383.407C183.034 384.111 183.695 384.485 184.491 384.574L184.657 383.083C184.26 383.039 184.074 382.89 183.959 382.683C183.817 382.425 183.726 381.958 183.812 381.178L182.321 381.012ZM184.491 384.574C185.896 384.73 187.518 384.12 189.295 382.977L188.484 381.716C186.792 382.803 185.538 383.181 184.657 383.083L184.491 384.574ZM189.285 382.983C191.123 381.84 193.229 380.176 195.6 378.006L194.587 376.899C192.253 379.035 190.223 380.634 188.493 381.71L189.285 382.983ZM195.609 377.997C196.267 377.375 196.788 376.738 197.15 376.085L195.837 375.359C195.569 375.843 195.157 376.36 194.578 376.908L195.609 377.997ZM197.123 376.129C197.558 375.457 197.816 374.689 197.91 373.842L196.419 373.676C196.348 374.32 196.158 374.86 195.864 375.314L197.123 376.129ZM197.91 373.842C197.953 373.459 197.968 373.072 197.956 372.684L196.457 372.73C196.467 373.049 196.454 373.364 196.419 373.676L197.91 373.842ZM197.956 372.684C197.941 372.211 197.817 371.766 197.567 371.37L196.299 372.172C196.391 372.318 196.449 372.497 196.457 372.73L197.956 372.684ZM202.643 353.692L186.319 351.875L186.153 353.366L202.477 355.183L202.643 353.692ZM185.49 352.538C185.393 353.412 185.435 354.277 185.618 355.13L187.085 354.816C186.936 354.122 186.901 353.419 186.981 352.704L185.49 352.538ZM185.618 355.13C185.789 355.928 185.988 356.592 186.23 357.095L187.582 356.445C187.415 356.098 187.245 355.564 187.085 354.816L185.618 355.13ZM186.294 357.203C186.661 357.722 187.164 358.35 187.795 359.082L188.931 358.103C188.315 357.388 187.846 356.801 187.518 356.337L186.294 357.203ZM187.812 359.101C188.496 359.841 189.251 360.613 190.076 361.416L191.122 360.341C190.313 359.554 189.577 358.801 188.914 358.084L187.812 359.101ZM190.129 361.463C190.688 361.913 191.7 362.55 193.117 363.361L193.862 362.059C192.441 361.246 191.526 360.662 191.069 360.295L190.129 361.463ZM193.124 363.365C194.594 364.183 196.017 364.971 197.393 365.728L198.116 364.414C196.742 363.658 195.322 362.871 193.854 362.054L193.124 363.365ZM197.374 365.717L200.066 367.3L200.826 366.007L198.134 364.424L197.374 365.717ZM200.529 365.908L200.38 365.891L200.214 367.382L200.363 367.399L200.529 365.908ZM199.889 367.266C199.946 367.303 200.035 367.37 200.162 367.476L201.127 366.328C200.978 366.202 200.835 366.092 200.704 366.007L199.889 367.266ZM200.33 367.583C200.495 367.659 200.682 367.735 200.888 367.812L201.411 366.406C201.231 366.339 201.081 366.277 200.959 366.221L200.33 367.583ZM201.895 367.192L203.305 354.52L201.814 354.354L200.404 367.026L201.895 367.192ZM215.356 366.369C211.603 365.085 208.753 362.733 206.779 359.291L205.478 360.037C207.633 363.795 210.773 366.387 214.871 367.788L215.356 366.369ZM205.383 359.581L203.973 372.253L205.464 372.419L206.874 359.747L205.383 359.581ZM203.973 372.253C203.876 373.128 203.923 373.927 204.231 374.554C204.569 375.243 205.173 375.631 205.927 375.715L206.093 374.224C205.804 374.192 205.671 374.083 205.578 373.894C205.455 373.644 205.379 373.184 205.464 372.419L203.973 372.253ZM205.927 375.715C206.979 375.832 208.062 375.626 209.161 375.143L208.558 373.77C207.647 374.17 206.83 374.306 206.093 374.224L205.927 375.715ZM209.187 375.131C210.251 374.614 211.273 373.963 212.252 373.179L211.315 372.008C210.416 372.726 209.489 373.317 208.531 373.782L209.187 375.131ZM212.284 373.153C213.276 372.264 214.101 371.32 214.749 370.318L213.49 369.503C212.923 370.379 212.19 371.223 211.283 372.035L212.284 373.153ZM214.733 370.343C215.449 369.325 215.869 368.276 215.929 367.203L214.431 367.12C214.391 367.846 214.104 368.63 213.506 369.479L214.733 370.343ZM215.766 366.693L215.699 366.61L214.528 367.547L214.594 367.63L215.766 366.693Z" fill="#131313"/>
<path d="M262.445 159.067C262.767 159.103 263.091 159.009 263.345 158.806C263.598 158.604 263.761 158.308 263.797 157.986L264.32 153.284L264.693 153.326C265.015 153.362 265.339 153.268 265.593 153.065C265.846 152.862 266.009 152.567 266.045 152.245L266.634 146.947L267.462 147.039C267.785 147.075 268.108 146.981 268.362 146.779C268.615 146.576 268.778 146.281 268.814 145.958L269.613 138.782C269.649 138.459 269.555 138.135 269.352 137.882C269.149 137.628 268.854 137.466 268.531 137.43L261.421 136.638C256.431 124.244 248.177 113.432 237.536 105.351C226.895 97.2708 214.263 92.2236 200.984 90.7458C187.704 89.268 174.272 91.4147 162.115 96.958C149.957 102.501 139.528 111.234 131.935 122.229L127.888 121.778C127.565 121.742 127.241 121.836 126.988 122.039C126.734 122.242 126.572 122.537 126.536 122.86L125.737 130.036C125.701 130.358 125.795 130.682 125.998 130.936C126.201 131.189 126.496 131.352 126.819 131.388L127.646 131.48L127.057 136.777C127.021 137.1 127.115 137.424 127.317 137.677C127.52 137.931 127.815 138.094 128.138 138.129L128.188 138.135L127.665 142.836C127.636 143.108 127.701 143.382 127.849 143.612C127.997 143.842 128.22 144.014 128.479 144.1L115.108 264.249C114.84 264.275 114.588 264.39 114.394 264.577C114.199 264.764 114.074 265.011 114.039 265.278L113.28 272.099L111.186 271.866C110.942 271.838 110.697 271.909 110.506 272.062C110.314 272.216 110.192 272.438 110.165 272.682L109.52 278.476C109.495 278.718 109.567 278.961 109.72 279.151C109.873 279.34 110.095 279.462 110.337 279.489L111.165 279.581L110.546 285.143C110.527 285.299 110.54 285.457 110.583 285.608C110.626 285.759 110.698 285.901 110.796 286.024C110.894 286.147 111.015 286.249 111.152 286.325C111.29 286.401 111.441 286.449 111.597 286.467L248.168 301.665C248.484 301.7 248.801 301.608 249.05 301.41C249.298 301.211 249.457 300.922 249.492 300.606L250.117 294.994L250.945 295.086C251.187 295.113 251.43 295.043 251.621 294.892C251.812 294.74 251.936 294.52 251.965 294.278L252.61 288.484C252.637 288.24 252.566 287.996 252.413 287.804C252.26 287.613 252.037 287.49 251.793 287.463L249.078 287.161L249.837 280.34C249.865 280.063 249.793 279.784 249.635 279.554C249.476 279.325 249.241 279.159 248.971 279.088L262.329 159.054L262.445 159.067ZM247.255 299.175L113.068 284.242L113.528 280.104L247.683 295.033L247.255 299.175ZM200.719 93.1223C213.344 94.5505 225.364 99.3032 235.551 106.895C245.739 114.487 253.729 124.647 258.706 136.336L252.085 135.599C247.349 125.45 240.082 116.689 230.982 110.158C221.883 103.627 211.257 99.5467 200.125 98.3079C188.994 97.0692 177.731 98.714 167.418 103.084C157.106 107.455 148.091 114.404 141.239 123.264L134.617 122.527C142.047 112.214 152.081 104.058 163.694 98.8914C175.308 93.7252 188.085 91.7344 200.719 93.1223V93.1223ZM215.07 110.85L202.297 123.975L209.667 108.874C211.5 109.442 213.303 110.102 215.07 110.85V110.85ZM236.539 126.806L209.008 128.426L231.952 121.938C233.575 123.47 235.106 125.095 236.539 126.806V126.806ZM207.258 126.379L225.013 116.297C226.671 117.449 228.267 118.687 229.796 120.005L207.258 126.379ZM204.721 125.008L217.414 111.924C219.209 112.795 220.959 113.756 222.657 114.803L204.721 125.008ZM199.868 123.437L201.693 107.04C203.584 107.326 205.461 107.708 207.314 108.185L199.868 123.437ZM197.434 123.166L193.439 106.365C195.369 106.374 197.298 106.479 199.219 106.681V106.681L197.434 123.166ZM190.947 106.389C190.938 106.438 190.932 106.488 190.931 106.538L194.87 123.166L184.941 106.977C186.931 106.678 188.936 106.482 190.947 106.389V106.389ZM182.341 107.367L192.314 123.627L176.118 108.928C178.161 108.29 180.239 107.769 182.341 107.367V107.367ZM173.696 109.757C173.76 109.951 173.87 110.127 174.016 110.27L189.563 124.402L167.457 112.431C169.471 111.418 171.542 110.527 173.662 109.761L173.696 109.757ZM164.916 113.807C164.947 113.839 164.98 113.868 165.015 113.894L187.143 125.892L159.038 117.611C160.907 116.218 162.86 114.941 164.885 113.787L164.916 113.807ZM156.983 119.284C157.135 119.504 157.355 119.667 157.61 119.748L186.819 128.353L151.5 124.423C153.196 122.58 155.018 120.856 156.951 119.264L156.983 119.284ZM238.411 129.184C239.684 130.888 240.858 132.663 241.925 134.502L209.438 130.887L238.411 129.184ZM233.293 119.833C233.172 119.71 233.042 119.604 232.913 119.481C224.012 111.31 212.825 106.056 200.852 104.424C200.812 104.416 200.77 104.411 200.728 104.411L200.621 104.399L199.479 104.271C190.002 103.234 180.415 104.492 171.528 107.942C162.641 111.391 154.715 116.929 148.42 124.088L145.59 123.773C152.113 115.951 160.472 109.868 169.921 106.067C179.37 102.267 189.614 100.867 199.736 101.993C209.859 103.12 219.544 106.737 227.926 112.522C236.308 118.308 243.126 126.08 247.77 135.144L244.939 134.829C241.889 129.236 237.957 124.172 233.293 119.833V119.833ZM133.072 124.819L266.994 139.722L266.466 144.465L128.306 129.09L128.834 124.347L133.072 124.819ZM253.39 158.059L240.034 278.076L235.763 277.601L249.121 157.559L253.417 158.037L253.39 158.059ZM116.06 268.729L116.282 266.735L135.989 268.928L135.393 274.283L115.686 272.09L116.06 268.729ZM129.609 135.83L130.012 132.213L264.099 147.134L263.697 150.751L129.609 135.83V135.83ZM137.726 145.188L141.6 145.619L128.241 265.661L124.368 265.23L137.726 145.188ZM245.46 157.177L232.104 277.194L228.976 276.846L242.334 156.804L245.463 157.152L245.46 157.177ZM145.217 146.021L148.437 146.38L135.078 266.421L131.858 266.063L145.217 146.021ZM182.501 223.852L230.69 229.214L229.197 242.631L169.337 235.97L170.397 226.443C170.455 225.929 170.612 225.431 170.862 224.978C171.112 224.525 171.448 224.126 171.852 223.802C172.256 223.479 172.72 223.239 173.217 223.095C173.714 222.951 174.234 222.907 174.748 222.964L182.501 223.852ZM198.486 208.218L232.645 212.019L231.152 225.436L184.809 220.279L185.866 210.777C185.982 209.739 186.505 208.789 187.321 208.136C188.137 207.484 189.179 207.182 190.217 207.298L198.486 208.218ZM216.3 192.788L234.559 194.82L233.062 208.278L200.781 204.686L201.843 195.142C201.959 194.106 202.481 193.157 203.295 192.504C204.109 191.852 205.148 191.549 206.186 191.662L216.3 192.788ZM234.98 191.037L218.575 189.211L219.633 179.709C219.756 178.678 220.282 177.737 221.097 177.091C221.911 176.446 222.947 176.148 223.98 176.263L236.395 177.645L234.98 191.037ZM154.795 251.739L155.85 242.262C155.965 241.224 156.489 240.274 157.305 239.621C158.12 238.969 159.162 238.667 160.2 238.783L228.776 246.414L227.283 259.831L154.792 251.764L154.795 251.739ZM141.429 267.631L142.48 258.187C142.593 257.193 143.081 256.279 143.845 255.632C144.608 254.986 145.589 254.654 146.588 254.706C146.669 254.711 146.749 254.719 146.828 254.732L226.875 263.64L225.382 277.057L141.42 267.714L141.429 267.631ZM130.84 144.421L134.076 144.782L120.717 264.823L117.481 264.463L130.84 144.421ZM227.386 281.118L227.608 279.123L247.315 281.317L246.719 286.672L227.012 284.479L227.386 281.118ZM261.466 156.495L241.353 154.256L241.74 150.772L261.854 153.01L261.466 156.495ZM145.718 140.086L150.685 140.639L150.297 144.123L130.209 141.888L130.596 138.403L145.718 140.086ZM259.962 158.791L246.606 278.808L243.734 278.488L257.092 158.446L259.964 158.766L259.962 158.791Z" fill="#131313"/>
</svg>
