<svg width="366" height="184" viewBox="0 0 366 184" fill="none" xmlns="http://www.w3.org/2000/svg">
<path d="M64.9047 50.6873C58.7803 50.6916 51.8125 54.6945 44.0013 62.696C38.5937 68.1516 34.3858 75.1814 31.3777 83.7853C28.6101 91.9044 27.2234 100.144 27.2176 108.503C27.2112 117.711 29.1876 124.979 33.1467 130.306C36.3859 134.908 40.2871 137.207 44.8503 137.204C47.9726 137.202 50.4954 135.746 52.4188 132.837L59.6203 138.102C55.8962 140.164 51.5124 141.197 46.4687 141.201C37.3422 141.207 28.6989 137.033 20.5388 128.68C11.7786 119.842 7.40251 109.668 7.41049 98.1586C7.42258 80.7127 14.0982 65.0189 27.4375 51.077L27.4377 50.7136L0.958699 50.7322L0.963485 43.8265L64.9095 43.7816L64.9047 50.6873Z" fill="#E6E1DB"/>
<path d="M125.018 122.973L125.068 50.645L68.6874 50.6846C68.686 52.7442 72.2873 54.6195 79.4913 56.3106C89.5769 58.7265 96.1802 60.7209 99.3014 62.2937C106.504 65.6809 110.103 70.4639 110.099 76.6426C110.094 84.2752 106.427 90.5777 99.0982 95.55C109.182 100.389 117.762 109.53 124.838 122.973L125.018 122.973ZM74.4155 102.655C78.1395 100.835 82.5838 99.1962 87.7485 97.7388C94.3549 95.4322 97.659 92.9463 97.6608 90.281C97.6632 86.7675 94.3629 83.8016 87.7599 81.3832C81.7569 79.449 75.6939 77.5148 69.5708 75.5807C62.9679 72.92 59.6679 69.5301 59.6707 65.4109C59.6727 62.6244 61.6575 57.7164 65.6252 50.6867L56.6187 50.6931L56.6235 43.7874L139.303 43.7293L139.298 50.635L131.913 50.6402L131.848 144.775L129.148 141.87C127.713 132.057 121.115 123.46 109.351 116.078C100.829 110.875 92.0048 107.549 82.8792 106.102C81.9183 106.466 81.0773 107.012 80.3563 107.739C78.6738 109.557 77.8316 111.86 77.8297 114.646C77.8277 117.554 78.9066 120.279 81.0663 122.822C83.3461 125.607 86.347 127.361 90.0692 128.086L74.0294 139.909C67.6687 134.341 64.4911 127.619 64.4966 119.744C64.5004 114.171 66.4851 109.505 70.4505 105.747C71.6522 104.535 72.9739 103.504 74.4155 102.655Z" fill="#E6E1DB"/>
<path d="M160.193 50.6203L154.789 50.6241L154.727 140.761L153.826 140.762C152.986 140.762 151.785 139.915 150.225 138.22C148.665 136.525 147.886 134.83 147.887 133.133L147.944 50.6289L138.758 50.6354L138.763 43.7297L149.931 43.7219C150.171 42.7525 150.292 41.9649 150.293 41.3591C150.294 38.9361 148.855 36.9987 145.973 35.5469C143.213 33.9738 139.49 33.189 134.807 33.1923C133.006 33.1935 129.703 33.4381 124.899 33.9261C120.096 34.293 116.673 34.4771 114.632 34.4785C107.547 34.4835 100.884 31.6411 94.6432 25.9514C88.2826 20.2617 83.0643 12.3905 78.9883 2.3377L82.0519 0.336543C84.4488 7.36168 87.5677 12.145 91.4087 14.6865C94.8895 17.1071 100.172 18.3149 107.258 18.3099C109.539 18.3083 112.121 18.1248 115.004 17.7593C117.766 17.2727 119.687 17.0291 120.768 17.0283C129.895 17.0219 137.459 19.3791 143.46 24.0998C149.581 28.8204 153.239 35.36 154.434 43.7187L160.198 43.7146L160.193 50.6203Z" fill="#E6E1DB"/>
<path d="M261.966 50.5488L253.861 50.5545L253.798 140.692L252.897 140.692C252.057 140.693 250.857 139.846 249.297 138.151C247.737 136.456 246.957 134.76 246.958 133.064L246.98 101.807C245.301 98.2944 243.021 96.5393 240.139 96.5413C237.977 96.5429 230.048 101.395 216.352 111.096C202.655 120.677 193.045 125.469 187.521 125.473C183.078 125.476 175.098 116.88 163.582 99.6845L166.465 97.6835C168.744 101.195 170.364 103.375 171.324 104.222C172.884 105.917 174.625 106.764 176.546 106.763C179.909 106.76 187.897 102.212 200.513 93.1163C201.115 90.2083 198.475 87.1813 192.593 84.0355C186.831 81.3742 181.069 78.6523 175.307 75.8699C169.065 72.3609 165.945 68.7285 165.947 64.9728C165.949 62.3074 168.354 57.5202 173.163 50.6112L159.473 50.6208L159.477 43.7152L261.971 43.6432L261.966 50.5488ZM246.984 96.1731L247.016 50.5593L176.225 50.6091C175.983 52.9111 178.623 55.2717 184.146 57.6909C193.75 61.8033 199.092 64.162 200.172 64.767C205.934 68.1552 208.813 72.2118 208.81 76.9367C208.809 78.2694 207.245 82.8137 204.117 90.5696C216.252 81.9593 224.18 77.6528 227.903 77.6502C234.148 77.6458 240.508 83.8201 246.984 96.1731Z" fill="#E6E1DB"/>
<path d="M285.651 183.921C272.93 172.178 263.389 164.31 257.027 160.316C257.143 166.374 255.638 171.221 252.514 174.857C249.269 178.615 245.545 180.496 241.342 180.499C236.778 180.502 232.997 178.869 229.997 175.6C226.997 172.452 225.499 168.395 225.502 163.428C225.506 158.339 226.949 154.28 229.834 151.249C232.718 148.218 236.021 146.701 239.744 146.699C244.187 146.695 248.029 148.207 251.269 151.234C251.63 150.143 251.811 148.871 251.812 147.417C251.814 144.267 250.797 139.058 248.761 131.791C249.721 132.153 250.801 133.122 252.001 134.696C255.96 140.024 257.937 146.746 257.931 154.864C262.732 158.131 271.493 165.939 284.214 178.288L285.651 183.921ZM250.725 156.868C248.324 155.294 245.082 154.509 240.999 154.512C233.674 154.517 230.01 156.398 230.008 160.153C230.005 163.182 232.226 164.695 236.669 164.692C240.032 164.689 243.214 163.9 246.218 162.323C249.101 160.746 250.603 158.927 250.725 156.868Z" fill="#E6E1DB"/>
<path d="M329.825 122.829L329.875 50.5011L273.495 50.5407C273.493 52.6003 277.095 54.4756 284.299 56.1667C294.384 58.5827 300.988 60.577 304.109 62.1498C311.312 65.537 314.911 70.32 314.907 76.4987C314.901 84.1313 311.234 90.4338 303.906 95.4062C313.989 100.245 322.569 109.386 329.645 122.829L329.825 122.829ZM279.223 102.511C282.947 100.691 287.391 99.0523 292.556 97.5949C299.162 95.2884 302.466 92.8024 302.468 90.1371C302.471 86.6237 299.17 83.6578 292.567 81.2394C286.564 79.3051 280.501 77.371 274.378 75.4368C267.775 72.7761 264.475 69.3862 264.478 65.267C264.48 62.4805 266.465 57.5725 270.433 50.5429L261.426 50.5492L261.431 43.6435L344.11 43.5855L344.106 50.4911L336.72 50.4963L336.655 144.631L333.955 141.726C332.521 131.913 325.922 123.316 314.159 115.934C305.636 110.731 296.812 107.405 287.687 105.958C286.726 106.322 285.885 106.868 285.164 107.595C283.481 109.414 282.639 111.716 282.637 114.503C282.635 117.41 283.714 120.135 285.874 122.678C288.153 125.463 291.154 127.218 294.876 127.942L278.837 139.765C272.476 134.197 269.298 127.475 269.304 119.6C269.308 114.027 271.292 109.362 275.258 105.603C276.46 104.391 277.781 103.36 279.223 102.511Z" fill="#E6E1DB"/>
<path d="M307.196 26.1655C311.759 26.4046 315.421 26.5232 318.183 26.5212C324.428 26.5168 329.23 28.7548 332.589 33.2351C335.589 37.1098 337.026 41.7126 336.903 47.0434L332.219 47.0466C332.34 46.9254 332.401 44.9869 332.404 41.2312C332.407 35.7794 327.245 33.0571 316.918 33.0643C315.837 33.0651 313.616 33.1272 310.253 33.2507C306.771 33.3743 304.429 33.4971 303.228 33.6191C300.105 34.1059 297.883 34.3498 296.563 34.3507C290.678 34.3549 285.636 33.0257 281.434 30.3633C277.113 27.5799 274.954 24.0074 274.957 19.6459C274.961 13.9518 277.966 9.52763 283.973 6.37346C290.46 2.85549 300.008 1.09208 312.617 1.08322C327.027 1.0731 338.433 5.06311 346.833 13.0532C354.874 20.8013 359.13 30.9751 359.601 43.5746L365.366 43.5705L365.361 50.4762L359.597 50.4802L359.534 140.617L358.634 140.618C357.793 140.619 356.593 139.771 355.033 138.076C353.473 136.381 352.693 134.686 352.695 132.99L352.752 50.4851L343.565 50.4915L343.57 43.5858L352.756 43.5794C352.052 20.1975 339.631 8.5151 315.494 8.53205C301.804 8.54167 294.957 11.8176 294.952 18.3598C294.95 21.3886 296.09 23.508 298.37 24.7179C299.691 25.4439 302.633 25.9264 307.196 26.1655Z" fill="#E6E1DB"/>
</svg>
