<svg width="960" height="1081" viewBox="0 0 960 1081" fill="none" xmlns="http://www.w3.org/2000/svg">
<rect width="15" height="1080" fill="#E6E1DB"/>
<rect x="-0.5" y="-0.5" width="16" height="1081" stroke="#1F1A14" stroke-opacity="0.2"/>
<rect x="16" width="15" height="1080" fill="#E6E1DB"/>
<rect x="15.5" y="-0.5" width="16" height="1081" stroke="#1F1A14" stroke-opacity="0.2"/>
<rect x="32" width="15" height="1080" fill="#E6E1DB"/>
<rect x="31.5" y="-0.5" width="16" height="1081" stroke="#1F1A14" stroke-opacity="0.2"/>
<rect x="48" width="15" height="1080" fill="#E6E1DB"/>
<rect x="47.5" y="-0.5" width="16" height="1081" stroke="#1F1A14" stroke-opacity="0.2"/>
<rect x="64" width="15" height="1080" fill="#E6E1DB"/>
<rect x="63.5" y="-0.5" width="16" height="1081" stroke="#1F1A14" stroke-opacity="0.2"/>
<rect x="80" width="15" height="1080" fill="#E6E1DB"/>
<rect x="79.5" y="-0.5" width="16" height="1081" stroke="#1F1A14" stroke-opacity="0.2"/>
<rect x="96" width="15" height="1080" fill="#E6E1DB"/>
<rect x="95.5" y="-0.5" width="16" height="1081" stroke="#1F1A14" stroke-opacity="0.2"/>
<rect x="112" width="15" height="1080" fill="#E6E1DB"/>
<rect x="111.5" y="-0.5" width="16" height="1081" stroke="#1F1A14" stroke-opacity="0.2"/>
<rect x="128" width="15" height="1080" fill="#E6E1DB"/>
<rect x="127.5" y="-0.5" width="16" height="1081" stroke="#1F1A14" stroke-opacity="0.2"/>
<rect x="144" width="15" height="1080" fill="#E6E1DB"/>
<rect x="143.5" y="-0.5" width="16" height="1081" stroke="#1F1A14" stroke-opacity="0.2"/>
<rect x="160" width="15" height="1080" fill="#E6E1DB"/>
<rect x="159.5" y="-0.5" width="16" height="1081" stroke="#1F1A14" stroke-opacity="0.2"/>
<rect x="176" width="15" height="1080" fill="#E6E1DB"/>
<rect x="175.5" y="-0.5" width="16" height="1081" stroke="#1F1A14" stroke-opacity="0.2"/>
<rect x="192" width="15" height="1080" fill="#E6E1DB"/>
<rect x="191.5" y="-0.5" width="16" height="1081" stroke="#1F1A14" stroke-opacity="0.2"/>
<rect x="208" width="15" height="1080" fill="#E6E1DB"/>
<rect x="207.5" y="-0.5" width="16" height="1081" stroke="#1F1A14" stroke-opacity="0.2"/>
<rect x="224" width="15" height="1080" fill="#E6E1DB"/>
<rect x="223.5" y="-0.5" width="16" height="1081" stroke="#1F1A14" stroke-opacity="0.2"/>
<rect x="240" width="15" height="1080" fill="#E6E1DB"/>
<rect x="239.5" y="-0.5" width="16" height="1081" stroke="#1F1A14" stroke-opacity="0.2"/>
<rect x="256" width="15" height="1080" fill="#E6E1DB"/>
<rect x="255.5" y="-0.5" width="16" height="1081" stroke="#1F1A14" stroke-opacity="0.2"/>
<rect x="272" width="15" height="1080" fill="#E6E1DB"/>
<rect x="271.5" y="-0.5" width="16" height="1081" stroke="#1F1A14" stroke-opacity="0.2"/>
<rect x="288" width="15" height="1080" fill="#E6E1DB"/>
<rect x="287.5" y="-0.5" width="16" height="1081" stroke="#1F1A14" stroke-opacity="0.2"/>
<rect x="304" width="15" height="1080" fill="#E6E1DB"/>
<rect x="303.5" y="-0.5" width="16" height="1081" stroke="#1F1A14" stroke-opacity="0.2"/>
<rect x="320" width="15" height="1080" fill="#E6E1DB"/>
<rect x="319.5" y="-0.5" width="16" height="1081" stroke="#1F1A14" stroke-opacity="0.2"/>
<rect x="336" width="15" height="1080" fill="#E6E1DB"/>
<rect x="335.5" y="-0.5" width="16" height="1081" stroke="#1F1A14" stroke-opacity="0.2"/>
<rect x="352" width="15" height="1080" fill="#E6E1DB"/>
<rect x="351.5" y="-0.5" width="16" height="1081" stroke="#1F1A14" stroke-opacity="0.2"/>
<rect x="368" width="15" height="1080" fill="#E6E1DB"/>
<rect x="367.5" y="-0.5" width="16" height="1081" stroke="#1F1A14" stroke-opacity="0.2"/>
<rect x="384" width="15" height="1080" fill="#E6E1DB"/>
<rect x="383.5" y="-0.5" width="16" height="1081" stroke="#1F1A14" stroke-opacity="0.2"/>
<rect x="400" width="15" height="1080" fill="#E6E1DB"/>
<rect x="399.5" y="-0.5" width="16" height="1081" stroke="#1F1A14" stroke-opacity="0.2"/>
<rect x="416" width="15" height="1080" fill="#E6E1DB"/>
<rect x="415.5" y="-0.5" width="16" height="1081" stroke="#1F1A14" stroke-opacity="0.2"/>
<rect x="432" width="15" height="1080" fill="#E6E1DB"/>
<rect x="431.5" y="-0.5" width="16" height="1081" stroke="#1F1A14" stroke-opacity="0.2"/>
<rect x="448" width="15" height="1080" fill="#E6E1DB"/>
<rect x="447.5" y="-0.5" width="16" height="1081" stroke="#1F1A14" stroke-opacity="0.2"/>
<rect x="464" width="15" height="1080" fill="#E6E1DB"/>
<rect x="463.5" y="-0.5" width="16" height="1081" stroke="#1F1A14" stroke-opacity="0.2"/>
<rect x="480" width="15" height="1080" fill="#E6E1DB"/>
<rect x="479.5" y="-0.5" width="16" height="1081" stroke="#1F1A14" stroke-opacity="0.2"/>
<rect x="496" width="15" height="1080" fill="#E6E1DB"/>
<rect x="495.5" y="-0.5" width="16" height="1081" stroke="#1F1A14" stroke-opacity="0.2"/>
<rect x="512" width="15" height="1080" fill="#E6E1DB"/>
<rect x="511.5" y="-0.5" width="16" height="1081" stroke="#1F1A14" stroke-opacity="0.2"/>
<rect x="528" width="15" height="1080" fill="#E6E1DB"/>
<rect x="527.5" y="-0.5" width="16" height="1081" stroke="#1F1A14" stroke-opacity="0.2"/>
<rect x="544" width="15" height="1080" fill="#E6E1DB"/>
<rect x="543.5" y="-0.5" width="16" height="1081" stroke="#1F1A14" stroke-opacity="0.2"/>
<rect x="560" width="15" height="1080" fill="#E6E1DB"/>
<rect x="559.5" y="-0.5" width="16" height="1081" stroke="#1F1A14" stroke-opacity="0.2"/>
<rect x="576" width="15" height="1080" fill="#E6E1DB"/>
<rect x="575.5" y="-0.5" width="16" height="1081" stroke="#1F1A14" stroke-opacity="0.2"/>
<rect x="592" width="15" height="1080" fill="#E6E1DB"/>
<rect x="591.5" y="-0.5" width="16" height="1081" stroke="#1F1A14" stroke-opacity="0.2"/>
<rect x="608" width="15" height="1080" fill="#E6E1DB"/>
<rect x="607.5" y="-0.5" width="16" height="1081" stroke="#1F1A14" stroke-opacity="0.2"/>
<rect x="624" width="15" height="1080" fill="#E6E1DB"/>
<rect x="623.5" y="-0.5" width="16" height="1081" stroke="#1F1A14" stroke-opacity="0.2"/>
<rect x="640" width="15" height="1080" fill="#E6E1DB"/>
<rect x="639.5" y="-0.5" width="16" height="1081" stroke="#1F1A14" stroke-opacity="0.2"/>
<rect x="656" width="15" height="1080" fill="#E6E1DB"/>
<rect x="655.5" y="-0.5" width="16" height="1081" stroke="#1F1A14" stroke-opacity="0.2"/>
<rect x="672" width="15" height="1080" fill="#E6E1DB"/>
<rect x="671.5" y="-0.5" width="16" height="1081" stroke="#1F1A14" stroke-opacity="0.2"/>
<rect x="688" width="15" height="1080" fill="#E6E1DB"/>
<rect x="687.5" y="-0.5" width="16" height="1081" stroke="#1F1A14" stroke-opacity="0.2"/>
<rect x="704" width="15" height="1080" fill="#E6E1DB"/>
<rect x="703.5" y="-0.5" width="16" height="1081" stroke="#1F1A14" stroke-opacity="0.2"/>
<rect x="720" width="15" height="1080" fill="#E6E1DB"/>
<rect x="719.5" y="-0.5" width="16" height="1081" stroke="#1F1A14" stroke-opacity="0.2"/>
<rect x="736" width="15" height="1080" fill="#E6E1DB"/>
<rect x="735.5" y="-0.5" width="16" height="1081" stroke="#1F1A14" stroke-opacity="0.2"/>
<rect x="752" width="15" height="1080" fill="#E6E1DB"/>
<rect x="751.5" y="-0.5" width="16" height="1081" stroke="#1F1A14" stroke-opacity="0.2"/>
<rect x="768" width="15" height="1080" fill="#E6E1DB"/>
<rect x="767.5" y="-0.5" width="16" height="1081" stroke="#1F1A14" stroke-opacity="0.2"/>
<rect x="784" width="15" height="1080" fill="#E6E1DB"/>
<rect x="783.5" y="-0.5" width="16" height="1081" stroke="#1F1A14" stroke-opacity="0.2"/>
<rect x="800" width="15" height="1080" fill="#E6E1DB"/>
<rect x="799.5" y="-0.5" width="16" height="1081" stroke="#1F1A14" stroke-opacity="0.2"/>
<rect x="816" width="15" height="1080" fill="#E6E1DB"/>
<rect x="815.5" y="-0.5" width="16" height="1081" stroke="#1F1A14" stroke-opacity="0.2"/>
<rect x="832" width="15" height="1080" fill="#E6E1DB"/>
<rect x="831.5" y="-0.5" width="16" height="1081" stroke="#1F1A14" stroke-opacity="0.2"/>
<rect x="848" width="15" height="1080" fill="#E6E1DB"/>
<rect x="847.5" y="-0.5" width="16" height="1081" stroke="#1F1A14" stroke-opacity="0.2"/>
<rect x="864" width="15" height="1080" fill="#E6E1DB"/>
<rect x="863.5" y="-0.5" width="16" height="1081" stroke="#1F1A14" stroke-opacity="0.2"/>
<rect x="880" width="15" height="1080" fill="#E6E1DB"/>
<rect x="879.5" y="-0.5" width="16" height="1081" stroke="#1F1A14" stroke-opacity="0.2"/>
<rect x="896" width="15" height="1080" fill="#E6E1DB"/>
<rect x="895.5" y="-0.5" width="16" height="1081" stroke="#1F1A14" stroke-opacity="0.2"/>
<rect x="912" width="15" height="1080" fill="#E6E1DB"/>
<rect x="911.5" y="-0.5" width="16" height="1081" stroke="#1F1A14" stroke-opacity="0.2"/>
<rect x="928" width="15" height="1080" fill="#E6E1DB"/>
<rect x="927.5" y="-0.5" width="16" height="1081" stroke="#1F1A14" stroke-opacity="0.2"/>
<rect x="944" width="15" height="1080" fill="#E6E1DB"/>
<rect x="943.5" y="-0.5" width="16" height="1081" stroke="#1F1A14" stroke-opacity="0.2"/>
</svg>
