<svg width="366" height="184" viewBox="0 0 366 184" fill="none" xmlns="http://www.w3.org/2000/svg">
<path d="M64.6547 50.6873C58.5303 50.6916 51.5625 54.6945 43.7513 62.696C38.3437 68.1516 34.1358 75.1814 31.1277 83.7853C28.3601 91.9044 26.9734 100.144 26.9676 108.503C26.9612 117.711 28.9376 124.979 32.8967 130.306C36.1359 134.908 40.0371 137.207 44.6003 137.204C47.7226 137.202 50.2454 135.746 52.1688 132.837L59.3703 138.102C55.6462 140.164 51.2624 141.197 46.2187 141.201C37.0922 141.207 28.4489 137.033 20.2888 128.68C11.5286 119.842 7.15251 109.668 7.16049 98.1586C7.17258 80.7127 13.8482 65.0189 27.1875 51.077L27.1877 50.7136L0.708699 50.7322L0.713485 43.8265L64.6595 43.7816L64.6547 50.6873Z" fill="#1F1A14"/>
<path d="M124.768 122.973L124.818 50.645L68.4374 50.6846C68.436 52.7442 72.0373 54.6195 79.2413 56.3106C89.3269 58.7265 95.9302 60.7209 99.0514 62.2937C106.254 65.6809 109.853 70.4639 109.849 76.6426C109.844 84.2752 106.177 90.5777 98.8482 95.55C108.932 100.389 117.512 109.53 124.588 122.973L124.768 122.973ZM74.1655 102.655C77.8895 100.835 82.3338 99.1962 87.4985 97.7388C94.1049 95.4322 97.409 92.9463 97.4108 90.281C97.4132 86.7675 94.1129 83.8016 87.5099 81.3832C81.5069 79.449 75.4439 77.5148 69.3208 75.5807C62.7179 72.92 59.4179 69.5301 59.4207 65.4109C59.4227 62.6244 61.4075 57.7164 65.3752 50.6867L56.3687 50.6931L56.3735 43.7874L139.053 43.7293L139.048 50.635L131.663 50.6402L131.598 144.775L128.898 141.87C127.463 132.057 120.865 123.46 109.101 116.078C100.579 110.875 91.7548 107.549 82.6292 106.102C81.6683 106.466 80.8273 107.012 80.1063 107.739C78.4238 109.557 77.5816 111.86 77.5797 114.646C77.5777 117.554 78.6566 120.279 80.8163 122.822C83.0961 125.607 86.097 127.361 89.8192 128.086L73.7795 139.909C67.4187 134.341 64.2411 127.619 64.2466 119.744C64.2504 114.171 66.2351 109.505 70.2005 105.747C71.4022 104.535 72.7239 103.504 74.1655 102.655Z" fill="#1F1A14"/>
<path d="M159.943 50.6203L154.539 50.6241L154.477 140.761L153.576 140.762C152.736 140.762 151.535 139.915 149.975 138.22C148.415 136.525 147.636 134.83 147.637 133.133L147.694 50.6289L138.508 50.6354L138.513 43.7297L149.681 43.7219C149.921 42.7525 150.042 41.9649 150.043 41.3591C150.044 38.9361 148.605 36.9987 145.723 35.5469C142.963 33.9738 139.24 33.189 134.557 33.1923C132.756 33.1935 129.453 33.4381 124.649 33.9261C119.846 34.293 116.423 34.4771 114.382 34.4785C107.297 34.4835 100.634 31.6411 94.3932 25.9513C88.0326 20.2617 82.8143 12.3905 78.7383 2.3377L81.8019 0.336542C84.1988 7.36168 87.3177 12.145 91.1587 14.6865C94.6395 17.1071 99.9225 18.3149 107.008 18.3099C109.289 18.3083 111.871 18.1248 114.754 17.7593C117.516 17.2727 119.437 17.0291 120.518 17.0283C129.645 17.0219 137.209 19.3791 143.21 24.0998C149.331 28.8204 152.989 35.36 154.184 43.7187L159.948 43.7146L159.943 50.6203Z" fill="#1F1A14"/>
<path d="M261.716 50.5488L253.611 50.5545L253.548 140.692L252.647 140.692C251.807 140.693 250.607 139.846 249.047 138.151C247.487 136.456 246.707 134.76 246.708 133.064L246.73 101.807C245.051 98.2944 242.771 96.5393 239.889 96.5413C237.727 96.5429 229.798 101.395 216.102 111.096C202.405 120.677 192.795 125.469 187.271 125.473C182.828 125.476 174.848 116.88 163.332 99.6845L166.215 97.6835C168.494 101.195 170.114 103.375 171.074 104.222C172.634 105.917 174.375 106.764 176.296 106.763C179.659 106.76 187.647 102.212 200.263 93.1163C200.865 90.2083 198.225 87.1813 192.343 84.0355C186.581 81.3742 180.819 78.6523 175.057 75.8699C168.815 72.3609 165.695 68.7285 165.697 64.9728C165.699 62.3074 168.104 57.5202 172.913 50.6112L159.223 50.6208L159.228 43.7152L261.721 43.6432L261.716 50.5488ZM246.734 96.1731L246.766 50.5593L175.975 50.6091C175.733 52.9111 178.373 55.2717 183.896 57.6909C193.5 61.8033 198.842 64.162 199.922 64.767C205.684 68.1552 208.563 72.2118 208.56 76.9367C208.559 78.2694 206.995 82.8137 203.867 90.5696C216.002 81.9593 223.93 77.6528 227.653 77.6502C233.898 77.6458 240.258 83.8201 246.734 96.1731Z" fill="#1F1A14"/>
<path d="M285.401 183.921C272.68 172.178 263.139 164.31 256.777 160.316C256.893 166.374 255.388 171.221 252.264 174.857C249.019 178.615 245.295 180.496 241.092 180.499C236.528 180.502 232.747 178.869 229.747 175.6C226.747 172.452 225.249 168.395 225.252 163.428C225.256 158.339 226.699 154.28 229.584 151.249C232.468 148.218 235.771 146.701 239.494 146.699C243.937 146.695 247.779 148.207 251.019 151.234C251.38 150.143 251.561 148.871 251.562 147.417C251.564 144.267 250.547 139.058 248.511 131.791C249.471 132.153 250.551 133.122 251.751 134.696C255.71 140.024 257.687 146.746 257.681 154.864C262.482 158.131 271.243 165.939 283.964 178.288L285.401 183.921ZM250.475 156.868C248.074 155.294 244.832 154.509 240.749 154.512C233.424 154.517 229.76 156.398 229.758 160.153C229.755 163.182 231.976 164.695 236.419 164.692C239.782 164.689 242.964 163.9 245.968 162.323C248.851 160.746 250.353 158.927 250.475 156.868Z" fill="#1F1A14"/>
<path d="M329.575 122.829L329.625 50.5011L273.245 50.5407C273.243 52.6003 276.845 54.4756 284.049 56.1667C294.134 58.5827 300.738 60.577 303.859 62.1498C311.062 65.537 314.661 70.32 314.657 76.4987C314.651 84.1313 310.984 90.4338 303.656 95.4062C313.739 100.245 322.319 109.386 329.395 122.829L329.575 122.829ZM278.973 102.511C282.697 100.691 287.141 99.0523 292.306 97.5949C298.912 95.2884 302.216 92.8024 302.218 90.1371C302.221 86.6237 298.92 83.6578 292.317 81.2394C286.314 79.3051 280.251 77.371 274.128 75.4368C267.525 72.7761 264.225 69.3862 264.228 65.267C264.23 62.4805 266.215 57.5725 270.183 50.5429L261.176 50.5492L261.181 43.6435L343.86 43.5855L343.856 50.4911L336.47 50.4963L336.405 144.631L333.705 141.726C332.271 131.913 325.672 123.316 313.909 115.934C305.386 110.731 296.562 107.405 287.437 105.958C286.476 106.322 285.635 106.868 284.914 107.595C283.231 109.414 282.389 111.716 282.387 114.503C282.385 117.41 283.464 120.135 285.624 122.678C287.903 125.463 290.904 127.218 294.626 127.942L278.587 139.765C272.226 134.197 269.048 127.475 269.054 119.6C269.058 114.027 271.042 109.362 275.008 105.603C276.21 104.391 277.531 103.36 278.973 102.511Z" fill="#1F1A14"/>
<path d="M306.946 26.1655C311.509 26.4046 315.171 26.5232 317.933 26.5212C324.178 26.5169 328.98 28.7548 332.339 33.2351C335.339 37.1098 336.777 41.7126 336.653 47.0434L331.969 47.0466C332.09 46.9254 332.151 44.9869 332.154 41.2312C332.157 35.7794 326.995 33.0571 316.668 33.0643C315.587 33.0651 313.366 33.1272 310.003 33.2507C306.521 33.3743 304.179 33.4971 302.978 33.6191C299.855 34.1059 297.633 34.3498 296.313 34.3507C290.428 34.3549 285.386 33.0257 281.184 30.3633C276.863 27.5799 274.704 24.0074 274.707 19.6459C274.711 13.9518 277.716 9.52763 283.723 6.37346C290.21 2.85549 299.758 1.09208 312.367 1.08323C326.777 1.0731 338.183 5.06311 346.583 13.0532C354.624 20.8013 358.88 30.9751 359.351 43.5746L365.116 43.5705L365.111 50.4762L359.347 50.4802L359.284 140.617L358.384 140.618C357.543 140.619 356.343 139.771 354.783 138.076C353.223 136.381 352.443 134.686 352.445 132.99L352.502 50.4851L343.315 50.4915L343.32 43.5858L352.506 43.5794C351.802 20.1975 339.381 8.5151 315.244 8.53205C301.554 8.54167 294.707 11.8176 294.702 18.3598C294.7 21.3886 295.84 23.508 298.12 24.7179C299.441 25.4439 302.383 25.9264 306.946 26.1655Z" fill="#1F1A14"/>
</svg>
