<svg width="1063" height="208" viewBox="0 0 1063 208" fill="none" xmlns="http://www.w3.org/2000/svg">
<path d="M1062.79 0.173828L480.302 0.173981L480.302 150.251C481.558 149.962 482.773 149.632 483.904 149.137C484.239 148.972 484.699 149.014 485.118 149.014C485.411 149.014 485.704 149.014 485.998 149.055C486.291 149.096 486.542 149.137 486.835 149.137C486.961 149.137 487.086 149.137 487.212 149.137C489.306 149.014 490.646 148.024 492.154 147.158C492.866 146.828 493.703 146.993 494.457 146.911C495.42 146.787 496.258 146.539 496.76 145.921C497.012 145.508 497.012 145.014 497.765 144.807C499.524 143.859 501.199 143.117 503.796 143.694C505.848 144.148 507.942 143.199 509.952 142.663C514.056 141.508 518.453 142.787 519.919 145.591C520.212 146.127 519.961 146.622 519.877 147.117C519.835 147.612 519.793 148.148 520.003 148.643C520.086 148.766 520.212 148.89 520.38 148.972C521.133 149.261 521.971 149.137 522.767 149.344C523.73 149.509 524.567 149.838 525.363 150.251C526.159 150.581 526.913 150.622 527.457 149.962C527.708 149.467 528.001 149.014 528.965 149.385C529.593 149.673 530.179 150.003 530.723 150.333C531.561 150.787 532.482 150.993 533.487 150.622C534.451 150.21 535.456 150.292 536.503 150.416C536.628 150.498 536.754 150.581 536.88 150.663C537.173 151.199 537.55 151.694 538.345 151.983C539.769 152.56 540.272 153.797 541.821 154.333C543.161 154.787 544.418 155.364 546.051 155.158C546.595 155.076 547.098 155.282 547.517 155.57C548.145 156.56 547.852 157.55 547.642 158.54C547.349 159.57 547.81 160.313 549.234 160.766C550.825 161.302 551.579 162.333 552.626 163.241C552.961 163.571 553.296 163.9 553.924 164.024C554.175 164.065 554.427 164.148 554.678 164.23C555.097 164.56 554.929 164.808 554.427 164.973C554.05 165.096 553.715 165.22 553.757 165.55C554.092 166.086 554.51 166.581 555.264 166.87C555.976 167.076 556.73 167.034 557.484 167.034C559.326 166.952 560.331 167.571 561.63 168.478C562.509 169.096 563.305 169.756 564.059 170.416C565.566 171.694 566.948 173.014 568.414 174.334C569.21 174.54 570.047 174.457 570.885 174.581C571.094 174.581 571.304 174.581 571.513 174.54C571.974 174.334 572.183 174.045 572.309 173.715C572.392 173.55 572.434 173.261 572.727 173.303C573.356 173.344 573.356 173.756 573.523 174.086C573.523 174.127 573.565 174.127 573.565 174.169C573.858 174.622 574.444 174.787 575.114 174.705C575.784 174.581 576.203 174.292 576.413 173.839C576.455 173.715 576.455 173.591 576.496 173.468C576.622 173.014 576.873 172.602 577.585 172.437C577.627 172.437 577.669 172.437 577.711 172.395C578.507 172.272 578.716 172.849 579.177 173.138C579.512 173.303 579.805 173.509 580.14 173.715C580.768 174.086 581.438 174.457 582.234 174.705C583.448 174.746 583.406 175.323 583.364 175.901C584.579 177.509 585.668 178.004 587.845 177.88C588.599 177.633 589.395 177.756 590.149 177.88C591.028 178.004 591.908 178.004 592.787 177.962C592.871 177.962 592.913 177.962 592.996 177.962C593.918 177.962 594.839 177.633 595.802 177.839C597.854 178.045 599.488 177.55 600.66 176.395C601.456 175.612 602.503 175.2 603.885 174.993C605.686 174.705 606.984 173.962 607.486 172.684C607.528 172.024 608.156 171.859 608.952 171.859C610.837 171.571 612.679 171.076 614.648 170.952C616.239 170.828 617.035 169.88 618.082 169.179C619.128 168.478 619.882 167.983 621.641 168.519C623.651 169.138 625.871 169.055 627.378 167.488C628.216 166.622 629.556 166.292 631.022 166.498C632.194 166.663 632.948 166.333 633.702 165.715C635.126 164.56 636.717 163.488 638.769 162.869C639.104 162.787 639.523 162.663 639.607 162.457C640.068 161.055 641.743 160.478 643.208 159.653C644.8 158.787 645.009 157.467 644.213 156.106C643.167 154.374 643.669 153.426 646.14 152.478C646.936 152.189 647.731 151.859 648.443 151.488C649.49 150.869 650.076 151.529 650.788 151.9C651.291 152.148 651.835 152.23 652.464 152.189C653.72 151.818 654.264 153.014 655.437 152.849C655.939 152.849 656.358 152.725 656.777 152.56C657.447 152.313 658.159 152.271 658.871 152.478C659.206 152.601 659.583 152.601 659.918 152.519C661.342 152.395 661.425 153.261 661.97 153.797C663.101 154.746 664.901 154.787 666.367 155.241C666.911 155.405 667.414 155.117 667.875 154.869C669.717 153.838 669.717 153.838 671.728 155.034C672.188 155.405 672.104 155.9 672.398 156.271C674.156 157.22 674.575 157.137 675.078 155.735C675.245 155.241 675.58 154.869 676.292 154.746C677.381 154.539 677.632 155.199 678.093 155.653C678.805 156.519 678.721 157.509 678.889 158.416C679.894 159.694 681.276 160.601 683.537 160.643C684.584 160.684 685.338 161.096 686.092 161.509C686.72 161.88 687.222 162.375 687.892 162.704C688.521 163.076 688.06 163.653 688.437 164.065L688.479 164.107C689.861 165.22 692.08 165.385 693.755 166.168C694.635 166.251 694.761 166.622 694.551 167.117C694.886 168.065 695.682 168.725 697.148 168.808C698.32 168.89 699.074 168.437 699.283 167.612C699.283 167.199 699.032 166.787 699.116 166.375C699.242 165.756 699.618 166.004 699.995 166.251C700.791 166.746 701.629 167.241 701.964 168.024C702.34 168.849 703.387 169.261 704.56 169.468C705.942 169.632 707.366 169.385 708.748 169.715C709.837 170.004 711.009 170.086 712.14 170.251C712.433 170.292 712.726 170.333 713.019 170.292C714.695 169.839 715.323 171.158 716.663 171.282C717.5 171.241 717.919 171.653 718.464 171.983C719.301 172.602 720.474 172.808 721.479 173.22C721.521 173.261 721.563 173.261 721.605 173.303C721.981 173.633 721.856 174.004 721.981 174.375C722.149 174.828 722.275 175.241 722.484 175.653C722.777 176.107 723.405 176.272 724.033 176.437C724.201 176.478 724.368 176.519 724.536 176.56C725.038 176.643 725.499 176.808 725.918 177.014C726.085 177.096 726.211 177.138 726.379 177.179C727.091 177.261 727.719 177.468 728.137 177.88C730.608 180.684 734.461 181.55 738.942 181.591C739.822 181.756 741.078 181.055 741.497 182.21C741.706 182.457 741.915 182.622 742.25 182.787C742.376 182.829 742.502 182.911 742.669 182.952C743.507 183.158 744.386 183.076 745.266 183.117C745.601 183.158 746.02 183.117 746.271 183.241C748.993 184.849 752.511 184.066 755.568 184.684C756.322 184.56 757.076 184.437 757.829 184.725C759.546 185.468 761.138 186.334 762.687 187.241C764.488 188.272 765.661 189.509 767.084 190.664C767.713 190.87 768.466 190.829 769.136 191.076C771.607 191.736 774.162 192.313 776.591 193.055C777.261 193.179 777.973 193.097 778.601 193.385C780.82 194.293 782.872 195.406 785.385 195.901C786.516 196.272 788.024 195.406 788.987 196.354C789.489 196.891 790.159 197.303 790.997 197.55C791.751 197.756 792.588 197.674 793.342 197.88C793.928 198.004 794.473 198.169 795.059 198.21C795.729 198.251 796.399 198.21 797.027 198.416C797.362 198.54 797.656 198.664 797.823 198.87C797.949 198.952 798.032 199.076 798.074 199.2C798.2 199.406 798.242 199.653 798.242 199.942C798.242 200.354 798.326 200.726 798.535 201.055C798.702 201.344 798.954 201.592 799.331 201.839C800.168 202.251 801.09 202.293 802.095 202.251C803.309 202.169 804.23 201.757 805.026 201.179C805.529 200.849 806.073 200.767 806.617 200.932C806.743 200.973 806.911 201.056 807.036 201.097C807.036 201.097 807.036 201.138 807.078 201.138C807.204 201.344 807.371 201.55 807.539 201.757C808.125 202.416 808.921 202.952 809.675 203.53C809.926 203.736 810.135 203.901 810.345 204.107C810.68 204.437 811.14 204.684 811.727 204.643C813.527 204.561 813.988 205.303 814.03 206.334C814.072 206.829 814.281 207.282 814.951 207.53C816.082 207.695 817.213 207.983 818.427 207.901C819.6 207.777 820.689 207.612 821.61 207.2C822.112 206.953 822.531 206.664 822.908 206.251C823.536 205.839 824.164 205.88 824.834 206.21C826.175 206.911 827.263 206.788 828.017 205.757C829.022 204.396 831.2 204.025 832.708 203.035C833.252 202.705 833.964 202.787 834.634 202.746C835.974 202.623 837.063 201.88 838.529 201.963C839.576 202.086 840.455 202.499 841.502 202.664C842.214 202.87 842.758 203.282 843.47 203.489C843.889 203.571 844.35 203.612 844.81 203.695C845.062 203.736 845.313 203.777 845.564 203.818C846.988 203.983 848.454 203.983 849.92 204.148C852.097 204.396 853.898 203.53 855.489 202.788C857.96 201.592 860.557 201.715 863.279 201.839C863.781 201.88 864.326 202.086 864.703 201.921C867.132 200.932 869.267 201.88 871.445 202.416C872.659 202.705 873.748 202.622 874.418 201.88C876.177 199.983 878.606 198.911 881.873 198.705C882.794 198.334 883.799 198.458 884.762 198.622C886.312 198.334 887.861 199.035 889.411 198.746C890.332 198.251 891.295 197.921 892.51 198.086C894.394 198.251 895.902 197.715 897.368 197.014C897.954 196.684 898.666 196.767 899.336 196.643C899.629 196.602 899.88 196.478 900.132 196.396C900.927 196.066 901.89 196.272 902.686 196.066C904.989 194.746 907.67 193.839 910.392 193.014C911.187 192.643 912.025 192.808 912.863 192.932C914.705 192.973 916.464 192.849 917.679 191.653C918.097 191.241 918.851 191.158 919.563 191.2C920.275 191.241 920.945 191.2 921.615 190.993C922.453 190.664 923.458 190.829 924.337 190.705C926.641 190.292 928.902 189.715 930.828 188.725C931.457 188.272 932.252 188.148 933.132 188.066C933.802 187.942 934.346 187.736 934.891 187.488C935.351 187.2 935.77 186.87 936.314 186.664C936.482 186.622 936.649 186.54 936.775 186.499C937.529 186.251 938.283 186.127 939.078 186.416C941.424 187.406 944.062 186.911 946.575 187.035C947.831 187.076 949.087 186.87 950.302 187.2C952.103 187.736 953.359 188.849 955.243 189.262C955.913 189.344 956.625 189.262 957.128 189.674C960.227 192.437 964.373 192.767 968.938 192.107C969.566 192.024 970.152 191.942 970.78 191.942C971.408 191.942 972.037 191.942 972.665 191.942C973.335 191.942 974.047 191.901 974.675 192.107C975.052 192.231 975.387 192.354 975.764 192.437C976.518 192.602 977.271 192.89 978.067 193.014C979.7 193.055 980.915 194.086 982.632 193.88C983.804 193.715 984.977 193.591 986.191 193.633C986.736 193.633 987.28 193.633 987.825 193.591C989.625 193.344 990.882 192.478 992.054 191.612C993.143 190.87 994.316 190.375 995.865 190.334C996.535 190.169 997.247 190.169 997.959 190.086C999.969 189.55 1000.81 188.231 1002.06 187.158C1002.27 186.705 1002.69 186.416 1003.36 186.292C1005.08 185.468 1007.26 185.22 1008.76 184.148C1009.31 183.777 1009.89 183.859 1010.48 184.148C1011.28 184.56 1012.11 184.932 1013.16 185.014C1013.79 185.055 1014.38 185.055 1014.96 184.973C1015.8 184.849 1016.18 184.272 1016.85 183.983C1017.47 183.694 1018.1 183.488 1018.23 184.313C1018.31 184.602 1018.52 184.808 1018.98 184.849C1020.28 184.684 1021.49 184.23 1022.12 183.529C1023.55 181.962 1025.72 181.55 1028.07 181.261C1028.7 181.179 1029.28 181.055 1029.91 181.055C1030.83 181.014 1031.75 180.973 1032.68 181.22C1033.72 181.385 1034.64 181.797 1035.69 181.88C1036.32 181.921 1036.95 181.921 1037.58 181.839C1037.83 181.797 1038.16 181.756 1038.29 181.591C1039.38 180.272 1041.01 179.942 1043.06 180.313C1043.77 180.189 1044.49 180.065 1045.16 180.437C1046.45 181.674 1048.67 181.468 1050.43 182.045C1051.27 182.21 1051.94 182.663 1052.9 182.622C1053.11 182.622 1053.28 182.581 1053.49 182.54C1054.03 182.416 1054.66 182.375 1055.12 182.127C1056.88 180.602 1059.14 179.571 1061.95 179.117C1062.33 179.117 1062.66 179.241 1063 179.364L1063 76.3558L1062.79 0.173828Z" fill="#F2F2F2"/>
<path d="M480.301 85.1582L480.301 139.741C480.929 139.7 481.515 139.658 482.144 139.658C483.777 140.772 483.777 140.772 485.243 139.04C485.578 138.751 485.955 138.545 486.415 138.339C486.792 138.133 487.253 138.133 487.63 137.968C488.928 137.225 490.436 136.978 492.111 137.267C493.158 137.267 494.205 137.308 495.21 137.514C497.052 137.679 498.895 137.555 500.738 137.596C502.832 137.638 504.255 136.483 505.009 135.122C505.093 134.669 505.009 134.215 505.428 133.844C505.763 133.514 506.182 133.184 506.642 132.895C507.019 132.648 507.396 132.648 507.815 132.813C508.066 132.936 508.276 133.143 508.569 133.266C508.988 133.473 509.49 133.514 509.951 133.473C510.453 133.679 509.909 133.926 510.035 134.133C510.453 135.37 511.584 136.236 513.008 136.978C513.887 137.432 514.892 137.596 515.898 137.184C516.149 137.06 516.316 136.854 516.609 136.772C516.777 136.73 516.944 136.442 517.154 136.73C517.238 136.813 517.112 136.978 517.07 137.102C517.238 138.009 518.326 138.421 519.122 138.957C519.876 139.452 520.462 140.03 521.007 140.607C521.425 140.978 521.677 141.432 522.179 141.762C522.347 141.844 522.556 141.886 522.724 141.927C523.477 141.968 523.938 141.72 523.98 141.184C523.98 140.978 523.854 140.772 523.687 140.607C523.561 140.401 523.184 140.236 523.478 140.029C523.729 139.864 524.064 140.029 524.399 140.112C525.027 140.277 525.697 140.401 526.409 140.401C527.121 140.359 527.833 140.112 528.545 140.442C529.508 140.772 530.387 141.267 531.392 141.556C532.984 142.05 532.649 143.246 533.361 144.071C533.821 144.442 534.45 144.649 535.036 144.896C535.999 145.185 536.334 145.762 536.502 146.422C536.795 146.917 536.753 147.494 536.962 147.989C537.423 148.69 538.344 149.102 538.972 149.721C539.559 150.092 539.684 150.628 540.103 151.082C541.318 151.948 543.077 152.195 544.375 152.978C545.087 153.35 545.924 153.267 546.72 153.432C548.018 153.762 549.023 154.463 550.238 154.875C551.745 155.411 550.782 156.195 550.363 156.814C549.191 158.504 549.275 158.875 551.243 160.113C551.997 160.401 552.876 160.484 553.756 160.484C554.886 160.443 555.975 160.195 557.106 160.319C558.53 160.525 558.111 161.185 557.818 161.762C557.567 162.381 557.148 162.917 557.148 163.577C557.399 164.195 557.148 164.896 557.65 165.515C560.749 166.628 562.508 168.442 563.932 170.422C564.602 171.329 565.23 172.277 565.9 173.226C566.947 174.711 568.371 175.453 570.716 175.329C571.554 175.082 572.852 175.329 573.145 174.38C573.187 174.174 573.271 174.051 573.396 174.009C573.606 173.927 573.899 173.968 574.234 174.051C574.82 174.133 575.365 174.051 575.825 173.844C575.993 173.762 576.119 173.68 576.244 173.597C576.286 173.556 576.37 173.473 576.412 173.432C576.705 173.102 576.956 172.772 577.333 172.525C577.417 172.484 577.501 172.401 577.584 172.401C578.296 172.071 578.841 172.319 579.259 172.855C579.469 173.143 579.72 173.432 580.013 173.68C580.516 174.174 581.144 174.628 581.898 174.958C583.196 175.659 583.573 176.814 584.829 177.515C585.583 177.927 586.379 178.133 587.342 177.927C587.468 177.886 587.593 177.844 587.719 177.844C588.347 177.721 588.975 177.844 589.603 177.968C590.692 178.092 591.697 178.092 592.661 177.968C593.749 177.844 594.796 177.556 595.885 177.143C597.937 176.401 600.199 175.948 601.581 174.546C601.999 174.174 602.083 173.68 602.628 173.391C602.879 173.226 603.172 173.02 603.381 172.855C603.507 172.772 603.591 172.649 603.674 172.525C604.303 171.618 605.433 171.618 606.69 171.741C607.946 171.741 609.119 171.576 609.998 170.834C610.375 170.463 610.501 169.927 611.38 169.845C611.548 169.845 611.757 169.803 611.924 169.762C612.888 169.556 613.851 169.762 614.814 169.556C616.573 168.979 617.955 168.154 618.709 166.875C619.211 166.463 619.756 166.628 620.342 166.793C624.446 167.577 625.744 167.247 628.089 164.772C628.508 164.319 629.095 164.154 629.807 164.03C633.952 163.37 636.507 161.308 639.062 159.205C639.606 158.752 639.564 158.216 639.397 157.68C639.02 156.195 639.69 154.958 641.155 153.886C641.784 153.432 642.286 152.937 642.747 152.401C643.919 151.081 645.511 150.174 647.647 149.638C650.117 149.02 652.211 147.783 654.933 147.576C655.645 147.288 656.315 147.329 657.027 147.576C658.493 147.989 659.875 147.741 661.215 147.288C662.346 146.875 663.477 146.752 664.649 147.205C664.775 147.288 664.9 147.37 665.026 147.453C665.403 147.782 665.822 148.154 666.115 148.525C666.199 148.649 666.324 148.731 666.45 148.813C667.036 149.267 667.874 149.432 668.502 149.803C669.968 150.752 670.847 152.03 672.271 153.02C673.234 153.679 674.155 154.133 675.537 153.968C676.71 153.803 677.548 154.133 678.176 154.793C678.72 155.37 679.432 155.824 680.186 156.236C680.521 156.401 680.982 156.607 681.024 156.855C681.652 160.236 686.677 160.649 689.232 162.752C688.645 163.412 688.31 163.824 688.268 164.113C688.185 164.607 688.855 164.937 690.572 165.762C691.619 166.092 692.205 166.752 693.126 167.205C693.922 167.659 694.76 168.112 695.346 168.69C695.639 168.978 695.974 169.308 696.435 169.308C698.654 169.391 700.497 170.504 702.8 170.422C703.386 170.587 703.973 170.669 704.601 170.669C705.145 170.669 705.606 170.587 706.067 170.422C707.03 170.051 707.993 169.968 708.998 170.339C709.878 170.587 710.799 170.793 711.553 171.205C712.223 171.576 712.809 171.494 713.312 171.04C713.73 170.587 714.107 170.793 714.442 171.123C716.076 172.401 718.588 172.442 720.64 173.143C720.892 173.143 721.143 173.143 721.394 173.185C722.148 173.308 722.734 173.597 722.902 174.298C723.404 175.04 724.242 175.494 725.414 175.535C726.336 175.494 727.299 175.494 728.178 175.741C729.937 175.948 731.152 176.525 731.906 177.679C732.199 178.092 732.618 178.463 733.246 178.71C734.083 178.999 734.795 178.298 735.633 178.587C735.8 178.628 735.968 178.628 736.177 178.669C736.638 178.752 737.182 178.587 737.475 178.999C737.685 179.411 737.182 179.989 738.02 180.277C738.648 180.484 739.486 180.36 740.03 180.772C740.616 181.102 741.077 181.514 741.454 182.009C741.621 182.257 741.831 182.504 742.082 182.71C742.291 182.875 742.543 182.999 742.794 183.04C745.725 183.164 747.61 185.061 750.541 185.185C751.463 185.226 752.217 185.597 753.096 185.762C753.808 185.844 754.478 185.968 754.939 186.463C755.777 187.123 756.907 187.288 758.122 187.205C759.629 187.329 759.001 188.277 759.42 188.813C759.797 189.349 760.509 189.679 761.263 189.926C762.98 190.504 764.404 191.287 765.66 192.277C767.042 193.349 768.591 193.968 770.769 193.432C771.69 193.226 772.654 193.267 773.617 193.555C776.758 194.545 780.15 195.081 783.039 196.483C783.207 196.566 783.416 196.566 783.626 196.607C784.463 196.566 785.259 196.69 786.055 196.937C787.855 197.267 789.572 197.721 791.289 198.257C793.132 198.834 795.142 198.999 797.152 198.793C797.404 198.793 797.613 198.834 797.739 198.917C797.906 198.999 797.99 199.123 797.99 199.246C797.99 199.453 797.864 199.659 797.781 199.906C797.655 200.484 797.906 200.855 798.409 201.102C798.702 201.226 799.037 201.308 799.456 201.35C801.256 201.597 803.057 201.927 804.774 201.02C805.319 200.731 805.905 200.731 806.491 200.937C806.617 200.978 806.742 201.061 806.868 201.102C806.91 201.102 806.952 201.143 806.952 201.143C807.203 201.308 807.287 201.556 807.413 201.762C807.496 201.927 807.538 202.092 807.664 202.257C808.166 202.752 808.878 203.164 809.548 203.535C809.841 203.7 810.135 203.865 810.428 204.071C811.098 204.36 811.894 204.236 812.564 204.484C813.15 204.649 813.527 204.937 813.778 205.35C814.239 205.886 813.904 206.546 814.406 207.041C814.532 207.164 814.699 207.247 814.909 207.329C815.663 207.535 816.458 207.412 817.212 207.535C818.678 207.577 820.102 207.618 821.442 207.206C821.819 207.082 822.196 206.958 822.572 206.752C823.284 206.381 824.164 206.504 824.96 206.669C826.258 206.958 827.43 206.876 828.352 206.092C828.854 205.597 829.189 205.061 829.943 204.69C831.283 204.69 832.539 204.36 833.586 203.783C835.303 202.834 837.188 202.463 839.324 202.587C840.036 202.463 840.664 202.587 841.292 202.793C842.255 203.082 843.093 203.535 844.14 203.618C844.307 203.618 844.433 203.618 844.6 203.618C845.312 203.618 846.024 203.577 846.694 203.7C849.375 204.278 851.678 203.906 854.107 202.834C856.996 201.556 860.221 200.648 863.739 200.442C864.493 200.484 865.204 200.442 865.958 200.525C867.717 200.566 869.267 201.515 871.109 201.102C872.031 200.896 873.078 200.896 873.999 200.731C874.543 200.607 875.046 200.442 875.465 200.195C877.684 198.752 880.364 197.968 883.128 197.102C886.018 196.195 888.74 195.741 891.713 196.69C892.635 196.731 893.598 196.772 894.519 196.937C894.812 196.937 895.147 197.02 895.315 196.896C897.367 195.576 900.382 195.411 902.35 194.009C902.811 193.679 903.314 193.349 903.984 193.514C906.245 194.092 907.878 193.308 909.469 192.442C909.846 192.236 910.307 192.112 910.768 192.03C911.438 191.865 912.191 191.906 912.903 191.865C915.207 191.617 916.546 190.215 918.515 189.555C919.185 189.39 919.855 189.267 920.567 189.349C921.572 189.308 922.619 189.226 923.247 188.731C925.425 187.081 928.524 186.38 931.036 185.102C931.79 184.69 932.753 184.813 933.591 184.607C933.884 184.525 934.093 184.401 934.261 184.195C934.47 183.081 935.894 182.958 937.067 182.628C937.527 182.463 937.82 182.257 938.072 181.927C938.281 181.514 938.449 181.102 939.035 180.896C940.543 180.195 941.59 179.246 942.343 178.174C942.469 177.885 942.637 177.638 943.223 177.721C944.982 178.133 946.154 179.04 946.992 180.071C949.672 183.288 950.426 182.669 954.991 182.092C955.786 181.803 956.624 181.556 957.043 180.978C957.252 180.648 957.629 180.648 958.048 180.772C958.592 180.937 959.053 181.143 959.597 181.267C960.895 181.679 962.236 181.597 963.576 181.308C964.078 181.267 964.581 181.143 965.041 181.02C966.005 180.855 966.507 180.36 967.01 179.824C967.345 179.535 967.638 179.205 968.057 178.958C968.769 178.628 969.564 178.545 970.402 178.504C972.412 178.545 972.956 180.071 974.506 180.566C974.883 180.69 975.302 180.69 975.637 180.855C977.395 182.092 979.783 181.886 982.002 182.133C982.463 182.174 982.881 182.174 983.3 182.092C984.557 181.721 985.813 181.349 987.237 181.267C988.828 181.226 989.875 180.484 990.755 179.659C991.257 179.246 991.969 179.081 992.765 178.958C993.351 178.834 993.812 178.587 994.105 178.215C994.356 177.721 994.44 177.102 995.278 176.814C995.487 176.69 995.654 176.525 995.822 176.36C996.031 176.03 996.324 175.906 996.827 176.112C998.041 176.525 999.256 176.483 1000.47 176.154C1001.18 175.865 1001.98 175.865 1002.77 175.947C1004.7 175.37 1006.63 174.793 1008.85 175.081C1009.64 175.205 1010.23 174.752 1010.69 174.298C1011.15 173.886 1011.74 173.556 1012.32 173.226C1013.03 172.649 1013.91 172.855 1014.75 173.061C1014.96 173.102 1015.13 173.102 1015.34 173.102C1016.01 173.102 1016.55 172.937 1016.97 172.566C1017.35 171.576 1018.39 171.329 1019.78 170.875C1023.5 169.679 1028.11 169.679 1031.04 167.246C1032.3 166.215 1033.18 167.535 1034.22 167.783C1034.56 167.865 1034.94 167.906 1035.31 167.906C1036.11 167.948 1035.77 168.442 1035.94 168.731C1036.49 169.844 1037.62 170.381 1039.29 170.174C1040.25 170.051 1041.05 170.257 1041.85 170.587C1043.94 171.411 1046.16 172.154 1048.3 172.978C1049.64 173.473 1051.06 173.597 1052.53 173.473C1053.49 173.391 1054.2 173.061 1054.7 172.484C1056.25 170.793 1057.97 170.545 1060.4 171.7C1060.73 171.865 1061.07 172.071 1061.49 172.071C1061.95 172.03 1062.37 171.865 1062.79 171.741L1062.79 0.000153121L479.003 0.000153121L480.301 85.1582Z" fill="#131313"/>
<path d="M580.784 8.42363e-08L0.0445557 0.000152407L0.0445951 150.264C1.29716 149.975 2.50803 149.644 3.63535 149.149C3.9694 148.984 4.42863 149.025 4.84617 149.025C5.13847 149.025 5.4307 149.025 5.723 149.066C6.0153 149.107 6.26573 149.149 6.55802 149.149C6.68327 149.149 6.80857 149.149 6.93382 149.149C9.02146 149.025 10.3575 148.034 11.8606 147.167C12.5704 146.837 13.4055 147.002 14.157 146.919C15.1173 146.795 15.9524 146.548 16.4535 145.928C16.704 145.515 16.704 145.02 17.4555 144.813C19.2091 143.864 20.8792 143.121 23.4679 143.699C25.5138 144.153 27.6014 143.203 29.6056 142.666C33.6974 141.51 38.0814 142.79 39.5428 145.598C39.8351 146.135 39.5845 146.63 39.501 147.126C39.4593 147.621 39.4175 148.158 39.6263 148.653C39.7098 148.777 39.8351 148.901 40.0021 148.984C40.7536 149.273 41.5887 149.149 42.3819 149.355C43.3423 149.52 44.1773 149.851 44.9706 150.264C45.7639 150.594 46.5155 150.635 47.0583 149.974C47.3088 149.479 47.6011 149.025 48.5614 149.397C49.1877 149.686 49.7722 150.016 50.315 150.346C51.1501 150.8 52.0686 151.007 53.0707 150.635C54.031 150.222 55.0331 150.305 56.0769 150.429C56.2021 150.511 56.3274 150.594 56.4527 150.676C56.745 151.213 57.1207 151.709 57.914 151.998C59.3336 152.576 59.8346 153.814 61.3794 154.351C62.7155 154.805 63.9682 155.383 65.5965 155.177C66.1393 155.094 66.6404 155.301 67.0579 155.59C67.6842 156.581 67.3918 157.572 67.1831 158.563C66.8908 159.595 67.3501 160.338 68.7698 160.792C70.3564 161.329 71.1079 162.361 72.1517 163.27C72.4857 163.6 72.8198 163.93 73.4461 164.054C73.6966 164.095 73.9471 164.178 74.1976 164.261C74.6152 164.591 74.4481 164.838 73.9471 165.004C73.5713 165.127 73.2373 165.251 73.279 165.582C73.6131 166.118 74.0306 166.614 74.7822 166.903C75.492 167.109 76.2435 167.068 76.995 167.068C78.8322 166.985 79.8342 167.605 81.1286 168.513C82.0054 169.133 82.7987 169.793 83.5502 170.454C85.0534 171.734 86.4312 173.055 87.8925 174.376C88.6858 174.583 89.5209 174.5 90.3559 174.624C90.5647 174.624 90.7735 174.624 90.9822 174.583C91.4415 174.376 91.6503 174.087 91.7755 173.757C91.859 173.592 91.9008 173.303 92.1931 173.344C92.8194 173.385 92.8194 173.798 92.9864 174.129C92.9864 174.17 93.0281 174.17 93.0281 174.211C93.3204 174.665 93.9049 174.83 94.573 174.748C95.241 174.624 95.6586 174.335 95.8674 173.881C95.9091 173.757 95.9091 173.633 95.9508 173.509C96.0761 173.055 96.3266 172.642 97.0364 172.477C97.0781 172.477 97.1199 172.477 97.1616 172.436C97.9549 172.312 98.1637 172.89 98.623 173.179C98.957 173.344 99.2493 173.551 99.5833 173.757C100.21 174.129 100.878 174.5 101.671 174.748C102.882 174.789 102.84 175.367 102.798 175.945C104.009 177.555 105.095 178.051 107.266 177.927C108.017 177.679 108.811 177.803 109.562 177.927C110.439 178.051 111.316 178.051 112.193 178.01C112.276 178.01 112.318 178.01 112.401 178.01C113.32 178.01 114.239 177.679 115.199 177.886C117.245 178.092 118.873 177.597 120.042 176.441C120.835 175.656 121.879 175.243 123.257 175.037C125.053 174.748 126.347 174.005 126.848 172.725C126.89 172.064 127.516 171.899 128.309 171.899C130.188 171.61 132.025 171.114 133.988 170.991C135.574 170.867 136.368 169.917 137.411 169.215C138.455 168.513 139.207 168.018 140.96 168.554C142.964 169.174 145.177 169.091 146.68 167.522C147.516 166.655 148.852 166.325 150.313 166.531C151.482 166.697 152.234 166.366 152.985 165.747C154.405 164.591 155.991 163.517 158.037 162.898C158.371 162.815 158.789 162.691 158.872 162.485C159.332 161.081 161.002 160.503 162.463 159.677C164.05 158.81 164.258 157.489 163.465 156.126C162.421 154.392 162.922 153.443 165.386 152.493C166.179 152.204 166.972 151.874 167.682 151.502C168.726 150.883 169.31 151.543 170.02 151.915C170.521 152.163 171.064 152.245 171.69 152.204C172.943 151.832 173.486 153.03 174.655 152.865C175.156 152.865 175.573 152.741 175.991 152.576C176.659 152.328 177.369 152.287 178.079 152.493C178.413 152.617 178.788 152.617 179.122 152.534C180.542 152.411 180.625 153.278 181.168 153.814C182.296 154.764 184.091 154.805 185.552 155.259C186.095 155.425 186.596 155.136 187.055 154.888C188.893 153.856 188.893 153.856 190.897 155.053C191.356 155.425 191.272 155.92 191.565 156.292C193.318 157.241 193.736 157.159 194.237 155.755C194.404 155.259 194.738 154.888 195.448 154.764C196.533 154.558 196.784 155.218 197.243 155.672C197.953 156.539 197.869 157.53 198.036 158.439C199.038 159.719 200.416 160.627 202.671 160.668C203.715 160.71 204.466 161.122 205.218 161.535C205.844 161.907 206.345 162.402 207.013 162.733C207.64 163.104 207.18 163.682 207.556 164.095L207.598 164.137C208.976 165.251 211.189 165.417 212.859 166.201C213.735 166.284 213.861 166.655 213.652 167.151C213.986 168.1 214.779 168.761 216.241 168.843C217.41 168.926 218.161 168.472 218.37 167.646C218.37 167.233 218.119 166.82 218.203 166.407C218.328 165.788 218.704 166.036 219.08 166.284C219.873 166.779 220.708 167.275 221.042 168.059C221.418 168.885 222.462 169.298 223.631 169.504C225.009 169.669 226.428 169.421 227.806 169.752C228.892 170.041 230.061 170.123 231.188 170.289C231.48 170.33 231.773 170.371 232.065 170.33C233.735 169.876 234.361 171.197 235.697 171.321C236.532 171.28 236.95 171.692 237.493 172.023C238.328 172.642 239.497 172.848 240.499 173.261C240.541 173.303 240.582 173.303 240.624 173.344C241 173.674 240.875 174.046 241 174.417C241.167 174.872 241.292 175.285 241.501 175.697C241.793 176.152 242.42 176.317 243.046 176.482C243.213 176.523 243.38 176.565 243.547 176.606C244.048 176.688 244.507 176.854 244.925 177.06C245.092 177.143 245.217 177.184 245.384 177.225C246.094 177.308 246.72 177.514 247.138 177.927C249.601 180.735 253.442 181.602 257.91 181.643C258.787 181.808 260.039 181.106 260.457 182.262C260.666 182.51 260.874 182.675 261.208 182.84C261.334 182.882 261.459 182.964 261.626 183.006C262.461 183.212 263.338 183.129 264.215 183.171C264.549 183.212 264.966 183.171 265.217 183.295C267.931 184.905 271.438 184.12 274.486 184.74C275.237 184.616 275.989 184.492 276.741 184.781C278.452 185.524 280.039 186.391 281.584 187.3C283.379 188.332 284.548 189.57 285.968 190.727C286.594 190.933 287.346 190.892 288.014 191.139C290.477 191.8 293.024 192.378 295.446 193.121C296.114 193.245 296.824 193.163 297.45 193.452C299.663 194.36 301.709 195.475 304.214 195.97C305.341 196.342 306.844 195.475 307.805 196.424C308.306 196.961 308.974 197.374 309.809 197.622C310.56 197.828 311.395 197.746 312.147 197.952C312.731 198.076 313.274 198.241 313.859 198.282C314.527 198.324 315.195 198.282 315.821 198.489C316.155 198.613 316.447 198.737 316.614 198.943C316.74 199.026 316.823 199.149 316.865 199.273C316.99 199.48 317.032 199.728 317.032 200.017C317.032 200.429 317.115 200.801 317.324 201.131C317.491 201.42 317.742 201.668 318.118 201.916C318.953 202.329 319.871 202.37 320.873 202.329C322.084 202.246 323.003 201.833 323.796 201.255C324.297 200.925 324.84 200.842 325.382 201.008C325.508 201.049 325.675 201.131 325.8 201.173C325.8 201.173 325.8 201.214 325.842 201.214C325.967 201.42 326.134 201.627 326.301 201.833C326.886 202.494 327.679 203.031 328.43 203.609C328.681 203.815 328.89 203.98 329.099 204.187C329.433 204.517 329.892 204.765 330.476 204.724C332.272 204.641 332.731 205.384 332.773 206.416C332.814 206.912 333.023 207.366 333.691 207.614C334.819 207.779 335.946 208.068 337.157 207.985C338.326 207.861 339.411 207.696 340.33 207.283C340.831 207.036 341.249 206.747 341.624 206.334C342.251 205.921 342.877 205.962 343.545 206.292C344.881 206.994 345.967 206.871 346.718 205.838C347.72 204.476 349.891 204.104 351.394 203.113C351.937 202.783 352.647 202.866 353.315 202.824C354.651 202.7 355.737 201.957 357.198 202.04C358.242 202.164 359.119 202.577 360.163 202.742C360.872 202.948 361.415 203.361 362.125 203.567C362.542 203.65 363.002 203.691 363.461 203.774C363.712 203.815 363.962 203.856 364.213 203.898C365.632 204.063 367.094 204.063 368.555 204.228C370.726 204.476 372.521 203.609 374.108 202.866C376.571 201.668 379.16 201.792 381.874 201.916C382.375 201.957 382.918 202.164 383.294 201.998C385.715 201.008 387.845 201.957 390.016 202.494C391.227 202.783 392.312 202.7 392.98 201.957C394.734 200.058 397.156 198.984 400.412 198.778C401.331 198.406 402.333 198.53 403.293 198.695C404.838 198.406 406.383 199.108 407.928 198.819C408.846 198.324 409.807 197.993 411.017 198.159C412.896 198.324 414.399 197.787 415.861 197.085C416.445 196.755 417.155 196.837 417.823 196.713C418.115 196.672 418.366 196.548 418.616 196.466C419.41 196.135 420.37 196.342 421.163 196.135C423.46 194.814 426.132 193.906 428.846 193.08C429.639 192.708 430.474 192.874 431.309 192.997C433.146 193.039 434.9 192.915 436.111 191.718C436.528 191.305 437.28 191.222 437.99 191.263C438.7 191.305 439.368 191.263 440.036 191.057C440.871 190.727 441.873 190.892 442.75 190.768C445.046 190.355 447.301 189.777 449.221 188.786C449.848 188.332 450.641 188.208 451.518 188.125C452.186 188.001 452.728 187.795 453.271 187.547C453.731 187.258 454.148 186.928 454.691 186.722C454.858 186.68 455.025 186.598 455.15 186.556C455.902 186.309 456.653 186.185 457.447 186.474C459.785 187.465 462.415 186.969 464.92 187.093C466.173 187.134 467.425 186.928 468.636 187.258C470.432 187.795 471.684 188.91 473.563 189.323C474.231 189.405 474.941 189.323 475.442 189.736C478.532 192.502 482.665 192.832 487.216 192.172C487.843 192.089 488.427 192.007 489.053 192.007C489.68 192.007 490.306 192.007 490.932 192.007C491.6 192.007 492.31 191.965 492.936 192.172C493.312 192.296 493.646 192.419 494.022 192.502C494.774 192.667 495.525 192.956 496.318 193.08C497.947 193.121 499.158 194.154 500.869 193.947C502.039 193.782 503.208 193.658 504.418 193.699C504.961 193.699 505.504 193.699 506.047 193.658C507.842 193.41 509.095 192.543 510.264 191.676C511.349 190.933 512.518 190.438 514.063 190.396C514.731 190.231 515.441 190.231 516.151 190.149C518.155 189.612 518.99 188.29 520.243 187.217C520.452 186.763 520.869 186.474 521.537 186.35C523.249 185.524 525.42 185.276 526.923 184.203C527.466 183.831 528.051 183.914 528.635 184.203C529.428 184.616 530.263 184.987 531.307 185.07C531.934 185.111 532.518 185.111 533.103 185.029C533.938 184.905 534.313 184.327 534.982 184.038C535.608 183.749 536.234 183.542 536.359 184.368C536.443 184.657 536.652 184.864 537.111 184.905C538.405 184.74 539.616 184.285 540.242 183.584C541.662 182.015 543.833 181.602 546.171 181.313C546.798 181.23 547.382 181.106 548.008 181.106C548.927 181.065 549.846 181.024 550.764 181.271C551.808 181.437 552.727 181.849 553.77 181.932C554.397 181.973 555.023 181.973 555.649 181.891C555.9 181.849 556.234 181.808 556.359 181.643C557.445 180.322 559.073 179.991 561.119 180.363C561.829 180.239 562.538 180.115 563.206 180.487C564.501 181.726 566.714 181.519 568.467 182.097C569.302 182.262 569.97 182.716 570.931 182.675C571.139 182.675 571.306 182.634 571.515 182.593C572.058 182.469 572.684 182.427 573.144 182.18C574.897 180.652 578.194 174.954 580.991 174.5C581.367 174.5 580.666 173.376 581 173.5L580.993 76.2767L580.784 8.42363e-08Z" fill="#F2F2F2"/>
<path d="M2.22908e-05 85L3.66247e-05 139.658C0.62821 139.617 1.51169 139.658 2.13987 139.658C3.77311 140.772 3.77311 140.772 5.23887 139.04C5.57389 138.751 5.95084 138.545 6.41147 138.339C6.78837 138.133 7.24906 138.133 7.62595 137.968C8.92417 137.225 10.4318 136.978 12.1069 137.267C13.1538 137.267 14.2009 137.308 15.206 137.514C17.0486 137.679 18.8912 137.555 20.7339 137.596C22.8278 137.638 24.2517 136.483 25.0055 135.122C25.0892 134.669 25.0055 134.215 25.4242 133.844C25.7593 133.514 26.178 133.184 26.6386 132.895C27.0155 132.648 27.3925 132.648 27.8113 132.813C28.0625 132.936 28.2719 133.143 28.565 133.266C28.9838 133.473 29.4864 133.514 29.947 133.473C30.4496 133.679 29.9052 133.926 30.0308 134.133C30.4496 135.37 31.5803 136.236 33.0042 136.978C33.8836 137.432 34.8887 137.596 35.8938 137.184C36.1451 137.06 36.3125 136.854 36.6057 136.772C36.7732 136.73 36.9407 136.442 37.1501 136.73C37.2339 136.813 37.1082 136.978 37.0663 137.102C37.2339 138.009 38.3227 138.421 39.1184 138.957C39.8722 139.452 40.4585 140.03 41.0029 140.607C41.4217 140.978 41.6729 141.432 42.1755 141.762C42.3431 141.844 42.5523 141.886 42.7199 141.927C43.4737 141.968 43.9344 141.72 43.9763 141.184C43.9763 140.978 43.8506 140.772 43.6831 140.607C43.5575 140.401 43.1806 140.236 43.4737 140.029C43.725 139.864 44.06 140.029 44.395 140.112C45.0232 140.277 45.6933 140.401 46.4052 140.401C47.1171 140.359 47.829 140.112 48.5409 140.442C49.5041 140.772 50.3836 141.267 51.3887 141.556C52.9801 142.05 52.645 143.246 53.3569 144.071C53.8175 144.442 54.4458 144.649 55.0321 144.896C55.9953 145.185 56.3303 145.762 56.4978 146.422C56.791 146.917 56.7491 147.494 56.9585 147.989C57.4191 148.69 58.3405 149.102 58.9687 149.721C59.555 150.092 59.6806 150.628 60.0994 151.082C61.3139 151.948 63.0727 152.195 64.371 152.978C65.0829 153.35 65.9205 153.267 66.7162 153.432C68.0144 153.762 69.0194 154.463 70.2339 154.875C71.7416 155.411 70.7783 156.195 70.3595 156.814C69.1869 158.504 69.2707 158.875 71.239 160.113C71.9928 160.401 72.8722 160.484 73.7517 160.484C74.8824 160.443 75.9712 160.195 77.1019 160.319C78.5258 160.525 78.107 161.185 77.8139 161.762C77.5626 162.381 77.1438 162.917 77.1438 163.577C77.3951 164.195 77.1438 164.896 77.6463 165.515C80.7453 166.628 82.5042 168.442 83.9281 170.422C84.5981 171.329 85.2263 172.277 85.8963 173.226C86.9433 174.711 88.3671 175.453 90.7123 175.329C91.5499 175.082 92.8481 175.329 93.1413 174.38C93.1832 174.174 93.2669 174.051 93.3926 174.009C93.6019 173.927 93.8951 173.968 94.2301 174.051C94.8164 174.133 95.3609 174.051 95.8215 173.844C95.989 173.762 96.1146 173.68 96.2403 173.597C96.2822 173.556 96.366 173.473 96.4079 173.432C96.701 173.102 96.9523 172.772 97.3291 172.525C97.4129 172.484 97.4966 172.401 97.5804 172.401C98.2923 172.071 98.8367 172.319 99.2555 172.855C99.4649 173.143 99.7162 173.432 100.009 173.68C100.512 174.174 101.14 174.628 101.894 174.958C103.192 175.659 103.569 176.814 104.825 177.515C105.579 177.927 106.375 178.133 107.338 177.927C107.464 177.886 107.589 177.844 107.715 177.844C108.343 177.721 108.971 177.844 109.599 177.968C110.688 178.092 111.693 178.092 112.657 177.968C113.745 177.844 114.792 177.556 115.881 177.143C117.933 176.401 120.195 175.948 121.577 174.546C121.995 174.174 122.079 173.68 122.624 173.391C122.875 173.226 123.168 173.02 123.377 172.855C123.503 172.772 123.587 172.649 123.671 172.525C124.299 171.618 125.429 171.618 126.686 171.741C127.942 171.741 129.115 171.576 129.994 170.834C130.371 170.463 130.497 169.927 131.376 169.845C131.544 169.845 131.753 169.803 131.921 169.762C132.884 169.556 133.847 169.762 134.81 169.556C136.569 168.979 137.951 168.154 138.705 166.875C139.207 166.463 139.752 166.628 140.338 166.793C144.442 167.577 145.74 167.247 148.086 164.772C148.504 164.319 149.091 164.154 149.803 164.03C153.948 163.37 156.503 161.308 159.058 159.205C159.602 158.752 159.56 158.216 159.393 157.68C159.016 156.195 159.686 154.958 161.152 153.886C161.78 153.432 162.282 152.937 162.743 152.401C163.915 151.081 165.507 150.174 167.643 149.638C170.113 149.02 172.207 147.783 174.929 147.576C175.641 147.288 176.311 147.329 177.023 147.576C178.489 147.989 179.871 147.741 181.211 147.288C182.342 146.875 183.473 146.752 184.645 147.205C184.771 147.288 184.897 147.37 185.022 147.453C185.399 147.782 185.818 148.154 186.111 148.525C186.195 148.649 186.32 148.731 186.446 148.813C187.032 149.267 187.87 149.432 188.498 149.803C189.964 150.752 190.843 152.03 192.267 153.02C193.23 153.679 194.152 154.133 195.534 153.968C196.706 153.803 197.544 154.133 198.172 154.793C198.716 155.37 199.428 155.824 200.182 156.236C200.517 156.401 200.978 156.607 201.02 156.855C201.648 160.236 206.673 160.649 209.228 162.752C208.641 163.412 208.306 163.824 208.265 164.113C208.181 164.607 208.851 164.937 210.568 165.762C211.615 166.092 212.201 166.752 213.122 167.205C213.918 167.659 214.756 168.112 215.342 168.69C215.635 168.978 215.97 169.308 216.431 169.308C218.65 169.391 220.493 170.504 222.796 170.422C223.383 170.587 223.969 170.669 224.597 170.669C225.141 170.669 225.602 170.587 226.063 170.422C227.026 170.051 227.989 169.968 228.994 170.339C229.874 170.587 230.795 170.793 231.549 171.205C232.219 171.576 232.805 171.494 233.308 171.04C233.727 170.587 234.103 170.793 234.438 171.123C236.072 172.401 238.584 172.442 240.636 173.143C240.888 173.143 241.139 173.143 241.39 173.185C242.144 173.308 242.73 173.597 242.898 174.298C243.4 175.04 244.238 175.494 245.41 175.535C246.332 175.494 247.295 175.494 248.174 175.741C249.933 175.948 251.148 176.525 251.902 177.679C252.195 178.092 252.614 178.463 253.242 178.71C254.079 178.999 254.791 178.298 255.629 178.587C255.796 178.628 255.964 178.628 256.173 178.669C256.634 178.752 257.178 178.587 257.471 178.999C257.681 179.411 257.178 179.989 258.016 180.277C258.644 180.484 259.482 180.36 260.026 180.772C260.612 181.102 261.073 181.514 261.45 182.009C261.617 182.257 261.827 182.504 262.078 182.71C262.287 182.875 262.539 182.999 262.79 183.04C265.721 183.164 267.606 185.061 270.537 185.185C271.459 185.226 272.213 185.597 273.092 185.762C273.804 185.844 274.475 185.968 274.935 186.463C275.773 187.123 276.903 187.288 278.118 187.205C279.625 187.329 278.997 188.277 279.416 188.813C279.793 189.349 280.505 189.679 281.259 189.926C282.976 190.504 284.4 191.287 285.656 192.277C287.038 193.349 288.588 193.968 290.765 193.432C291.687 193.226 292.65 193.267 293.613 193.555C296.754 194.545 300.146 195.081 303.035 196.483C303.203 196.566 303.412 196.566 303.622 196.607C304.459 196.566 305.255 196.69 306.051 196.937C307.851 197.267 309.569 197.721 311.286 198.257C313.128 198.834 315.138 198.999 317.148 198.793C317.4 198.793 317.609 198.834 317.735 198.917C317.902 198.999 317.986 199.123 317.986 199.246C317.986 199.453 317.86 199.659 317.777 199.906C317.651 200.484 317.902 200.855 318.405 201.102C318.698 201.226 319.033 201.308 319.452 201.35C321.252 201.597 323.053 201.927 324.77 201.02C325.315 200.731 325.901 200.731 326.487 200.937C326.613 200.978 326.739 201.061 326.864 201.102C326.906 201.102 326.948 201.143 326.948 201.143C327.199 201.308 327.283 201.556 327.409 201.762C327.492 201.927 327.534 202.092 327.66 202.257C328.162 202.752 328.874 203.164 329.544 203.535C329.838 203.7 330.131 203.865 330.424 204.071C331.094 204.36 331.89 204.236 332.56 204.484C333.146 204.649 333.523 204.937 333.774 205.35C334.235 205.886 333.9 206.546 334.402 207.041C334.528 207.164 334.695 207.247 334.905 207.329C335.659 207.535 336.454 207.412 337.208 207.535C338.674 207.577 340.098 207.618 341.438 207.206C341.815 207.082 342.192 206.958 342.569 206.752C343.28 206.381 344.16 206.504 344.956 206.669C346.254 206.958 347.426 206.876 348.348 206.092C348.85 205.597 349.185 205.061 349.939 204.69C351.279 204.69 352.536 204.36 353.583 203.783C355.3 202.834 357.184 202.463 359.32 202.587C360.032 202.463 360.66 202.587 361.288 202.793C362.251 203.082 363.089 203.535 364.136 203.618C364.303 203.618 364.429 203.618 364.596 203.618C365.308 203.618 366.02 203.577 366.69 203.7C369.371 204.278 371.674 203.906 374.103 202.834C376.992 201.556 380.217 200.648 383.735 200.442C384.489 200.484 385.201 200.442 385.954 200.525C387.713 200.566 389.263 201.515 391.105 201.102C392.027 200.896 393.074 200.896 393.995 200.731C394.539 200.607 395.042 200.442 395.461 200.195C397.68 198.752 400.36 197.968 403.124 197.102C406.014 196.195 408.736 195.741 411.709 196.69C412.631 196.731 413.594 196.772 414.515 196.937C414.808 196.937 415.143 197.02 415.311 196.896C417.363 195.576 420.378 195.411 422.347 194.009C422.807 193.679 423.31 193.349 423.98 193.514C426.241 194.092 427.874 193.308 429.466 192.442C429.842 192.236 430.303 192.112 430.764 192.03C431.434 191.865 432.187 191.906 432.899 191.865C435.203 191.617 436.542 190.215 438.511 189.555C439.181 189.39 439.851 189.267 440.563 189.349C441.568 189.308 442.615 189.226 443.243 188.731C445.421 187.081 448.52 186.38 451.032 185.102C451.786 184.69 452.749 184.813 453.587 184.607C453.88 184.525 454.089 184.401 454.257 184.195C454.466 183.081 455.89 182.958 457.063 182.628C457.523 182.463 457.817 182.257 458.068 181.927C458.277 181.514 458.445 181.102 459.031 180.896C460.539 180.195 461.586 179.246 462.339 178.174C462.465 177.885 462.633 177.638 463.219 177.721C464.978 178.133 466.15 179.04 466.988 180.071C469.668 183.288 470.422 182.669 474.987 182.092C475.782 181.803 476.62 181.556 477.039 180.978C477.248 180.648 477.625 180.648 478.044 180.772C478.588 180.937 479.049 181.143 479.593 181.267C480.891 181.679 482.232 181.597 483.572 181.308C484.074 181.267 484.577 181.143 485.037 181.02C486.001 180.855 486.503 180.36 487.006 179.824C487.341 179.535 487.634 179.205 488.053 178.958C488.765 178.628 489.56 178.545 490.398 178.504C492.408 178.545 492.952 180.071 494.502 180.566C494.879 180.69 495.298 180.69 495.633 180.855C497.392 182.092 499.779 181.886 501.998 182.133C502.459 182.174 502.878 182.174 503.296 182.092C504.553 181.721 505.809 181.349 507.233 181.267C508.824 181.226 509.871 180.484 510.751 179.659C511.253 179.246 511.965 179.081 512.761 178.958C513.347 178.834 513.808 178.587 514.101 178.215C514.352 177.721 514.436 177.102 515.274 176.814C515.483 176.69 515.651 176.525 515.818 176.36C516.027 176.03 516.321 175.906 516.823 176.112C518.038 176.525 519.252 176.483 520.466 176.154C521.178 175.865 521.974 175.865 522.77 175.947C524.696 175.37 526.623 174.793 528.842 175.081C529.638 175.205 530.224 174.752 530.685 174.298C531.145 173.886 531.732 173.556 532.318 173.226C533.03 172.649 533.909 172.855 534.747 173.061C534.956 173.102 535.124 173.102 535.333 173.102C536.003 173.102 536.548 172.937 536.967 172.566C537.343 171.576 538.39 171.329 539.772 170.875C543.5 169.679 548.106 169.679 551.038 167.246C552.294 166.215 553.173 167.535 554.22 167.783C554.555 167.865 554.932 167.906 555.309 167.906C556.105 167.948 555.77 168.442 555.937 168.731C556.482 169.844 557.612 170.381 559.288 170.174C560.251 170.051 561.046 170.257 561.842 170.587C563.936 171.411 566.156 172.154 568.291 172.978C569.632 173.473 571.055 173.597 572.521 173.473C573.484 173.391 574.196 173.061 574.699 172.484C576.248 170.793 577.965 170.545 580.394 171.7C580.729 171.865 580.581 174.5 581 174.5C581.461 174.459 582.363 171.865 582.781 171.741L581.483 5.56297e-05L-0.00115967 0.000152859L2.22908e-05 85Z" fill="#131313"/>
</svg>
