<svg width="960" height="344" viewBox="0 0 960 344" fill="none" xmlns="http://www.w3.org/2000/svg">
<path d="M959.999 1V329.029C959.303 329.725 957.842 329.725 956.589 329.099C955.614 328.612 954.571 328.124 954.64 327.289C954.71 326.941 954.71 326.593 954.431 326.245C954.083 325.549 953.318 324.993 952.691 324.366C951.648 323.322 951.856 322.905 953.805 322.418C954.292 322.278 955.267 322.209 954.779 321.861C953.527 320.886 954.779 320.33 955.754 319.703C956.102 319.495 956.032 319.077 956.31 318.868C956.519 318.59 957.215 318.381 956.38 318.103C955.127 317.963 954.014 317.755 953.457 317.059C953.109 316.502 952.552 316.015 951.439 315.806C951.16 315.736 950.882 315.597 950.673 315.458C950.047 314.971 949.212 314.832 948.168 314.832C946.637 314.762 945.314 314.484 944.34 313.857C944.758 312.953 943.783 312.117 943.575 311.282C943.644 309.612 943.157 308.011 939.816 307.315C938.355 306.967 938.076 306.411 938.564 305.645C938.912 305.019 938.912 304.462 938.564 303.836C938.076 303 937.311 302.583 935.78 302.722C933.762 302.861 932.648 302.026 931.256 301.539C930.421 301.261 930.769 300.843 930.978 300.425C931.604 299.242 931.117 298.546 929.099 297.99C926.802 297.363 924.645 296.737 924.366 295.206C924.366 294.997 924.088 294.719 923.809 294.788C921.652 295.345 920.121 294.301 918.242 294.231C917.755 294.231 917.337 294.162 916.989 294.092C915.249 293.814 915.11 293.187 916.154 292.074C916.989 291.239 916.78 290.612 915.04 290.264C914.414 290.125 913.788 289.986 913.44 289.638C913.37 289.568 913.231 289.499 913.161 289.429C912.187 288.246 910.656 287.829 908.359 288.316C908.081 288.385 907.733 288.385 907.385 288.316C906.619 287.968 905.784 288.107 904.949 288.246C903.418 288.177 902.026 287.829 900.843 287.341C899.173 286.645 897.015 286.576 895.206 286.019C894.44 285.81 894.023 286.019 893.744 286.437C893.466 286.924 892.839 287.272 892.283 287.689C891.448 288.246 890.543 288.385 889.638 287.829C888.664 287.202 887.55 287.272 886.228 287.481C884.906 287.689 880.591 286.715 879.895 286.089C879.755 285.95 879.616 285.81 879.686 285.741C880.382 284.558 879.129 283.444 878.92 282.331C878.92 282.122 878.851 281.983 878.92 281.774C879.059 280.869 877.876 280.243 876.067 280.034C875.997 280.034 875.928 280.034 875.858 280.034C874.257 279.825 872.518 280.034 871.056 279.547C870.917 279.477 870.778 279.477 870.638 279.408C870.36 278.92 870.151 278.364 868.899 278.294C865.976 278.294 863.261 278.572 861.452 279.964C860.825 280.451 859.851 280.521 858.877 280.66C857.067 281.008 855.188 281.217 855.327 282.679C855.397 283.583 854.353 284.488 852.126 284.488C851.43 284.488 850.734 284.349 850.177 284.766C847.95 285.462 847.95 285.462 849.829 286.228C851.013 286.715 852.822 287.063 851.152 288.107C850.804 288.316 851.082 288.664 851.5 288.803C854.283 289.499 854.283 290.473 852.404 291.587C852.335 291.587 852.335 291.656 852.335 291.656C852.335 291.656 852.335 291.656 852.335 291.726C852.335 292.004 852.613 291.796 852.822 291.796C853.309 291.726 853.657 291.796 853.935 292.004C854.214 292.422 854.631 292.7 855.188 292.979C856.093 293.466 856.163 293.953 855.606 294.579C854.631 295.554 854.91 296.458 856.302 297.294C857.346 297.85 857.415 298.685 857.207 299.312C856.789 300.425 857.555 301.33 858.598 302.096C858.738 302.165 858.807 302.235 858.946 302.304C860.617 303.279 860.478 304.323 859.99 305.367C859.782 305.784 859.851 306.132 859.921 306.55C859.782 307.037 860.617 306.828 860.965 306.967C863.122 307.663 864.027 308.707 863.609 310.03C863.47 310.586 863.957 311.004 864.236 311.421C864.584 312.117 864.792 312.883 863.749 313.44C862.844 313.927 861.8 313.579 860.756 313.37C858.738 312.953 857.763 313.718 856.859 314.484C855.188 315.945 851.152 316.641 848.229 316.084C847.533 315.876 846.837 315.806 846.28 316.154C845.932 316.363 845.584 316.572 845.236 316.711C844.123 317.267 843.218 317.267 842.591 316.432C842.313 316.084 842.035 315.597 841.269 315.736C840.225 315.945 840.852 316.432 841.06 316.78C842.035 318.52 841.339 319.982 839.738 321.513C838.833 322.348 837.789 322.974 836.189 323.253C833.822 323.601 832.361 324.505 831.317 325.549C830.482 326.384 829.508 327.15 828.951 328.055C828.464 328.82 827.28 329.516 825.819 329.308C822.409 328.89 820.599 330.351 818.233 331.047C818.094 331.117 817.955 331.187 817.885 331.256C816.563 331.952 815.728 331.674 815.171 330.839C815.032 330.56 814.962 330.212 814.962 329.934C815.032 329.725 815.31 329.516 815.449 329.308C815.728 328.96 815.31 328.751 814.753 328.542C814.475 328.472 814.127 328.472 813.849 328.612C813.431 328.89 813.709 329.099 813.988 329.308C814.197 329.516 814.475 329.655 814.544 329.864C814.614 330.003 814.614 330.143 814.614 330.212C814.544 330.56 814.127 330.839 813.501 330.839C811.413 330.839 809.394 331.117 807.376 331.187C805.776 331.256 805.428 330.769 805.358 329.934C805.288 328.89 803.2 328.681 801.948 328.124C800.973 327.776 800.069 328.124 799.512 328.82C799.025 329.447 798.05 329.307 797.006 329.029C793.596 328.124 790.812 326.384 786.567 326.384C786.15 326.384 785.871 326.176 785.662 325.967C785.593 325.828 785.523 325.689 785.523 325.619C785.523 325.062 785.106 324.505 785.662 323.949C786.637 323.601 786.637 323.601 786.08 323.392C784.131 323.253 784.618 322.418 784.549 321.791C785.245 320.886 783.505 321.722 783.505 321.374C783.227 321.234 783.087 321.095 782.879 320.956C782.043 320.747 781.139 320.956 780.304 320.747C777.102 321.652 774.666 320.747 772.23 319.773C770.769 319.216 769.586 318.659 768.959 317.685C768.055 316.363 765.132 315.736 762.626 316.224C762 316.363 761.374 316.363 760.678 316.293C760.469 316.224 760.26 316.224 760.051 316.084C759.425 315.388 759.494 314.762 760.538 314.136C761.374 313.718 760.538 313.579 760.19 313.37C759.912 313.231 759.773 313.022 759.634 312.883C759.564 312.744 759.495 312.674 759.425 312.535C758.938 311.839 758.59 311.491 758.033 311.421C757.546 311.352 756.919 311.561 755.945 311.909C754.971 312.257 754.136 312.326 753.231 312.048C751.909 311.63 751.421 311.909 750.586 312.535C749.403 313.509 747.733 314.205 746.202 315.04C746.828 315.597 747.942 315.528 748.777 315.736C749.751 315.945 750.238 316.293 750.099 316.85C749.89 317.476 748.986 317.407 748.15 317.337C744.671 317.059 742.374 318.52 739.729 319.216C736.598 320.121 735.554 319.912 735.206 317.894C735.206 317.546 735.206 317.128 734.858 316.78C734.51 316.363 734.788 316.015 735.275 315.667C735.623 315.458 735.693 315.18 735.206 314.971C734.788 314.762 734.301 314.832 733.814 314.971C733.605 315.04 733.396 315.11 733.187 315.18C732.283 315.528 731.308 315.876 730.404 315.249C729.429 314.553 730.752 314.205 731.517 313.788C730.195 313.37 728.942 313.579 727.759 313.788C722.4 314.692 719.268 314.205 715.997 311.7C714.257 310.378 711.543 310.308 707.924 310.656C706.254 310.795 704.653 311.282 702.844 310.934C702.426 310.865 701.939 310.865 701.661 311.004C699.99 311.839 698.042 311.7 696.093 311.63C695.745 311.63 695.397 311.7 695.049 311.7C692.683 311.839 691.082 311.352 690.664 309.96C690.456 309.194 689.69 309.194 688.577 309.612C686.141 310.378 685.166 310.099 684.958 308.568C684.888 308.22 684.818 307.803 684.262 307.594C682.939 307.176 682.87 306.411 682.452 305.784C681.965 305.367 681.2 305.645 680.504 305.575C679.112 305.367 677.581 305.715 676.189 305.297C675.91 305.227 675.632 305.088 675.354 304.949C673.614 304.114 672.152 304.81 670.969 305.297C669.229 305.993 668.324 305.715 667.698 304.74C667.35 304.253 667.002 303.836 666.515 303.418C666.237 303.209 665.958 302.931 665.68 302.722C663.87 301.469 662.618 301.33 660.112 302.235C659.834 302.304 659.555 302.374 659.207 302.444C657.398 302.444 657.328 302.444 656.493 303.209C656.772 303 657.189 302.792 657.746 302.722C658.372 302.652 658.999 302.652 659.555 302.861C660.46 303.348 660.53 303.975 660.599 304.601C660.599 304.88 660.53 305.297 660.042 305.227C657.607 305.019 655.24 306.202 652.735 305.367C652.039 305.158 651.691 304.671 650.717 304.671C648.559 304.532 647.515 305.297 646.75 306.132C645.427 307.455 643.34 308.011 640.695 308.15C637.633 308.29 636.937 308.638 637.006 310.308C637.006 311.352 636.658 312.326 635.615 313.231C634.501 314.136 635.127 314.971 636.937 315.528C638.12 315.945 639.025 316.432 639.929 316.989C640.834 317.476 641.669 318.033 642.783 318.381C643.757 318.729 644.662 319.216 645.567 319.703C646.054 319.982 646.402 320.26 646.123 320.678C645.845 321.095 645.219 321.095 644.523 321.095C641.669 320.956 639.303 322.139 636.38 322C633.039 321.791 629.838 322.905 626.428 322.348C625.732 322.209 625.175 322.487 624.758 322.835C624.201 323.322 623.435 323.601 622.183 323.531C623.087 324.157 623.366 324.714 623.087 325.41C622.67 326.384 621.139 326.802 619.538 326.245C617.52 325.549 615.432 324.923 614.318 323.531C613.414 322.418 611.743 321.374 610.978 320.19C610.421 319.843 610.143 320.26 609.655 320.33C605.758 320.956 602 321.861 597.824 322C595.11 322.07 592.535 322.278 590.656 320.886C589.96 320.399 589.055 320.608 588.15 320.678C585.923 320.886 585.367 320.678 585.297 319.425C585.297 319.216 585.367 319.077 585.367 318.868C585.227 318.033 584.183 317.407 582.931 317.198C581.748 316.989 581.469 317.755 580.982 318.172C580.425 318.59 579.869 319.007 578.825 318.868C576.18 318.52 573.953 319.147 571.865 319.842C569.916 320.538 567.481 320.817 565.949 321.93C565.184 322.487 563.653 322.348 562.748 321.722C562.052 321.165 561.287 321.095 560.034 321.095C557.876 321.165 556.067 320.399 553.979 320.121C552.796 319.982 553.144 319.007 553.283 318.381C553.492 317.476 552.866 317.059 551.334 316.85C548.759 316.432 546.811 315.597 545.349 314.344C544.096 313.301 542.635 312.326 540.477 311.7C539.851 311.421 539.086 311.352 538.39 311.073C538.181 311.004 538.042 310.934 537.902 310.795C537.485 310.517 537.207 310.169 536.789 309.89C534.631 308.916 532.404 308.15 529.481 308.15C528.368 308.15 527.393 307.872 526.558 307.524C524.958 306.828 522.87 306.759 521.06 306.411C520.225 306.271 519.599 306.48 519.32 306.898C518.137 308.568 515.841 309.542 512.778 310.099C512.291 310.169 511.804 310.308 511.595 310.517C510.273 312.048 507.837 311.7 505.61 311.421C504.288 311.282 503.801 311.282 502.966 312.048C501.365 313.44 499.138 314.623 496.911 315.736C496.354 316.015 495.519 316.015 494.753 316.015C492.387 316.015 491.134 316.502 490.438 317.755C489.882 318.729 488.629 319.355 486.959 319.703C486.263 319.842 485.288 319.912 485.079 320.26C483.827 322.278 479.86 322.418 477.494 323.67C477.146 323.879 476.658 323.949 476.171 323.949C473.527 323.949 472.343 324.784 472.274 326.037C472.274 327.289 471.021 327.428 469.351 327.359C468.585 327.289 467.889 327.428 467.263 327.707C464.688 328.194 462.113 328.612 459.468 328.96C457.52 329.238 456.197 330.143 454.109 330.212C452.648 330.282 451.395 330.351 450.143 329.864C449.029 329.447 447.916 329.238 447.011 330.073C446.941 330.143 446.802 330.212 446.663 330.212C444.157 330.351 443.461 331.187 443.461 332.439C443.461 332.718 443.113 332.926 442.557 332.996C442 333.066 441.582 332.926 441.304 332.718C440.747 332.3 440.678 331.465 439.146 331.743C437.894 332.022 438.172 332.718 437.963 333.274C437.546 333.622 437.476 334.04 436.989 334.388C435.319 334.806 433.648 335.084 432.535 335.989C431.769 336.545 430.377 336.545 429.125 336.615C427.802 336.615 427.733 336.058 427.942 335.571C428.498 334.179 427.246 333.622 425.019 333.344C424.671 333.553 425.088 333.622 425.367 333.692C426.48 334.04 427.802 334.318 427.594 335.154C427.385 335.989 426.271 336.754 424.81 336.893C422.444 337.172 423 338.007 423.279 338.703C423.905 340.095 423 341.556 420.843 342.322C417.92 343.366 414.162 343.227 411.447 341.904C410.404 341.417 409.012 341.487 407.759 341.208C406.089 340.86 405.601 341.765 404.905 342.322C404.349 342.809 403.792 342.739 403.235 342.322C402.678 341.139 402.191 342.461 401.704 342.322C398.155 342.879 397.946 342.809 396.484 341.139C396.415 340.93 396.415 340.791 396.415 340.582C396.554 340.234 396.624 339.886 396.067 339.608C393.909 339.329 391.891 339.12 389.594 339.468C387.646 339.747 385.419 339.329 383.818 338.424C383.888 338.285 384.096 338.216 384.305 338.146C384.166 338.077 384.027 338.146 383.818 338.146C383.47 338.077 383.261 337.937 383.192 337.798C383.192 337.311 383.818 337.102 384.584 336.963C385.628 336.754 386.393 336.337 387.159 335.919C388.829 334.945 389.942 334.945 391.961 335.571C392.518 335.78 393.074 336.267 393.84 335.919C394.397 335.571 393.84 335.154 393.422 334.806C393.283 334.666 393.074 334.458 392.935 334.318C392.587 333.97 392.309 333.622 392.239 333.205C392.17 332.857 391.961 332.439 392.518 332.161C395.371 330.908 394.327 329.586 392.935 328.194C392.796 327.846 392.169 327.707 391.752 327.428C391.334 327.15 390.986 326.802 390.36 326.663C387.924 326.176 387.437 325.132 387.367 323.879C387.298 323.74 387.228 323.67 387.159 323.531C385.21 323.044 383.679 322.209 381.591 321.861C379.294 321.443 377.067 321.374 374.84 321.861C374.214 321.791 373.796 321.582 373.309 321.443C372.892 321.304 372.404 321.095 371.987 321.304C370.665 321.93 369.829 321.443 368.994 320.956C368.368 321.026 368.02 321.304 367.394 321.443C365.654 321.722 363.844 321.93 362.104 321.443C361.756 321.374 361.269 321.304 360.921 321.374C356.885 322.278 354.101 320.886 351.387 319.703C349.786 319.007 348.255 318.59 346.237 318.938C344.566 319.216 343.592 318.659 342.548 318.172C341.226 317.546 339.834 317.128 338.372 316.919C336.841 316.711 335.171 316.711 333.361 316.989C332.526 317.128 331.761 317.267 331.343 317.685C330.856 318.103 330.369 318.52 329.603 318.799C329.186 318.938 328.768 319.077 328.211 319.147C327.098 319.355 327.167 319.773 327.307 320.33C327.655 322 326.889 322.348 323.966 322.07C322.922 322.139 322.922 322.766 322.226 323.044C321.739 323.253 321.182 323.392 320.556 323.392C319.86 323.322 319.442 323.183 319.233 322.835C319.025 322.557 319.094 322.139 318.259 322.139C317.146 322.209 317.215 322.766 317.006 323.183C314.849 324.297 312.065 324.714 309.49 325.341C305.732 326.245 301.765 326.663 297.798 327.15C295.014 327.498 292.857 328.612 290.282 329.168C289.447 329.377 289.377 329.795 289.377 330.212C289.377 331.395 287.916 332.022 286.106 332.022C283.113 331.952 279.982 332.37 277.198 331.395C276.641 331.187 275.945 331.187 275.319 331.187C273.857 330.839 272.465 330.491 270.725 331.047C269.473 331.465 269.403 330.769 269.334 330.212C269.055 328.96 268.081 328.542 265.923 328.82C264.114 329.099 262.583 329.238 261.191 328.403C260.843 328.194 260.286 328.403 259.869 328.542C259.312 328.751 257.92 328.751 258.825 329.447C256.806 331.535 255.693 331.743 251.865 330.908C251.1 330.769 250.404 330.491 250.612 329.934C250.543 329.586 250.264 329.725 249.986 329.864C249.708 330.003 249.499 330.143 249.151 330.143C247.898 330.282 246.437 330.769 245.462 330.212C244.488 329.586 245.462 328.89 246.019 328.264C246.785 327.428 246.297 327.011 244.558 327.011C243.096 327.011 241.635 326.872 240.173 326.802C238.851 326.732 237.946 326.315 237.807 325.619C237.459 323.74 235.301 322.557 232.587 321.652C232.1 321.374 231.474 321.095 231.613 320.678C232.03 319.982 230.917 319.425 230.847 318.799C230.708 318.59 230.569 318.381 230.221 318.172C227.576 316.989 224.305 316.224 222.635 314.484C222.287 314.136 221.591 313.927 220.965 313.718C219.782 313.301 218.668 312.813 219.364 311.839C219.851 311.213 218.877 310.934 218.111 310.726C217.415 310.517 216.302 310.517 216.023 310.099C214.631 308.29 212.056 306.619 212.613 304.462C212.683 304.184 212.961 303.766 212.752 303.557C211.569 302.026 212.961 300.773 213.796 299.451C213.936 299.173 213.796 298.825 213.657 298.546C213.588 297.92 213.448 297.363 213.17 296.737C212.892 295.971 212.474 295.206 212.056 294.44C212.544 294.092 212.892 293.675 213.17 293.257C213.727 292.77 214.353 292.352 215.467 292.561C216.65 292.77 217.067 293.327 216.928 293.953C216.859 294.51 216.719 295.066 217.763 295.345C218.32 295.554 218.738 295.414 219.086 295.136C219.642 294.579 221.034 294.44 221.452 293.814C221.869 293.396 222.287 292.979 222.496 292.491C224.236 291.587 223.748 290.195 225.071 289.151C225.906 288.525 224.584 288.455 223.609 288.664C223.4 288.664 223.192 288.733 222.983 288.733C222.357 288.803 222.426 288.177 221.661 288.385C221.034 288.316 220.547 288.037 219.99 287.829C216.998 287.411 215.188 286.298 214.214 284.697C213.866 284.558 213.518 284.418 213.17 284.21C212.474 283.166 210.873 282.4 210.804 281.287C210.317 281.217 210.038 281.356 209.76 281.426C206.419 282.261 206.419 282.261 204.471 280.591C204.331 280.452 204.123 280.382 203.914 280.312C203.287 280.243 202.731 280.382 202.174 280.451C201.687 280.451 201.13 280.382 201.617 280.799C201.13 281.426 202.243 281.008 202.452 281.147C204.053 281.356 204.54 282.122 205.027 282.818C205.445 283.444 205.166 284.001 203.914 284.21C202.661 284.488 201.687 284.975 200.991 285.602C200.852 285.741 200.643 285.95 200.364 286.019C198.833 286.158 197.998 286.645 197.441 287.272C196.954 287.759 196.676 288.316 196.258 288.803C195.771 289.012 195.354 288.873 194.936 288.733C194.658 288.525 194.379 288.385 194.031 288.246C193.405 288.107 192.709 288.107 191.943 288.316C190.899 288.594 189.925 288.942 188.672 289.22C190.343 289.986 189.786 290.473 188.185 290.891C187.698 291.03 187.489 291.239 187.28 291.517C186.376 292.352 185.123 292.909 183.731 292.979C183.035 293.048 182.339 292.979 181.574 292.839C181.365 292.77 184.009 294.092 183.801 294.092C182.339 293.953 184.775 294.231 184.357 294.997C184.079 295.414 185.749 295.902 184.845 296.041C182.13 296.667 183.87 298.129 183.801 299.59C183.244 300.147 174.962 300.565 174.336 301.052C173.431 301.817 173.849 303.418 172.665 303.836C170.021 304.671 169.255 303.975 170.09 305.019C170.16 305.088 170.16 305.575 170.23 305.645C171.204 306.898 168.629 306.898 171.482 307.385C173.153 307.663 173.361 309.125 172.109 310.03C171.691 310.308 171.343 310.726 170.786 310.795C168.072 311.352 167.863 312.744 167.098 313.857C166.75 314.414 166.402 314.762 165.288 314.971C163.827 315.249 162.852 315.945 162.226 316.641C161.461 317.546 160.417 318.033 158.538 317.615C157.772 317.476 157.076 317.615 156.38 317.755C154.919 318.311 156.241 318.451 156.867 318.659C158.955 319.355 159.233 319.843 157.215 320.469C154.223 321.374 151.996 322.766 149.421 323.879C147.82 324.575 146.567 325.41 144.34 325.48C143.922 325.48 143.714 325.619 144.062 325.967C144.897 326.732 143.714 327.22 142.739 327.428C140.999 327.776 140.86 328.333 141.208 329.238C141.417 329.725 141.765 330.282 141.695 330.839C141.626 331.535 136.893 333.135 135.571 332.926C135.014 332.857 134.527 332.648 134.04 332.509C132.648 332.161 131.882 332.3 131.743 333.205C131.534 334.249 131.047 334.388 129.516 333.762C128.403 333.274 127.428 332.787 125.758 332.996C124.993 333.135 124.575 332.787 124.297 332.439C124.018 332.022 124.088 331.604 124.923 331.395C126.176 331.117 126.663 330.699 126.732 330.003C126.802 329.516 127.637 329.377 128.333 329.308C129.099 329.168 130.003 329.238 130.56 328.82C130.699 328.681 130.839 328.472 130.908 328.333C131.047 328.055 131.187 327.776 131.187 327.498C131.256 327.22 131.674 327.011 131.743 326.732C131.465 326.176 130.699 325.967 129.864 326.106C128.472 326.315 128.751 327.08 128.472 327.637C128.194 328.194 127.568 328.681 126.454 328.612C125.201 328.612 125.062 328.055 124.853 327.428C124.714 326.941 122.209 326.454 121.304 326.593C118.52 326.872 115.945 327.15 113.718 325.619C112.605 324.853 111.143 324.157 110.169 323.253C109.125 322.278 107.246 321.582 105.227 321.374C102.235 321.095 99.2422 320.747 96.3888 320.19C95.4144 319.982 94.4401 320.051 93.5354 320.33C92.6306 320.608 91.5867 320.817 90.7515 320.469C88.7333 319.634 85.6015 319.564 84.9751 317.685C84.8359 317.198 83.444 316.572 82.7481 315.945C82.3305 315.597 81.5649 315.806 80.9386 315.945C78.3635 316.293 75.7189 316.363 73.0743 316.015C71.6824 315.806 70.708 315.528 70.2905 314.692C69.9425 313.857 68.9682 313.718 67.3675 313.44C65.21 313.092 62.9829 312.326 61.7998 311.073C61.1039 310.378 60.4079 309.821 59.1552 309.403C57.6937 308.916 56.7889 308.081 56.3714 307.246C55.745 305.993 54.3531 305.297 52.2652 304.949C50.3166 304.601 49.1334 303.975 48.5767 302.931C48.3679 302.513 47.8807 302.235 47.2544 301.956C45.932 301.4 45.1665 300.704 45.1665 299.799C45.1665 299.242 45.0969 298.616 43.8442 298.546C42.3827 298.407 40.9212 298.198 39.7381 298.964C37.9982 300.077 36.9542 300.217 34.3792 299.729C33.6136 299.59 32.8481 299.381 32.013 299.381C28.8812 299.312 28.8812 299.312 27.9068 300.913C27.4893 301.678 26.6541 302.304 25.9581 302.931C25.5406 303.348 25.2622 303.696 25.3318 304.184C25.4014 305.088 23.9399 305.715 22.2696 305.506C19.4162 305.227 18.1635 305.506 16.7715 306.828C16.4236 307.176 16.1452 307.315 15.4492 307.107C14.7533 306.55 13.8485 306.689 12.9438 306.967C10.16 306.828 7.37616 306.967 4.66193 306.898C4.31396 308.359 4.31395 308.359 1.46054 308.29C1.32135 308.29 1.18216 308.29 1.04297 308.29V1H959.999Z" fill="#F2F2F2"/>
<path d="M960 0.5V317.755C957.773 318.172 955.894 317.685 954.78 316.432C953.945 315.528 953.18 314.553 951.997 313.718C950.326 312.465 951.301 311.004 951.44 309.682C951.509 308.986 951.649 308.29 950.744 307.802C948.517 306.48 946.638 304.949 942.532 305.436C940.861 305.645 939.191 304.671 939.121 303.696C939.052 302.304 937.312 301.121 937.242 299.66C937.242 299.521 937.103 299.381 936.894 299.312C934.25 298.546 933.623 297.015 931.883 295.832C930.77 295.067 929.03 294.858 927.638 294.371C924.437 293.257 921.722 293.048 918.104 293.814C917.616 293.883 917.199 293.953 916.851 294.023C915.041 294.231 914.624 293.675 914.067 292.283C913.858 291.656 912.675 291.239 913.023 290.543C913.023 290.404 913.093 290.334 913.093 290.195C913.093 289.986 913.162 289.847 913.301 289.638C913.441 289.429 913.649 289.221 913.719 289.012C913.719 288.803 913.649 288.594 913.58 288.385C913.232 287.829 912.745 287.272 911.77 286.993C908.708 285.95 906.411 284.418 903.141 283.583C902.514 283.444 902.166 283.096 901.749 282.818C901.331 282.539 900.913 282.191 900.217 282.191C895.694 281.843 891.17 280.73 886.646 282.331C883.932 283.305 881.427 282.748 878.921 282.191C878.365 282.052 877.808 281.913 877.321 281.843C876.207 281.565 876.207 280.799 875.998 280.173C875.998 280.104 875.929 279.964 875.859 279.895C875.441 279.06 874.537 278.781 872.867 278.99C872.449 278.99 872.101 278.92 871.683 278.92C871.614 278.92 871.544 278.99 871.475 278.99C871.196 279.129 871.127 279.268 871.057 279.408C871.057 279.477 870.987 279.477 870.987 279.547C870.639 279.895 870.709 280.243 870.709 280.591C870.639 281.913 869.248 282.609 866.742 282.539C863.541 282.47 862.914 282.748 862.845 284.418C862.845 284.766 862.775 285.114 862.566 285.462C862.288 285.95 862.497 286.228 863.471 286.506C865.907 287.133 867.16 288.385 866.533 289.708C866.116 290.682 865.489 291.517 864.097 292.283C862.01 293.396 861.314 294.858 862.427 296.458C862.497 296.528 862.636 296.598 862.636 296.667C862.636 297.92 861.801 299.103 861.453 300.356C861.244 301.121 860.13 301.609 858.739 301.817C857.834 301.956 856.86 302.026 855.885 302.026C854.493 302.026 853.519 302.444 852.893 303.07C851.779 304.253 850.457 304.949 847.603 304.671C845.724 304.462 843.845 305.367 841.618 305.019C840.644 304.879 840.365 305.506 840.713 305.993C841.688 307.107 840.922 307.872 839.113 308.498C838.138 308.846 837.721 309.403 837.303 309.96C836.051 311.63 833.754 312.744 830.97 313.579C830.274 313.788 829.648 314.136 829.021 314.414C827.49 315.11 825.82 315.667 823.662 315.388C821.157 315.04 818.721 315.18 816.912 316.363C816.494 316.641 815.798 316.711 815.102 316.78C813.919 316.92 813.154 317.337 812.806 317.894C812.04 319.007 810.439 319.703 808.769 320.399C807.238 321.026 805.776 320.886 804.663 320.121C803.271 319.147 801.531 318.868 799.443 319.007C796.729 319.147 794.432 318.381 791.788 318.172C790.813 318.103 789.909 317.824 788.934 317.963C785.455 318.311 780.304 316.711 779.748 314.692C779.4 313.44 778.008 313.022 776.059 312.953C774.598 312.883 773.345 312.744 772.371 312.048C771.605 311.491 770.492 311.421 769.656 312.048C768.821 312.605 767.777 312.674 766.594 312.744C764.854 312.883 763.114 312.674 761.305 313.022C760.679 313.161 759.983 313.092 759.426 312.883C758.73 312.674 758.104 312.187 757.895 311.63C757.895 311.561 757.825 311.491 757.825 311.421C757.408 310.656 756.572 310.447 755.111 310.934C752.257 311.909 749.474 311.561 746.759 310.726C745.507 310.308 744.393 310.308 743.071 310.656C741.053 311.143 738.895 311.421 737.016 312.187C735.763 312.674 734.302 312.257 733.397 311.839C731.448 310.934 729.361 310.517 726.855 310.795C725.046 311.004 723.793 310.725 723.097 309.751C722.819 309.334 722.192 309.264 721.496 309.194C721.148 309.125 720.8 309.125 720.452 309.125C719.756 309.055 719.13 308.916 718.921 308.498C718.434 307.524 717.529 306.967 715.581 306.759C714.467 306.619 714.328 306.132 714.676 305.506C715.163 304.601 714.05 304.044 712.588 304.392C709.735 305.088 706.812 305.019 703.889 304.601C702.218 304.392 700.826 304.462 699.365 304.949C698.182 305.367 696.72 305.436 695.398 305.715C694.632 305.854 693.519 305.854 693.032 305.506C690.805 303.975 687.742 304.74 685.028 304.531C683.845 304.462 682.732 304.462 681.966 303.905C681.061 303.348 680.087 303.209 678.904 303.627C678.417 303.766 677.79 303.905 677.234 303.836C674.171 303.418 671.04 304.114 667.908 303.488C667.421 303.348 666.864 303.418 666.377 303.557C665.402 303.836 664.567 304.532 664.428 305.297C664.08 306.967 663.384 308.429 661.296 309.751C660.391 310.308 659.695 310.865 658.304 311.073C657.468 311.213 656.842 311.491 656.564 311.978C656.007 313.092 654.406 313.788 653.154 314.553C651.274 315.667 648.421 315.458 645.916 315.458C643.967 315.388 642.436 315.597 641.253 316.363C640.696 316.711 640.209 316.989 639.582 317.128C638.817 317.337 637.982 317.267 636.938 316.989C635.824 316.641 635.267 316.989 634.85 317.546C634.78 317.685 634.641 317.824 634.641 317.963C635.059 320.051 633.18 319.425 632.136 321.234C631.788 321.861 630.813 322.278 629.491 322.278C628.238 322.278 627.542 321.861 627.125 321.304C626.29 320.191 623.993 321.652 621.627 321.513C619.539 321.374 619.191 320.26 618.147 319.564C617.242 318.938 616.546 318.311 614.946 318.242C614.528 318.242 614.11 318.033 613.902 317.894C612.44 316.78 610.074 316.502 607.916 316.572C604.785 316.641 602.488 315.876 599.913 315.249C593.58 313.718 587.316 312.187 580.009 312.605C578.408 312.674 577.086 312.605 575.555 313.161C574.093 313.718 572.075 313.579 570.335 313.161C569.221 312.883 568.108 312.744 566.994 312.883C565.254 313.092 563.584 313.022 561.844 312.744C560.87 312.535 559.965 312.605 558.991 312.953C556.346 313.927 552.518 313.092 551.683 311.282C550.152 308.15 543.262 305.088 537.347 304.671C533.101 304.392 529.691 303.209 528.369 300.843C527.882 300.008 526.907 300.008 525.724 299.938C523.706 299.521 523.358 300.634 522.384 301.121C520.853 301.817 519.182 302.304 517.373 302.722C516.607 302.792 515.911 302.931 515.215 303.07C513.545 303.418 511.805 303.348 510.135 303.14C505.611 302.513 500.809 304.044 498.512 305.993C497.329 307.037 496.285 308.15 493.571 308.081C493.014 308.081 492.666 308.29 492.388 308.498C492.11 308.777 491.762 309.055 491.205 309.125C485.498 310.03 482.157 312.813 477.564 314.484C473.806 315.876 470.744 318.033 465.663 318.242C465.107 318.242 464.48 318.381 464.063 318.59C460.583 320.399 455.99 320.608 451.675 321.234C450.352 321.443 449.517 321.861 448.473 322.278C446.316 323.183 444.715 324.505 441.375 324.645C438.521 324.784 435.668 325.48 433.719 326.872C433.232 327.22 432.605 327.637 431.84 327.707C427.803 328.194 425.646 329.795 423.697 331.535C422.027 332.996 418.965 333.692 415.903 333.205C413.536 332.857 410.961 333.066 408.595 332.509C407.621 332.3 406.716 332.718 406.159 333.205C405.324 333.901 404.28 334.318 402.679 334.249C401.566 334.179 401.705 333.205 400.313 333.344C398.086 333.692 396.903 332.787 395.441 332.23C394.954 332.23 394.537 332.3 394.328 332.578C393.841 334.04 393.632 334.597 392.658 334.597C391.962 334.597 390.918 334.388 389.247 333.97C388.134 333.692 387.09 333.344 386.951 332.648C386.533 330.699 383.541 330.143 380.896 329.516C376.512 328.542 376.442 328.542 376.442 326.037C376.442 324.784 375.328 323.601 373.936 322.626C373.519 322.348 373.171 322.07 372.962 321.722C372.823 321.513 372.753 321.304 372.753 321.026C372.614 318.729 370.387 317.476 366.351 317.267C365.863 317.267 365.307 317.267 364.889 317.128C361.896 316.015 359.113 316.85 356.259 317.407C355.424 317.546 354.659 317.615 353.823 317.476C351.109 317.059 348.325 316.989 345.472 317.128C344.428 317.198 343.593 316.989 342.688 316.711C340.322 315.945 339.278 316.015 337.886 317.128C337.816 317.198 337.747 317.268 337.608 317.337C336.772 318.103 335.52 318.451 333.989 318.59C332.388 318.799 330.718 318.799 329.117 318.938C328.003 319.077 326.89 319.286 325.916 319.703C324.941 320.121 323.41 319.355 323.132 319.495C322.227 320.121 321.322 320.051 320.139 319.982C318.051 319.843 316.381 320.747 314.502 321.095C313.18 321.304 312.066 321.443 310.744 321.234C307.682 320.747 304.411 320.33 301.348 320.19C298.008 319.982 294.25 320.469 291.327 321.722C288.404 322.974 285.202 323.601 281.514 323.531C280.47 323.531 279.913 323.809 279.356 324.227C277.686 325.41 275.807 325.41 273.997 324.366C273.162 323.879 272.397 323.809 271.422 324.157C270.726 324.436 270.03 324.645 269.334 324.853C267.734 325.41 265.576 325.062 264.602 324.227C264.463 324.088 264.463 323.809 264.184 323.74C261.261 322.905 259.104 321.304 255.694 321.026C253.536 320.817 251.936 320.399 250.196 319.703C248.108 318.868 245.463 318.451 244.35 317.059C240.174 316.641 238.573 314.901 237.321 313.022C236.833 312.326 235.789 311.839 234.606 311.491C233.284 311.073 232.449 310.517 232.17 309.751C231.892 309.055 231.266 308.429 230.361 308.011C227.856 306.898 226.185 305.297 223.401 304.253C221.383 303.488 219.226 302.583 218.739 301.052C218.599 300.704 217.973 300.425 217.347 300.286C214.98 299.729 214.284 298.546 213.101 297.433C212.893 297.224 212.684 297.015 212.545 296.806C211.292 295.484 210.665 294.092 210.596 292.561C210.526 291.448 208.438 290.612 208.508 289.429C208.508 289.151 208.369 288.942 208.23 288.733C208.021 288.385 207.742 288.037 207.325 287.759C206.142 286.854 204.68 286.645 202.592 286.924C200.783 287.202 198.765 287.133 196.955 287.411C196.607 287.481 196.259 287.55 195.911 287.62C194.937 287.829 194.032 288.037 193.545 288.385C193.197 288.664 193.058 289.012 193.267 289.568C193.615 290.473 192.362 291.169 190.9 291.587C189.648 291.935 188.813 292.352 188.117 292.979C187.003 294.023 185.194 294.162 183.384 293.327C183.314 293.327 183.245 293.257 183.245 293.257C183.175 293.257 183.175 293.187 183.106 293.187C182.271 292.7 181.157 292.561 180.322 292.979C180.322 292.979 180.252 292.979 180.252 293.048C179.069 293.675 180.6 294.023 181.227 294.44C181.435 294.579 181.714 294.719 181.923 294.858C182.271 295.415 181.992 295.971 181.644 296.458C181.087 297.224 181.157 297.92 181.783 298.686C182.688 299.729 181.366 300.565 179.208 300.356C174.476 300.008 169.535 301.4 167.238 303.696C166.96 303.975 166.681 304.253 166.264 304.462C165.916 304.671 165.568 304.81 165.011 304.879C163.897 305.088 163.132 305.575 162.505 306.132C161.531 307.037 160.487 307.803 158.33 307.733C157.564 307.733 157.147 308.081 157.355 308.498C157.912 309.682 156.451 310.169 155.059 310.656C152.136 311.63 149.7 312.883 147.125 314.066C146.568 314.344 145.942 314.623 145.246 314.692C140.583 314.971 139.261 316.989 137.938 318.938C136.964 320.399 135.294 321.165 132.51 321.234C129.378 321.304 126.525 321.582 124.089 322.766C122.488 323.531 120.261 323.392 118.451 322.974C117.06 322.626 115.807 322.557 114.415 322.626C112.536 322.696 111.422 322.418 110.935 321.234C110.378 319.912 108.43 319.077 106.272 318.451C105.228 318.172 104.254 317.894 103.558 317.337C102.305 316.293 100.287 315.667 98.2688 315.18C95.0674 314.414 92.2836 313.231 88.8734 312.605C88.6646 312.535 88.3167 312.535 88.1775 312.465C85.672 310.656 81.1483 310.656 78.2253 309.055C76.4854 308.081 73.7712 307.733 71.405 307.176C66.9509 306.132 62.1488 305.506 58.321 303.557C55.1196 301.956 51.5702 300.425 47.6033 299.312C45.7938 298.755 44.4019 297.99 43.9843 296.876C43.358 295.345 40.5742 294.858 38.9039 293.883C38.2079 293.466 36.9552 293.675 36.0505 293.883C34.5194 294.231 33.4058 294.092 32.3619 293.327C31.0396 292.422 29.7173 292.561 29.0213 293.675C27.9774 295.415 26.9334 297.154 25.4023 298.755C24.9152 299.242 24.428 299.59 23.4537 299.66C23.1057 299.66 22.7577 299.59 22.4793 299.521C21.9226 299.312 21.2266 299.381 20.6003 299.451C18.9996 299.381 17.5381 299.521 16.007 299.869C10.5089 300.982 5.42845 302.513 0.487169 304.184C0.278382 304.253 0.139191 304.323 0 304.392V0.5H960Z" fill="#131313"/>
</svg>
