<svg width="960" height="343" viewBox="0 0 960 343" fill="none" xmlns="http://www.w3.org/2000/svg">
<path d="M959.655 0.5L0.00177002 0.500084L0.00179163 247.732C2.07164 247.257 4.07252 246.713 5.93539 245.898C6.48735 245.626 7.24629 245.694 7.93624 245.694C8.41921 245.694 8.90219 245.694 9.38515 245.762C9.86812 245.83 10.2821 245.898 10.765 245.898C10.972 245.898 11.179 245.898 11.386 245.898C14.8358 245.694 17.0435 244.064 19.5274 242.637C20.7003 242.094 22.0802 242.366 23.3221 242.23C24.909 242.026 26.2889 241.618 27.1168 240.599C27.5308 239.92 27.5308 239.105 28.7727 238.765C31.6705 237.203 34.4303 235.98 38.708 236.931C42.0888 237.678 45.5385 236.116 48.8503 235.233C55.6118 233.33 62.8563 235.436 65.2711 240.056C65.7541 240.939 65.3402 241.754 65.2022 242.569C65.1332 243.385 65.0642 244.268 65.4091 245.083C65.5471 245.287 65.7541 245.491 66.0301 245.626C67.272 246.102 68.6519 245.898 69.9628 246.238C71.5497 246.509 72.9297 247.053 74.2406 247.732C75.5515 248.276 76.7933 248.344 77.6903 247.257C78.1042 246.442 78.5872 245.694 80.1741 246.306C81.209 246.781 82.1749 247.325 83.0719 247.868C84.4518 248.615 85.9697 248.955 87.6256 248.344C89.2125 247.664 90.8683 247.8 92.5932 248.004C92.8002 248.14 93.0072 248.276 93.2142 248.412C93.6972 249.295 94.3181 250.11 95.629 250.585C97.9748 251.537 98.8027 253.575 101.356 254.458C103.563 255.205 105.633 256.156 108.324 255.816C109.221 255.681 110.049 256.02 110.739 256.496C111.774 258.126 111.291 259.757 110.946 261.387C110.463 263.085 111.222 264.308 113.568 265.055C116.19 265.938 117.431 267.637 119.156 269.131C119.708 269.675 120.26 270.218 121.295 270.422C121.709 270.49 122.123 270.626 122.537 270.762C123.227 271.305 122.951 271.713 122.123 271.985C121.502 272.188 120.95 272.392 121.019 272.936C121.571 273.819 122.261 274.634 123.503 275.11C124.676 275.449 125.918 275.381 127.16 275.381C130.196 275.245 131.851 276.264 133.99 277.759C135.439 278.778 136.75 279.865 137.992 280.952C140.476 283.058 142.753 285.232 145.167 287.406C146.478 287.745 147.858 287.609 149.238 287.813C149.583 287.813 149.928 287.813 150.273 287.745C151.032 287.406 151.377 286.93 151.584 286.387C151.722 286.115 151.791 285.639 152.274 285.707C153.309 285.775 153.309 286.454 153.585 286.998C153.585 287.066 153.654 287.066 153.654 287.134C154.137 287.881 155.103 288.153 156.207 288.017C157.311 287.813 158.001 287.338 158.346 286.59C158.415 286.387 158.415 286.183 158.484 285.979C158.691 285.232 159.105 284.552 160.277 284.281C160.346 284.281 160.415 284.281 160.484 284.213C161.795 284.009 162.14 284.96 162.899 285.435C163.451 285.707 163.934 286.047 164.486 286.387C165.521 286.998 166.625 287.609 167.936 288.017C169.937 288.085 169.868 289.036 169.799 289.987C171.8 292.636 173.593 293.452 177.181 293.248C178.423 292.84 179.734 293.044 180.976 293.248C182.425 293.452 183.874 293.452 185.323 293.384C185.461 293.384 185.53 293.384 185.668 293.384C187.186 293.384 188.703 292.84 190.29 293.18C193.671 293.52 196.362 292.704 198.294 290.802C199.605 289.512 201.33 288.832 203.606 288.492C206.573 288.017 208.712 286.794 209.54 284.688C209.609 283.601 210.644 283.33 211.955 283.33C215.06 282.854 218.095 282.039 221.338 281.835C223.96 281.631 225.271 280.069 226.996 278.914C228.721 277.759 229.963 276.944 232.86 277.827C236.172 278.846 239.829 278.71 242.313 276.129C243.692 274.702 245.9 274.159 248.315 274.498C250.247 274.77 251.489 274.226 252.731 273.207C255.077 271.305 257.698 269.539 261.079 268.52C261.631 268.384 262.321 268.18 262.459 267.841C263.218 265.531 265.978 264.58 268.393 263.221C271.015 261.795 271.359 259.621 270.049 257.379C268.324 254.526 269.152 252.963 273.222 251.401C274.533 250.925 275.844 250.382 277.017 249.77C278.742 248.751 279.708 249.838 280.881 250.45C281.709 250.857 282.606 250.993 283.641 250.925C285.711 250.314 286.607 252.284 288.539 252.012C289.367 252.012 290.057 251.808 290.747 251.537C291.851 251.129 293.024 251.061 294.197 251.401C294.749 251.605 295.37 251.604 295.922 251.469C298.268 251.265 298.406 252.691 299.303 253.575C301.165 255.137 304.132 255.205 306.547 255.952C307.444 256.224 308.272 255.748 309.031 255.341C312.067 253.642 312.067 253.643 315.378 255.613C316.137 256.224 315.999 257.039 316.482 257.651C319.38 259.213 320.07 259.077 320.898 256.767C321.174 255.952 321.726 255.341 322.899 255.137C324.693 254.797 325.107 255.884 325.866 256.632C327.039 258.058 326.901 259.689 327.177 261.183C328.832 263.289 331.109 264.784 334.835 264.851C336.56 264.919 337.802 265.599 339.044 266.278C340.079 266.89 340.907 267.705 342.01 268.248C343.045 268.86 342.286 269.811 342.907 270.49L342.976 270.558C345.253 272.392 348.91 272.664 351.67 273.955C353.119 274.091 353.326 274.702 352.981 275.517C353.533 277.08 354.844 278.167 357.258 278.302C359.19 278.438 360.432 277.691 360.777 276.332C360.777 275.653 360.363 274.974 360.501 274.294C360.708 273.275 361.329 273.683 361.95 274.091C363.261 274.906 364.641 275.721 365.193 277.012C365.814 278.37 367.539 279.05 369.471 279.389C371.747 279.661 374.093 279.253 376.37 279.797C378.164 280.272 380.096 280.408 381.959 280.68C382.442 280.748 382.925 280.816 383.408 280.748C386.167 280.001 387.202 282.175 389.41 282.378C390.79 282.31 391.48 282.99 392.377 283.533C393.757 284.552 395.689 284.892 397.345 285.571C397.414 285.639 397.483 285.639 397.552 285.707C398.172 286.251 397.966 286.862 398.173 287.473C398.448 288.221 398.655 288.9 399 289.579C399.483 290.327 400.518 290.598 401.553 290.87C401.829 290.938 402.105 291.006 402.381 291.074C403.209 291.21 403.968 291.482 404.658 291.821C404.934 291.957 405.141 292.025 405.417 292.093C406.59 292.229 407.625 292.568 408.315 293.248C412.385 297.867 418.733 299.294 426.116 299.362C427.564 299.634 429.634 298.479 430.324 300.381C430.669 300.788 431.014 301.06 431.566 301.332C431.773 301.4 431.98 301.536 432.256 301.604C433.636 301.943 435.085 301.807 436.534 301.875C437.086 301.943 437.776 301.875 438.19 302.079C442.674 304.729 448.47 303.438 453.507 304.457C454.749 304.253 455.991 304.049 457.233 304.525C460.061 305.748 462.683 307.174 465.236 308.669C468.203 310.367 470.135 312.405 472.48 314.307C473.515 314.647 474.757 314.579 475.861 314.987C479.932 316.074 484.141 317.025 488.142 318.247C489.246 318.451 490.419 318.315 491.454 318.791C495.111 320.285 498.492 322.12 502.631 322.935C504.494 323.546 506.978 322.12 508.565 323.682C509.393 324.565 510.497 325.245 511.877 325.652C513.119 325.992 514.498 325.856 515.74 326.196C516.706 326.399 517.603 326.671 518.569 326.739C519.673 326.807 520.777 326.739 521.812 327.079C522.364 327.283 522.847 327.486 523.123 327.826C523.33 327.962 523.468 328.166 523.537 328.369C523.744 328.709 523.813 329.117 523.813 329.592C523.813 330.272 523.951 330.883 524.296 331.427C524.572 331.902 524.986 332.31 525.607 332.717C526.987 333.397 528.504 333.465 530.16 333.397C532.161 333.261 533.679 332.581 534.99 331.63C535.818 331.087 536.715 330.951 537.612 331.223C537.819 331.291 538.095 331.427 538.302 331.495C538.302 331.495 538.302 331.563 538.371 331.563C538.578 331.902 538.854 332.242 539.13 332.582C540.096 333.668 541.407 334.551 542.648 335.503C543.062 335.842 543.407 336.114 543.752 336.454C544.304 336.997 545.063 337.405 546.029 337.337C548.996 337.201 549.755 338.424 549.824 340.122C549.893 340.937 550.238 341.685 551.342 342.092C553.205 342.364 555.068 342.839 557.068 342.704C559 342.5 560.794 342.228 562.312 341.549C563.14 341.141 563.83 340.666 564.451 339.986C565.486 339.307 566.521 339.375 567.625 339.918C569.833 341.073 571.626 340.869 572.868 339.171C574.524 336.929 578.112 336.318 580.596 334.687C581.493 334.144 582.666 334.28 583.77 334.212C585.977 334.008 587.771 332.785 590.186 332.921C591.911 333.125 593.36 333.804 595.085 334.076C596.258 334.416 597.155 335.095 598.327 335.435C599.017 335.571 599.776 335.639 600.535 335.774C600.949 335.842 601.363 335.91 601.777 335.978C604.123 336.25 606.538 336.25 608.953 336.522C612.541 336.929 615.507 335.503 618.129 334.28C622.2 332.31 626.477 332.514 630.962 332.717C631.79 332.785 632.687 333.125 633.308 332.853C637.31 331.223 640.828 332.785 644.416 333.668C646.417 334.144 648.211 334.008 649.315 332.785C652.213 329.66 656.214 327.894 661.596 327.554C663.114 326.943 664.77 327.147 666.357 327.418C668.909 326.943 671.462 328.098 674.015 327.622C675.533 326.807 677.12 326.264 679.121 326.535C682.226 326.807 684.709 325.924 687.124 324.769C688.09 324.226 689.263 324.361 690.367 324.158C690.85 324.09 691.264 323.886 691.678 323.75C692.989 323.207 694.576 323.546 695.887 323.207C699.681 321.033 704.097 319.538 708.582 318.179C709.893 317.568 711.272 317.84 712.652 318.044C715.688 318.112 718.586 317.908 720.587 315.938C721.277 315.258 722.519 315.122 723.692 315.19C724.865 315.258 725.969 315.19 727.072 314.851C728.452 314.307 730.108 314.579 731.557 314.375C735.352 313.696 739.078 312.745 742.251 311.114C743.286 310.367 744.597 310.163 746.046 310.027C747.15 309.824 748.047 309.484 748.944 309.076C749.703 308.601 750.393 308.057 751.29 307.718C751.566 307.65 751.842 307.514 752.049 307.446C753.291 307.038 754.532 306.834 755.843 307.31C759.707 308.94 764.054 308.125 768.194 308.329C770.263 308.397 772.333 308.057 774.334 308.601C777.301 309.484 779.371 311.318 782.476 311.998C783.579 312.133 784.752 311.998 785.58 312.677C790.686 317.228 797.516 317.772 805.037 316.685C806.072 316.549 807.038 316.413 808.073 316.413C809.108 316.413 810.143 316.413 811.177 316.413C812.281 316.413 813.454 316.345 814.489 316.685C815.11 316.889 815.662 317.093 816.283 317.228C817.525 317.5 818.767 317.976 820.078 318.179C822.769 318.247 824.77 319.946 827.598 319.606C829.53 319.334 831.462 319.131 833.463 319.198C834.36 319.198 835.257 319.198 836.154 319.131C839.121 318.723 841.19 317.296 843.122 315.87C844.916 314.647 846.848 313.832 849.401 313.764C850.505 313.492 851.678 313.492 852.85 313.356C856.162 312.473 857.542 310.299 859.612 308.533C859.957 307.786 860.647 307.31 861.751 307.106C864.58 305.748 868.167 305.34 870.651 303.574C871.548 302.962 872.514 303.098 873.48 303.574C874.791 304.253 876.171 304.864 877.896 305C878.931 305.068 879.897 305.068 880.863 304.932C882.242 304.729 882.863 303.778 883.967 303.302C885.002 302.826 886.037 302.487 886.244 303.845C886.382 304.321 886.727 304.661 887.486 304.729C889.625 304.457 891.626 303.71 892.661 302.555C895.006 299.973 898.594 299.294 902.458 298.818C903.493 298.682 904.459 298.479 905.494 298.479C907.012 298.411 908.53 298.343 910.047 298.75C911.772 299.022 913.29 299.701 915.015 299.837C916.05 299.905 917.085 299.905 918.12 299.769C918.534 299.702 919.086 299.634 919.293 299.362C921.087 297.188 923.777 296.645 927.158 297.256C928.331 297.052 929.504 296.848 930.608 297.46C932.747 299.498 936.404 299.158 939.301 300.109C940.681 300.381 941.785 301.128 943.372 301.06C943.717 301.06 943.993 300.992 944.338 300.924C945.235 300.721 946.27 300.653 947.029 300.245C949.927 297.731 953.652 296.033 958.275 295.286C958.896 295.286 959.448 295.49 960 295.693L960 126L959.655 0.5Z" fill="#F2F2F2"/>
<path d="M-0.000292938 140.5L2.00985e-05 230.415C1.03495 230.347 2.0008 230.28 3.03573 230.28C5.72653 232.114 5.72655 232.114 8.14138 229.261C8.69334 228.785 9.31438 228.445 10.0733 228.106C10.6943 227.766 11.4532 227.766 12.0742 227.494C14.213 226.271 16.6968 225.864 19.4566 226.339C21.1815 226.339 22.9064 226.407 24.5623 226.747C27.5981 227.019 30.6338 226.815 33.6696 226.883C37.1193 226.951 39.4652 225.049 40.7071 222.807C40.8451 222.059 40.7072 221.312 41.3971 220.701C41.9491 220.157 42.6389 219.614 43.3978 219.138C44.0188 218.731 44.6398 218.731 45.3298 219.002C45.7438 219.206 46.0888 219.546 46.5717 219.75C47.2617 220.089 48.0896 220.157 48.8485 220.089C49.6765 220.429 48.7795 220.837 48.9865 221.176C49.6765 223.214 51.5394 224.641 53.8852 225.864C55.3341 226.611 56.99 226.883 58.6458 226.203C59.0598 226 59.3358 225.66 59.8187 225.524C60.0947 225.456 60.3707 224.98 60.7157 225.456C60.8537 225.592 60.6467 225.864 60.5777 226.068C60.8536 227.562 62.6475 228.241 63.9585 229.125C65.2004 229.94 66.1663 230.891 67.0633 231.842C67.7532 232.453 68.1672 233.201 68.9951 233.744C69.2711 233.88 69.616 233.948 69.892 234.016C71.1339 234.084 71.8929 233.676 71.9619 232.793C71.9619 232.453 71.7549 232.114 71.4789 231.842C71.2719 231.502 70.651 231.231 71.1339 230.891C71.5479 230.619 72.0999 230.891 72.6518 231.027C73.6867 231.299 74.7907 231.502 75.9636 231.502C77.1366 231.434 78.3094 231.027 79.4823 231.57C81.0692 232.114 82.5181 232.929 84.174 233.405C86.7958 234.22 86.2439 236.19 87.4168 237.548C88.1757 238.16 89.2107 238.5 90.1766 238.907C91.7635 239.383 92.3154 240.334 92.5914 241.421C93.0744 242.236 93.0054 243.187 93.3504 244.002C94.1093 245.157 95.6272 245.837 96.6621 246.856C97.6281 247.467 97.835 248.35 98.525 249.097C100.526 250.524 103.424 250.932 105.563 252.222C106.735 252.834 108.115 252.698 109.426 252.97C111.565 253.513 113.221 254.668 115.222 255.347C117.706 256.23 116.119 257.521 115.429 258.54C113.497 261.326 113.635 261.937 116.878 263.975C118.12 264.451 119.568 264.586 121.017 264.586C122.88 264.519 124.674 264.111 126.537 264.315C128.883 264.654 128.193 265.741 127.71 266.693C127.296 267.712 126.606 268.595 126.606 269.682C127.02 270.701 126.606 271.855 127.434 272.874C132.54 274.709 135.437 277.697 137.783 280.958C138.887 282.453 139.922 284.015 141.026 285.578C142.751 288.023 145.097 289.246 148.96 289.042C150.34 288.635 152.479 289.042 152.962 287.48C153.031 287.14 153.169 286.937 153.376 286.869C153.721 286.733 154.204 286.801 154.756 286.936C155.722 287.072 156.619 286.936 157.378 286.597C157.654 286.461 157.861 286.325 158.068 286.189C158.137 286.121 158.275 285.985 158.344 285.917C158.827 285.374 159.241 284.83 159.862 284.423C160 284.355 160.138 284.219 160.276 284.219C161.449 283.676 162.345 284.083 163.035 284.966C163.38 285.442 163.794 285.918 164.277 286.325C165.105 287.14 166.14 287.887 167.382 288.431C169.521 289.586 170.142 291.488 172.212 292.643C173.454 293.322 174.765 293.662 176.351 293.322C176.558 293.254 176.765 293.186 176.972 293.186C178.007 292.982 179.042 293.186 180.077 293.39C181.871 293.594 183.527 293.594 185.114 293.39C186.908 293.186 188.633 292.711 190.426 292.031C193.807 290.809 197.533 290.061 199.81 287.752C200.5 287.14 200.638 286.325 201.535 285.85C201.949 285.578 202.432 285.238 202.777 284.966C202.984 284.83 203.122 284.627 203.26 284.423C204.294 282.928 206.157 282.928 208.227 283.132C210.297 283.132 212.229 282.86 213.678 281.638C214.299 281.026 214.506 280.143 215.955 280.007C216.231 280.007 216.576 279.939 216.852 279.871C218.438 279.532 220.025 279.871 221.612 279.532C224.51 278.581 226.787 277.222 228.029 275.116C228.857 274.437 229.754 274.709 230.72 274.98C237.481 276.271 239.62 275.727 243.484 271.651C244.174 270.904 245.14 270.633 246.313 270.429C253.143 269.342 257.352 265.945 261.56 262.48C262.457 261.733 262.388 260.85 262.112 259.967C261.491 257.521 262.595 255.483 265.01 253.717C266.045 252.97 266.873 252.154 267.632 251.271C269.564 249.097 272.186 247.603 275.704 246.72C279.775 245.701 283.225 243.663 287.709 243.323C288.882 242.847 289.986 242.915 291.159 243.323C293.574 244.002 295.851 243.595 298.059 242.847C299.922 242.168 301.785 241.964 303.716 242.712C303.923 242.847 304.13 242.983 304.337 243.119C304.958 243.663 305.648 244.274 306.131 244.885C306.269 245.089 306.476 245.225 306.683 245.361C307.649 246.108 309.029 246.38 310.064 246.992C312.479 248.554 313.928 250.66 316.273 252.29C317.86 253.377 319.378 254.124 321.655 253.853C323.587 253.581 324.967 254.125 326.002 255.212C326.899 256.163 328.072 256.91 329.313 257.589C329.865 257.861 330.624 258.201 330.693 258.608C331.728 264.179 340.008 264.858 344.217 268.323C343.251 269.41 342.699 270.089 342.63 270.565C342.492 271.38 343.596 271.923 346.424 273.282C348.149 273.826 349.115 274.912 350.633 275.66C351.944 276.407 353.324 277.154 354.29 278.105C354.773 278.581 355.325 279.124 356.084 279.124C359.74 279.26 362.776 281.094 366.571 280.958C367.537 281.23 368.503 281.366 369.538 281.366C370.435 281.366 371.194 281.23 371.953 280.958C373.539 280.347 375.126 280.211 376.782 280.822C378.231 281.23 379.749 281.57 380.991 282.249C382.095 282.86 383.061 282.725 383.889 281.977C384.579 281.23 385.2 281.57 385.752 282.113C388.442 284.219 392.582 284.287 395.963 285.442C396.377 285.442 396.791 285.442 397.205 285.51C398.447 285.714 399.413 286.189 399.689 287.344C400.516 288.567 401.896 289.314 403.828 289.382C405.346 289.314 406.933 289.314 408.382 289.722C411.28 290.061 413.281 291.012 414.522 292.914C415.005 293.594 415.695 294.205 416.73 294.613C418.11 295.088 419.283 293.933 420.663 294.409C420.939 294.477 421.215 294.477 421.56 294.545C422.319 294.681 423.216 294.409 423.699 295.088C424.044 295.768 423.216 296.719 424.596 297.194C425.631 297.534 427.011 297.33 427.908 298.009C428.873 298.553 429.632 299.232 430.253 300.047C430.529 300.455 430.874 300.862 431.288 301.202C431.633 301.474 432.047 301.678 432.461 301.746C437.291 301.95 440.396 305.074 445.225 305.278C446.743 305.346 447.985 305.957 449.434 306.229C450.607 306.365 451.712 306.569 452.471 307.384C453.85 308.471 455.713 308.743 457.714 308.607C460.198 308.811 459.163 310.373 459.853 311.256C460.474 312.139 461.647 312.682 462.889 313.09C465.718 314.041 468.063 315.332 470.133 316.962C472.41 318.729 474.963 319.748 478.551 318.864C480.069 318.525 481.655 318.593 483.242 319.068C488.417 320.699 494.006 321.582 498.766 323.892C499.042 324.028 499.387 324.028 499.732 324.096C501.112 324.028 502.423 324.231 503.734 324.639C506.701 325.182 509.529 325.93 512.358 326.813C515.394 327.764 518.706 328.036 522.018 327.696C522.432 327.696 522.776 327.764 522.983 327.9C523.259 328.036 523.397 328.239 523.397 328.443C523.397 328.783 523.19 329.123 523.052 329.53C522.845 330.481 523.259 331.093 524.087 331.5C524.57 331.704 525.122 331.84 525.812 331.908C528.779 332.316 531.746 332.859 534.575 331.365C535.472 330.889 536.438 330.889 537.403 331.229C537.61 331.297 537.817 331.432 538.024 331.5C538.093 331.5 538.162 331.568 538.162 331.568C538.576 331.84 538.714 332.248 538.921 332.587C539.059 332.859 539.128 333.131 539.335 333.403C540.163 334.218 541.336 334.897 542.44 335.508C542.923 335.78 543.406 336.052 543.889 336.392C544.993 336.867 546.304 336.663 547.408 337.071C548.374 337.343 548.995 337.818 549.409 338.498C550.168 339.381 549.616 340.468 550.443 341.283C550.65 341.487 550.926 341.623 551.271 341.759C552.513 342.098 553.824 341.895 555.066 342.098C557.481 342.166 559.827 342.234 562.035 341.555C562.656 341.351 563.277 341.147 563.898 340.807C565.07 340.196 566.519 340.4 567.83 340.672C569.969 341.147 571.901 341.011 573.419 339.721C574.247 338.905 574.799 338.022 576.041 337.411C578.249 337.411 580.318 336.867 582.043 335.916C584.872 334.354 587.977 333.742 591.496 333.946C592.668 333.742 593.703 333.946 594.738 334.286C596.325 334.761 597.705 335.509 599.43 335.644C599.706 335.644 599.913 335.644 600.189 335.644C601.362 335.644 602.535 335.577 603.639 335.78C608.054 336.731 611.849 336.12 615.851 334.354C620.612 332.248 625.924 330.753 631.72 330.413C632.962 330.481 634.135 330.413 635.376 330.549C638.274 330.617 640.827 332.18 643.863 331.5C645.381 331.161 647.106 331.161 648.624 330.889C649.52 330.685 650.348 330.413 651.038 330.006C654.695 327.628 659.111 326.337 663.664 324.911C668.425 323.416 672.91 322.669 677.808 324.231C679.326 324.299 680.913 324.367 682.431 324.639C682.914 324.639 683.466 324.775 683.742 324.571C687.123 322.397 692.09 322.125 695.333 319.816C696.092 319.272 696.92 318.729 698.024 319C701.75 319.951 704.44 318.661 707.062 317.234C707.683 316.894 708.442 316.691 709.201 316.555C710.305 316.283 711.546 316.351 712.719 316.283C716.514 315.875 718.721 313.565 721.964 312.479C723.068 312.207 724.172 312.003 725.345 312.139C727.001 312.071 728.726 311.935 729.761 311.12C733.348 308.403 738.454 307.248 742.594 305.142C743.836 304.463 745.422 304.667 746.802 304.327C747.285 304.191 747.63 303.987 747.906 303.648C748.251 301.813 750.597 301.61 752.529 301.066C753.288 300.795 753.771 300.455 754.185 299.911C754.53 299.232 754.806 298.553 755.772 298.213C758.256 297.058 759.98 295.496 761.222 293.729C761.429 293.254 761.705 292.847 762.671 292.983C765.569 293.662 767.501 295.156 768.881 296.854C773.296 302.153 774.538 301.134 782.059 300.183C783.37 299.708 784.75 299.3 785.44 298.349C785.785 297.806 786.406 297.805 787.095 298.009C787.992 298.281 788.751 298.621 789.648 298.824C791.787 299.504 793.995 299.368 796.203 298.892C797.031 298.825 797.859 298.621 798.618 298.417C800.205 298.145 801.032 297.33 801.86 296.447C802.412 295.971 802.895 295.428 803.585 295.02C804.758 294.477 806.069 294.341 807.449 294.273C810.761 294.341 811.658 296.854 814.211 297.67C814.831 297.873 815.521 297.873 816.073 298.145C818.971 300.183 822.904 299.844 826.561 300.251C827.32 300.319 828.01 300.319 828.7 300.183C830.769 299.572 832.839 298.96 835.185 298.824C837.807 298.757 839.532 297.534 840.981 296.175C841.809 295.496 842.982 295.224 844.293 295.02C845.258 294.817 846.017 294.409 846.5 293.797C846.914 292.982 847.052 291.964 848.432 291.488C848.777 291.284 849.053 291.012 849.329 290.741C849.674 290.197 850.157 289.993 850.985 290.333C852.986 291.012 854.987 290.944 856.988 290.401C858.161 289.925 859.471 289.925 860.782 290.061C863.956 289.11 867.13 288.159 870.787 288.635C872.098 288.838 873.064 288.091 873.822 287.344C874.581 286.664 875.547 286.121 876.513 285.578C877.686 284.627 879.135 284.966 880.515 285.306C880.86 285.374 881.136 285.374 881.481 285.374C882.585 285.374 883.482 285.102 884.172 284.491C884.793 282.86 886.518 282.453 888.794 281.705C894.935 279.735 902.524 279.735 907.354 275.727C909.424 274.029 910.873 276.203 912.598 276.611C913.15 276.746 913.771 276.814 914.392 276.814C915.702 276.882 915.151 277.697 915.427 278.173C916.323 280.007 918.186 280.89 920.946 280.551C922.533 280.347 923.844 280.686 925.155 281.23C928.605 282.589 932.261 283.811 935.78 285.17C937.988 285.985 940.334 286.189 942.749 285.985C944.335 285.849 945.508 285.306 946.336 284.355C948.889 281.57 951.718 281.162 955.72 283.064C956.272 283.336 956.824 283.676 957.514 283.676C958.272 283.608 958.962 283.336 959.652 283.132L959.652 0.515717L-0.000305176 0.515709L-0.000292938 140.5Z" fill="#131313"/>
</svg>
