<svg width="466" height="584" viewBox="0 0 466 584" fill="none" xmlns="http://www.w3.org/2000/svg">
<rect x="3.20908" y="61.4376" width="385" height="525" rx="192.5" transform="rotate(-8.65 3.20908 61.4376)" fill="#FDBF12" stroke="#131313" stroke-width="5"/>
<rect x="21.1974" y="79.9435" width="355" height="483.639" rx="177.5" transform="rotate(-8.65 21.1974 79.9435)" fill="#FDBF12" stroke="#131313" stroke-width="5"/>
<path d="M211.078 421.673L217.665 464.975L212.562 461.351L209.783 439.091C209.685 438.448 209.431 437.779 209.022 437.082C208.605 436.337 208.057 435.56 207.378 434.753C206.706 433.996 206.054 433.361 205.42 432.851C204.786 432.341 204.191 431.925 203.637 431.605L191.263 448.508L185.005 447.26C187.458 444.105 188.564 441.737 188.324 440.155C187.888 437.288 186.829 435.983 185.148 436.238C184.753 436.298 184.344 436.437 183.922 436.652C183.499 436.868 182.961 437.153 182.307 437.505C181.154 438.237 180.206 438.659 179.465 438.772C178.625 438.9 177.806 438.67 177.008 438.084C176.261 437.489 175.823 436.772 175.695 435.932C175.469 434.449 175.763 432.887 176.575 431.246C177.437 429.598 178.734 427.984 180.466 426.406C182.073 424.998 183.721 423.862 185.41 422.998C187.099 422.134 188.735 421.582 190.317 421.342C196.397 420.417 202.737 424.029 209.338 432.179L209.475 432.082C208.778 428.496 208.052 424.89 207.298 421.262C206.544 417.634 205.814 414.002 205.11 410.367L207.2 411.642C207.786 413.829 208.226 415.228 208.522 415.841C209.325 417.135 210.493 417.665 212.026 417.432C212.421 417.372 212.859 417.255 213.338 417.081L218.122 420.601L211.078 421.673ZM199.412 427.772C197.161 425.939 194.825 425.208 192.402 425.576C187.805 426.275 184.853 428.646 183.546 432.689C185.771 432.35 187.49 432.848 188.704 434.18C189.968 435.505 190.645 437.299 190.737 439.561L199.412 427.772ZM230.453 490.036L203.347 478.912L214.416 467.897L215.205 463.604L220.013 469.776L211.861 478.527L228.39 485.95L230.453 490.036ZM260.641 404.726C259.125 403.743 257.466 402.807 255.662 401.918C253.85 400.98 251.82 400.1 249.57 399.279C247.527 398.477 245.454 397.983 243.352 397.797C241.299 397.604 239.21 397.669 237.085 397.992C233.971 398.466 230.948 400.038 228.016 402.71C224.769 405.631 223.268 408.565 223.514 411.512L225.743 415.194L230.266 414.506L235.124 418.015L227.858 419.12L234.456 462.496L229.598 458.987L223.631 419.763L217.329 420.722L212.619 417.19L223.667 415.509L220.358 413.206C219.105 412.284 218.392 411.254 218.219 410.117C217.708 406.756 219.105 403.307 222.41 399.769C225.647 396.445 228.971 394.523 232.382 394.004C241.18 392.666 250.215 395.539 259.487 402.626L260.641 404.726ZM276.649 411.698L269.382 412.803L276.015 456.402C272.975 453.374 270.46 450.975 268.471 449.204C266.482 447.433 265.036 446.237 264.132 445.616C261.892 444.187 259.369 443.23 256.565 442.746C253.76 442.263 251.019 442.199 248.343 442.556L240.338 434.822C241.505 434.846 242.579 434.759 243.561 434.559C244.542 434.359 245.902 433.824 247.64 432.952C249.379 432.081 251.101 430.934 252.806 429.511C254.737 427.903 256.119 426.352 256.954 424.859C257.831 423.31 258.149 421.744 257.909 420.162C257.683 418.68 256.947 417.502 255.702 416.629C254.506 415.749 253.167 415.422 251.684 415.647C250.596 415.813 249.28 416.468 247.734 417.614C246.197 418.809 245.248 419.888 244.889 420.853C246.677 422.301 247.658 423.593 247.831 424.73C247.921 425.323 247.859 425.914 247.645 426.503C247.432 427.092 247.108 427.622 246.673 428.092C246.239 428.563 245.72 428.971 245.115 429.316C244.502 429.611 243.875 429.808 243.232 429.906C241.601 430.154 240.183 429.813 238.98 428.884C237.818 427.897 237.113 426.588 236.865 424.957C236.361 421.645 237.575 418.653 240.507 415.982C243.172 413.554 246.185 412.084 249.546 411.572C252.611 411.106 255.358 411.877 257.788 413.884C260.309 415.827 261.802 418.331 262.269 421.396C263.058 426.586 260.337 431.805 254.105 437.052C256.256 437.888 258.066 438.649 259.536 439.336C261.048 439.966 262.219 440.521 263.051 441.001C264.665 441.969 266.078 442.943 267.289 443.922C268.549 444.893 269.566 445.927 270.34 447.023L270.488 447.001L263.573 401.549L266.033 403.754L266.884 406.356C267.058 406.835 267.303 407.278 267.617 407.685C267.925 408.043 268.327 408.361 268.825 408.64L271.791 408.188L276.649 411.698ZM307.991 406.93L314.624 450.528L311.908 448.134C311.692 447.712 311.427 447.297 311.112 446.89C310.839 446.426 310.291 445.649 309.468 444.561C308.694 443.464 307.633 442.311 306.286 441.1C304.931 439.839 303.688 438.815 302.556 438.026C298.501 435.305 293.487 434.095 287.514 434.397L280.929 427.509C288.353 420.462 296.194 414.819 304.45 410.579L303.987 407.539L275.589 411.859L270.879 408.327L311.883 402.089L316.518 405.632L307.991 406.93ZM305.476 417.326C302.957 418.721 300.419 420.321 297.862 422.126C295.353 423.924 292.746 426.065 290.039 428.551C297.977 430.529 304.284 434.425 308.962 440.237L305.476 417.326ZM324.505 404.417L331.104 447.793L326.394 444.261L320.427 405.038L314.347 405.963L309.192 402.499L319.795 400.886C315.987 389.479 307.162 384.828 293.321 386.934C292.184 387.106 291.058 387.354 289.944 387.675C288.822 387.947 287.715 388.317 286.624 388.787C283.375 390.04 281.867 391.432 282.1 392.965C282.288 394.2 284.527 394.619 288.815 394.219C294.545 393.651 298.391 393.496 300.352 393.754C302.681 394.107 304.484 394.819 305.759 395.89C307.035 396.96 307.827 398.509 308.135 400.535C308.165 400.733 308.194 401.588 308.222 403.101L304.07 403.733C305.128 402.712 305.571 401.633 305.398 400.496C305.158 398.915 302.903 398.221 298.633 398.415C295.36 398.509 292.765 398.574 290.849 398.613C288.884 398.659 287.622 398.674 287.063 398.658C285.094 398.351 283.484 397.736 282.231 396.814C280.978 395.892 280.235 394.665 280.002 393.132C279.799 391.798 280.137 390.532 281.017 389.336C281.89 388.091 283.202 386.905 284.952 385.779C286.352 385.01 287.866 384.324 289.494 383.723C291.115 383.071 292.716 382.625 294.298 382.385C307.793 380.332 317.651 386.292 323.874 400.265L327.877 399.656L332.587 403.188L324.505 404.417Z" fill="#131313"/>
<path d="M211.078 421.673L210.965 420.931L210.224 421.044L210.336 421.786L211.078 421.673ZM217.665 464.975L217.231 465.586L218.673 466.61L218.407 464.862L217.665 464.975ZM212.562 461.351L211.818 461.444L211.859 461.771L212.128 461.962L212.562 461.351ZM209.783 439.091L210.527 438.998L210.526 438.988L210.524 438.978L209.783 439.091ZM209.022 437.082L208.367 437.448L208.371 437.455L208.375 437.462L209.022 437.082ZM207.378 434.753L207.952 434.27L207.946 434.263L207.939 434.256L207.378 434.753ZM203.637 431.605L204.012 430.956L203.429 430.619L203.032 431.162L203.637 431.605ZM191.263 448.508L191.117 449.244L191.586 449.337L191.869 448.951L191.263 448.508ZM185.005 447.26L184.412 446.8L183.667 447.758L184.858 447.996L185.005 447.26ZM182.307 437.505L181.951 436.845L181.927 436.857L181.905 436.872L182.307 437.505ZM177.008 438.084L176.542 438.671L176.553 438.679L176.564 438.688L177.008 438.084ZM176.575 431.246L175.91 430.898L175.907 430.906L175.903 430.913L176.575 431.246ZM180.466 426.406L179.972 425.842L179.967 425.846L179.961 425.851L180.466 426.406ZM185.41 422.998L185.069 422.331L185.069 422.331L185.41 422.998ZM209.338 432.179L208.755 432.651L209.197 433.197L209.771 432.792L209.338 432.179ZM209.475 432.082L209.908 432.695L210.304 432.415L210.211 431.939L209.475 432.082ZM205.11 410.367L205.5 409.727L204.05 408.842L204.373 410.51L205.11 410.367ZM207.2 411.642L207.925 411.448L207.847 411.158L207.591 411.002L207.2 411.642ZM208.522 415.841L207.846 416.167L207.863 416.203L207.885 416.237L208.522 415.841ZM213.338 417.081L213.782 416.477L213.459 416.239L213.082 416.376L213.338 417.081ZM218.122 420.601L218.235 421.343L220.025 421.07L218.566 419.997L218.122 420.601ZM199.412 427.772L200.016 428.216L200.44 427.641L199.886 427.19L199.412 427.772ZM183.546 432.689L182.833 432.458L182.459 433.613L183.659 433.43L183.546 432.689ZM188.704 434.18L188.15 434.685L188.156 434.692L188.162 434.698L188.704 434.18ZM190.737 439.561L189.987 439.591L190.073 441.727L191.341 440.005L190.737 439.561ZM210.336 421.786L216.924 465.087L218.407 464.862L211.819 421.56L210.336 421.786ZM218.099 464.363L212.996 460.739L212.128 461.962L217.231 465.586L218.099 464.363ZM213.306 461.258L210.527 438.998L209.038 439.184L211.818 461.444L213.306 461.258ZM210.524 438.978C210.409 438.221 210.115 437.462 209.669 436.702L208.375 437.462C208.748 438.096 208.961 438.675 209.041 439.204L210.524 438.978ZM209.677 436.716C209.232 435.921 208.655 435.106 207.952 434.27L206.804 435.236C207.459 436.015 207.978 436.752 208.367 437.448L209.677 436.716ZM207.939 434.256C207.246 433.474 206.563 432.809 205.89 432.267L204.949 433.435C205.544 433.914 206.167 434.517 206.817 435.251L207.939 434.256ZM205.89 432.267C205.234 431.738 204.607 431.299 204.012 430.956L203.262 432.254C203.775 432.551 204.338 432.943 204.949 433.435L205.89 432.267ZM203.032 431.162L190.658 448.065L191.869 448.951L204.242 432.048L203.032 431.162ZM191.41 447.773L185.151 446.525L184.858 447.996L191.117 449.244L191.41 447.773ZM185.597 447.721C186.842 446.12 187.768 444.689 188.354 443.435C188.934 442.194 189.218 441.046 189.065 440.043L187.582 440.268C187.67 440.847 187.521 441.673 186.995 442.8C186.474 443.915 185.621 445.246 184.412 446.8L185.597 447.721ZM189.065 440.043C188.84 438.561 188.439 437.36 187.785 436.554C187.086 435.691 186.135 435.33 185.036 435.497L185.261 436.98C185.842 436.891 186.261 437.055 186.62 437.498C187.025 437.997 187.371 438.883 187.582 440.268L189.065 440.043ZM185.036 435.497C184.547 435.571 184.061 435.739 183.58 435.985L184.263 437.32C184.627 437.134 184.959 437.026 185.261 436.98L185.036 435.497ZM183.58 435.985C183.151 436.204 182.608 436.491 181.951 436.845L182.662 438.165C183.314 437.814 183.848 437.533 184.263 437.32L183.58 435.985ZM181.905 436.872C180.779 437.586 179.938 437.941 179.352 438.03L179.578 439.513C180.475 439.377 181.528 438.888 182.709 438.138L181.905 436.872ZM179.352 438.03C178.741 438.123 178.119 437.969 177.453 437.479L176.564 438.688C177.493 439.371 178.508 439.676 179.578 439.513L179.352 438.03ZM177.475 437.496C176.856 437.004 176.532 436.448 176.436 435.819L174.953 436.044C175.113 437.096 175.666 437.974 176.542 438.671L177.475 437.496ZM176.436 435.819C176.239 434.519 176.488 433.113 177.247 431.579L175.903 430.913C175.038 432.661 174.7 434.379 174.953 436.044L176.436 435.819ZM177.24 431.593C178.052 430.04 179.288 428.494 180.972 426.96L179.961 425.851C178.18 427.474 176.822 429.155 175.91 430.898L177.24 431.593ZM180.961 426.97C182.526 425.598 184.124 424.499 185.752 423.666L185.069 422.331C183.318 423.226 181.619 424.398 179.972 425.842L180.961 426.97ZM185.752 423.666C187.382 422.832 188.941 422.31 190.43 422.083L190.204 420.6C188.529 420.855 186.817 421.437 185.069 422.331L185.752 423.666ZM190.43 422.083C196.1 421.22 202.201 424.559 208.755 432.651L209.921 431.707C203.274 423.5 196.694 419.613 190.204 420.6L190.43 422.083ZM209.771 432.792L209.908 432.695L209.043 431.47L208.906 431.566L209.771 432.792ZM210.211 431.939C209.513 428.35 208.787 424.74 208.032 421.109L206.564 421.414C207.317 425.039 208.042 428.643 208.739 432.225L210.211 431.939ZM208.032 421.109C207.279 417.485 206.55 413.856 205.846 410.224L204.373 410.51C205.079 414.148 205.809 417.783 206.564 421.414L208.032 421.109ZM204.719 411.007L206.81 412.282L207.591 411.002L205.5 409.727L204.719 411.007ZM206.476 411.836C207.057 414.006 207.514 415.479 207.846 416.167L209.197 415.515C208.938 414.978 208.515 413.652 207.925 411.448L206.476 411.836ZM207.885 416.237C208.35 416.986 208.948 417.555 209.69 417.892C210.432 418.229 211.259 418.307 212.139 418.174L211.913 416.691C211.26 416.79 210.737 416.72 210.311 416.526C209.885 416.333 209.497 415.99 209.159 415.445L207.885 416.237ZM212.139 418.174C212.594 418.104 213.08 417.972 213.594 417.786L213.082 416.376C212.637 416.537 212.248 416.64 211.913 416.691L212.139 418.174ZM212.893 417.685L217.677 421.205L218.566 419.997L213.782 416.477L212.893 417.685ZM218.009 419.86L210.965 420.931L211.191 422.414L218.235 421.343L218.009 419.86ZM199.886 427.19C197.504 425.251 194.96 424.428 192.29 424.835L192.515 426.318C194.689 425.987 196.819 426.628 198.939 428.353L199.886 427.19ZM192.29 424.835C189.89 425.2 187.871 426.009 186.271 427.294C184.667 428.582 183.526 430.315 182.833 432.458L184.26 432.92C184.874 431.02 185.862 429.546 187.21 428.464C188.562 427.378 190.318 426.652 192.515 426.318L192.29 424.835ZM183.659 433.43C185.705 433.119 187.147 433.585 188.15 434.685L189.259 433.675C187.833 432.11 185.836 431.582 183.434 431.947L183.659 433.43ZM188.162 434.698C189.272 435.862 189.902 437.466 189.987 439.591L191.486 439.53C191.389 437.131 190.664 435.149 189.247 433.662L188.162 434.698ZM191.341 440.005L200.016 428.216L198.808 427.327L190.133 439.116L191.341 440.005ZM230.453 490.036L230.169 490.73L232.029 491.494L231.123 489.698L230.453 490.036ZM203.347 478.912L202.818 478.38L202.017 479.177L203.062 479.606L203.347 478.912ZM214.416 467.897L214.945 468.428L215.111 468.263L215.154 468.032L214.416 467.897ZM215.205 463.604L215.796 463.143L214.769 461.824L214.467 463.469L215.205 463.604ZM220.013 469.776L220.561 470.288L220.997 469.82L220.604 469.315L220.013 469.776ZM211.861 478.527L211.312 478.016L210.598 478.782L211.554 479.211L211.861 478.527ZM228.39 485.95L229.06 485.612L228.94 485.375L228.698 485.266L228.39 485.95ZM230.738 489.343L203.632 478.218L203.062 479.606L230.169 490.73L230.738 489.343ZM203.876 479.443L214.945 468.428L213.887 467.365L202.818 478.38L203.876 479.443ZM215.154 468.032L215.942 463.74L214.467 463.469L213.679 467.761L215.154 468.032ZM214.613 464.065L219.421 470.237L220.604 469.315L215.796 463.143L214.613 464.065ZM219.464 469.265L211.312 478.016L212.41 479.038L220.561 470.288L219.464 469.265ZM211.554 479.211L228.083 486.634L228.698 485.266L212.168 477.843L211.554 479.211ZM227.721 486.288L229.784 490.374L231.123 489.698L229.06 485.612L227.721 486.288ZM260.641 404.726L260.232 405.355L261.298 404.365L260.641 404.726ZM255.662 401.918L255.317 402.584L255.323 402.587L255.33 402.591L255.662 401.918ZM249.57 399.279L249.297 399.977L249.305 399.98L249.313 399.983L249.57 399.279ZM243.352 397.797L243.282 398.544L243.286 398.544L243.352 397.797ZM228.016 402.71L228.518 403.267L228.521 403.264L228.016 402.71ZM223.514 411.512L222.767 411.574L222.781 411.75L222.872 411.9L223.514 411.512ZM225.743 415.194L225.101 415.582L225.361 416.01L225.856 415.935L225.743 415.194ZM230.266 414.506L230.705 413.898L230.456 413.718L230.153 413.764L230.266 414.506ZM235.124 418.015L235.237 418.756L237.049 418.48L235.563 417.407L235.124 418.015ZM227.858 419.12L227.745 418.379L227.003 418.492L227.116 419.233L227.858 419.12ZM234.456 462.496L234.017 463.104L235.467 464.151L235.198 462.383L234.456 462.496ZM229.598 458.987L228.857 459.1L228.904 459.411L229.159 459.595L229.598 458.987ZM223.631 419.763L224.373 419.65L224.26 418.909L223.518 419.022L223.631 419.763ZM217.329 420.722L216.879 421.322L217.13 421.511L217.442 421.463L217.329 420.722ZM212.619 417.19L212.506 416.449L210.739 416.718L212.169 417.79L212.619 417.19ZM223.667 415.509L223.78 416.251L225.639 415.968L224.095 414.894L223.667 415.509ZM220.358 413.206L219.913 413.81L219.921 413.816L219.929 413.821L220.358 413.206ZM222.41 399.769L221.873 399.246L221.868 399.252L221.862 399.257L222.41 399.769ZM259.487 402.626L260.144 402.264L260.068 402.126L259.942 402.03L259.487 402.626ZM261.049 404.097C259.506 403.096 257.821 402.145 255.993 401.245L255.33 402.591C257.111 403.468 258.745 404.39 260.232 405.355L261.049 404.097ZM256.007 401.252C254.162 400.297 252.102 399.405 249.828 398.574L249.313 399.983C251.537 400.795 253.538 401.663 255.317 402.584L256.007 401.252ZM249.844 398.581C247.737 397.754 245.594 397.243 243.418 397.05L243.286 398.544C245.314 398.724 247.317 399.2 249.297 399.977L249.844 398.581ZM243.422 397.051C241.306 396.851 239.156 396.918 236.972 397.251L237.198 398.734C239.265 398.419 241.293 398.357 243.282 398.544L243.422 397.051ZM236.972 397.251C233.678 397.752 230.524 399.41 227.511 402.155L228.521 403.264C231.372 400.667 234.264 399.18 237.198 398.734L236.972 397.251ZM227.515 402.152C224.179 405.153 222.493 408.298 222.767 411.574L224.261 411.45C224.043 408.832 225.358 406.11 228.518 403.267L227.515 402.152ZM222.872 411.9L225.101 415.582L226.385 414.805L224.155 411.124L222.872 411.9ZM225.856 415.935L230.379 415.247L230.153 413.764L225.63 414.452L225.856 415.935ZM229.827 415.113L234.685 418.623L235.563 417.407L230.705 413.898L229.827 415.113ZM235.011 417.273L227.745 418.379L227.97 419.862L235.237 418.756L235.011 417.273ZM227.116 419.233L233.715 462.609L235.198 462.383L228.599 419.007L227.116 419.233ZM234.895 461.888L230.037 458.379L229.159 459.595L234.017 463.104L234.895 461.888ZM230.34 458.874L224.373 419.65L222.89 419.876L228.857 459.1L230.34 458.874ZM223.518 419.022L217.216 419.98L217.442 421.463L223.744 420.505L223.518 419.022ZM217.779 420.122L213.069 416.59L212.169 417.79L216.879 421.322L217.779 420.122ZM212.732 417.932L223.78 416.251L223.554 414.768L212.506 416.449L212.732 417.932ZM224.095 414.894L220.786 412.59L219.929 413.821L223.238 416.125L224.095 414.894ZM220.802 412.602C219.652 411.755 219.094 410.884 218.96 410.005L217.477 410.23C217.69 411.625 218.558 412.813 219.913 413.81L220.802 412.602ZM218.96 410.005C218.496 406.955 219.74 403.726 222.958 400.281L221.862 399.257C218.47 402.888 216.919 406.557 217.477 410.23L218.96 410.005ZM222.948 400.293C226.109 397.045 229.293 395.233 232.494 394.746L232.269 393.263C228.649 393.813 225.185 395.845 221.873 399.246L222.948 400.293ZM232.494 394.746C241.035 393.446 249.869 396.219 259.031 403.222L259.942 402.03C250.562 394.86 241.326 391.885 232.269 393.263L232.494 394.746ZM258.829 402.987L259.983 405.087L261.298 404.365L260.144 402.264L258.829 402.987ZM276.649 411.698L276.761 412.439L278.574 412.163L277.088 411.09L276.649 411.698ZM269.382 412.803L269.269 412.062L268.528 412.174L268.641 412.916L269.382 412.803ZM276.015 456.402L275.486 456.933L277.099 458.539L276.756 456.289L276.015 456.402ZM264.132 445.616L264.557 444.998L264.547 444.991L264.536 444.984L264.132 445.616ZM248.343 442.556L247.821 443.095L248.082 443.347L248.442 443.299L248.343 442.556ZM240.338 434.822L240.354 434.072L238.441 434.031L239.817 435.361L240.338 434.822ZM243.561 434.559L243.71 435.294L243.71 435.294L243.561 434.559ZM247.64 432.952L247.304 432.282L247.304 432.282L247.64 432.952ZM252.806 429.511L252.326 428.935L252.326 428.935L252.806 429.511ZM256.954 424.859L256.301 424.49L256.3 424.493L256.954 424.859ZM255.702 416.629L255.257 417.233L255.264 417.238L255.272 417.243L255.702 416.629ZM247.734 417.614L247.288 417.011L247.281 417.016L247.274 417.021L247.734 417.614ZM244.889 420.853L244.186 420.592L243.998 421.097L244.417 421.436L244.889 420.853ZM247.645 426.503L246.94 426.247L246.94 426.247L247.645 426.503ZM246.673 428.092L247.225 428.601L247.225 428.601L246.673 428.092ZM245.115 429.316L245.44 429.991L245.464 429.98L245.486 429.967L245.115 429.316ZM238.98 428.884L238.494 429.455L238.508 429.466L238.521 429.477L238.98 428.884ZM240.507 415.982L240.002 415.428L240.002 415.428L240.507 415.982ZM257.788 413.884L257.31 414.462L257.32 414.47L257.33 414.478L257.788 413.884ZM254.105 437.052L253.622 436.478L252.655 437.292L253.834 437.751L254.105 437.052ZM259.536 439.336L259.218 440.015L259.233 440.022L259.247 440.028L259.536 439.336ZM263.051 441.001L263.437 440.358L263.426 440.352L263.051 441.001ZM267.289 443.922L266.817 444.505L266.824 444.511L266.831 444.516L267.289 443.922ZM270.34 447.023L269.727 447.456L269.994 447.835L270.453 447.765L270.34 447.023ZM270.488 447.001L270.601 447.742L271.342 447.629L271.229 446.888L270.488 447.001ZM263.573 401.549L264.074 400.99L262.518 399.595L262.832 401.662L263.573 401.549ZM266.033 403.754L266.746 403.521L266.683 403.33L266.534 403.195L266.033 403.754ZM266.884 406.356L266.171 406.589L266.175 406.6L266.179 406.612L266.884 406.356ZM267.617 407.685L267.024 408.144L267.036 408.159L267.048 408.174L267.617 407.685ZM268.825 408.64L268.458 409.294L268.683 409.42L268.937 409.381L268.825 408.64ZM271.791 408.188L272.23 407.58L271.981 407.401L271.678 407.447L271.791 408.188ZM276.536 410.956L269.269 412.062L269.495 413.545L276.761 412.439L276.536 410.956ZM268.641 412.916L275.273 456.514L276.756 456.289L270.124 412.69L268.641 412.916ZM276.544 455.87C273.499 452.838 270.974 450.428 268.97 448.644L267.973 449.764C269.947 451.522 272.45 453.91 275.486 456.933L276.544 455.87ZM268.97 448.644C266.981 446.873 265.504 445.648 264.557 444.998L263.708 446.234C264.568 446.826 265.984 447.993 267.973 449.764L268.97 448.644ZM264.536 444.984C262.206 443.497 259.588 442.507 256.692 442.007L256.437 443.486C259.151 443.954 261.578 444.876 263.729 446.248L264.536 444.984ZM256.692 442.007C253.817 441.511 251 441.445 248.244 441.812L248.442 443.299C251.039 442.953 253.703 443.014 256.437 443.486L256.692 442.007ZM248.864 442.017L240.86 434.282L239.817 435.361L247.821 443.095L248.864 442.017ZM240.322 435.572C241.536 435.597 242.667 435.507 243.71 435.294L243.411 433.824C242.492 434.011 241.475 434.096 240.354 434.072L240.322 435.572ZM243.71 435.294C244.791 435.074 246.223 434.502 247.976 433.623L247.304 432.282C245.58 433.146 244.292 433.645 243.411 433.824L243.71 435.294ZM247.976 433.623C249.773 432.722 251.543 431.542 253.287 430.087L252.326 428.935C250.659 430.326 248.985 431.44 247.304 432.282L247.976 433.623ZM253.287 430.087C255.257 428.445 256.713 426.826 257.609 425.226L256.3 424.493C255.525 425.878 254.216 427.36 252.326 428.935L253.287 430.087ZM257.607 425.229C258.557 423.551 258.919 421.816 258.65 420.05L257.167 420.275C257.38 421.672 257.105 423.069 256.301 424.49L257.607 425.229ZM258.65 420.05C258.393 418.361 257.543 417.003 256.132 416.015L255.272 417.243C256.352 418 256.973 418.998 257.167 420.275L258.65 420.05ZM256.147 416.025C254.789 415.026 253.248 414.651 251.571 414.906L251.796 416.389C253.085 416.193 254.224 416.472 255.257 417.233L256.147 416.025ZM251.571 414.906C250.303 415.099 248.868 415.84 247.288 417.011L248.181 418.216C249.692 417.097 250.889 416.527 251.796 416.389L251.571 414.906ZM247.274 417.021C245.709 418.238 244.621 419.424 244.186 420.592L245.592 421.115C245.876 420.353 246.684 419.379 248.195 418.206L247.274 417.021ZM244.417 421.436C246.185 422.867 246.962 424.004 247.089 424.843L248.572 424.617C248.354 423.182 247.17 421.735 245.361 420.27L244.417 421.436ZM247.089 424.843C247.16 425.306 247.113 425.771 246.94 426.247L248.35 426.759C248.605 426.058 248.682 425.34 248.572 424.617L247.089 424.843ZM246.94 426.247C246.761 426.74 246.49 427.185 246.122 427.584L247.225 428.601C247.725 428.059 248.102 427.444 248.35 426.759L246.94 426.247ZM246.122 427.584C245.745 427.993 245.287 428.354 244.743 428.664L245.486 429.967C246.152 429.588 246.734 429.133 247.225 428.601L246.122 427.584ZM244.789 428.64C244.24 428.905 243.684 429.078 243.119 429.164L243.345 430.647C244.065 430.538 244.764 430.318 245.44 429.991L244.789 428.64ZM243.119 429.164C241.671 429.384 240.465 429.083 239.438 428.29L238.521 429.477C239.902 430.543 241.53 430.923 243.345 430.647L243.119 429.164ZM239.465 428.312C238.453 427.452 237.83 426.312 237.607 424.844L236.124 425.07C236.397 426.864 237.183 428.341 238.494 429.455L239.465 428.312ZM237.607 424.844C237.148 421.828 238.226 419.075 241.012 416.536L240.002 415.428C236.924 418.232 235.575 421.462 236.124 425.07L237.607 424.844ZM241.012 416.536C243.575 414.201 246.453 412.802 249.659 412.314L249.434 410.831C245.917 411.366 242.769 412.906 240.002 415.428L241.012 416.536ZM249.659 412.314C252.509 411.88 255.042 412.588 257.31 414.462L258.266 413.306C255.675 411.165 252.713 410.332 249.434 410.831L249.659 412.314ZM257.33 414.478C259.702 416.307 261.091 418.64 261.527 421.509L263.01 421.283C262.514 418.022 260.915 415.348 258.246 413.29L257.33 414.478ZM261.527 421.509C262.259 426.319 259.771 431.301 253.622 436.478L254.588 437.625C260.903 432.309 263.857 426.853 263.01 421.283L261.527 421.509ZM253.834 437.751C255.974 438.583 257.768 439.338 259.218 440.015L259.853 438.656C258.363 437.96 256.537 437.192 254.377 436.353L253.834 437.751ZM259.247 440.028C260.747 440.653 261.885 441.194 262.676 441.651L263.426 440.352C262.554 439.848 261.348 439.278 259.824 438.643L259.247 440.028ZM262.665 441.644C264.255 442.598 265.638 443.552 266.817 444.505L267.76 443.339C266.517 442.334 265.075 441.341 263.437 440.358L262.665 441.644ZM266.831 444.516C268.042 445.45 269.004 446.431 269.727 447.456L270.952 446.591C270.128 445.423 269.056 444.337 267.746 443.328L266.831 444.516ZM270.453 447.765L270.601 447.742L270.375 446.259L270.227 446.282L270.453 447.765ZM271.229 446.888L264.315 401.436L262.832 401.662L269.747 447.114L271.229 446.888ZM263.073 402.107L265.532 404.312L266.534 403.195L264.074 400.99L263.073 402.107ZM265.32 403.987L266.171 406.589L267.597 406.122L266.746 403.521L265.32 403.987ZM266.179 406.612C266.38 407.164 266.662 407.676 267.024 408.144L268.211 407.227C267.943 406.88 267.736 406.505 267.589 406.099L266.179 406.612ZM267.048 408.174C267.424 408.611 267.9 408.982 268.458 409.294L269.191 407.985C268.755 407.741 268.426 407.475 268.186 407.197L267.048 408.174ZM268.937 409.381L271.903 408.93L271.678 407.447L268.712 407.898L268.937 409.381ZM271.351 408.796L276.209 412.306L277.088 411.09L272.23 407.58L271.351 408.796ZM307.991 406.93L307.878 406.188L307.137 406.301L307.25 407.042L307.991 406.93ZM314.624 450.528L314.128 451.091L315.676 452.455L315.365 450.415L314.624 450.528ZM311.908 448.134L311.24 448.476L311.305 448.603L311.412 448.697L311.908 448.134ZM311.112 446.89L310.465 447.27L310.489 447.311L310.518 447.349L311.112 446.89ZM309.468 444.561L308.855 444.993L308.862 445.003L308.869 445.013L309.468 444.561ZM306.286 441.1L305.775 441.649L305.785 441.658L306.286 441.1ZM302.556 438.026L302.985 437.41L302.974 437.403L302.556 438.026ZM287.514 434.397L286.972 434.915L287.209 435.163L287.552 435.146L287.514 434.397ZM280.929 427.509L280.412 426.965L279.866 427.483L280.386 428.027L280.929 427.509ZM304.45 410.579L304.792 411.246L305.272 410.999L305.191 410.466L304.45 410.579ZM303.987 407.539L304.729 407.426L304.616 406.684L303.875 406.797L303.987 407.539ZM275.589 411.859L275.139 412.459L275.391 412.648L275.702 412.6L275.589 411.859ZM270.879 408.327L270.767 407.586L268.999 407.854L270.429 408.927L270.879 408.327ZM311.883 402.089L312.338 401.493L312.085 401.3L311.77 401.348L311.883 402.089ZM316.518 405.632L316.631 406.374L318.376 406.108L316.974 405.037L316.518 405.632ZM305.476 417.326L306.218 417.213L306.056 416.148L305.113 416.67L305.476 417.326ZM297.862 422.126L297.429 421.513L297.425 421.516L297.862 422.126ZM290.039 428.551L289.532 427.998L288.505 428.941L289.857 429.278L290.039 428.551ZM308.962 440.237L308.377 440.708L310.122 442.875L309.703 440.125L308.962 440.237ZM307.25 407.042L313.882 450.641L315.365 450.415L308.733 406.817L307.25 407.042ZM315.12 449.965L312.404 447.572L311.412 448.697L314.128 451.091L315.12 449.965ZM312.576 447.793C312.337 447.326 312.046 446.872 311.705 446.431L310.518 447.349C310.807 447.722 311.047 448.098 311.24 448.476L312.576 447.793ZM311.758 446.51C311.461 446.003 310.888 445.195 310.066 444.108L308.869 445.013C309.694 446.103 310.217 446.848 310.465 447.27L311.758 446.51ZM310.08 444.128C309.265 442.973 308.163 441.778 306.787 440.542L305.785 441.658C307.104 442.843 308.123 443.956 308.855 444.993L310.08 444.128ZM306.797 440.551C305.424 439.274 304.153 438.225 302.985 437.41L302.127 438.641C303.222 439.404 304.438 440.405 305.775 441.649L306.797 440.551ZM302.974 437.403C298.757 434.573 293.574 433.34 287.477 433.648L287.552 435.146C293.4 434.85 298.245 436.036 302.138 438.649L302.974 437.403ZM288.056 433.878L281.471 426.991L280.386 428.027L286.972 434.915L288.056 433.878ZM281.445 428.053C288.823 421.05 296.606 415.45 304.792 411.246L304.107 409.912C295.781 414.187 287.883 419.874 280.412 426.965L281.445 428.053ZM305.191 410.466L304.729 407.426L303.246 407.652L303.708 410.692L305.191 410.466ZM303.875 406.797L275.476 411.117L275.702 412.6L304.1 408.28L303.875 406.797ZM276.039 411.259L271.329 407.727L270.429 408.927L275.139 412.459L276.039 411.259ZM270.992 409.069L311.995 402.831L311.77 401.348L270.767 407.586L270.992 409.069ZM311.427 402.685L316.063 406.228L316.974 405.037L312.338 401.493L311.427 402.685ZM316.405 404.891L307.878 406.188L308.104 407.671L316.631 406.374L316.405 404.891ZM305.113 416.67C302.568 418.079 300.007 419.694 297.429 421.513L298.294 422.739C300.831 420.948 303.346 419.363 305.84 417.982L305.113 416.67ZM297.425 421.516C294.888 423.335 292.257 425.496 289.532 427.998L290.546 429.103C293.235 426.634 295.819 424.513 298.298 422.736L297.425 421.516ZM289.857 429.278C297.653 431.221 303.813 435.035 308.377 440.708L309.546 439.767C304.756 433.815 298.301 429.837 290.22 427.823L289.857 429.278ZM309.703 440.125L306.218 417.213L304.735 417.439L308.22 440.35L309.703 440.125ZM324.505 404.417L324.392 403.676L323.651 403.789L323.764 404.53L324.505 404.417ZM331.104 447.793L330.654 448.393L332.121 449.494L331.845 447.681L331.104 447.793ZM326.394 444.261L325.653 444.374L325.699 444.677L325.944 444.861L326.394 444.261ZM320.427 405.038L321.169 404.925L321.056 404.183L320.314 404.296L320.427 405.038ZM314.347 405.963L313.929 406.585L314.171 406.748L314.46 406.704L314.347 405.963ZM309.192 402.499L309.08 401.757L307.176 402.047L308.774 403.121L309.192 402.499ZM319.795 400.886L319.908 401.627L320.789 401.493L320.507 400.648L319.795 400.886ZM289.944 387.675L290.121 388.404L290.136 388.4L290.152 388.396L289.944 387.675ZM286.624 388.787L286.893 389.487L286.907 389.482L286.92 389.476L286.624 388.787ZM288.815 394.219L288.885 394.966L288.889 394.965L288.815 394.219ZM300.352 393.754L300.464 393.012L300.457 393.011L300.449 393.01L300.352 393.754ZM308.222 403.101L308.335 403.843L308.984 403.744L308.972 403.088L308.222 403.101ZM304.07 403.733L303.549 403.193L301.853 404.829L304.183 404.474L304.07 403.733ZM298.633 398.415L298.655 399.165L298.667 399.164L298.633 398.415ZM290.849 398.613L290.834 397.863L290.832 397.863L290.849 398.613ZM287.063 398.658L286.947 399.399L286.994 399.406L287.041 399.408L287.063 398.658ZM282.231 396.814L282.675 396.21L282.675 396.21L282.231 396.814ZM281.017 389.336L281.621 389.781L281.627 389.774L281.632 389.767L281.017 389.336ZM284.952 385.779L284.591 385.122L284.568 385.134L284.546 385.148L284.952 385.779ZM289.494 383.723L289.755 384.426L289.764 384.422L289.774 384.418L289.494 383.723ZM323.874 400.265L323.188 400.57L323.421 401.093L323.986 401.007L323.874 400.265ZM327.877 399.656L328.327 399.056L328.076 398.867L327.765 398.915L327.877 399.656ZM332.587 403.188L332.7 403.929L334.468 403.66L333.037 402.588L332.587 403.188ZM323.764 404.53L330.362 447.906L331.845 447.681L325.247 404.305L323.764 404.53ZM331.554 447.193L326.844 443.661L325.944 444.861L330.654 448.393L331.554 447.193ZM327.136 444.149L321.169 404.925L319.686 405.151L325.653 444.374L327.136 444.149ZM320.314 404.296L314.234 405.221L314.46 406.704L320.54 405.779L320.314 404.296ZM314.765 405.34L309.611 401.876L308.774 403.121L313.929 406.585L314.765 405.34ZM309.305 403.24L319.908 401.627L319.683 400.144L309.08 401.757L309.305 403.24ZM320.507 400.648C318.555 394.801 315.287 390.612 310.67 388.179C306.068 385.754 300.225 385.125 293.208 386.192L293.434 387.675C300.258 386.637 305.747 387.28 309.97 389.506C314.178 391.723 317.227 395.563 319.084 401.123L320.507 400.648ZM293.208 386.192C292.039 386.37 290.882 386.624 289.736 386.954L290.152 388.396C291.235 388.083 292.329 387.843 293.434 387.675L293.208 386.192ZM289.767 386.946C288.603 387.228 287.457 387.612 286.327 388.098L286.92 389.476C287.974 389.022 289.041 388.665 290.121 388.404L289.767 386.946ZM286.354 388.087C284.694 388.727 283.403 389.43 282.547 390.22C281.676 391.025 281.193 391.988 281.359 393.077L282.842 392.852C282.774 392.409 282.929 391.91 283.565 391.322C284.217 390.72 285.305 390.099 286.893 389.487L286.354 388.087ZM281.359 393.077C281.533 394.221 282.629 394.727 283.782 394.942C285.006 395.171 286.721 395.167 288.885 394.966L288.746 393.472C286.621 393.67 285.073 393.657 284.058 393.468C282.973 393.265 282.856 392.944 282.842 392.852L281.359 393.077ZM288.889 394.965C294.632 394.396 298.392 394.252 300.254 394.497L300.449 393.01C298.389 392.739 294.458 392.906 288.741 393.473L288.889 394.965ZM300.239 394.495C302.486 394.836 304.142 395.512 305.277 396.464L306.242 395.315C304.825 394.127 302.876 393.378 300.464 393.012L300.239 394.495ZM305.277 396.464C306.383 397.392 307.106 398.758 307.394 400.648L308.877 400.422C308.547 398.259 307.687 396.528 306.242 395.315L305.277 396.464ZM307.394 400.648C307.394 400.647 307.396 400.662 307.399 400.702C307.402 400.738 307.405 400.787 307.409 400.849C307.416 400.973 307.423 401.139 307.43 401.35C307.444 401.772 307.458 402.36 307.472 403.115L308.972 403.088C308.958 402.33 308.944 401.733 308.929 401.3C308.915 400.89 308.9 400.575 308.877 400.422L307.394 400.648ZM308.109 402.36L303.957 402.992L304.183 404.474L308.335 403.843L308.109 402.36ZM304.59 404.273C305.77 403.136 306.359 401.827 306.14 400.384L304.657 400.609C304.783 401.44 304.487 402.289 303.549 403.193L304.59 404.273ZM306.14 400.384C305.957 399.182 305.002 398.459 303.747 398.073C302.496 397.688 300.762 397.568 298.599 397.666L298.667 399.164C300.774 399.069 302.302 399.198 303.306 399.507C304.306 399.814 304.599 400.229 304.657 400.609L306.14 400.384ZM298.612 397.665C295.339 397.759 292.747 397.825 290.834 397.863L290.865 399.363C292.784 399.324 295.381 399.258 298.655 399.165L298.612 397.665ZM290.832 397.863C288.861 397.91 287.62 397.924 287.085 397.908L287.041 399.408C287.624 399.425 288.907 399.409 290.867 399.363L290.832 397.863ZM287.179 397.917C285.297 397.623 283.808 397.043 282.675 396.21L281.786 397.418C283.16 398.429 284.892 399.078 286.947 399.399L287.179 397.917ZM282.675 396.21C281.582 395.405 280.946 394.354 280.743 393.019L279.26 393.245C279.523 394.975 280.374 396.378 281.786 397.418L282.675 396.21ZM280.743 393.019C280.573 391.902 280.846 390.834 281.621 389.781L280.413 388.892C279.428 390.23 279.024 391.693 279.26 393.245L280.743 393.019ZM281.632 389.767C282.432 388.624 283.661 387.501 285.358 386.41L284.546 385.148C282.742 386.309 281.348 387.557 280.403 388.906L281.632 389.767ZM285.313 386.436C286.678 385.686 288.158 385.016 289.755 384.426L289.234 383.019C287.575 383.632 286.026 384.333 284.591 385.122L285.313 386.436ZM289.774 384.418C291.346 383.787 292.891 383.358 294.411 383.126L294.185 381.643C292.541 381.893 290.884 382.356 289.215 383.027L289.774 384.418ZM294.411 383.126C301.018 382.121 306.672 383.084 311.425 385.957C316.186 388.836 320.119 393.678 323.188 400.57L324.559 399.96C321.405 392.879 317.298 387.755 312.201 384.673C307.095 381.586 301.072 380.596 294.185 381.643L294.411 383.126ZM323.986 401.007L327.99 400.397L327.765 398.915L323.761 399.524L323.986 401.007ZM327.427 400.256L332.137 403.788L333.037 402.588L328.327 399.056L327.427 400.256ZM332.474 402.446L324.392 403.676L324.618 405.159L332.7 403.929L332.474 402.446Z" fill="#131313"/>
<rect x="106.416" y="108.195" width="195" height="265.503" rx="97.5" transform="rotate(-8.65 106.416 108.195)" fill="#FDBF12" stroke="#131313" stroke-width="5"/>
<path d="M189.88 204.462C189.88 204.462 191.299 225.662 224.657 231.023C224.657 231.023 224.346 205.009 189.88 204.462Z" fill="#131313"/>
<path d="M192.488 233.733C192.488 233.733 193.907 254.934 227.252 260.297C227.242 260.236 226.905 234.288 192.488 233.733Z" fill="#131313"/>
<path d="M197.677 264.349C197.677 264.349 199.096 285.549 232.439 290.825C232.439 290.825 232.143 264.895 197.677 264.349Z" fill="#131313"/>
<path d="M202.359 293.505C202.359 293.505 203.778 314.705 237.119 319.969C237.119 319.969 236.825 294.051 202.359 293.505Z" fill="#131313"/>
<path d="M224.036 232.077C234.083 227.314 244.134 220.205 248.173 209.396C249.58 205.617 250.493 200.973 249.543 196.967C249.478 196.579 248.475 196.624 248.053 196.857C237.39 200.19 226.612 206.461 223.053 217.75C221.522 222.345 221.355 227.286 222.572 231.975C222.726 232.448 223.749 232.225 224.036 232.077Z" fill="#131313"/>
<path d="M253.123 225.661L253.038 225.675C242.373 228.996 231.593 235.255 228.012 246.56C226.5 251.162 226.35 256.103 227.581 260.789C227.657 261.237 228.781 261.247 229.092 261.095C239.138 256.32 249.142 249.231 253.169 238.425C254.586 234.631 255.491 230.013 254.501 225.99C254.389 225.697 253.578 225.547 253.123 225.661Z" fill="#131313"/>
<path d="M257.285 256.537C246.625 259.882 235.846 266.153 232.288 277.442C230.758 282.038 230.59 286.978 231.806 291.667C231.949 292.142 232.967 291.895 233.266 291.745C243.314 286.982 253.364 279.873 257.403 269.065C258.811 265.285 259.724 260.641 258.774 256.635C258.684 256.251 257.707 256.304 257.285 256.537Z" fill="#131313"/>
<path d="M261.609 285.729C250.948 289.074 240.18 295.331 236.608 306.61C235.075 311.205 234.912 316.147 236.138 320.833C236.22 321.318 237.285 321.126 237.586 320.988C247.632 316.212 257.697 309.114 261.735 298.305C263.143 294.526 264.058 289.894 263.106 285.876C262.978 285.486 262.021 285.51 261.609 285.729Z" fill="#131313"/>
<path d="M218.388 208.29L225.611 257.538C229.459 283.796 233.307 310.057 237.156 336.322C238.043 342.319 238.923 348.324 239.796 354.337C239.934 355.158 243.279 354.731 243.158 353.939L235.935 304.691C232.087 278.426 228.239 252.165 224.391 225.907C223.518 219.893 222.637 213.885 221.749 207.881C221.642 207.097 218.284 207.527 218.388 208.29Z" fill="#131313"/>
</svg>
