<svg width="352" height="105" viewBox="0 0 352 105" fill="none" xmlns="http://www.w3.org/2000/svg">
<path d="M3.77523 97.1988C3.96146 96.7338 4.26311 95.8768 4.68019 94.6277C5.07413 93.4073 5.50746 92.0649 5.98018 90.6004C12.2523 71.5225 18.6286 55.3929 25.1091 42.2115C25.9945 40.4412 26.6529 39.2451 27.0843 38.623C27.513 37.9751 27.9086 37.6318 28.2711 37.5933C29.0997 37.5051 29.494 38.3798 29.4538 40.2172C29.4378 40.5594 29.4072 41.2567 29.362 42.309C29.3141 43.3355 29.2171 45.0087 29.0711 47.3289C28.9224 49.6231 28.7262 52.8259 28.4827 56.9372C28.242 61.0745 27.7704 66.6112 27.0679 73.5473C26.2437 81.3083 25.9735 86.5224 26.2572 89.1896C26.2958 89.5521 26.3432 89.8744 26.3994 90.1565C26.4556 90.4386 26.4994 90.6042 26.5308 90.6532C26.614 90.6968 26.7454 90.578 26.925 90.297C27.1305 90.0133 27.4264 89.4711 27.8126 88.6706C28.1988 87.87 28.7162 86.702 29.3647 85.1664C30.039 83.6281 30.8895 81.652 31.9159 79.2382C37.3104 66.4343 41.6107 57.0072 44.8167 50.957C50.311 40.8136 55.7035 32.4226 60.9945 25.7839C62.2182 24.2396 63.1474 23.2503 63.7821 22.8161C64.4168 22.382 64.9647 22.363 65.4259 22.7591C66.0942 23.1332 66.3077 24.5247 66.0664 26.9335C65.9369 28.1782 65.7237 29.4972 65.4268 30.8906C65.1557 32.2812 64.6631 34.2978 63.9491 36.9402C60.0114 51.8676 57.3984 64.2317 56.1103 74.0323C55.1076 81.8385 54.6456 89.3121 54.7244 96.4532C54.7041 96.5077 54.6952 96.5479 54.698 96.5738C54.7057 97.3849 54.72 98.0119 54.741 98.4549C54.7647 98.9237 54.7875 99.2617 54.8096 99.4689C54.8603 99.6992 54.9156 99.8505 54.9757 99.9226C55.0616 99.9921 55.1592 100.047 55.2683 100.088C55.2942 100.085 55.3085 100.097 55.3112 100.123C55.8021 100.306 56.1269 100.651 56.2856 101.158C56.4443 101.665 56.4272 102.243 56.2344 102.892C55.9462 103.63 55.5413 104.131 55.0195 104.396C54.5264 104.684 54.0636 104.642 53.6311 104.269C53.1413 103.85 52.9132 102.813 52.9468 101.16C52.9859 100.789 52.9988 100.172 52.9856 99.3094C52.9983 98.4438 53.0197 97.538 53.05 96.592C53.1977 85.9176 54.2053 75.204 56.0731 64.4512C56.699 60.9801 57.5775 56.6834 58.7086 51.561C59.8629 46.41 61.0466 41.413 62.2598 36.57C62.5177 35.5474 62.7741 34.5118 63.0292 33.4633C63.2816 32.389 63.4796 31.5429 63.6234 30.9253C63.7535 30.1782 63.8752 29.3534 63.9887 28.4509C64.1281 27.5457 64.2267 26.7495 64.2846 26.0624C64.3424 25.3754 64.3413 24.9958 64.2813 24.9236C64.2785 24.8977 64.2642 24.8861 64.2383 24.8889C64.2124 24.8916 64.1879 24.9073 64.1647 24.936C64.1416 24.9646 64.0939 25.009 64.0218 25.069C63.9755 25.1263 63.8931 25.2137 63.7747 25.331C63.6793 25.4197 63.5493 25.5514 63.3846 25.7261C63.2457 25.898 63.0722 26.1129 62.8639 26.3707C62.6529 26.6027 62.4085 26.8906 62.1309 27.2344C60.8295 28.787 59.1336 31.0625 57.0432 34.0609C54.976 37.0306 53.0151 40.0152 51.1606 43.0147C45.7126 51.8699 39.5793 64.6216 32.7606 81.2697C31.4079 84.5562 30.325 87.0546 29.5118 88.7648C28.6986 90.475 28.0189 91.5948 27.4729 92.1243C26.9528 92.651 26.4432 92.7838 25.944 92.5227C25.6167 92.4004 25.3622 92.1001 25.1804 91.6218C25.0272 91.1667 24.9002 90.3422 24.7994 89.1483C24.6192 87.7009 24.5925 85.7265 24.7192 83.2251C24.869 80.695 25.2095 76.7567 25.7406 71.4101C26.0976 67.6271 26.3635 64.5872 26.5381 62.2902C26.7387 59.9904 26.9395 57.324 27.1406 54.2909C27.2342 52.7097 27.3395 51.114 27.4563 49.5041C27.5499 47.9228 27.629 46.6966 27.6934 45.8256C27.9617 41.9473 28.0312 40.015 27.9017 40.0288C27.8499 40.0343 27.5438 40.6038 26.9835 41.7371C26.4204 42.8446 25.7846 44.13 25.076 45.5933C24.3906 47.0281 23.7923 48.2964 23.281 49.3983C20.1196 56.3604 16.7207 64.9059 13.0843 75.035C11.6683 78.9568 10.5535 82.1394 9.7397 84.583C8.92317 87.0007 8.06202 89.7373 7.15624 92.793C6.36175 95.4178 5.73558 97.4093 5.27773 98.7674C4.79398 100.128 4.39288 101.035 4.07442 101.488C3.73282 101.97 3.38076 102.23 3.01822 102.268C2.60389 102.312 2.25072 102.193 1.9587 101.91C1.67495 101.704 1.44217 101.362 1.26035 100.884C1.08128 100.432 0.883479 99.6801 0.666944 98.6294C0.242688 95.8724 0.0768382 93.8211 0.169396 92.4757C0.261954 91.1302 0.431097 90.0123 0.676826 89.1219C0.712087 88.961 0.747349 88.8002 0.78261 88.6393C1.28399 87.1979 2.02944 86.4508 3.01898 86.3979C3.97987 86.3219 4.62258 86.9475 4.94711 88.2748C5.01708 88.6864 5.0427 89.0503 5.02397 89.3665C4.97935 89.6855 4.88375 90.1409 4.7372 90.7327C4.27164 92.5106 3.72949 94.0611 3.11075 95.3839C2.72453 96.1845 2.72012 97.1278 3.09754 98.2137C3.13997 98.3663 3.18708 98.4399 3.23887 98.4344C3.26752 98.4575 3.32399 98.373 3.40829 98.1807C3.49259 97.9884 3.6149 97.6611 3.77523 97.1988Z" fill="#E6E1DB"/>
<path d="M71.0179 74.2141C70.5259 74.2664 70.1435 74.2416 69.8708 74.1397C68.7225 73.6857 68.0617 72.643 67.8881 71.0116C67.7614 69.8204 67.8564 68.2521 68.1732 66.3066L68.1691 66.2677C68.1663 66.2419 68.152 66.2303 68.1261 66.233C68.0743 66.2385 67.6148 66.7195 66.7476 67.676C64.7558 69.8783 63.1773 71.0414 62.012 71.1653C61.3387 71.237 60.8095 70.9397 60.4244 70.2736C60.2563 69.9248 60.1503 69.5433 60.1062 69.129C59.9877 68.0154 60.3836 66.6901 61.2938 65.1529C63.0222 62.6906 64.9481 61.3465 67.0715 61.1206C68.4181 60.9773 69.4817 61.3749 70.2625 62.3132C70.3826 62.4575 70.4592 62.6851 70.4922 62.9958C70.5859 63.8763 70.498 64.5272 70.2286 64.9487C69.9592 65.3702 69.7391 66.0091 69.5683 66.8653C69.2294 68.6036 69.1151 69.9906 69.2253 71.0265C69.2997 71.7256 69.5402 72.2631 69.9468 72.6389C70.2388 72.9221 70.5661 73.0444 70.9286 73.0058C72.1457 72.8763 74.2016 71.4006 77.0964 68.5785C78.1625 67.5223 78.897 66.6716 79.2997 66.0264C79.6997 65.3553 79.8681 64.722 79.8047 64.1264C79.7386 63.5049 79.8485 63.0611 80.1345 62.7949C80.4204 62.5288 80.7058 62.3806 80.9907 62.3503C81.4827 62.298 81.8584 62.5068 82.1179 62.9768C82.2546 63.2765 82.3381 63.5688 82.3684 63.8536C82.4593 64.7082 82.2623 65.3184 81.7775 65.6842C81.5554 65.8126 80.9863 66.3707 80.07 67.3586C78.6133 68.9278 77.1774 70.3245 75.7625 71.5488C74.3449 72.7471 73.2471 73.5055 72.4691 73.824C72.0195 74.029 71.5358 74.159 71.0179 74.2141ZM61.8938 69.6852C62.4635 69.6245 63.4407 68.8397 64.8252 67.3306C66.0219 66.0248 66.7093 65.1005 66.8872 64.5578C66.9456 64.3683 66.9569 64.1052 66.9211 63.7686C66.8715 63.3024 66.6137 63.0942 66.1476 63.1438C65.7073 63.1906 65.1495 63.4856 64.474 64.0289C63.0999 65.1441 62.1982 66.3923 61.769 67.7736C61.553 68.4513 61.463 68.9584 61.4988 69.2951C61.5291 69.5799 61.6608 69.7099 61.8938 69.6852Z" fill="#E6E1DB"/>
<path d="M79.9535 76.6025L79.7593 76.6232C79.2932 76.6728 78.9012 76.5573 78.5833 76.2769C78.1193 75.8548 77.8392 75.1907 77.7427 74.2843L77.6369 72.9207C77.6 71.589 77.8681 69.9237 78.4411 67.9247C79.1783 65.2536 79.781 63.6575 80.2493 63.1363C80.5094 62.8729 80.8984 62.7137 81.4163 62.6586C82.219 62.5732 82.6857 63.0211 82.8163 64.0024C82.8879 64.6757 82.4314 65.4313 81.4469 66.2693C81.1813 66.4809 80.9689 66.6999 80.8097 66.9264C80.3088 67.6344 79.9339 68.7873 79.6849 70.3851C79.5036 71.6352 79.4681 72.7782 79.5783 73.814C79.6499 74.4873 79.8152 74.8102 80.0742 74.7826C80.5921 74.7275 82.3783 72.8091 85.4329 69.0272C86.5232 67.7065 87.3836 66.6853 88.0139 65.9635C88.6442 65.2418 89.1282 64.7451 89.4659 64.4734C89.8037 64.2018 90.0891 64.0536 90.3222 64.0288C90.7365 63.9847 91.0536 64.1343 91.2734 64.4776C91.5164 64.7922 91.7235 65.3856 91.8949 66.2577C92.0266 67.0032 92.1765 67.5503 92.3445 67.8991C92.5098 68.2219 92.8514 68.3558 93.3693 68.3007C94.0944 68.2236 95.0453 67.8082 96.2222 67.0544C97.4222 66.272 98.5456 65.2621 99.5925 64.0246C100.102 63.3943 100.341 62.9367 100.311 62.6519C100.258 62.1599 100.391 61.6874 100.71 61.2345C101.028 60.7816 101.408 60.5318 101.848 60.4849C102.21 60.4464 102.557 60.5012 102.887 60.6494C103.243 60.7948 103.439 61.0359 103.474 61.3725C103.554 62.1235 103.099 63.01 102.107 64.0321C101.142 65.0514 100.015 66.0224 98.7247 66.9453C97.4321 67.8423 96.4759 68.4547 95.8561 68.7825C94.7663 69.3699 93.8071 69.7076 92.9784 69.7958C92.1497 69.8839 91.504 69.5991 91.0412 68.9412C90.6467 68.4332 90.4095 67.8038 90.3296 67.0528C90.2635 66.4313 90.1241 66.1057 89.9114 66.0759C89.8078 66.0869 88.5037 67.6137 85.999 70.6561C84.7004 72.2347 83.6896 73.4421 82.9668 74.2785C81.7034 75.6962 80.699 76.4708 79.9535 76.6025Z" fill="#E6E1DB"/>
<path d="M93.0206 83.8546C92.6322 83.8959 92.2961 83.8138 92.0123 83.6083C91.7027 83.4055 91.5231 83.0711 91.4735 82.605L91.4586 82.0959C91.463 81.1526 92.2137 79.5931 93.7107 77.4173C94.7096 75.9754 95.8652 74.53 97.1776 73.0809C98.0966 72.1189 98.6076 71.3837 98.7107 70.8751L98.7818 70.4354C98.9256 69.8178 99.0713 69.0952 99.2189 68.2676L99.3123 67.6685C100.177 61.7626 101.606 58.7036 103.6 58.4915C104.351 58.4116 104.764 58.7213 104.838 59.4204C104.921 60.1973 104.368 61.2775 103.179 62.661C102.737 63.1794 102.407 63.6467 102.189 64.0626C102.017 64.6571 101.84 65.3307 101.658 66.0833C101.177 67.9676 100.944 68.9745 100.958 69.104L100.962 69.1429C101.066 69.1318 101.764 68.5599 103.058 67.4271L107.752 63.5494C108.598 62.8833 109.213 62.3857 109.597 62.0568C110.197 61.5477 110.553 61.0777 110.664 60.6469C110.97 59.8287 111.46 59.3838 112.133 59.3121C112.729 59.2488 113.164 59.5298 113.441 60.1551L113.572 60.6518C113.66 61.4805 113.105 62.0502 111.907 62.3609C111.576 62.4485 111.261 62.5607 110.961 62.6973C110.39 62.9937 108.82 64.2345 106.25 66.4197C102.985 69.2026 101.066 70.9781 100.493 71.7462C100.336 71.9985 100.141 72.5038 99.9074 73.2619C98.9691 76.5044 97.7589 79.1603 96.2768 81.2298C95.09 82.8749 94.0046 83.7499 93.0206 83.8546ZM93.1925 82.1471C93.3479 82.1306 93.7393 81.7485 94.3669 81.0008C95.5145 79.7264 96.4641 78.0672 97.2156 76.0231C97.4046 75.584 97.4922 75.2997 97.4785 75.1702C97.4757 75.1443 97.4614 75.1327 97.4355 75.1355C97.3319 75.1465 97.0964 75.3942 96.7289 75.8785C95.8495 76.9672 94.9997 78.2099 94.1793 79.6066C93.42 80.8397 93.0625 81.6634 93.1065 82.0777C93.112 82.1295 93.1407 82.1526 93.1925 82.1471Z" fill="#E6E1DB"/>
<path d="M111.261 73.2718L111.067 73.2924C110.601 73.342 110.209 73.2266 109.891 72.9462C109.427 72.5241 109.147 71.8599 109.05 70.9536L108.945 69.5899C108.908 68.2582 109.176 66.5929 109.749 64.594C110.486 61.9229 111.089 60.3268 111.557 59.8055C111.817 59.5422 112.206 59.3829 112.724 59.3278C113.527 59.2424 113.993 59.6904 114.124 60.6717C114.196 61.3449 113.739 62.1006 112.755 62.9386C112.489 63.1502 112.277 63.3692 112.117 63.5957C111.617 64.3037 111.242 65.4566 110.993 67.0544C110.811 68.3045 110.776 69.4475 110.886 70.4833C110.958 71.1566 111.123 71.4795 111.382 71.4519C111.9 71.3968 113.686 69.4783 116.741 65.6965C117.831 64.3758 118.691 63.3546 119.322 62.6328C119.952 61.911 120.436 61.4143 120.774 61.1427C121.111 60.8711 121.397 60.7229 121.63 60.6981C122.044 60.654 122.361 60.8036 122.581 61.1468C122.824 61.4614 123.031 62.0548 123.203 62.927C123.334 63.6725 123.484 64.2196 123.652 64.5683C123.817 64.8912 124.159 65.0251 124.677 64.97C125.402 64.8929 126.353 64.4774 127.53 63.7237C128.73 62.9413 129.853 61.9314 130.9 60.6939C131.409 60.0636 131.649 59.606 131.618 59.3212C131.566 58.8291 131.699 58.3567 132.018 57.9038C132.336 57.4509 132.715 57.201 133.156 57.1542C133.518 57.1156 133.864 57.1704 134.194 57.3187C134.55 57.4641 134.746 57.7052 134.782 58.0418C134.862 58.7928 134.406 59.6793 133.415 60.7013C132.45 61.7206 131.322 62.6917 130.032 63.6146C128.74 64.5116 127.784 65.124 127.164 65.4518C126.074 66.0391 125.115 66.3769 124.286 66.4651C123.457 66.5532 122.812 66.2684 122.349 65.6105C121.954 65.1025 121.717 64.473 121.637 63.7221C121.571 63.1006 121.432 62.7749 121.219 62.7452C121.116 62.7562 119.811 64.283 117.307 67.3254C116.008 68.9039 114.997 70.1114 114.274 70.9478C113.011 72.3654 112.007 73.1401 111.261 73.2718Z" fill="#E6E1DB"/>
<path d="M153.738 64.1567C152.806 64.2558 151.949 64.0721 151.166 63.6054C150.398 63.0324 149.921 62.2451 149.736 61.2434C149.601 59.9745 149.54 58.9073 149.552 58.0417L149.52 56.631C149.49 56.3461 149.446 56.1806 149.389 56.1343C149.331 56.088 149.225 56.0731 149.07 56.0897C148.26 56.3591 146.881 57.6712 144.932 60.0261C143.006 62.3523 141.706 63.5512 141.033 63.6228L140.795 63.6088C140.336 63.4743 139.999 62.3972 139.784 60.3773C139.643 59.0567 139.516 58.3501 139.401 58.2575C139.393 58.1798 139.35 58.1451 139.272 58.1534C138.884 58.1947 137.796 59.2925 136.008 61.4468C135.823 61.676 135.641 61.9311 135.461 62.2121C134.624 63.4534 133.882 64.1085 133.235 64.1774L132.959 64.1675C132.269 64.0837 131.888 63.7052 131.817 63.0319C131.781 62.6953 131.778 62.3027 131.809 61.8542L131.956 58.0674C131.966 57.176 132.032 56.5666 132.155 56.2393C132.348 55.5903 132.845 55.223 133.648 55.1376C134.425 55.055 134.986 55.4013 135.33 56.1765C135.427 56.3495 135.482 56.5007 135.496 56.6302C135.513 56.7856 135.401 57.2164 135.162 57.9228C134.653 59.2864 134.412 60.0977 134.439 60.3567L134.443 60.3955C134.521 60.3873 134.995 59.9178 135.865 58.9873C137.339 57.3377 138.516 56.466 139.397 56.3723C140.226 56.2842 140.785 56.8663 141.075 58.1186C141.16 58.4239 141.238 58.7823 141.308 59.1939C141.352 59.6082 141.379 59.985 141.389 60.3244L141.513 61.4897C141.642 61.476 142.074 60.9848 142.809 60.0162C145.85 56.1048 148.057 54.0761 149.429 53.9301C150.439 53.8227 151.019 54.4682 151.167 55.8665C151.236 56.5139 151.258 57.3365 151.233 58.3343C151.215 59.1481 151.242 59.8916 151.314 60.5649L151.359 60.9922C151.502 62.3387 152.17 62.9487 153.361 62.8219C153.982 62.7558 154.878 62.4379 156.048 61.8682C157.219 61.2985 158.438 60.4486 159.705 59.3186C160.973 58.1885 161.687 57.1436 161.847 56.1838C162.072 54.8505 162.676 54.1315 163.66 54.0268C164.074 53.9827 164.439 54.0879 164.754 54.3425C164.929 54.5072 165.029 54.7061 165.053 54.9392C165.117 55.5348 164.868 56.0326 164.309 56.4326C164.113 56.5582 163.934 56.7213 163.772 56.9218C163.06 57.8618 161.951 59.0142 160.447 60.3789C158.968 61.7409 157.38 62.8134 155.682 63.5963C155.008 63.9038 154.36 64.0905 153.738 64.1567Z" fill="#E6E1DB"/>
<path d="M163.64 52.7326C163.967 52.3573 164.38 52.1824 164.881 52.2078C165.404 52.2044 165.83 52.3948 166.159 52.7788C166.496 53.2405 166.614 53.8565 166.513 54.6268C166.409 55.3711 166.113 55.9133 165.625 56.2532C165.354 56.413 165.082 56.8086 164.809 57.44C164.559 58.0428 164.268 59.0034 163.937 60.3219C163.049 63.7946 163.042 65.9429 163.915 66.7666C164.059 66.8823 164.211 66.9577 164.372 66.993C164.53 67.0024 164.815 66.9721 165.226 66.9021C167.071 66.5225 170.329 64.1594 175 59.8127C178.885 56.2044 180.783 53.9859 180.695 53.1573C180.607 52.3286 180.93 51.6788 181.666 51.2077C182.427 50.7338 183.198 50.7173 183.978 51.1581C184.293 51.4126 184.489 51.7716 184.564 52.235C184.663 52.6697 184.628 53.0793 184.459 53.4639C184.352 53.6848 184.193 53.9113 183.982 54.1432C183.771 54.3752 183.545 54.5956 183.306 54.8044C183.089 54.9846 182.916 55.0815 182.787 55.0953C182.579 55.1174 182.174 55.37 181.571 55.8532C180.965 56.3105 180.055 57.1144 178.842 58.2648C172.355 64.245 168.109 67.5382 166.105 68.1442C165.626 68.3261 165.245 68.4321 164.96 68.4624C164.675 68.4927 164.358 68.4611 164.007 68.3674C163.818 68.309 163.627 68.2376 163.434 68.1534C163.213 68.0459 163.044 67.933 162.927 67.8145C162.638 67.5572 162.388 67.1779 162.177 66.6765C161.941 66.1779 161.798 65.6955 161.748 65.2294C161.693 64.7115 161.708 63.9897 161.793 63.0641C161.875 62.1125 162.01 61.1684 162.199 60.2318C162.473 58.867 162.663 57.8254 162.77 57.107C162.877 56.3885 162.91 55.8351 162.868 55.4466C162.821 55.0064 162.874 54.5163 163.026 53.9764C163.178 53.4364 163.383 53.0218 163.64 52.7326ZM168.045 47.9821C167.818 48.5562 167.467 48.9471 166.991 49.1548C166.516 49.3625 166.004 49.3515 165.456 49.1218C164.899 48.8143 164.564 48.3656 164.448 47.7755C164.359 47.1826 164.47 46.6209 164.78 46.0903C165.087 45.5339 165.552 45.2226 166.173 45.1564C166.898 45.0793 167.478 45.3581 167.912 45.9928C168.289 46.5812 168.333 47.2443 168.045 47.9821Z" fill="#E6E1DB"/>
<path d="M240.655 3.44919C240.652 4.15663 240.504 5.10209 240.211 6.28558C240.108 6.79412 240.024 7.23517 239.959 7.60873C239.891 7.95639 239.859 8.14317 239.861 8.16906C239.916 8.18945 240.233 8.09028 240.812 7.87154C241.388 7.62691 242.09 7.32966 242.917 6.97979C248.129 4.77534 253.227 3.09376 258.211 1.93506C263.218 0.7477 267.368 0.25374 270.663 0.453179C273.429 0.604134 275.112 1.77383 275.711 3.96228C276.02 4.89838 275.959 5.67745 275.528 6.29949C274.819 7.26534 274.003 7.35212 273.081 6.55983C272.88 6.39785 272.733 6.2433 272.638 6.0962C272.567 5.92044 272.513 5.65129 272.474 5.28875C272.449 5.05569 272.452 4.83283 272.481 4.62015C272.511 4.40748 272.546 4.24659 272.587 4.1375C273.18 2.81738 271.78 2.089 268.387 1.95237C267.286 1.9386 265.598 2.07883 263.325 2.37306C261.052 2.66728 259.148 2.98768 257.613 3.33424C253.937 4.22297 250.378 5.36101 246.938 6.74836C245.907 7.14617 244.828 7.58832 243.701 8.07483C242.597 8.53269 241.632 8.93656 240.805 9.28643C240.004 9.63354 239.543 9.85283 239.422 9.94429C239.352 10.0302 239.116 10.6446 238.714 11.7873C238.338 12.9272 237.884 14.3242 237.353 15.9782C236.746 17.9022 235.993 20.3 235.094 23.1717C234.346 25.5034 233.636 27.6872 232.962 29.723C229.781 39.6989 227.373 47.589 225.738 53.3935C224.129 59.1952 222.881 64.4479 221.994 69.1515C221.805 70.0881 221.626 70.9846 221.455 71.8408C221.313 72.7201 221.212 73.3725 221.152 73.7978C221.063 74.4358 220.996 74.9143 220.951 75.2334C220.934 75.3138 220.926 75.367 220.929 75.3929C220.842 75.5593 221.057 75.6149 221.575 75.5598C222.948 75.4138 223.649 76.0986 223.68 77.6144C223.681 77.8761 223.632 78.1562 223.533 78.4549C223.437 78.7794 223.257 79.1783 222.993 79.6516C222.821 80.0103 222.533 80.4992 222.128 81.1185C221.725 81.7637 221.288 82.334 220.817 82.8293C220.372 83.3219 219.959 83.5097 219.58 83.3929C219.23 83.2993 218.996 82.6957 218.877 81.5822C218.782 79.7067 219.261 76.081 220.313 70.7052C221.39 65.3267 222.792 59.4291 224.519 53.0125C225.403 49.7497 226.325 46.4827 227.287 43.2116C228.274 39.9377 229.784 35.0501 231.816 28.5486C232.151 27.5178 232.424 26.6376 232.635 25.9081C232.871 25.1759 232.988 24.7968 232.985 24.7709C232.982 24.745 232.927 24.7117 232.817 24.6709C232.708 24.6301 232.562 24.6064 232.378 24.5998C231.102 24.4213 230.463 23.5858 230.461 22.0932C230.524 20.9604 231.048 18.9929 232.033 16.1907C232.255 15.5648 232.457 15.0063 232.641 14.5154C232.85 14.0218 232.975 13.7204 233.016 13.6113C233.082 13.4994 233.112 13.4047 233.103 13.327C233.118 13.2207 233.124 13.1545 233.122 13.1286C233.041 13.111 232.654 13.2832 231.959 13.6452C231.261 13.9813 230.379 14.4287 229.312 14.9873C228.272 15.5433 227.208 16.1279 226.121 16.7411C221.772 19.194 217.442 21.9332 213.128 24.9586C208.838 27.9553 205.248 30.7727 202.36 33.4108C199.905 35.6885 197.836 37.899 196.152 40.0422C194.491 42.1569 193.701 43.5897 193.781 44.3406C193.869 45.1693 195.632 44.877 199.069 43.4637C203.288 41.7579 207.949 39.4157 213.053 36.4372C218.702 33.165 221.957 30.8939 222.817 29.6239C223.404 28.7495 224.083 28.4809 224.852 28.8181C225.179 28.9404 225.452 29.1602 225.669 29.4776C225.912 29.7922 226.052 30.1307 226.091 30.4933C226.13 30.8558 226.026 31.2335 225.779 31.6263C225.556 31.9905 225.257 32.258 224.883 32.4288C224.684 32.5286 224.264 32.7696 223.624 33.152C223.007 33.5057 222.329 33.9052 221.591 34.3504C216.515 37.3521 211.319 40.0785 206.002 42.5298C200.71 44.9784 197.119 46.3032 195.229 46.5043C193.623 46.6751 192.678 46.1602 192.393 44.9597C192.292 44.499 192.295 44.0404 192.404 43.5836C192.513 43.1269 192.751 42.5384 193.12 41.8183C195.37 37.8601 199.98 33.1926 206.95 27.8156C213.918 22.4128 221.915 17.3326 230.941 12.5749L234.107 10.9418L235.422 8.16991C236.538 5.85143 237.386 4.22909 237.969 3.30291C238.548 2.35084 239.032 1.85414 239.421 1.81281C239.498 1.80455 239.606 1.83237 239.744 1.89628C239.879 1.9343 240.017 1.99821 240.157 2.08802C240.298 2.17783 240.399 2.27177 240.462 2.36984C240.522 2.44201 240.562 2.56874 240.581 2.75001C240.624 2.90262 240.648 3.13568 240.655 3.44919Z" fill="#E6E1DB"/>
<path d="M242.395 55.9819C241.903 56.0342 241.52 56.0094 241.247 55.9075C240.099 55.4535 239.438 54.4108 239.265 52.7794C239.138 51.5882 239.233 50.0198 239.55 48.0744L239.546 48.0355C239.543 48.0096 239.529 47.9981 239.503 48.0008C239.451 48.0063 238.991 48.4873 238.124 49.4438C236.132 51.646 234.554 52.8091 233.389 52.9331C232.715 53.0047 232.186 52.7075 231.801 52.0414C231.633 51.6926 231.527 51.3111 231.483 50.8967C231.364 49.7832 231.76 48.4579 232.67 46.9207C234.399 44.4584 236.325 43.1143 238.448 42.8884C239.795 42.7451 240.858 43.1426 241.639 44.0809C241.759 44.2253 241.836 44.4528 241.869 44.7636C241.963 45.644 241.875 46.295 241.605 46.7165C241.336 47.138 241.116 47.7768 240.945 48.6331C240.606 50.3714 240.492 51.7584 240.602 52.7942C240.676 53.4934 240.917 54.0309 241.323 54.4067C241.615 54.6899 241.943 54.8122 242.305 54.7736C243.522 54.6441 245.578 53.1683 248.473 50.3463C249.539 49.2901 250.274 48.4394 250.676 47.7942C251.076 47.1231 251.245 46.4897 251.181 45.8941C251.115 45.2727 251.225 44.8288 251.511 44.5627C251.797 44.2966 252.082 44.1484 252.367 44.1181C252.859 44.0658 253.235 44.2746 253.495 44.7445C253.631 45.0443 253.715 45.3366 253.745 45.6214C253.836 46.476 253.639 47.0862 253.154 47.452C252.932 47.5804 252.363 48.1385 251.447 49.1264C249.99 50.6956 248.554 52.0923 247.139 53.3165C245.722 54.5149 244.624 55.2733 243.846 55.5918C243.396 55.7967 242.912 55.9268 242.395 55.9819ZM233.27 51.4529C233.84 51.3923 234.817 50.6075 236.202 49.0984C237.399 47.7926 238.086 46.8683 238.264 46.3256C238.322 46.1361 238.334 45.873 238.298 45.5363C238.248 45.0702 237.99 44.862 237.524 44.9115C237.084 44.9584 236.526 45.2534 235.851 45.7967C234.477 46.9119 233.575 48.1601 233.146 49.5414C232.93 50.219 232.84 50.7262 232.875 51.0629C232.906 51.3477 233.037 51.4777 233.27 51.4529Z" fill="#E6E1DB"/>
<path d="M260.381 57.4074C259.319 57.5204 258.478 57.2433 257.857 56.576C257.353 56.0273 257.009 54.8854 256.824 53.1504L256.677 51.3983C256.504 49.7669 256.2 48.6338 255.766 47.9991C255.357 47.3616 254.435 46.936 252.998 46.7222C251.449 46.4418 250.611 45.706 250.485 44.5148C250.441 44.1005 250.47 43.639 250.573 43.1305C250.782 42.1393 251.195 41.3489 251.814 40.7594C252.267 40.3445 252.74 40.1109 253.232 40.0586C253.439 40.0365 253.636 40.0417 253.823 40.0743C254.897 40.3266 255.502 41.0872 255.637 42.3561C255.697 42.9258 255.675 43.452 255.569 43.9346C255.47 44.7308 255.433 45.2454 255.458 45.4784C255.494 45.8151 255.703 46.0547 256.085 46.1974C256.793 46.6983 257.262 47.29 257.491 47.9727C257.613 48.3787 257.807 49.5889 258.074 51.6033C258.371 53.9025 258.627 55.1978 258.841 55.4892C259.092 55.8815 259.529 56.0446 260.15 55.9785C261.082 55.8793 262.227 55.1945 263.585 53.9239C265.607 52.0065 267.303 49.9798 268.673 47.8437C270.041 45.6817 270.758 43.9293 270.824 42.5866C270.835 42.1927 270.92 41.7646 271.081 41.3023C271.335 40.4896 271.747 40.053 272.316 39.9924C272.497 39.9731 272.697 40.0042 272.915 40.0858C273.469 40.3673 273.78 40.8318 273.849 41.4791C273.858 41.5568 273.871 41.8042 273.889 42.2213C273.904 42.6125 273.629 43.1001 273.063 43.6841C272.797 43.8957 272.423 44.4461 271.942 45.3354C270.244 48.5801 268.127 51.4503 265.591 53.9462C263.412 56.116 261.675 57.2697 260.381 57.4074ZM252.304 44.6355C252.563 44.6079 252.851 44.2368 253.168 43.5222C253.346 42.9795 253.42 42.5657 253.39 42.2809C253.368 42.0737 253.305 41.9756 253.201 41.9867C253.02 42.006 252.829 42.1834 252.629 42.5189C252.429 42.8544 252.282 43.1974 252.189 43.5478C252.118 43.8696 252.094 44.1341 252.116 44.3412C252.138 44.5484 252.201 44.6465 252.304 44.6355Z" fill="#E6E1DB"/>
<path d="M281.16 51.8577C280.668 51.9101 280.286 51.8853 280.013 51.7833C278.865 51.3294 278.204 50.2866 278.03 48.6552C277.904 47.464 277.999 45.8957 278.315 43.9502L278.311 43.9114C278.309 43.8855 278.294 43.8739 278.268 43.8767C278.217 43.8822 277.757 44.3632 276.89 45.3197C274.898 47.5219 273.32 48.685 272.154 48.809C271.481 48.8806 270.952 48.5834 270.567 47.9172C270.399 47.5685 270.293 47.1869 270.248 46.7726C270.13 45.6591 270.526 44.3337 271.436 42.7965C273.164 40.3342 275.09 38.9901 277.214 38.7642C278.56 38.621 279.624 39.0185 280.405 39.9568C280.525 40.1011 280.601 40.3287 280.634 40.6394C280.728 41.5199 280.64 42.1709 280.371 42.5924C280.101 43.0138 279.881 43.6527 279.711 44.5089C279.372 46.2472 279.257 47.6343 279.368 48.6701C279.442 49.3693 279.682 49.9067 280.089 50.2825C280.381 50.5657 280.708 50.688 281.071 50.6494C282.288 50.52 284.344 49.0442 287.239 46.2221C288.305 45.1659 289.039 44.3152 289.442 43.67C289.842 42.9989 290.01 42.3656 289.947 41.77C289.881 41.1485 289.991 40.7047 290.277 40.4386C290.563 40.1725 290.848 40.0243 291.133 39.9939C291.625 39.9416 292.001 40.1504 292.26 40.6204C292.397 40.9201 292.48 41.2124 292.511 41.4973C292.602 42.3518 292.405 42.962 291.92 43.3279C291.698 43.4562 291.129 44.0144 290.212 45.0023C288.756 46.5714 287.32 47.9681 285.905 49.1924C284.487 50.3908 283.389 51.1492 282.611 51.4676C282.162 51.6726 281.678 51.8026 281.16 51.8577ZM272.036 47.3288C272.606 47.2682 273.583 46.4833 274.967 44.9742C276.164 43.6684 276.852 42.7442 277.029 42.2015C277.088 42.0119 277.099 41.7488 277.063 41.4122C277.014 40.9461 276.756 40.7378 276.29 40.7874C275.85 40.8342 275.292 41.1293 274.616 41.6725C273.242 42.7877 272.34 44.0359 271.911 45.4172C271.695 46.0949 271.605 46.6021 271.641 46.9387C271.671 47.2236 271.803 47.3536 272.036 47.3288Z" fill="#E6E1DB"/>
<path d="M292.487 42.0105C292.325 42.211 292.122 42.5207 291.878 42.9394C291.635 43.3582 291.408 43.8144 291.199 44.308C290.667 45.4645 290.397 46.1218 290.387 46.28C290.378 46.4381 290.652 46.3042 291.209 45.8783C292.011 45.2954 293.064 44.6072 294.368 43.8138C295.694 42.9918 296.88 42.3157 297.923 41.7857C298.419 41.5234 298.802 41.3124 299.073 41.1526C299.345 40.9928 299.541 40.8672 299.662 40.7757C299.78 40.6584 299.859 40.5322 299.897 40.3972C300.068 40.0385 300.4 39.7151 300.893 39.427C301.41 39.1102 301.918 38.9644 302.418 38.9898C302.944 39.0123 303.243 39.3603 303.315 40.0336C303.359 40.4479 303.232 40.8542 302.934 41.2526C302.662 41.6482 302.34 41.9443 301.968 42.141C301.619 42.3091 301.316 42.289 301.058 42.0807C300.998 42.0085 300.915 41.965 300.808 41.9501C300.699 41.9094 300.593 41.8945 300.489 41.9055C300.101 41.9468 299.314 42.3055 298.129 42.9815C296.967 43.6289 295.714 44.4039 294.369 45.3064C293.022 46.183 291.88 47.0116 290.941 47.7924C290.338 48.2756 289.893 48.6502 289.607 48.9163C289.321 49.1825 289.123 49.413 289.013 49.6081C288.877 49.8059 288.746 50.0555 288.621 50.3569C288.519 50.6296 288.441 50.8737 288.385 51.0891C288.301 51.2814 288.259 51.3775 288.259 51.3775C288.261 51.4034 288.405 51.4012 288.69 51.3709C288.975 51.3406 289.323 51.2905 289.735 51.2205C291.283 51.0034 292.16 51.2505 292.367 51.9618C292.599 52.6704 292.472 53.5613 291.983 54.6346C291.495 55.7079 290.983 56.6789 290.447 57.5478C290.383 57.6856 290.319 57.8233 290.255 57.961C289.745 58.8272 289.109 59.8638 288.347 61.071C287.585 62.2782 286.877 63.3749 286.222 64.3611C285.542 65.3501 285.106 65.9333 284.916 66.1107C284.63 66.3768 284.383 66.5209 284.176 66.543C283.946 66.5937 283.717 66.5394 283.491 66.3802C283.324 66.2931 283.208 66.1876 283.143 66.0636C283.077 65.9397 283.032 65.7611 283.007 65.5281C282.949 64.9843 283.154 63.7055 283.621 61.6917C284.084 59.652 284.729 57.2134 285.553 54.3759C285.588 54.215 285.587 54.0842 285.55 53.9833C285.511 53.8566 285.416 53.7095 285.268 53.542C285.119 53.3745 285.025 53.2274 284.985 53.1007C284.919 52.9767 284.891 52.8357 284.901 52.6776C284.971 52.3558 285.151 51.9569 285.441 51.4808C285.705 51.0076 286.048 50.539 286.47 50.075C286.684 49.869 286.882 49.6384 287.064 49.3833C287.218 49.1051 287.41 48.6918 287.64 48.1436C287.869 47.5954 288.175 46.7772 288.557 45.689C288.947 44.6786 289.243 43.8877 289.444 43.3163C289.619 42.7477 289.742 42.3025 289.812 41.9807C289.883 41.659 289.903 41.3557 289.873 41.0708C289.88 40.651 289.913 40.3463 289.972 40.1568C290.03 39.9672 290.153 39.7708 290.341 39.5675C290.98 38.9234 291.678 38.8361 292.435 39.3055C293.372 39.9915 293.389 40.8931 292.487 42.0105ZM290.613 52.4627C290.432 52.4819 290.112 52.5552 289.654 52.6825C289.197 52.8098 288.766 52.9472 288.363 53.0949C287.933 53.2453 287.683 53.3506 287.611 53.4106C287.379 53.6971 287.052 54.5569 286.628 55.99C286.204 57.423 285.812 58.9052 285.451 60.4363C285.062 61.9443 284.832 62.99 284.764 63.5735C285.484 62.7112 286.154 61.7495 286.774 60.6884C286.934 60.4619 287.081 60.2498 287.217 60.052C287.24 60.0233 287.274 59.9674 287.317 59.8842C287.543 59.5459 287.902 58.9839 288.395 58.1982C288.885 57.3867 289.383 56.5349 289.891 55.6428C290.372 54.7536 290.724 53.996 290.945 53.3701C291.138 52.7211 291.027 52.4186 290.613 52.4627Z" fill="#E6E1DB"/>
<path d="M304.278 60.1618C303.475 60.2472 302.871 59.9842 302.465 59.3726L302.422 59.3379C302.323 59.139 302.266 58.9748 302.252 58.8453C302.225 58.5864 302.327 57.947 302.559 56.9271C304.559 48.6482 306.012 43.2297 306.918 40.6716C307.02 40.3988 307.067 40.2236 307.059 40.146C307.053 40.0942 307.037 40.0696 307.012 40.0724C306.908 40.0834 306.61 40.4818 306.117 41.2675C305.045 43.0052 303.856 44.7554 302.551 46.5179C300.054 49.8739 298.352 51.6001 297.445 51.6965C296.979 51.7461 296.576 51.5271 296.236 51.0395C296.053 50.7971 295.944 50.5075 295.908 50.1709C295.817 49.3163 296.384 47.7502 297.608 45.4725C298.801 43.1457 300.224 41.0171 301.878 39.0865C302.992 37.7371 303.84 36.8481 304.423 36.4195C304.766 36.1996 305.093 36.0732 305.404 36.0401C305.637 36.0153 305.848 36.0321 306.038 36.0905C306.253 36.1462 306.429 36.193 306.564 36.231C306.699 36.2691 306.779 36.2867 306.805 36.2839C306.857 36.2784 307.091 35.8999 307.509 35.1484C309.287 31.9214 310.56 29.1147 311.327 26.7285C312.153 24.1527 312.769 22.5551 313.174 21.9359C313.4 21.5976 313.682 21.4105 314.018 21.3747C314.044 21.3719 314.149 21.3739 314.333 21.3805C314.514 21.3612 314.702 21.5245 314.896 21.8706L314.908 21.9871C315.007 22.9193 314.109 25.5552 312.214 29.8946C311.537 31.407 310.694 33.6966 309.684 36.7633C308.007 41.9176 306.765 46.3708 305.96 50.1229C305.154 53.875 304.777 55.9971 304.83 56.4891C304.846 56.6445 305.002 56.8767 305.297 57.1858C305.589 57.469 305.758 57.8307 305.805 58.2709C305.852 58.7111 305.713 59.1318 305.389 59.5329C305.088 59.9054 304.718 60.115 304.278 60.1618ZM298.699 48.3419C298.751 48.3364 298.939 48.1331 299.263 47.732C300.148 46.6951 301.146 45.3711 302.258 43.7601C303.896 41.4383 304.703 40.1608 304.678 39.9278L304.64 39.9319C304.458 39.9512 304.064 40.3074 303.457 41.0005C301.823 42.8766 300.556 44.622 299.654 46.2369C299.482 46.5956 299.33 46.8868 299.197 47.1105C298.823 47.7788 298.64 48.1518 298.648 48.2295L298.656 48.3072C298.659 48.3331 298.673 48.3447 298.699 48.3419Z" fill="#E6E1DB"/>
<path d="M314.1 49.0997C313.815 49.13 313.528 49.1344 313.237 49.1129C311.443 48.9895 310.308 48.1675 309.832 46.6468L309.799 46.3361C309.615 44.6011 310.264 42.5809 311.747 40.2757C313.23 37.9704 314.915 36.4555 316.803 35.731L317.109 35.6591C317.316 35.6371 317.601 35.7247 317.962 35.9219C318.903 36.3979 319.438 37.2445 319.568 38.4616C319.651 39.2385 319.491 40.1983 319.089 41.341C318.709 42.455 318.082 43.4515 317.207 44.3302C316.8 44.6878 316.428 44.8845 316.091 44.9203C315.625 44.9699 315.196 44.7537 314.804 44.2716C314.713 44.1504 314.633 44.0148 314.565 43.865C314.522 43.7123 314.474 43.5079 314.421 43.2517C314.393 42.9928 314.355 42.6302 314.305 42.1641L314.235 41.5038C314.141 40.6233 314.017 40.1914 313.861 40.2079C313.758 40.2189 313.636 40.3104 313.498 40.4823C312.685 41.4592 312.074 42.611 311.665 43.9377C311.347 44.8881 311.219 45.6482 311.279 46.2179C311.39 47.2537 312.39 47.6711 314.28 47.47C316.145 47.2716 318.461 46.1479 321.228 44.0988C323.075 42.75 324.731 41.3299 326.196 39.8384C327.514 38.4412 328.243 37.4208 328.384 36.7772C328.463 36.5332 328.556 36.3007 328.664 36.0797C328.879 35.6378 329.258 35.388 329.802 35.3301C330.113 35.2971 330.541 35.3825 331.086 35.5863C331.715 35.8337 332.064 36.2811 332.132 36.9285C332.193 37.4982 331.772 38.0929 330.869 38.7128C330.451 38.9668 329.409 39.7585 327.743 41.088C322.815 45.2264 319.069 47.6807 316.506 48.451C315.498 48.8201 314.696 49.0364 314.1 49.0997ZM316.613 42.0757C317.555 40.5875 317.971 39.3255 317.86 38.2897C317.8 37.72 317.627 37.4503 317.342 37.4806C317.135 37.5026 317.051 37.6949 317.089 38.0575L317.227 38.9856C317.269 39.374 317.193 39.7748 317.002 40.1881C316.795 40.7076 316.685 41.1514 316.672 41.5195L316.613 42.0757Z" fill="#E6E1DB"/>
<path d="M338.067 49.1426C337.006 49.2556 336.164 48.9784 335.543 48.3112C335.04 47.7624 334.696 46.6206 334.511 44.8856L334.364 43.1335C334.19 41.5021 333.886 40.369 333.452 39.7343C333.044 39.0968 332.121 38.6712 330.685 38.4574C329.136 38.177 328.298 37.4412 328.171 36.25C328.127 35.8356 328.157 35.3742 328.26 34.8657C328.468 33.8745 328.882 33.0841 329.5 32.4946C329.954 32.0797 330.426 31.8461 330.918 31.7937C331.126 31.7717 331.322 31.7769 331.509 31.8094C332.584 32.0618 333.188 32.8224 333.323 34.0913C333.384 34.661 333.361 35.1871 333.256 35.6698C333.157 36.4659 333.12 36.9805 333.145 37.2136C333.181 37.5502 333.389 37.7899 333.771 37.9326C334.479 38.4334 334.948 39.0252 335.178 39.7078C335.3 40.1139 335.494 41.3241 335.761 43.3384C336.058 45.6376 336.313 46.933 336.528 47.2244C336.779 47.6167 337.215 47.7798 337.837 47.7137C338.769 47.6145 339.914 46.9296 341.271 45.6591C343.293 43.7417 344.99 41.715 346.36 39.5789C347.727 37.4168 348.444 35.6645 348.511 34.3218C348.522 33.9278 348.607 33.4997 348.767 33.0375C349.021 32.2248 349.433 31.7881 350.003 31.7275C350.184 31.7083 350.384 31.7394 350.602 31.8209C351.156 32.1025 351.467 32.5669 351.536 33.2143C351.544 33.292 351.557 33.5394 351.576 33.9565C351.591 34.3477 351.316 34.8353 350.749 35.4193C350.484 35.6309 350.11 36.1813 349.628 37.0706C347.931 40.3152 345.814 43.1855 343.277 45.6814C341.099 47.8511 339.362 49.0049 338.067 49.1426ZM329.991 36.3706C330.25 36.3431 330.538 35.972 330.855 35.2574C331.033 34.7147 331.107 34.3009 331.076 34.0161C331.054 33.8089 330.991 33.7108 330.888 33.7218C330.707 33.7411 330.516 33.9185 330.316 34.2541C330.116 34.5896 329.969 34.9326 329.875 35.283C329.805 35.6048 329.781 35.8692 329.803 36.0764C329.825 36.2836 329.888 36.3816 329.991 36.3706Z" fill="#E6E1DB"/>
</svg>
