<svg width="638" height="473" viewBox="0 0 638 473" fill="none" xmlns="http://www.w3.org/2000/svg">
<rect x="88.8318" y="4.0065" width="565" height="330" rx="27.5" transform="rotate(15 88.8318 4.0065)" fill="#82BBFF" stroke="#131313" stroke-width="5"/>
<rect x="99.4393" y="22.3776" width="535" height="300" rx="27.5" transform="rotate(15 99.4393 22.3776)" fill="#82BBFF" stroke="#131313" stroke-width="5"/>
<path d="M379.118 286.464L363.848 343.453C363.222 342.181 362.588 340.942 361.945 339.734C361.384 338.479 360.823 337.225 360.262 335.97C360.844 334.056 361.34 332.463 361.749 331.192C362.176 329.857 362.502 328.771 362.726 327.934C363.032 327.05 363.263 326.318 363.418 325.738C363.573 325.159 363.72 324.611 363.858 324.096C365.014 319.782 365.605 315.902 365.63 312.458C365.656 309.014 365.167 306.33 364.165 304.405C363.227 302.497 361.772 301.486 359.801 301.372C357.847 301.194 355.493 302.254 352.737 304.552C350.123 307.095 347.899 309.088 346.063 310.528C344.309 311.922 342.829 312.94 341.621 313.583C340.414 314.225 339.421 314.581 338.644 314.648C337.948 314.669 337.311 314.602 336.731 314.446C335.057 313.998 333.647 313.206 332.502 312.071C331.438 310.889 330.547 309.58 329.827 308.145C329.124 306.645 328.568 305.116 328.158 303.556C327.764 301.933 327.41 300.423 327.094 299.027L331.548 296.7C331.568 297.396 331.595 298.197 331.628 299.103C331.726 300.026 331.897 300.935 332.14 301.828C332.401 302.658 332.753 303.407 333.194 304.078C333.7 304.765 334.339 305.213 335.112 305.42C335.434 305.506 335.855 305.481 336.375 305.344C336.895 305.207 337.612 304.847 338.528 304.265C339.525 303.634 340.793 302.766 342.331 301.66C343.952 300.507 345.983 298.981 348.424 297.081C348.792 294.419 348.876 292.302 348.676 290.73C348.558 289.111 348.087 287.777 347.264 286.728C346.522 285.632 345.431 284.684 343.989 283.883C342.628 283.036 340.89 282.053 338.775 280.933C337.573 280.266 336.382 279.43 335.202 278.423C334.104 277.37 332.994 276.106 331.87 274.632C331.459 274.107 330.844 273.183 330.025 271.86C329.206 270.536 328.184 268.813 326.958 266.69L385.3 282.323L389.067 289.129L379.118 286.464ZM373.902 285.066L348.401 278.233C350.609 281.585 351.967 284.503 352.475 286.986C353.047 289.486 352.995 292.129 352.317 294.915C354.655 293.402 356.642 292.554 358.279 292.371C359.997 292.141 361.463 292.465 362.677 293.343C363.892 294.22 364.985 295.549 365.958 297.328C366.93 299.107 367.922 301.201 368.933 303.612L373.902 285.066ZM404.021 293.136C406.397 296.12 408.519 299.276 410.387 302.607C412.256 305.937 413.793 309.213 415.001 312.436L398.23 320.158C406.036 325.287 411.18 332.359 413.665 341.376L423.862 303.318C424.137 303.323 424.532 303.394 425.047 303.532C425.644 303.623 426.241 303.714 426.838 303.805C427.434 303.896 427.958 304.002 428.409 304.123C428.941 304.196 429.304 304.259 429.497 304.311C434.473 305.575 438.446 308.262 441.418 312.371C444.642 316.823 445.468 321.98 443.898 327.84C442.156 334.344 438.129 336.75 431.818 335.059C430.208 334.628 428.923 333.628 427.963 332.059C427.085 330.444 426.87 328.799 427.319 327.124C427.75 325.514 428.683 324.35 430.118 323.63C431.571 322.846 433.07 322.661 434.615 323.075C436.805 323.661 438.392 324.949 439.377 326.939L440.397 325.452C441.967 319.592 438.277 315.463 429.326 313.065L427.052 312.663L415.25 356.709L412.95 352.158L412.924 352.255C413.306 348.768 411.472 343.377 407.423 336.08C405.699 333.755 403.477 331.744 400.756 330.049C398.036 328.354 394.954 326.976 391.511 325.915L387.692 315.057C390.012 313.608 392.812 312.046 396.091 310.371C399.434 308.713 403.11 306.972 407.118 305.147C406.107 303.772 404.996 302.508 403.786 301.356C402.641 300.22 401.3 299.171 399.764 298.207C397.893 296.947 396.213 295.875 394.724 294.993C393.299 294.128 392.34 293.457 391.847 292.98C389.264 290.77 386.722 287.121 384.22 282.033L450.58 299.814L454.443 306.647L404.021 293.136ZM495.489 317.645L480.271 374.442L478.234 370.065L478.208 370.162C477.868 367.31 477.499 365.21 477.101 363.861C476.785 362.465 476.128 360.667 475.13 358.467C474.15 356.202 473.179 354.286 472.219 352.717C468.721 347.225 463.245 343.066 455.789 340.24L455.885 340.266L451.429 328.305C464.266 323.669 476.861 320.97 489.212 320.208L490.273 316.248L453.278 306.335L449.415 299.502L502.638 313.763L506.597 320.622L495.489 317.645ZM486.857 328.998C483.035 329.354 479.079 329.95 474.989 330.787C470.965 331.641 466.634 332.862 461.999 334.45C470.635 341.112 476.256 349.244 478.859 358.845L486.857 328.998ZM454.958 356.478C455.389 354.868 456.29 353.695 457.661 352.958C459.049 352.156 460.516 351.963 462.061 352.377C463.607 352.791 464.78 353.692 465.581 355.08C466.4 356.404 466.594 357.87 466.162 359.48C465.765 360.961 464.864 362.135 463.459 363.001C462.071 363.802 460.604 363.996 459.059 363.581C457.513 363.167 456.34 362.266 455.539 360.878C454.754 359.426 454.561 357.959 454.958 356.478Z" fill="#131313"/>
<path d="M379.118 286.464L379.312 285.739L378.588 285.545L378.393 286.269L379.118 286.464ZM363.848 343.453L363.175 343.784L364.055 345.575L364.572 343.647L363.848 343.453ZM361.945 339.734L361.261 340.04L361.271 340.064L361.283 340.086L361.945 339.734ZM360.262 335.97L359.545 335.752L359.463 336.02L359.578 336.276L360.262 335.97ZM361.749 331.192L362.463 331.422L362.464 331.421L361.749 331.192ZM362.726 327.934L362.017 327.689L362.008 327.714L362.002 327.74L362.726 327.934ZM365.63 312.458L364.88 312.453L364.88 312.453L365.63 312.458ZM364.165 304.405L363.492 304.736L363.496 304.743L363.5 304.751L364.165 304.405ZM359.801 301.372L359.733 302.119L359.745 302.12L359.758 302.121L359.801 301.372ZM352.737 304.552L352.257 303.976L352.235 303.995L352.214 304.015L352.737 304.552ZM346.063 310.528L345.6 309.938L345.597 309.941L346.063 310.528ZM341.621 313.583L341.269 312.921L341.269 312.921L341.621 313.583ZM338.644 314.648L338.666 315.398L338.688 315.397L338.709 315.396L338.644 314.648ZM332.502 312.071L331.944 312.573L331.959 312.588L331.974 312.604L332.502 312.071ZM329.827 308.145L329.148 308.463L329.152 308.472L329.156 308.481L329.827 308.145ZM328.158 303.556L327.429 303.733L327.43 303.74L327.432 303.747L328.158 303.556ZM327.094 299.027L326.746 298.362L326.235 298.629L326.362 299.192L327.094 299.027ZM331.548 296.7L332.297 296.678L332.262 295.481L331.2 296.035L331.548 296.7ZM331.628 299.103L330.879 299.131L330.88 299.156L330.883 299.182L331.628 299.103ZM332.14 301.828L331.417 302.026L331.421 302.04L331.425 302.054L332.14 301.828ZM333.194 304.078L332.568 304.49L332.579 304.507L332.59 304.522L333.194 304.078ZM338.528 304.265L338.127 303.63L338.125 303.632L338.528 304.265ZM342.331 301.66L341.896 301.049L341.893 301.051L342.331 301.66ZM348.424 297.081L348.885 297.673L349.125 297.486L349.167 297.184L348.424 297.081ZM348.676 290.73L347.928 290.785L347.93 290.805L347.932 290.825L348.676 290.73ZM347.264 286.728L346.643 287.148L346.658 287.17L346.674 287.191L347.264 286.728ZM343.989 283.883L343.592 284.52L343.608 284.53L343.625 284.539L343.989 283.883ZM338.775 280.933L338.411 281.589L338.417 281.593L338.424 281.596L338.775 280.933ZM335.202 278.423L334.683 278.965L334.699 278.98L334.716 278.994L335.202 278.423ZM331.87 274.632L332.467 274.177L332.46 274.169L331.87 274.632ZM330.025 271.86L330.663 271.465L330.663 271.465L330.025 271.86ZM326.958 266.69L327.153 265.965L325.404 265.497L326.309 267.065L326.958 266.69ZM385.3 282.323L385.957 281.959L385.802 281.681L385.494 281.598L385.3 282.323ZM389.067 289.129L388.873 289.854L390.578 290.311L389.723 288.766L389.067 289.129ZM373.902 285.066L374.626 285.26L374.82 284.536L374.096 284.341L373.902 285.066ZM348.401 278.233L348.596 277.509L346.69 276.998L347.775 278.646L348.401 278.233ZM352.475 286.986L351.74 287.136L351.742 287.144L351.744 287.153L352.475 286.986ZM352.317 294.915L351.589 294.738L351.143 296.568L352.725 295.545L352.317 294.915ZM358.279 292.371L358.362 293.117L358.37 293.116L358.378 293.115L358.279 292.371ZM362.677 293.343L363.117 292.735L363.117 292.735L362.677 293.343ZM365.958 297.328L366.616 296.968L366.616 296.968L365.958 297.328ZM368.933 303.612L368.241 303.902L369.089 305.925L369.657 303.806L368.933 303.612ZM378.393 286.269L363.123 343.259L364.572 343.647L379.842 286.658L378.393 286.269ZM364.521 343.122C363.892 341.843 363.254 340.596 362.607 339.382L361.283 340.086C361.922 341.287 362.553 342.519 363.175 343.784L364.521 343.122ZM362.63 339.428C362.069 338.173 361.508 336.919 360.947 335.664L359.578 336.276C360.139 337.531 360.7 338.786 361.261 340.04L362.63 339.428ZM360.98 336.188C361.561 334.276 362.056 332.688 362.463 331.422L361.036 330.962C360.624 332.238 360.127 333.835 359.545 335.752L360.98 336.188ZM362.464 331.421C362.892 330.08 363.222 328.982 363.45 328.128L362.002 327.74C361.782 328.561 361.46 329.634 361.035 330.964L362.464 331.421ZM363.435 328.179C363.744 327.286 363.981 326.536 364.142 325.932L362.693 325.544C362.545 326.1 362.32 326.813 362.017 327.689L363.435 328.179ZM364.142 325.932C364.143 325.931 364.143 325.93 364.143 325.929C364.144 325.928 364.144 325.927 364.144 325.926C364.144 325.924 364.145 325.923 364.145 325.922C364.145 325.921 364.146 325.92 364.146 325.919C364.146 325.918 364.147 325.917 364.147 325.915C364.147 325.914 364.147 325.913 364.148 325.912C364.148 325.911 364.148 325.91 364.149 325.909C364.149 325.908 364.149 325.906 364.15 325.905C364.15 325.904 364.15 325.903 364.151 325.902C364.151 325.901 364.151 325.9 364.151 325.898C364.152 325.897 364.152 325.896 364.152 325.895C364.153 325.894 364.153 325.893 364.153 325.892C364.154 325.891 364.154 325.889 364.154 325.888C364.154 325.887 364.155 325.886 364.155 325.885C364.155 325.884 364.156 325.883 364.156 325.882C364.156 325.88 364.157 325.879 364.157 325.878C364.157 325.877 364.157 325.876 364.158 325.875C364.158 325.874 364.158 325.873 364.159 325.871C364.159 325.87 364.159 325.869 364.16 325.868C364.16 325.867 364.16 325.866 364.16 325.865C364.161 325.864 364.161 325.862 364.161 325.861C364.162 325.86 364.162 325.859 364.162 325.858C364.163 325.857 364.163 325.856 364.163 325.854C364.164 325.853 364.164 325.852 364.164 325.851C364.164 325.85 364.165 325.849 364.165 325.848C364.165 325.847 364.166 325.845 364.166 325.844C364.166 325.843 364.167 325.842 364.167 325.841C364.167 325.84 364.167 325.839 364.168 325.838C364.168 325.836 364.168 325.835 364.169 325.834C364.169 325.833 364.169 325.832 364.17 325.831C364.17 325.83 364.17 325.829 364.17 325.827C364.171 325.826 364.171 325.825 364.171 325.824C364.172 325.823 364.172 325.822 364.172 325.821C364.173 325.82 364.173 325.818 364.173 325.817C364.173 325.816 364.174 325.815 364.174 325.814C364.174 325.813 364.175 325.812 364.175 325.811C364.175 325.81 364.176 325.808 364.176 325.807C364.176 325.806 364.176 325.805 364.177 325.804C364.177 325.803 364.177 325.802 364.178 325.801C364.178 325.799 364.178 325.798 364.179 325.797C364.179 325.796 364.179 325.795 364.179 325.794C364.18 325.793 364.18 325.792 364.18 325.79C364.181 325.789 364.181 325.788 364.181 325.787C364.182 325.786 364.182 325.785 364.182 325.784C364.182 325.783 364.183 325.781 364.183 325.78C364.183 325.779 364.184 325.778 364.184 325.777C364.184 325.776 364.185 325.775 364.185 325.774C364.185 325.772 364.185 325.771 364.186 325.77C364.186 325.769 364.186 325.768 364.187 325.767C364.187 325.766 364.187 325.765 364.188 325.764C364.188 325.762 364.188 325.761 364.188 325.76C364.189 325.759 364.189 325.758 364.189 325.757C364.19 325.756 364.19 325.755 364.19 325.753C364.191 325.752 364.191 325.751 364.191 325.75C364.191 325.749 364.192 325.748 364.192 325.747C364.192 325.746 364.193 325.745 364.193 325.743C364.193 325.742 364.194 325.741 364.194 325.74C364.194 325.739 364.194 325.738 364.195 325.737C364.195 325.736 364.195 325.734 364.196 325.733C364.196 325.732 364.196 325.731 364.197 325.73C364.197 325.729 364.197 325.728 364.197 325.727C364.198 325.726 364.198 325.724 364.198 325.723C364.199 325.722 364.199 325.721 364.199 325.72C364.2 325.719 364.2 325.718 364.2 325.717C364.2 325.715 364.201 325.714 364.201 325.713C364.201 325.712 364.202 325.711 364.202 325.71C364.202 325.709 364.203 325.708 364.203 325.707C364.203 325.705 364.203 325.704 364.204 325.703C364.204 325.702 364.204 325.701 364.205 325.7C364.205 325.699 364.205 325.698 364.206 325.697C364.206 325.695 364.206 325.694 364.206 325.693C364.207 325.692 364.207 325.691 364.207 325.69C364.208 325.689 364.208 325.688 364.208 325.686C364.209 325.685 364.209 325.684 364.209 325.683C364.209 325.682 364.21 325.681 364.21 325.68C364.21 325.679 364.211 325.678 364.211 325.676C364.211 325.675 364.212 325.674 364.212 325.673C364.212 325.672 364.212 325.671 364.213 325.67C364.213 325.669 364.213 325.668 364.214 325.666C364.214 325.665 364.214 325.664 364.214 325.663C364.215 325.662 364.215 325.661 364.215 325.66C364.216 325.659 364.216 325.658 364.216 325.656C364.217 325.655 364.217 325.654 364.217 325.653C364.217 325.652 364.218 325.651 364.218 325.65C364.218 325.649 364.219 325.648 364.219 325.646C364.219 325.645 364.22 325.644 364.22 325.643C364.22 325.642 364.22 325.641 364.221 325.64C364.221 325.639 364.221 325.638 364.222 325.636C364.222 325.635 364.222 325.634 364.223 325.633C364.223 325.632 364.223 325.631 364.223 325.63C364.224 325.629 364.224 325.628 364.224 325.626C364.225 325.625 364.225 325.624 364.225 325.623C364.226 325.622 364.226 325.621 364.226 325.62C364.226 325.619 364.227 325.618 364.227 325.616C364.227 325.615 364.228 325.614 364.228 325.613C364.228 325.612 364.228 325.611 364.229 325.61C364.229 325.609 364.229 325.608 364.23 325.606C364.23 325.605 364.23 325.604 364.231 325.603C364.231 325.602 364.231 325.601 364.231 325.6C364.232 325.599 364.232 325.598 364.232 325.597C364.233 325.595 364.233 325.594 364.233 325.593C364.234 325.592 364.234 325.591 364.234 325.59C364.234 325.589 364.235 325.588 364.235 325.587C364.235 325.585 364.236 325.584 364.236 325.583C364.236 325.582 364.236 325.581 364.237 325.58C364.237 325.579 364.237 325.578 364.238 325.577C364.238 325.575 364.238 325.574 364.239 325.573C364.239 325.572 364.239 325.571 364.239 325.57C364.24 325.569 364.24 325.568 364.24 325.567C364.241 325.566 364.241 325.564 364.241 325.563C364.242 325.562 364.242 325.561 364.242 325.56C364.242 325.559 364.243 325.558 364.243 325.557C364.243 325.556 364.244 325.554 364.244 325.553C364.244 325.552 364.244 325.551 364.245 325.55C364.245 325.549 364.245 325.548 364.246 325.547C364.246 325.546 364.246 325.545 364.247 325.543C364.247 325.542 364.247 325.541 364.247 325.54C364.248 325.539 364.248 325.538 364.248 325.537C364.249 325.536 364.249 325.535 364.249 325.534C364.25 325.532 364.25 325.531 364.25 325.53C364.25 325.529 364.251 325.528 364.251 325.527C364.251 325.526 364.252 325.525 364.252 325.524C364.252 325.522 364.252 325.521 364.253 325.52C364.253 325.519 364.253 325.518 364.254 325.517C364.254 325.516 364.254 325.515 364.255 325.514C364.255 325.513 364.255 325.511 364.255 325.51C364.256 325.509 364.256 325.508 364.256 325.507C364.257 325.506 364.257 325.505 364.257 325.504C364.257 325.503 364.258 325.502 364.258 325.5C364.258 325.499 364.259 325.498 364.259 325.497C364.259 325.496 364.26 325.495 364.26 325.494C364.26 325.493 364.26 325.492 364.261 325.491C364.261 325.489 364.261 325.488 364.262 325.487C364.262 325.486 364.262 325.485 364.262 325.484C364.263 325.483 364.263 325.482 364.263 325.481C364.264 325.48 364.264 325.478 364.264 325.477C364.265 325.476 364.265 325.475 364.265 325.474C364.265 325.473 364.266 325.472 364.266 325.471C364.266 325.47 364.267 325.469 364.267 325.468C364.267 325.466 364.267 325.465 364.268 325.464C364.268 325.463 364.268 325.462 364.269 325.461C364.269 325.46 364.269 325.459 364.27 325.458C364.27 325.457 364.27 325.455 364.27 325.454C364.271 325.453 364.271 325.452 364.271 325.451C364.272 325.45 364.272 325.449 364.272 325.448C364.272 325.447 364.273 325.446 364.273 325.444C364.273 325.443 364.274 325.442 364.274 325.441C364.274 325.44 364.275 325.439 364.275 325.438C364.275 325.437 364.275 325.436 364.276 325.435C364.276 325.434 364.276 325.432 364.277 325.431C364.277 325.43 364.277 325.429 364.277 325.428C364.278 325.427 364.278 325.426 364.278 325.425C364.279 325.424 364.279 325.423 364.279 325.421C364.28 325.42 364.28 325.419 364.28 325.418C364.28 325.417 364.281 325.416 364.281 325.415C364.281 325.414 364.282 325.413 364.282 325.412C364.282 325.411 364.282 325.409 364.283 325.408C364.283 325.407 364.283 325.406 364.284 325.405C364.284 325.404 364.284 325.403 364.285 325.402C364.285 325.401 364.285 325.4 364.285 325.399C364.286 325.397 364.286 325.396 364.286 325.395C364.287 325.394 364.287 325.393 364.287 325.392C364.287 325.391 364.288 325.39 364.288 325.389C364.288 325.388 364.289 325.386 364.289 325.385C364.289 325.384 364.289 325.383 364.29 325.382C364.29 325.381 364.29 325.38 364.291 325.379C364.291 325.378 364.291 325.377 364.292 325.376C364.292 325.374 364.292 325.373 364.292 325.372C364.293 325.371 364.293 325.37 364.293 325.369C364.294 325.368 364.294 325.367 364.294 325.366C364.294 325.365 364.295 325.364 364.295 325.362C364.295 325.361 364.296 325.36 364.296 325.359C364.296 325.358 364.297 325.357 364.297 325.356C364.297 325.355 364.297 325.354 364.298 325.353C364.298 325.352 364.298 325.351 364.299 325.349C364.299 325.348 364.299 325.347 364.299 325.346C364.3 325.345 364.3 325.344 364.3 325.343C364.301 325.342 364.301 325.341 364.301 325.34C364.301 325.339 364.302 325.337 364.302 325.336C364.302 325.335 364.303 325.334 364.303 325.333C364.303 325.332 364.304 325.331 364.304 325.33C364.304 325.329 364.304 325.328 364.305 325.327C364.305 325.325 364.305 325.324 364.306 325.323C364.306 325.322 364.306 325.321 364.306 325.32C364.307 325.319 364.307 325.318 364.307 325.317C364.308 325.316 364.308 325.315 364.308 325.314C364.308 325.312 364.309 325.311 364.309 325.31C364.309 325.309 364.31 325.308 364.31 325.307C364.31 325.306 364.31 325.305 364.311 325.304C364.311 325.303 364.311 325.302 364.312 325.3C364.312 325.299 364.312 325.298 364.313 325.297C364.313 325.296 364.313 325.295 364.313 325.294C364.314 325.293 364.314 325.292 364.314 325.291C364.315 325.29 364.315 325.289 364.315 325.287C364.315 325.286 364.316 325.285 364.316 325.284C364.316 325.283 364.317 325.282 364.317 325.281C364.317 325.28 364.317 325.279 364.318 325.278C364.318 325.277 364.318 325.276 364.319 325.274C364.319 325.273 364.319 325.272 364.32 325.271C364.32 325.27 364.32 325.269 364.32 325.268C364.321 325.267 364.321 325.266 364.321 325.265C364.322 325.264 364.322 325.263 364.322 325.261C364.322 325.26 364.323 325.259 364.323 325.258C364.323 325.257 364.324 325.256 364.324 325.255C364.324 325.254 364.324 325.253 364.325 325.252C364.325 325.251 364.325 325.25 364.326 325.248C364.326 325.247 364.326 325.246 364.326 325.245C364.327 325.244 364.327 325.243 364.327 325.242C364.328 325.241 364.328 325.24 364.328 325.239C364.328 325.238 364.329 325.237 364.329 325.236C364.329 325.234 364.33 325.233 364.33 325.232C364.33 325.231 364.331 325.23 364.331 325.229C364.331 325.228 364.331 325.227 364.332 325.226C364.332 325.225 364.332 325.224 364.333 325.223C364.333 325.221 364.333 325.22 364.333 325.219C364.334 325.218 364.334 325.217 364.334 325.216C364.335 325.215 364.335 325.214 364.335 325.213C364.335 325.212 364.336 325.211 364.336 325.21C364.336 325.209 364.337 325.207 364.337 325.206C364.337 325.205 364.337 325.204 364.338 325.203C364.338 325.202 364.338 325.201 364.339 325.2C364.339 325.199 364.339 325.198 364.339 325.197C364.34 325.196 364.34 325.195 364.34 325.193C364.341 325.192 364.341 325.191 364.341 325.19C364.341 325.189 364.342 325.188 364.342 325.187C364.342 325.186 364.343 325.185 364.343 325.184C364.343 325.183 364.344 325.182 364.344 325.181C364.344 325.179 364.344 325.178 364.345 325.177C364.345 325.176 364.345 325.175 364.346 325.174C364.346 325.173 364.346 325.172 364.346 325.171C364.347 325.17 364.347 325.169 364.347 325.168C364.348 325.167 364.348 325.165 364.348 325.164C364.348 325.163 364.349 325.162 364.349 325.161C364.349 325.16 364.35 325.159 364.35 325.158C364.35 325.157 364.35 325.156 364.351 325.155C364.351 325.154 364.351 325.153 364.352 325.152C364.352 325.15 364.352 325.149 364.352 325.148C364.353 325.147 364.353 325.146 364.353 325.145C364.354 325.144 364.354 325.143 364.354 325.142C364.354 325.141 364.355 325.14 364.355 325.139C364.355 325.138 364.356 325.136 364.356 325.135C364.356 325.134 364.356 325.133 364.357 325.132C364.357 325.131 364.357 325.13 364.358 325.129C364.358 325.128 364.358 325.127 364.358 325.126C364.359 325.125 364.359 325.124 364.359 325.123C364.36 325.121 364.36 325.12 364.36 325.119C364.36 325.118 364.361 325.117 364.361 325.116C364.361 325.115 364.362 325.114 364.362 325.113C364.362 325.112 364.362 325.111 364.363 325.11C364.363 325.109 364.363 325.108 364.364 325.106C364.364 325.105 364.364 325.104 364.365 325.103C364.365 325.102 364.365 325.101 364.365 325.1C364.366 325.099 364.366 325.098 364.366 325.097C364.367 325.096 364.367 325.095 364.367 325.094C364.367 325.093 364.368 325.091 364.368 325.09C364.368 325.089 364.369 325.088 364.369 325.087C364.369 325.086 364.369 325.085 364.37 325.084C364.37 325.083 364.37 325.082 364.371 325.081C364.371 325.08 364.371 325.079 364.371 325.078C364.372 325.077 364.372 325.075 364.372 325.074C364.373 325.073 364.373 325.072 364.373 325.071C364.373 325.07 364.374 325.069 364.374 325.068C364.374 325.067 364.375 325.066 364.375 325.065C364.375 325.064 364.375 325.063 364.376 325.062C364.376 325.061 364.376 325.059 364.377 325.058C364.377 325.057 364.377 325.056 364.377 325.055C364.378 325.054 364.378 325.053 364.378 325.052C364.379 325.051 364.379 325.05 364.379 325.049C364.379 325.048 364.38 325.047 364.38 325.046C364.38 325.045 364.381 325.043 364.381 325.042C364.381 325.041 364.381 325.04 364.382 325.039C364.382 325.038 364.382 325.037 364.383 325.036C364.383 325.035 364.383 325.034 364.383 325.033C364.384 325.032 364.384 325.031 364.384 325.03C364.385 325.029 364.385 325.027 364.385 325.026C364.385 325.025 364.386 325.024 364.386 325.023C364.386 325.022 364.387 325.021 364.387 325.02C364.387 325.019 364.387 325.018 364.388 325.017C364.388 325.016 364.388 325.015 364.389 325.014C364.389 325.013 364.389 325.012 364.389 325.01C364.39 325.009 364.39 325.008 364.39 325.007C364.391 325.006 364.391 325.005 364.391 325.004C364.391 325.003 364.392 325.002 364.392 325.001C364.392 325 364.393 324.999 364.393 324.998C364.393 324.997 364.393 324.996 364.394 324.995C364.394 324.993 364.394 324.992 364.394 324.991C364.395 324.99 364.395 324.989 364.395 324.988C364.396 324.987 364.396 324.986 364.396 324.985C364.396 324.984 364.397 324.983 364.397 324.982C364.397 324.981 364.398 324.98 364.398 324.979C364.398 324.978 364.398 324.976 364.399 324.975C364.399 324.974 364.399 324.973 364.4 324.972C364.4 324.971 364.4 324.97 364.4 324.969C364.401 324.968 364.401 324.967 364.401 324.966C364.402 324.965 364.402 324.964 364.402 324.963C364.402 324.962 364.403 324.961 364.403 324.96C364.403 324.958 364.404 324.957 364.404 324.956C364.404 324.955 364.404 324.954 364.405 324.953C364.405 324.952 364.405 324.951 364.406 324.95C364.406 324.949 364.406 324.948 364.406 324.947C364.407 324.946 364.407 324.945 364.407 324.944C364.408 324.943 364.408 324.942 364.408 324.94C364.408 324.939 364.409 324.938 364.409 324.937C364.409 324.936 364.41 324.935 364.41 324.934C364.41 324.933 364.41 324.932 364.411 324.931C364.411 324.93 364.411 324.929 364.412 324.928C364.412 324.927 364.412 324.926 364.412 324.925C364.413 324.924 364.413 324.922 364.413 324.921C364.414 324.92 364.414 324.919 364.414 324.918C364.414 324.917 364.415 324.916 364.415 324.915C364.415 324.914 364.415 324.913 364.416 324.912C364.416 324.911 364.416 324.91 364.417 324.909C364.417 324.908 364.417 324.907 364.417 324.906C364.418 324.905 364.418 324.903 364.418 324.902C364.419 324.901 364.419 324.9 364.419 324.899C364.419 324.898 364.42 324.897 364.42 324.896C364.42 324.895 364.421 324.894 364.421 324.893C364.421 324.892 364.421 324.891 364.422 324.89C364.422 324.889 364.422 324.888 364.423 324.887C364.423 324.886 364.423 324.885 364.423 324.883C364.424 324.882 364.424 324.881 364.424 324.88C364.425 324.879 364.425 324.878 364.425 324.877C364.425 324.876 364.426 324.875 364.426 324.874C364.426 324.873 364.427 324.872 364.427 324.871C364.427 324.87 364.427 324.869 364.428 324.868C364.428 324.867 364.428 324.866 364.428 324.865C364.429 324.863 364.429 324.862 364.429 324.861C364.43 324.86 364.43 324.859 364.43 324.858C364.43 324.857 364.431 324.856 364.431 324.855C364.431 324.854 364.432 324.853 364.432 324.852C364.432 324.851 364.432 324.85 364.433 324.849C364.433 324.848 364.433 324.847 364.434 324.846C364.434 324.845 364.434 324.844 364.434 324.842C364.435 324.841 364.435 324.84 364.435 324.839C364.436 324.838 364.436 324.837 364.436 324.836C364.436 324.835 364.437 324.834 364.437 324.833C364.437 324.832 364.437 324.831 364.438 324.83C364.438 324.829 364.438 324.828 364.439 324.827C364.439 324.826 364.439 324.825 364.439 324.824C364.44 324.823 364.44 324.821 364.44 324.82C364.441 324.819 364.441 324.818 364.441 324.817C364.441 324.816 364.442 324.815 364.442 324.814C364.442 324.813 364.443 324.812 364.443 324.811C364.443 324.81 364.443 324.809 364.444 324.808C364.444 324.807 364.444 324.806 364.445 324.805C364.445 324.804 364.445 324.803 364.445 324.802C364.446 324.801 364.446 324.799 364.446 324.798C364.446 324.797 364.447 324.796 364.447 324.795C364.447 324.794 364.448 324.793 364.448 324.792C364.448 324.791 364.448 324.79 364.449 324.789C364.449 324.788 364.449 324.787 364.45 324.786C364.45 324.785 364.45 324.784 364.45 324.783C364.451 324.782 364.451 324.781 364.451 324.78C364.452 324.779 364.452 324.778 364.452 324.776C364.452 324.775 364.453 324.774 364.453 324.773C364.453 324.772 364.453 324.771 364.454 324.77C364.454 324.769 364.454 324.768 364.455 324.767C364.455 324.766 364.455 324.765 364.455 324.764C364.456 324.763 364.456 324.762 364.456 324.761C364.457 324.76 364.457 324.759 364.457 324.758C364.457 324.757 364.458 324.756 364.458 324.755C364.458 324.753 364.459 324.752 364.459 324.751C364.459 324.75 364.459 324.749 364.46 324.748C364.46 324.747 364.46 324.746 364.46 324.745C364.461 324.744 364.461 324.743 364.461 324.742C364.462 324.741 364.462 324.74 364.462 324.739C364.462 324.738 364.463 324.737 364.463 324.736C364.463 324.735 364.464 324.734 364.464 324.733C364.464 324.732 364.464 324.731 364.465 324.73C364.465 324.728 364.465 324.727 364.465 324.726C364.466 324.725 364.466 324.724 364.466 324.723C364.467 324.722 364.467 324.721 364.467 324.72C364.467 324.719 364.468 324.718 364.468 324.717C364.468 324.716 364.469 324.715 364.469 324.714C364.469 324.713 364.469 324.712 364.47 324.711C364.47 324.71 364.47 324.709 364.471 324.708C364.471 324.707 364.471 324.706 364.471 324.705C364.472 324.704 364.472 324.702 364.472 324.701C364.472 324.7 364.473 324.699 364.473 324.698C364.473 324.697 364.474 324.696 364.474 324.695C364.474 324.694 364.474 324.693 364.475 324.692C364.475 324.691 364.475 324.69 364.476 324.689C364.476 324.688 364.476 324.687 364.476 324.686C364.477 324.685 364.477 324.684 364.477 324.683C364.477 324.682 364.478 324.681 364.478 324.68C364.478 324.679 364.479 324.678 364.479 324.677C364.479 324.675 364.479 324.674 364.48 324.673C364.48 324.672 364.48 324.671 364.481 324.67C364.481 324.669 364.481 324.668 364.481 324.667C364.482 324.666 364.482 324.665 364.482 324.664C364.482 324.663 364.483 324.662 364.483 324.661C364.483 324.66 364.484 324.659 364.484 324.658C364.484 324.657 364.484 324.656 364.485 324.655C364.485 324.654 364.485 324.653 364.486 324.652C364.486 324.651 364.486 324.65 364.486 324.649C364.487 324.648 364.487 324.646 364.487 324.645C364.487 324.644 364.488 324.643 364.488 324.642C364.488 324.641 364.489 324.64 364.489 324.639C364.489 324.638 364.489 324.637 364.49 324.636C364.49 324.635 364.49 324.634 364.491 324.633C364.491 324.632 364.491 324.631 364.491 324.63C364.492 324.629 364.492 324.628 364.492 324.627C364.492 324.626 364.493 324.625 364.493 324.624C364.493 324.623 364.494 324.622 364.494 324.621C364.494 324.62 364.494 324.619 364.495 324.618C364.495 324.616 364.495 324.615 364.495 324.614C364.496 324.613 364.496 324.612 364.496 324.611C364.497 324.61 364.497 324.609 364.497 324.608C364.497 324.607 364.498 324.606 364.498 324.605C364.498 324.604 364.499 324.603 364.499 324.602C364.499 324.601 364.499 324.6 364.5 324.599C364.5 324.598 364.5 324.597 364.5 324.596C364.501 324.595 364.501 324.594 364.501 324.593C364.502 324.592 364.502 324.591 364.502 324.59C364.502 324.589 364.503 324.588 364.503 324.587C364.503 324.586 364.503 324.585 364.504 324.584C364.504 324.582 364.504 324.581 364.505 324.58C364.505 324.579 364.505 324.578 364.505 324.577C364.506 324.576 364.506 324.575 364.506 324.574C364.507 324.573 364.507 324.572 364.507 324.571C364.507 324.57 364.508 324.569 364.508 324.568C364.508 324.567 364.508 324.566 364.509 324.565C364.509 324.564 364.509 324.563 364.51 324.562C364.51 324.561 364.51 324.56 364.51 324.559C364.511 324.558 364.511 324.557 364.511 324.556C364.511 324.555 364.512 324.554 364.512 324.553C364.512 324.552 364.513 324.551 364.513 324.55C364.513 324.549 364.513 324.548 364.514 324.546C364.514 324.545 364.514 324.544 364.515 324.543C364.515 324.542 364.515 324.541 364.515 324.54C364.516 324.539 364.516 324.538 364.516 324.537C364.516 324.536 364.517 324.535 364.517 324.534C364.517 324.533 364.518 324.532 364.518 324.531C364.518 324.53 364.518 324.529 364.519 324.528C364.519 324.527 364.519 324.526 364.519 324.525C364.52 324.524 364.52 324.523 364.52 324.522C364.521 324.521 364.521 324.52 364.521 324.519C364.521 324.518 364.522 324.517 364.522 324.516C364.522 324.515 364.522 324.514 364.523 324.513C364.523 324.512 364.523 324.511 364.524 324.51C364.524 324.509 364.524 324.508 364.524 324.507C364.525 324.505 364.525 324.504 364.525 324.503C364.526 324.502 364.526 324.501 364.526 324.5C364.526 324.499 364.527 324.498 364.527 324.497C364.527 324.496 364.527 324.495 364.528 324.494C364.528 324.493 364.528 324.492 364.529 324.491C364.529 324.49 364.529 324.489 364.529 324.488C364.53 324.487 364.53 324.486 364.53 324.485C364.53 324.484 364.531 324.483 364.531 324.482C364.531 324.481 364.532 324.48 364.532 324.479C364.532 324.478 364.532 324.477 364.533 324.476C364.533 324.475 364.533 324.474 364.533 324.473C364.534 324.472 364.534 324.471 364.534 324.47C364.535 324.469 364.535 324.468 364.535 324.467C364.535 324.466 364.536 324.465 364.536 324.464C364.536 324.463 364.536 324.462 364.537 324.461C364.537 324.46 364.537 324.458 364.538 324.457C364.538 324.456 364.538 324.455 364.538 324.454C364.539 324.453 364.539 324.452 364.539 324.451C364.539 324.45 364.54 324.449 364.54 324.448C364.54 324.447 364.541 324.446 364.541 324.445C364.541 324.444 364.541 324.443 364.542 324.442C364.542 324.441 364.542 324.44 364.542 324.439C364.543 324.438 364.543 324.437 364.543 324.436C364.544 324.435 364.544 324.434 364.544 324.433C364.544 324.432 364.545 324.431 364.545 324.43C364.545 324.429 364.545 324.428 364.546 324.427C364.546 324.426 364.546 324.425 364.547 324.424C364.547 324.423 364.547 324.422 364.547 324.421C364.548 324.42 364.548 324.419 364.548 324.418C364.548 324.417 364.549 324.416 364.549 324.415C364.549 324.414 364.55 324.413 364.55 324.412C364.55 324.411 364.55 324.41 364.551 324.409C364.551 324.408 364.551 324.407 364.551 324.406C364.552 324.405 364.552 324.404 364.552 324.403C364.553 324.402 364.553 324.4 364.553 324.399C364.553 324.398 364.554 324.397 364.554 324.396C364.554 324.395 364.554 324.394 364.555 324.393C364.555 324.392 364.555 324.391 364.556 324.39C364.556 324.389 364.556 324.388 364.556 324.387C364.557 324.386 364.557 324.385 364.557 324.384C364.557 324.383 364.558 324.382 364.558 324.381C364.558 324.38 364.559 324.379 364.559 324.378C364.559 324.377 364.559 324.376 364.56 324.375C364.56 324.374 364.56 324.373 364.56 324.372C364.561 324.371 364.561 324.37 364.561 324.369C364.562 324.368 364.562 324.367 364.562 324.366C364.562 324.365 364.563 324.364 364.563 324.363C364.563 324.362 364.563 324.361 364.564 324.36C364.564 324.359 364.564 324.358 364.564 324.357C364.565 324.356 364.565 324.355 364.565 324.354C364.566 324.353 364.566 324.352 364.566 324.351C364.566 324.35 364.567 324.349 364.567 324.348C364.567 324.347 364.567 324.346 364.568 324.345C364.568 324.344 364.568 324.343 364.569 324.342C364.569 324.341 364.569 324.34 364.569 324.339C364.57 324.338 364.57 324.337 364.57 324.336C364.57 324.335 364.571 324.334 364.571 324.333C364.571 324.332 364.572 324.331 364.572 324.33C364.572 324.329 364.572 324.328 364.573 324.327C364.573 324.326 364.573 324.325 364.573 324.324C364.574 324.323 364.574 324.322 364.574 324.321C364.575 324.32 364.575 324.319 364.575 324.318C364.575 324.317 364.576 324.316 364.576 324.315C364.576 324.313 364.576 324.312 364.577 324.311C364.577 324.31 364.577 324.309 364.577 324.308C364.578 324.307 364.578 324.306 364.578 324.305C364.579 324.304 364.579 324.303 364.579 324.302C364.579 324.301 364.58 324.3 364.58 324.299C364.58 324.298 364.58 324.297 364.581 324.296C364.581 324.295 364.581 324.294 364.582 324.293C364.582 324.292 364.582 324.291 364.582 324.29L363.133 323.902C363.133 323.903 363.133 323.904 363.133 323.905C363.132 323.906 363.132 323.907 363.132 323.908C363.132 323.909 363.131 323.91 363.131 323.911C363.131 323.912 363.13 323.913 363.13 323.914C363.13 323.915 363.13 323.916 363.129 323.917C363.129 323.918 363.129 323.919 363.129 323.92C363.128 323.921 363.128 323.922 363.128 323.923C363.128 323.924 363.127 323.925 363.127 323.926C363.127 323.927 363.126 323.928 363.126 323.929C363.126 323.93 363.126 323.931 363.125 323.932C363.125 323.933 363.125 323.934 363.125 323.935C363.124 323.936 363.124 323.937 363.124 323.938C363.123 323.939 363.123 323.94 363.123 323.941C363.123 323.942 363.122 323.943 363.122 323.944C363.122 323.945 363.122 323.946 363.121 323.947C363.121 323.948 363.121 323.949 363.12 323.95C363.12 323.952 363.12 323.953 363.12 323.954C363.119 323.955 363.119 323.956 363.119 323.957C363.119 323.958 363.118 323.959 363.118 323.96C363.118 323.961 363.117 323.962 363.117 323.963C363.117 323.964 363.117 323.965 363.116 323.966C363.116 323.967 363.116 323.968 363.116 323.969C363.115 323.97 363.115 323.971 363.115 323.972C363.115 323.973 363.114 323.974 363.114 323.975C363.114 323.976 363.113 323.977 363.113 323.978C363.113 323.979 363.113 323.98 363.112 323.981C363.112 323.982 363.112 323.983 363.112 323.984C363.111 323.985 363.111 323.986 363.111 323.987C363.11 323.988 363.11 323.989 363.11 323.99C363.11 323.991 363.109 323.992 363.109 323.993C363.109 323.994 363.109 323.995 363.108 323.996C363.108 323.997 363.108 323.998 363.107 323.999C363.107 324 363.107 324.001 363.107 324.002C363.106 324.003 363.106 324.004 363.106 324.005C363.106 324.006 363.105 324.007 363.105 324.008C363.105 324.009 363.104 324.01 363.104 324.011C363.104 324.012 363.104 324.013 363.103 324.014C363.103 324.015 363.103 324.016 363.103 324.017C363.102 324.018 363.102 324.019 363.102 324.02C363.101 324.021 363.101 324.022 363.101 324.023C363.101 324.024 363.1 324.025 363.1 324.026C363.1 324.027 363.1 324.029 363.099 324.03C363.099 324.031 363.099 324.032 363.098 324.033C363.098 324.034 363.098 324.035 363.098 324.036C363.097 324.037 363.097 324.038 363.097 324.039C363.097 324.04 363.096 324.041 363.096 324.042C363.096 324.043 363.095 324.044 363.095 324.045C363.095 324.046 363.095 324.047 363.094 324.048C363.094 324.049 363.094 324.05 363.094 324.051C363.093 324.052 363.093 324.053 363.093 324.054C363.092 324.055 363.092 324.056 363.092 324.057C363.092 324.058 363.091 324.059 363.091 324.06C363.091 324.061 363.091 324.062 363.09 324.063C363.09 324.064 363.09 324.065 363.089 324.066C363.089 324.067 363.089 324.068 363.089 324.069C363.088 324.07 363.088 324.071 363.088 324.072C363.088 324.073 363.087 324.074 363.087 324.075C363.087 324.076 363.086 324.077 363.086 324.078C363.086 324.079 363.086 324.08 363.085 324.081C363.085 324.082 363.085 324.084 363.085 324.085C363.084 324.086 363.084 324.087 363.084 324.088C363.083 324.089 363.083 324.09 363.083 324.091C363.083 324.092 363.082 324.093 363.082 324.094C363.082 324.095 363.082 324.096 363.081 324.097C363.081 324.098 363.081 324.099 363.08 324.1C363.08 324.101 363.08 324.102 363.08 324.103C363.079 324.104 363.079 324.105 363.079 324.106C363.079 324.107 363.078 324.108 363.078 324.109C363.078 324.11 363.077 324.111 363.077 324.112C363.077 324.113 363.077 324.114 363.076 324.115C363.076 324.116 363.076 324.117 363.076 324.118C363.075 324.119 363.075 324.12 363.075 324.121C363.074 324.122 363.074 324.123 363.074 324.124C363.074 324.125 363.073 324.126 363.073 324.127C363.073 324.129 363.073 324.13 363.072 324.131C363.072 324.132 363.072 324.133 363.071 324.134C363.071 324.135 363.071 324.136 363.071 324.137C363.07 324.138 363.07 324.139 363.07 324.14C363.069 324.141 363.069 324.142 363.069 324.143C363.069 324.144 363.068 324.145 363.068 324.146C363.068 324.147 363.068 324.148 363.067 324.149C363.067 324.15 363.067 324.151 363.066 324.152C363.066 324.153 363.066 324.154 363.066 324.155C363.065 324.156 363.065 324.157 363.065 324.158C363.065 324.159 363.064 324.16 363.064 324.161C363.064 324.162 363.063 324.163 363.063 324.164C363.063 324.165 363.063 324.166 363.062 324.168C363.062 324.169 363.062 324.17 363.062 324.171C363.061 324.172 363.061 324.173 363.061 324.174C363.06 324.175 363.06 324.176 363.06 324.177C363.06 324.178 363.059 324.179 363.059 324.18C363.059 324.181 363.058 324.182 363.058 324.183C363.058 324.184 363.058 324.185 363.057 324.186C363.057 324.187 363.057 324.188 363.057 324.189C363.056 324.19 363.056 324.191 363.056 324.192C363.055 324.193 363.055 324.194 363.055 324.195C363.055 324.196 363.054 324.197 363.054 324.198C363.054 324.199 363.054 324.2 363.053 324.201C363.053 324.202 363.053 324.204 363.052 324.205C363.052 324.206 363.052 324.207 363.052 324.208C363.051 324.209 363.051 324.21 363.051 324.211C363.05 324.212 363.05 324.213 363.05 324.214C363.05 324.215 363.049 324.216 363.049 324.217C363.049 324.218 363.049 324.219 363.048 324.22C363.048 324.221 363.048 324.222 363.047 324.223C363.047 324.224 363.047 324.225 363.047 324.226C363.046 324.227 363.046 324.228 363.046 324.229C363.045 324.23 363.045 324.231 363.045 324.232C363.045 324.233 363.044 324.234 363.044 324.235C363.044 324.237 363.044 324.238 363.043 324.239C363.043 324.24 363.043 324.241 363.042 324.242C363.042 324.243 363.042 324.244 363.042 324.245C363.041 324.246 363.041 324.247 363.041 324.248C363.041 324.249 363.04 324.25 363.04 324.251C363.04 324.252 363.039 324.253 363.039 324.254C363.039 324.255 363.039 324.256 363.038 324.257C363.038 324.258 363.038 324.259 363.037 324.26C363.037 324.261 363.037 324.262 363.037 324.263C363.036 324.264 363.036 324.265 363.036 324.267C363.036 324.268 363.035 324.269 363.035 324.27C363.035 324.271 363.034 324.272 363.034 324.273C363.034 324.274 363.034 324.275 363.033 324.276C363.033 324.277 363.033 324.278 363.032 324.279C363.032 324.28 363.032 324.281 363.032 324.282C363.031 324.283 363.031 324.284 363.031 324.285C363.031 324.286 363.03 324.287 363.03 324.288C363.03 324.289 363.029 324.29 363.029 324.291C363.029 324.292 363.029 324.293 363.028 324.295C363.028 324.296 363.028 324.297 363.027 324.298C363.027 324.299 363.027 324.3 363.027 324.301C363.026 324.302 363.026 324.303 363.026 324.304C363.026 324.305 363.025 324.306 363.025 324.307C363.025 324.308 363.024 324.309 363.024 324.31C363.024 324.311 363.024 324.312 363.023 324.313C363.023 324.314 363.023 324.315 363.022 324.316C363.022 324.317 363.022 324.318 363.022 324.319C363.021 324.32 363.021 324.322 363.021 324.323C363.021 324.324 363.02 324.325 363.02 324.326C363.02 324.327 363.019 324.328 363.019 324.329C363.019 324.33 363.019 324.331 363.018 324.332C363.018 324.333 363.018 324.334 363.017 324.335C363.017 324.336 363.017 324.337 363.017 324.338C363.016 324.339 363.016 324.34 363.016 324.341C363.015 324.342 363.015 324.343 363.015 324.344C363.015 324.345 363.014 324.346 363.014 324.348C363.014 324.349 363.014 324.35 363.013 324.351C363.013 324.352 363.013 324.353 363.012 324.354C363.012 324.355 363.012 324.356 363.012 324.357C363.011 324.358 363.011 324.359 363.011 324.36C363.01 324.361 363.01 324.362 363.01 324.363C363.01 324.364 363.009 324.365 363.009 324.366C363.009 324.367 363.009 324.368 363.008 324.369C363.008 324.37 363.008 324.372 363.007 324.373C363.007 324.374 363.007 324.375 363.007 324.376C363.006 324.377 363.006 324.378 363.006 324.379C363.005 324.38 363.005 324.381 363.005 324.382C363.005 324.383 363.004 324.384 363.004 324.385C363.004 324.386 363.003 324.387 363.003 324.388C363.003 324.389 363.003 324.39 363.002 324.391C363.002 324.392 363.002 324.393 363.002 324.394C363.001 324.396 363.001 324.397 363.001 324.398C363 324.399 363 324.4 363 324.401C363 324.402 362.999 324.403 362.999 324.404C362.999 324.405 362.998 324.406 362.998 324.407C362.998 324.408 362.998 324.409 362.997 324.41C362.997 324.411 362.997 324.412 362.996 324.413C362.996 324.414 362.996 324.415 362.996 324.416C362.995 324.418 362.995 324.419 362.995 324.42C362.994 324.421 362.994 324.422 362.994 324.423C362.994 324.424 362.993 324.425 362.993 324.426C362.993 324.427 362.993 324.428 362.992 324.429C362.992 324.43 362.992 324.431 362.991 324.432C362.991 324.433 362.991 324.434 362.991 324.435C362.99 324.436 362.99 324.437 362.99 324.438C362.989 324.44 362.989 324.441 362.989 324.442C362.989 324.443 362.988 324.444 362.988 324.445C362.988 324.446 362.987 324.447 362.987 324.448C362.987 324.449 362.987 324.45 362.986 324.451C362.986 324.452 362.986 324.453 362.986 324.454C362.985 324.455 362.985 324.456 362.985 324.457C362.984 324.458 362.984 324.459 362.984 324.461C362.984 324.462 362.983 324.463 362.983 324.464C362.983 324.465 362.982 324.466 362.982 324.467C362.982 324.468 362.982 324.469 362.981 324.47C362.981 324.471 362.981 324.472 362.98 324.473C362.98 324.474 362.98 324.475 362.98 324.476C362.979 324.477 362.979 324.478 362.979 324.479C362.978 324.481 362.978 324.482 362.978 324.483C362.978 324.484 362.977 324.485 362.977 324.486C362.977 324.487 362.976 324.488 362.976 324.489C362.976 324.49 362.976 324.491 362.975 324.492C362.975 324.493 362.975 324.494 362.975 324.495C362.974 324.496 362.974 324.497 362.974 324.498C362.973 324.499 362.973 324.501 362.973 324.502C362.973 324.503 362.972 324.504 362.972 324.505C362.972 324.506 362.971 324.507 362.971 324.508C362.971 324.509 362.971 324.51 362.97 324.511C362.97 324.512 362.97 324.513 362.969 324.514C362.969 324.515 362.969 324.516 362.969 324.517C362.968 324.518 362.968 324.519 362.968 324.521C362.967 324.522 362.967 324.523 362.967 324.524C362.967 324.525 362.966 324.526 362.966 324.527C362.966 324.528 362.965 324.529 362.965 324.53C362.965 324.531 362.965 324.532 362.964 324.533C362.964 324.534 362.964 324.535 362.963 324.536C362.963 324.537 362.963 324.538 362.963 324.54C362.962 324.541 362.962 324.542 362.962 324.543C362.962 324.544 362.961 324.545 362.961 324.546C362.961 324.547 362.96 324.548 362.96 324.549C362.96 324.55 362.96 324.551 362.959 324.552C362.959 324.553 362.959 324.554 362.958 324.555C362.958 324.556 362.958 324.558 362.958 324.559C362.957 324.56 362.957 324.561 362.957 324.562C362.956 324.563 362.956 324.564 362.956 324.565C362.956 324.566 362.955 324.567 362.955 324.568C362.955 324.569 362.954 324.57 362.954 324.571C362.954 324.572 362.954 324.573 362.953 324.574C362.953 324.576 362.953 324.577 362.952 324.578C362.952 324.579 362.952 324.58 362.952 324.581C362.951 324.582 362.951 324.583 362.951 324.584C362.95 324.585 362.95 324.586 362.95 324.587C362.95 324.588 362.949 324.589 362.949 324.59C362.949 324.591 362.948 324.592 362.948 324.594C362.948 324.595 362.948 324.596 362.947 324.597C362.947 324.598 362.947 324.599 362.946 324.6C362.946 324.601 362.946 324.602 362.946 324.603C362.945 324.604 362.945 324.605 362.945 324.606C362.944 324.607 362.944 324.608 362.944 324.609C362.944 324.611 362.943 324.612 362.943 324.613C362.943 324.614 362.942 324.615 362.942 324.616C362.942 324.617 362.942 324.618 362.941 324.619C362.941 324.62 362.941 324.621 362.94 324.622C362.94 324.623 362.94 324.624 362.94 324.625C362.939 324.626 362.939 324.628 362.939 324.629C362.938 324.63 362.938 324.631 362.938 324.632C362.938 324.633 362.937 324.634 362.937 324.635C362.937 324.636 362.936 324.637 362.936 324.638C362.936 324.639 362.936 324.64 362.935 324.641C362.935 324.642 362.935 324.644 362.934 324.645C362.934 324.646 362.934 324.647 362.934 324.648C362.933 324.649 362.933 324.65 362.933 324.651C362.932 324.652 362.932 324.653 362.932 324.654C362.932 324.655 362.931 324.656 362.931 324.657C362.931 324.658 362.93 324.659 362.93 324.661C362.93 324.662 362.93 324.663 362.929 324.664C362.929 324.665 362.929 324.666 362.928 324.667C362.928 324.668 362.928 324.669 362.928 324.67C362.927 324.671 362.927 324.672 362.927 324.673C362.926 324.674 362.926 324.675 362.926 324.677C362.926 324.678 362.925 324.679 362.925 324.68C362.925 324.681 362.924 324.682 362.924 324.683C362.924 324.684 362.924 324.685 362.923 324.686C362.923 324.687 362.923 324.688 362.922 324.689C362.922 324.69 362.922 324.692 362.922 324.693C362.921 324.694 362.921 324.695 362.921 324.696C362.92 324.697 362.92 324.698 362.92 324.699C362.92 324.7 362.919 324.701 362.919 324.702C362.919 324.703 362.918 324.704 362.918 324.705C362.918 324.706 362.918 324.708 362.917 324.709C362.917 324.71 362.917 324.711 362.916 324.712C362.916 324.713 362.916 324.714 362.916 324.715C362.915 324.716 362.915 324.717 362.915 324.718C362.914 324.719 362.914 324.72 362.914 324.721C362.914 324.723 362.913 324.724 362.913 324.725C362.913 324.726 362.912 324.727 362.912 324.728C362.912 324.729 362.912 324.73 362.911 324.731C362.911 324.732 362.911 324.733 362.91 324.734C362.91 324.735 362.91 324.736 362.91 324.738C362.909 324.739 362.909 324.74 362.909 324.741C362.908 324.742 362.908 324.743 362.908 324.744C362.908 324.745 362.907 324.746 362.907 324.747C362.907 324.748 362.906 324.749 362.906 324.75C362.906 324.751 362.906 324.753 362.905 324.754C362.905 324.755 362.905 324.756 362.904 324.757C362.904 324.758 362.904 324.759 362.904 324.76C362.903 324.761 362.903 324.762 362.903 324.763C362.902 324.764 362.902 324.765 362.902 324.767C362.902 324.768 362.901 324.769 362.901 324.77C362.901 324.771 362.9 324.772 362.9 324.773C362.9 324.774 362.9 324.775 362.899 324.776C362.899 324.777 362.899 324.778 362.898 324.779C362.898 324.78 362.898 324.782 362.898 324.783C362.897 324.784 362.897 324.785 362.897 324.786C362.896 324.787 362.896 324.788 362.896 324.789C362.895 324.79 362.895 324.791 362.895 324.792C362.895 324.793 362.894 324.794 362.894 324.796C362.894 324.797 362.893 324.798 362.893 324.799C362.893 324.8 362.893 324.801 362.892 324.802C362.892 324.803 362.892 324.804 362.891 324.805C362.891 324.806 362.891 324.807 362.891 324.808C362.89 324.81 362.89 324.811 362.89 324.812C362.889 324.813 362.889 324.814 362.889 324.815C362.889 324.816 362.888 324.817 362.888 324.818C362.888 324.819 362.887 324.82 362.887 324.821C362.887 324.822 362.887 324.824 362.886 324.825C362.886 324.826 362.886 324.827 362.885 324.828C362.885 324.829 362.885 324.83 362.885 324.831C362.884 324.832 362.884 324.833 362.884 324.834C362.883 324.835 362.883 324.837 362.883 324.838C362.882 324.839 362.882 324.84 362.882 324.841C362.882 324.842 362.881 324.843 362.881 324.844C362.881 324.845 362.88 324.846 362.88 324.847C362.88 324.848 362.88 324.849 362.879 324.851C362.879 324.852 362.879 324.853 362.878 324.854C362.878 324.855 362.878 324.856 362.878 324.857C362.877 324.858 362.877 324.859 362.877 324.86C362.876 324.861 362.876 324.862 362.876 324.864C362.876 324.865 362.875 324.866 362.875 324.867C362.875 324.868 362.874 324.869 362.874 324.87C362.874 324.871 362.874 324.872 362.873 324.873C362.873 324.874 362.873 324.875 362.872 324.877C362.872 324.878 362.872 324.879 362.871 324.88C362.871 324.881 362.871 324.882 362.871 324.883C362.87 324.884 362.87 324.885 362.87 324.886C362.869 324.887 362.869 324.888 362.869 324.889C362.869 324.891 362.868 324.892 362.868 324.893C362.868 324.894 362.867 324.895 362.867 324.896C362.867 324.897 362.867 324.898 362.866 324.899C362.866 324.9 362.866 324.901 362.865 324.903C362.865 324.904 362.865 324.905 362.865 324.906C362.864 324.907 362.864 324.908 362.864 324.909C362.863 324.91 362.863 324.911 362.863 324.912C362.862 324.913 362.862 324.914 362.862 324.916C362.862 324.917 362.861 324.918 362.861 324.919C362.861 324.92 362.86 324.921 362.86 324.922C362.86 324.923 362.86 324.924 362.859 324.925C362.859 324.926 362.859 324.927 362.858 324.929C362.858 324.93 362.858 324.931 362.858 324.932C362.857 324.933 362.857 324.934 362.857 324.935C362.856 324.936 362.856 324.937 362.856 324.938C362.855 324.939 362.855 324.941 362.855 324.942C362.855 324.943 362.854 324.944 362.854 324.945C362.854 324.946 362.853 324.947 362.853 324.948C362.853 324.949 362.853 324.95 362.852 324.951C362.852 324.952 362.852 324.954 362.851 324.955C362.851 324.956 362.851 324.957 362.851 324.958C362.85 324.959 362.85 324.96 362.85 324.961C362.849 324.962 362.849 324.963 362.849 324.964C362.848 324.966 362.848 324.967 362.848 324.968C362.848 324.969 362.847 324.97 362.847 324.971C362.847 324.972 362.846 324.973 362.846 324.974C362.846 324.975 362.846 324.976 362.845 324.978C362.845 324.979 362.845 324.98 362.844 324.981C362.844 324.982 362.844 324.983 362.844 324.984C362.843 324.985 362.843 324.986 362.843 324.987C362.842 324.988 362.842 324.99 362.842 324.991C362.841 324.992 362.841 324.993 362.841 324.994C362.841 324.995 362.84 324.996 362.84 324.997C362.84 324.998 362.839 324.999 362.839 325C362.839 325.002 362.839 325.003 362.838 325.004C362.838 325.005 362.838 325.006 362.837 325.007C362.837 325.008 362.837 325.009 362.837 325.01C362.836 325.011 362.836 325.012 362.836 325.014C362.835 325.015 362.835 325.016 362.835 325.017C362.834 325.018 362.834 325.019 362.834 325.02C362.834 325.021 362.833 325.022 362.833 325.023C362.833 325.024 362.832 325.026 362.832 325.027C362.832 325.028 362.832 325.029 362.831 325.03C362.831 325.031 362.831 325.032 362.83 325.033C362.83 325.034 362.83 325.035 362.829 325.037C362.829 325.038 362.829 325.039 362.829 325.04C362.828 325.041 362.828 325.042 362.828 325.043C362.827 325.044 362.827 325.045 362.827 325.046C362.827 325.047 362.826 325.049 362.826 325.05C362.826 325.051 362.825 325.052 362.825 325.053C362.825 325.054 362.824 325.055 362.824 325.056C362.824 325.057 362.824 325.058 362.823 325.06C362.823 325.061 362.823 325.062 362.822 325.063C362.822 325.064 362.822 325.065 362.822 325.066C362.821 325.067 362.821 325.068 362.821 325.069C362.82 325.07 362.82 325.072 362.82 325.073C362.819 325.074 362.819 325.075 362.819 325.076C362.819 325.077 362.818 325.078 362.818 325.079C362.818 325.08 362.817 325.081 362.817 325.083C362.817 325.084 362.817 325.085 362.816 325.086C362.816 325.087 362.816 325.088 362.815 325.089C362.815 325.09 362.815 325.091 362.814 325.092C362.814 325.094 362.814 325.095 362.814 325.096C362.813 325.097 362.813 325.098 362.813 325.099C362.812 325.1 362.812 325.101 362.812 325.102C362.812 325.103 362.811 325.105 362.811 325.106C362.811 325.107 362.81 325.108 362.81 325.109C362.81 325.11 362.809 325.111 362.809 325.112C362.809 325.113 362.809 325.114 362.808 325.116C362.808 325.117 362.808 325.118 362.807 325.119C362.807 325.12 362.807 325.121 362.807 325.122C362.806 325.123 362.806 325.124 362.806 325.125C362.805 325.127 362.805 325.128 362.805 325.129C362.804 325.13 362.804 325.131 362.804 325.132C362.804 325.133 362.803 325.134 362.803 325.135C362.803 325.136 362.802 325.138 362.802 325.139C362.802 325.14 362.802 325.141 362.801 325.142C362.801 325.143 362.801 325.144 362.8 325.145C362.8 325.146 362.8 325.147 362.799 325.149C362.799 325.15 362.799 325.151 362.799 325.152C362.798 325.153 362.798 325.154 362.798 325.155C362.797 325.156 362.797 325.157 362.797 325.159C362.796 325.16 362.796 325.161 362.796 325.162C362.796 325.163 362.795 325.164 362.795 325.165C362.795 325.166 362.794 325.167 362.794 325.168C362.794 325.17 362.794 325.171 362.793 325.172C362.793 325.173 362.793 325.174 362.792 325.175C362.792 325.176 362.792 325.177 362.791 325.178C362.791 325.18 362.791 325.181 362.791 325.182C362.79 325.183 362.79 325.184 362.79 325.185C362.789 325.186 362.789 325.187 362.789 325.188C362.788 325.189 362.788 325.191 362.788 325.192C362.788 325.193 362.787 325.194 362.787 325.195C362.787 325.196 362.786 325.197 362.786 325.198C362.786 325.199 362.786 325.201 362.785 325.202C362.785 325.203 362.785 325.204 362.784 325.205C362.784 325.206 362.784 325.207 362.783 325.208C362.783 325.209 362.783 325.21 362.783 325.212C362.782 325.213 362.782 325.214 362.782 325.215C362.781 325.216 362.781 325.217 362.781 325.218C362.78 325.219 362.78 325.22 362.78 325.222C362.78 325.223 362.779 325.224 362.779 325.225C362.779 325.226 362.778 325.227 362.778 325.228C362.778 325.229 362.778 325.23 362.777 325.232C362.777 325.233 362.777 325.234 362.776 325.235C362.776 325.236 362.776 325.237 362.775 325.238C362.775 325.239 362.775 325.24 362.775 325.242C362.774 325.243 362.774 325.244 362.774 325.245C362.773 325.246 362.773 325.247 362.773 325.248C362.772 325.249 362.772 325.25 362.772 325.252C362.772 325.253 362.771 325.254 362.771 325.255C362.771 325.256 362.77 325.257 362.77 325.258C362.77 325.259 362.769 325.26 362.769 325.262C362.769 325.263 362.769 325.264 362.768 325.265C362.768 325.266 362.768 325.267 362.767 325.268C362.767 325.269 362.767 325.27 362.767 325.272C362.766 325.273 362.766 325.274 362.766 325.275C362.765 325.276 362.765 325.277 362.765 325.278C362.764 325.279 362.764 325.28 362.764 325.282C362.764 325.283 362.763 325.284 362.763 325.285C362.763 325.286 362.762 325.287 362.762 325.288C362.762 325.289 362.761 325.29 362.761 325.292C362.761 325.293 362.761 325.294 362.76 325.295C362.76 325.296 362.76 325.297 362.759 325.298C362.759 325.299 362.759 325.3 362.758 325.302C362.758 325.303 362.758 325.304 362.758 325.305C362.757 325.306 362.757 325.307 362.757 325.308C362.756 325.309 362.756 325.311 362.756 325.312C362.755 325.313 362.755 325.314 362.755 325.315C362.755 325.316 362.754 325.317 362.754 325.318C362.754 325.319 362.753 325.321 362.753 325.322C362.753 325.323 362.752 325.324 362.752 325.325C362.752 325.326 362.752 325.327 362.751 325.328C362.751 325.329 362.751 325.331 362.75 325.332C362.75 325.333 362.75 325.334 362.749 325.335C362.749 325.336 362.749 325.337 362.749 325.338C362.748 325.34 362.748 325.341 362.748 325.342C362.747 325.343 362.747 325.344 362.747 325.345C362.746 325.346 362.746 325.347 362.746 325.348C362.746 325.35 362.745 325.351 362.745 325.352C362.745 325.353 362.744 325.354 362.744 325.355C362.744 325.356 362.743 325.357 362.743 325.359C362.743 325.36 362.743 325.361 362.742 325.362C362.742 325.363 362.742 325.364 362.741 325.365C362.741 325.366 362.741 325.367 362.74 325.369C362.74 325.37 362.74 325.371 362.74 325.372C362.739 325.373 362.739 325.374 362.739 325.375C362.738 325.376 362.738 325.378 362.738 325.379C362.737 325.38 362.737 325.381 362.737 325.382C362.737 325.383 362.736 325.384 362.736 325.385C362.736 325.387 362.735 325.388 362.735 325.389C362.735 325.39 362.734 325.391 362.734 325.392C362.734 325.393 362.734 325.394 362.733 325.395C362.733 325.397 362.733 325.398 362.732 325.399C362.732 325.4 362.732 325.401 362.731 325.402C362.731 325.403 362.731 325.404 362.731 325.406C362.73 325.407 362.73 325.408 362.73 325.409C362.729 325.41 362.729 325.411 362.729 325.412C362.728 325.413 362.728 325.415 362.728 325.416C362.728 325.417 362.727 325.418 362.727 325.419C362.727 325.42 362.726 325.421 362.726 325.422C362.726 325.424 362.725 325.425 362.725 325.426C362.725 325.427 362.725 325.428 362.724 325.429C362.724 325.43 362.724 325.431 362.723 325.433C362.723 325.434 362.723 325.435 362.722 325.436C362.722 325.437 362.722 325.438 362.722 325.439C362.721 325.44 362.721 325.442 362.721 325.443C362.72 325.444 362.72 325.445 362.72 325.446C362.719 325.447 362.719 325.448 362.719 325.449C362.719 325.451 362.718 325.452 362.718 325.453C362.718 325.454 362.717 325.455 362.717 325.456C362.717 325.457 362.716 325.458 362.716 325.46C362.716 325.461 362.716 325.462 362.715 325.463C362.715 325.464 362.715 325.465 362.714 325.466C362.714 325.467 362.714 325.469 362.713 325.47C362.713 325.471 362.713 325.472 362.713 325.473C362.712 325.474 362.712 325.475 362.712 325.476C362.711 325.478 362.711 325.479 362.711 325.48C362.71 325.481 362.71 325.482 362.71 325.483C362.709 325.484 362.709 325.485 362.709 325.487C362.709 325.488 362.708 325.489 362.708 325.49C362.708 325.491 362.707 325.492 362.707 325.493C362.707 325.494 362.706 325.496 362.706 325.497C362.706 325.498 362.706 325.499 362.705 325.5C362.705 325.501 362.705 325.502 362.704 325.503C362.704 325.505 362.704 325.506 362.703 325.507C362.703 325.508 362.703 325.509 362.703 325.51C362.702 325.511 362.702 325.513 362.702 325.514C362.701 325.515 362.701 325.516 362.701 325.517C362.7 325.518 362.7 325.519 362.7 325.52C362.7 325.522 362.699 325.523 362.699 325.524C362.699 325.525 362.698 325.526 362.698 325.527C362.698 325.528 362.697 325.529 362.697 325.531C362.697 325.532 362.696 325.533 362.696 325.534C362.696 325.535 362.696 325.536 362.695 325.537C362.695 325.539 362.695 325.54 362.694 325.541C362.694 325.542 362.694 325.543 362.693 325.544L364.142 325.932ZM364.582 324.29C365.75 319.931 366.354 315.987 366.38 312.464L364.88 312.453C364.855 315.818 364.278 319.632 363.133 323.902L364.582 324.29ZM366.38 312.464C366.406 308.962 365.913 306.138 364.83 304.058L363.5 304.751C364.422 306.522 364.906 309.067 364.88 312.453L366.38 312.464ZM364.838 304.074C363.792 301.946 362.11 300.754 359.844 300.623L359.758 302.121C361.434 302.218 362.662 303.048 363.492 304.736L364.838 304.074ZM359.869 300.625C357.606 300.418 355.05 301.646 352.257 303.976L353.218 305.128C355.935 302.861 358.089 301.969 359.733 302.119L359.869 300.625ZM352.214 304.015C349.61 306.548 347.406 308.52 345.6 309.938L346.526 311.118C348.391 309.655 350.637 307.643 353.26 305.09L352.214 304.015ZM345.597 309.941C343.859 311.322 342.419 312.309 341.269 312.921L341.974 314.245C343.239 313.571 344.76 312.522 346.53 311.115L345.597 309.941ZM341.269 312.921C340.093 313.546 339.207 313.847 338.579 313.901L338.709 315.396C339.636 315.315 340.734 314.905 341.974 314.245L341.269 312.921ZM338.622 313.899C337.988 313.918 337.424 313.856 336.925 313.722L336.537 315.171C337.197 315.348 337.909 315.421 338.666 315.398L338.622 313.899ZM336.925 313.722C335.367 313.305 334.075 312.575 333.03 311.538L331.974 312.604C333.219 313.837 334.746 314.691 336.537 315.171L336.925 313.722ZM333.059 311.569C332.041 310.437 331.187 309.184 330.497 307.809L329.156 308.481C329.906 309.976 330.835 311.34 331.944 312.573L333.059 311.569ZM330.506 307.827C329.822 306.367 329.281 304.88 328.883 303.366L327.432 303.747C327.854 305.352 328.427 306.924 329.148 308.463L330.506 307.827ZM328.886 303.38C328.494 301.759 328.14 300.253 327.825 298.861L326.362 299.192C326.679 300.593 327.035 302.106 327.429 303.733L328.886 303.38ZM327.441 299.691L331.895 297.365L331.2 296.035L326.746 298.362L327.441 299.691ZM330.798 296.722C330.819 297.42 330.846 298.223 330.879 299.131L332.378 299.075C332.345 298.171 332.318 297.371 332.297 296.678L330.798 296.722ZM330.883 299.182C330.984 300.145 331.163 301.093 331.417 302.026L332.864 301.631C332.631 300.776 332.468 299.908 332.374 299.024L330.883 299.182ZM331.425 302.054C331.705 302.943 332.085 303.757 332.568 304.49L333.821 303.665C333.42 303.057 333.098 302.372 332.856 301.603L331.425 302.054ZM332.59 304.522C333.19 305.337 333.969 305.89 334.918 306.144L335.306 304.695C334.71 304.536 334.211 304.194 333.798 303.633L332.59 304.522ZM334.918 306.144C335.421 306.279 335.989 306.221 336.566 306.069L336.184 304.619C335.721 304.741 335.447 304.733 335.306 304.695L334.918 306.144ZM336.566 306.069C337.203 305.902 338.002 305.488 338.93 304.897L338.125 303.632C337.222 304.207 336.586 304.513 336.184 304.619L336.566 306.069ZM338.928 304.899C339.943 304.257 341.224 303.379 342.769 302.269L341.893 301.051C340.361 302.153 339.106 303.012 338.127 303.63L338.928 304.899ZM342.766 302.271C344.399 301.109 346.439 299.576 348.885 297.673L347.963 296.489C345.526 298.385 343.505 299.905 341.896 301.049L342.766 302.271ZM349.167 297.184C349.539 294.495 349.632 292.303 349.42 290.635L347.932 290.825C348.12 292.301 348.046 294.343 347.681 296.978L349.167 297.184ZM349.424 290.675C349.298 288.94 348.788 287.455 347.854 286.265L346.674 287.191C347.387 288.099 347.819 289.282 347.928 290.785L349.424 290.675ZM347.885 286.308C347.063 285.093 345.873 284.072 344.353 283.228L343.625 284.539C344.988 285.296 345.982 286.171 346.643 287.148L347.885 286.308ZM344.385 283.247C343.005 282.387 341.25 281.394 339.125 280.27L338.424 281.596C340.531 282.711 342.252 283.685 343.592 284.52L344.385 283.247ZM339.139 280.278C337.986 279.638 336.836 278.831 335.689 277.853L334.716 278.994C335.929 280.029 337.16 280.895 338.411 281.589L339.139 280.278ZM335.722 277.882C334.657 276.861 333.572 275.627 332.467 274.177L331.274 275.086C332.416 276.585 333.552 277.879 334.683 278.965L335.722 277.882ZM332.46 274.169C332.077 273.68 331.481 272.788 330.663 271.465L329.387 272.254C330.206 273.579 330.84 274.534 331.28 275.095L332.46 274.169ZM330.663 271.465C329.85 270.151 328.832 268.434 327.608 266.315L326.309 267.065C327.536 269.191 328.563 270.922 329.387 272.254L330.663 271.465ZM326.764 267.414L385.106 283.047L385.494 281.598L327.153 265.965L326.764 267.414ZM384.644 282.686L388.411 289.492L389.723 288.766L385.957 281.959L384.644 282.686ZM389.261 288.405L379.312 285.739L378.924 287.188L388.873 289.854L389.261 288.405ZM374.096 284.341L348.596 277.509L348.207 278.958L373.708 285.79L374.096 284.341ZM347.775 278.646C349.957 281.959 351.259 284.785 351.74 287.136L353.21 286.835C352.675 284.221 351.261 281.211 349.028 277.821L347.775 278.646ZM351.744 287.153C352.287 289.527 352.242 292.051 351.589 294.738L353.046 295.092C353.748 292.206 353.807 289.445 353.206 286.818L351.744 287.153ZM352.725 295.545C355.024 294.057 356.895 293.28 358.362 293.117L358.196 291.626C356.39 291.827 354.287 292.747 351.91 294.285L352.725 295.545ZM358.378 293.115C359.938 292.906 361.204 293.203 362.238 293.951L363.117 292.735C361.722 291.727 360.056 291.377 358.179 291.628L358.378 293.115ZM362.238 293.951C363.336 294.744 364.363 295.973 365.3 297.687L366.616 296.968C365.607 295.124 364.447 293.697 363.117 292.735L362.238 293.951ZM365.3 297.687C366.257 299.438 367.238 301.509 368.241 303.902L369.624 303.322C368.606 300.894 367.604 298.775 366.616 296.968L365.3 297.687ZM369.657 303.806L374.626 285.26L373.177 284.872L368.208 303.418L369.657 303.806ZM404.021 293.136L404.216 292.412L402.017 291.823L403.435 293.604L404.021 293.136ZM410.387 302.607L409.733 302.974L409.733 302.974L410.387 302.607ZM415.001 312.436L415.314 313.117L415.947 312.825L415.703 312.172L415.001 312.436ZM398.23 320.158L397.917 319.477L396.688 320.043L397.819 320.785L398.23 320.158ZM413.665 341.376L412.942 341.575L413.675 344.236L414.389 341.57L413.665 341.376ZM423.862 303.318L423.875 302.569L423.289 302.559L423.138 303.124L423.862 303.318ZM425.047 303.532L424.853 304.257L424.893 304.268L424.934 304.274L425.047 303.532ZM428.409 304.123L428.215 304.847L428.26 304.859L428.306 304.866L428.409 304.123ZM429.497 304.311L429.303 305.035L429.313 305.038L429.497 304.311ZM441.418 312.371L440.81 312.81L440.81 312.81L441.418 312.371ZM427.963 332.059L427.304 332.417L427.314 332.434L427.324 332.451L427.963 332.059ZM430.118 323.63L430.455 324.3L430.465 324.295L430.475 324.29L430.118 323.63ZM439.377 326.939L438.705 327.272L439.273 328.418L439.996 327.363L439.377 326.939ZM440.397 325.452L441.016 325.876L441.088 325.77L441.121 325.646L440.397 325.452ZM429.326 313.065L429.52 312.34L429.489 312.332L429.456 312.326L429.326 313.065ZM427.052 312.663L427.183 311.924L426.506 311.804L426.328 312.468L427.052 312.663ZM415.25 356.709L414.581 357.047L415.467 358.799L415.975 356.903L415.25 356.709ZM412.95 352.158L413.619 351.82L412.733 350.068L412.225 351.964L412.95 352.158ZM412.924 352.255L412.178 352.173L413.648 352.449L412.924 352.255ZM407.423 336.08L408.079 335.716L408.055 335.673L408.025 335.633L407.423 336.08ZM400.756 330.049L400.36 330.686L400.36 330.686L400.756 330.049ZM391.511 325.915L390.804 326.164L390.929 326.521L391.291 326.632L391.511 325.915ZM387.692 315.057L387.294 314.421L386.785 314.739L386.984 315.306L387.692 315.057ZM396.091 310.371L395.757 309.699L395.749 309.703L396.091 310.371ZM407.118 305.147L407.429 305.83L408.27 305.447L407.722 304.703L407.118 305.147ZM403.786 301.356L403.258 301.888L403.263 301.893L403.269 301.899L403.786 301.356ZM399.764 298.207L399.345 298.829L399.355 298.836L399.365 298.843L399.764 298.207ZM394.724 294.993L394.335 295.634L394.342 295.639L394.724 294.993ZM391.847 292.98L392.369 292.441L392.352 292.425L392.335 292.41L391.847 292.98ZM384.22 282.033L384.415 281.309L382.818 280.881L383.547 282.364L384.22 282.033ZM450.58 299.814L451.232 299.445L451.078 299.171L450.774 299.09L450.58 299.814ZM454.443 306.647L454.249 307.371L455.976 307.834L455.096 306.278L454.443 306.647ZM403.435 293.604C405.785 296.555 407.885 299.678 409.733 302.974L411.041 302.24C409.153 298.874 407.009 295.684 404.608 292.669L403.435 293.604ZM409.733 302.974C411.585 306.274 413.106 309.516 414.298 312.699L415.703 312.172C414.481 308.911 412.926 305.6 411.041 302.24L409.733 302.974ZM414.687 311.754L397.917 319.477L398.544 320.84L415.314 313.117L414.687 311.754ZM397.819 320.785C405.471 325.813 410.506 332.734 412.942 341.575L414.388 341.177C411.855 331.985 406.6 324.76 398.642 319.531L397.819 320.785ZM414.389 341.57L424.587 303.513L423.138 303.124L412.94 341.182L414.389 341.57ZM423.85 304.068C424.03 304.071 424.353 304.123 424.853 304.257L425.241 302.808C424.711 302.666 424.244 302.575 423.875 302.569L423.85 304.068ZM424.934 304.274C424.95 304.276 424.975 304.28 424.99 304.282C425.006 304.285 425.031 304.289 425.046 304.291C425.062 304.293 425.087 304.297 425.102 304.299C425.118 304.302 425.143 304.306 425.158 304.308C425.174 304.31 425.198 304.314 425.214 304.317C425.23 304.319 425.254 304.323 425.27 304.325C425.285 304.327 425.31 304.331 425.326 304.334C425.341 304.336 425.366 304.34 425.382 304.342C425.397 304.344 425.422 304.348 425.438 304.351C425.453 304.353 425.478 304.357 425.494 304.359C425.509 304.362 425.534 304.365 425.55 304.368C425.565 304.37 425.59 304.374 425.606 304.376C425.621 304.379 425.646 304.382 425.662 304.385C425.677 304.387 425.702 304.391 425.718 304.393C425.733 304.396 425.758 304.399 425.774 304.402C425.789 304.404 425.814 304.408 425.829 304.41C425.929 304.425 426.178 304.463 426.277 304.478C426.377 304.494 426.625 304.531 426.725 304.547L426.951 303.064C426.935 303.061 426.91 303.058 426.895 303.055C426.879 303.053 426.854 303.049 426.839 303.047C426.823 303.044 426.798 303.041 426.783 303.038C426.767 303.036 426.742 303.032 426.727 303.03C426.711 303.027 426.686 303.023 426.671 303.021C426.655 303.019 426.63 303.015 426.615 303.013C426.599 303.01 426.574 303.006 426.559 303.004C426.543 303.002 426.518 302.998 426.503 302.996C426.487 302.993 426.463 302.989 426.447 302.987C426.431 302.985 426.407 302.981 426.391 302.978C426.375 302.976 426.351 302.972 426.335 302.97C426.32 302.968 426.295 302.964 426.279 302.961C426.264 302.959 426.239 302.955 426.223 302.953C426.208 302.951 426.183 302.947 426.167 302.944C426.152 302.942 426.127 302.938 426.111 302.936C426.096 302.934 426.071 302.93 426.055 302.927C425.956 302.912 425.707 302.874 425.608 302.859C425.508 302.844 425.26 302.806 425.16 302.791L424.934 304.274ZM426.725 304.547C427.302 304.634 427.797 304.735 428.215 304.847L428.603 303.398C428.119 303.269 427.567 303.158 426.951 303.064L426.725 304.547ZM428.306 304.866C428.843 304.94 429.161 304.997 429.303 305.035L429.691 303.586C429.447 303.521 429.04 303.453 428.512 303.38L428.306 304.866ZM429.313 305.038C434.12 306.259 437.943 308.845 440.81 312.81L442.025 311.931C438.95 307.678 434.826 304.891 429.682 303.584L429.313 305.038ZM440.81 312.81C443.887 317.06 444.692 321.978 443.174 327.646L444.623 328.034C446.245 321.981 445.396 316.587 442.025 311.931L440.81 312.81ZM443.174 327.646C442.331 330.791 440.972 332.812 439.187 333.879C437.407 334.943 435.05 335.149 432.012 334.335L431.624 335.784C434.897 336.661 437.709 336.509 439.956 335.166C442.198 333.827 443.723 331.392 444.623 328.034L443.174 327.646ZM432.012 334.335C430.608 333.958 429.474 333.091 428.603 331.668L427.324 332.451C428.373 334.165 429.809 335.297 431.624 335.784L432.012 334.335ZM428.622 331.701C427.829 330.243 427.647 328.795 428.043 327.318L426.594 326.93C426.093 328.802 426.34 330.644 427.304 332.417L428.622 331.701ZM428.043 327.318C428.421 325.906 429.219 324.92 430.455 324.3L429.782 322.959C428.147 323.779 427.079 325.122 426.594 326.93L428.043 327.318ZM430.475 324.29C431.765 323.593 433.067 323.436 434.421 323.799L434.809 322.35C433.073 321.885 431.377 322.098 429.762 322.97L430.475 324.29ZM434.421 323.799C436.407 324.331 437.818 325.48 438.705 327.272L440.05 326.606C438.966 324.419 437.202 322.991 434.809 322.35L434.421 323.799ZM439.996 327.363L441.016 325.876L439.778 325.028L438.759 326.515L439.996 327.363ZM441.121 325.646C441.965 322.5 441.398 319.734 439.366 317.461C437.378 315.236 434.051 313.554 429.52 312.34L429.132 313.789C433.551 314.973 436.545 316.555 438.248 318.46C439.906 320.316 440.4 322.545 439.673 325.258L441.121 325.646ZM429.456 312.326L427.183 311.924L426.922 313.401L429.195 313.803L429.456 312.326ZM426.328 312.468L414.526 356.515L415.975 356.903L427.777 312.857L426.328 312.468ZM415.92 356.37L413.619 351.82L412.28 352.497L414.581 357.047L415.92 356.37ZM412.225 351.964L412.199 352.061L413.648 352.449L413.674 352.352L412.225 351.964ZM413.669 352.337C413.878 350.437 413.478 348.097 412.545 345.355C411.609 342.602 410.116 339.387 408.079 335.716L406.767 336.444C408.779 340.069 410.228 343.199 411.125 345.838C412.026 348.487 412.352 350.586 412.178 352.173L413.669 352.337ZM408.025 335.633C406.24 333.225 403.945 331.152 401.153 329.413L400.36 330.686C403.009 332.336 405.158 334.285 406.82 336.527L408.025 335.633ZM401.153 329.413C398.371 327.679 395.229 326.276 391.732 325.199L391.291 326.632C394.679 327.676 397.7 329.029 400.36 330.686L401.153 329.413ZM392.219 325.667L388.399 314.808L386.984 315.306L390.804 326.164L392.219 325.667ZM388.089 315.693C390.386 314.259 393.166 312.707 396.432 311.039L395.749 309.703C392.458 311.385 389.638 312.957 387.294 314.421L388.089 315.693ZM396.424 311.043C399.758 309.389 403.426 307.652 407.429 305.83L406.808 304.465C402.793 306.292 399.109 308.037 395.757 309.699L396.424 311.043ZM407.722 304.703C406.685 303.293 405.546 301.996 404.303 300.813L403.269 301.899C404.446 303.02 405.528 304.251 406.514 305.592L407.722 304.703ZM404.314 300.823C403.125 299.644 401.74 298.561 400.163 297.572L399.365 298.843C400.861 299.781 402.157 300.796 403.258 301.888L404.314 300.823ZM400.183 297.585C398.304 296.319 396.611 295.239 395.106 294.348L394.342 295.639C395.815 296.511 397.483 297.575 399.345 298.829L400.183 297.585ZM395.113 294.352C393.688 293.487 392.795 292.854 392.369 292.441L391.326 293.519C391.886 294.061 392.911 294.77 394.335 295.634L395.113 294.352ZM392.335 292.41C389.864 290.296 387.376 286.751 384.893 281.702L383.547 282.364C386.068 287.49 388.665 291.243 391.359 293.55L392.335 292.41ZM384.026 282.758L450.385 300.538L450.774 299.09L384.415 281.309L384.026 282.758ZM449.927 300.183L453.79 307.016L455.096 306.278L451.232 299.445L449.927 300.183ZM454.637 305.922L404.216 292.412L403.827 293.861L454.249 307.371L454.637 305.922ZM495.489 317.645L495.683 316.921L494.959 316.727L494.765 317.451L495.489 317.645ZM480.271 374.442L479.591 374.758L480.461 376.628L480.995 374.636L480.271 374.442ZM478.234 370.065L478.914 369.749L478.044 367.878L477.51 369.871L478.234 370.065ZM478.208 370.162L477.463 370.251L478.933 370.356L478.208 370.162ZM477.101 363.861L476.37 364.026L476.375 364.05L476.382 364.073L477.101 363.861ZM475.13 358.467L474.442 358.765L474.447 358.777L475.13 358.467ZM472.219 352.717L472.859 352.326L472.852 352.315L472.219 352.717ZM455.789 340.24L455.983 339.515L455.523 340.941L455.789 340.24ZM455.885 340.266L455.691 340.99L457.096 341.366L456.588 340.004L455.885 340.266ZM451.429 328.305L451.174 327.599L450.462 327.857L450.726 328.567L451.429 328.305ZM489.212 320.208L489.258 320.956L489.797 320.923L489.937 320.402L489.212 320.208ZM490.273 316.248L490.998 316.442L491.192 315.717L490.467 315.523L490.273 316.248ZM453.278 306.335L452.626 306.704L452.78 306.978L453.084 307.059L453.278 306.335ZM449.415 299.502L449.609 298.778L447.882 298.315L448.762 299.871L449.415 299.502ZM502.638 313.763L503.287 313.388L503.132 313.119L502.832 313.039L502.638 313.763ZM506.597 320.622L506.403 321.346L508.152 321.815L507.247 320.247L506.597 320.622ZM486.857 328.998L487.581 329.192L487.86 328.151L486.787 328.251L486.857 328.998ZM474.989 330.787L474.839 330.052L474.834 330.053L474.989 330.787ZM461.999 334.45L461.756 333.74L460.437 334.192L461.541 335.044L461.999 334.45ZM478.859 358.845L478.136 359.041L478.864 361.726L479.584 359.039L478.859 358.845ZM457.661 352.958L458.016 353.618L458.026 353.613L458.036 353.607L457.661 352.958ZM465.581 355.08L464.932 355.455L464.938 355.465L464.944 355.474L465.581 355.08ZM463.459 363.001L463.834 363.65L463.843 363.645L463.852 363.639L463.459 363.001ZM455.539 360.878L454.879 361.235L454.884 361.244L454.889 361.253L455.539 360.878ZM494.765 317.451L479.546 374.247L480.995 374.636L496.214 317.839L494.765 317.451ZM480.951 374.125L478.914 369.749L477.554 370.382L479.591 374.758L480.951 374.125ZM477.51 369.871L477.484 369.968L478.933 370.356L478.958 370.259L477.51 369.871ZM478.953 370.073C478.612 367.213 478.237 365.061 477.821 363.649L476.382 364.073C476.761 365.358 477.124 367.407 477.463 370.251L478.953 370.073ZM477.833 363.695C477.5 362.227 476.82 360.376 475.813 358.157L474.447 358.777C475.436 360.957 476.07 362.702 476.37 364.026L477.833 363.695ZM475.818 358.169C474.828 355.882 473.842 353.933 472.859 352.326L471.579 353.109C472.516 354.639 473.471 356.523 474.442 358.765L475.818 358.169ZM472.852 352.315C469.249 346.657 463.627 342.409 456.054 339.538L455.523 340.941C462.862 343.723 468.194 347.793 471.586 353.12L472.852 352.315ZM455.595 340.964L455.691 340.99L456.079 339.541L455.983 339.515L455.595 340.964ZM456.588 340.004L452.132 328.043L450.726 328.567L455.182 340.527L456.588 340.004ZM451.684 329.01C464.461 324.396 476.985 321.714 489.258 320.956L489.166 319.459C476.736 320.227 464.072 322.942 451.174 327.599L451.684 329.01ZM489.937 320.402L490.998 316.442L489.549 316.053L488.488 320.014L489.937 320.402ZM490.467 315.523L453.472 305.61L453.084 307.059L490.079 316.972L490.467 315.523ZM453.931 305.966L450.068 299.133L448.762 299.871L452.626 306.704L453.931 305.966ZM449.221 300.226L502.444 314.487L502.832 313.039L449.609 298.778L449.221 300.226ZM501.988 314.138L505.948 320.997L507.247 320.247L503.287 313.388L501.988 314.138ZM506.792 319.897L495.683 316.921L495.295 318.37L506.403 321.346L506.792 319.897ZM486.787 328.251C482.936 328.61 478.953 329.211 474.839 330.052L475.14 331.522C479.205 330.69 483.133 330.098 486.927 329.744L486.787 328.251ZM474.834 330.053C470.774 330.915 466.415 332.145 461.756 333.74L462.242 335.159C466.854 333.58 471.155 332.368 475.145 331.521L474.834 330.053ZM461.541 335.044C470.061 341.616 475.579 349.613 478.136 359.041L479.583 358.649C476.932 348.874 471.21 340.608 462.457 333.856L461.541 335.044ZM479.584 359.039L487.581 329.192L486.132 328.804L478.135 358.651L479.584 359.039ZM455.682 356.672C456.064 355.246 456.841 354.25 458.016 353.618L457.306 352.297C455.739 353.139 454.714 354.49 454.233 356.284L455.682 356.672ZM458.036 353.607C459.252 352.905 460.514 352.739 461.867 353.101L462.255 351.652C460.517 351.187 458.846 351.407 457.286 352.308L458.036 353.607ZM461.867 353.101C463.22 353.464 464.23 354.239 464.932 355.455L466.231 354.705C465.33 353.145 463.993 352.118 462.255 351.652L461.867 353.101ZM464.944 355.474C465.645 356.609 465.82 357.86 465.438 359.286L466.887 359.674C467.367 357.881 467.155 356.198 466.219 354.685L464.944 355.474ZM465.438 359.286C465.095 360.567 464.322 361.588 463.066 362.362L463.852 363.639C465.407 362.681 466.436 361.355 466.887 359.674L465.438 359.286ZM463.084 362.351C461.868 363.053 460.606 363.22 459.253 362.857L458.865 364.306C460.603 364.772 462.274 364.551 463.834 363.65L463.084 362.351ZM459.253 362.857C457.9 362.494 456.89 361.719 456.188 360.503L454.889 361.253C455.79 362.813 457.127 363.84 458.865 364.306L459.253 362.857ZM456.198 360.522C455.498 359.224 455.339 357.953 455.682 356.672L454.233 356.284C453.783 357.965 454.011 359.628 454.879 361.235L456.198 360.522Z" fill="#131313"/>
<path d="M231.188 171.044C231.271 171.23 231.39 171.397 231.538 171.537C231.686 171.677 231.86 171.786 232.051 171.858C232.241 171.93 232.444 171.964 232.647 171.958C232.85 171.952 233.051 171.905 233.236 171.821C233.423 171.74 233.592 171.622 233.732 171.475C233.872 171.327 233.981 171.153 234.052 170.962C234.125 170.772 234.159 170.57 234.153 170.367C234.147 170.165 234.101 169.965 234.017 169.78C233.933 169.593 225.671 151.722 206.268 154.85C210.544 152.691 214.717 154.658 214.903 154.749C215.273 154.928 215.697 154.953 216.085 154.82C216.473 154.687 216.793 154.406 216.975 154.039C217.065 153.856 217.118 153.658 217.131 153.456C217.144 153.253 217.117 153.05 217.051 152.857C216.986 152.665 216.883 152.488 216.749 152.335C216.615 152.183 216.452 152.058 216.27 151.969C214.507 151.136 212.579 150.714 210.629 150.733C214.037 149.265 217.883 149.181 221.351 150.5C221.728 150.665 222.155 150.673 222.539 150.523C222.922 150.373 223.229 150.076 223.394 149.699C223.559 149.322 223.567 148.895 223.417 148.512C223.267 148.129 222.971 147.821 222.594 147.656C219.948 146.672 217.108 146.325 214.304 146.642C218.636 145.338 223.243 145.253 227.62 146.395C228.013 146.507 228.435 146.461 228.795 146.266C229.155 146.071 229.424 145.744 229.546 145.353C229.608 145.155 229.629 144.946 229.609 144.739C229.589 144.532 229.528 144.332 229.429 144.149C229.33 143.971 229.196 143.813 229.036 143.687C228.876 143.56 228.692 143.467 228.495 143.413C221.63 141.368 208.146 141.389 200.648 154.194C200.563 139.333 188.903 132.593 181.95 130.941C181.552 130.847 181.132 130.914 180.783 131.127C180.433 131.341 180.183 131.684 180.085 132.082C179.994 132.482 180.062 132.902 180.276 133.252C180.49 133.602 180.833 133.854 181.231 133.954C185.578 135.156 189.509 137.533 192.592 140.825C190.314 139.159 187.676 138.051 184.892 137.589C184.486 137.553 184.082 137.678 183.767 137.938C183.453 138.197 183.253 138.57 183.211 138.976C183.17 139.381 183.289 139.787 183.545 140.105C183.8 140.423 184.17 140.628 184.575 140.675C186.404 140.954 188.16 141.592 189.742 142.552C191.324 143.512 192.701 144.775 193.794 146.269C192.101 145.259 190.2 144.649 188.236 144.486C187.846 144.487 187.471 144.635 187.185 144.9C186.899 145.165 186.724 145.528 186.694 145.917C186.664 146.305 186.781 146.691 187.022 146.997C187.263 147.303 187.611 147.507 187.996 147.569C188.243 147.588 193.853 148.083 196.203 153.419C187.118 144.656 177.453 145.055 170.848 146.982C171.603 147.766 172.279 148.622 172.865 149.539C175.182 148.952 177.578 148.736 179.963 148.897C177.766 149.192 175.637 149.869 173.673 150.898C174.139 151.808 174.541 152.75 174.875 153.716C177.794 152.104 181.16 151.492 184.46 151.972C182.202 152.589 180.138 153.773 178.464 155.411C178.229 155.712 178.114 156.09 178.141 156.471C178.167 156.853 178.334 157.211 178.608 157.477C178.883 157.743 179.246 157.898 179.628 157.913C180.01 157.928 180.384 157.801 180.678 157.557C180.942 157.293 186.979 151.363 194.99 156.938C185.902 156.325 180.226 160.184 176.774 164.363C176.793 164.708 176.814 165.048 176.83 165.38C176.895 166.734 176.91 168.121 176.889 169.533C177.7 168.041 178.693 166.655 179.846 165.409C178.78 167.179 178.085 169.149 177.803 171.196C177.771 171.606 177.903 172.013 178.17 172.326C178.438 172.638 178.818 172.832 179.228 172.864C179.639 172.897 180.045 172.765 180.358 172.497C180.671 172.23 180.864 171.849 180.897 171.439C181.315 168.449 182.832 165.722 185.15 163.789C184.47 165.153 184.071 166.641 183.978 168.163C183.968 168.571 184.117 168.968 184.394 169.269C184.671 169.57 185.054 169.751 185.463 169.774C185.873 169.79 186.273 169.643 186.575 169.364C186.877 169.086 187.056 168.699 187.073 168.289C187.089 167.988 187.482 160.903 195.84 160.219C195.755 160.407 195.673 160.602 195.586 160.795C194.992 162.093 194.47 163.422 194.021 164.777L193.999 164.859C193.884 165.114 193.821 165.388 193.812 165.668C193.804 165.947 193.85 166.225 193.95 166.486C194.171 166.788 194.435 167.056 194.733 167.282L190.103 184.56L176.763 173.502C176.72 174.35 176.66 175.207 176.584 176.073C176.515 176.899 176.435 177.745 176.343 178.593L188.915 188.994L191.538 191.167L206.505 203.546L172.743 194.499L172.051 197.08L209.323 207.067L204.824 223.858L166.136 213.491C168.907 205.166 171.082 196.655 172.644 188.021C173.303 184.535 173.787 181.242 174.129 178.105C174.206 177.382 174.279 176.651 174.339 175.946L174.374 175.422C174.422 174.849 174.455 174.331 174.482 173.793C174.611 171.605 174.654 169.491 174.611 167.452C174.597 166.803 174.583 166.155 174.543 165.517C174.455 161.952 173.902 158.414 172.898 154.991C172.576 153.985 172.174 153.005 171.696 152.062C171.377 151.422 171.014 150.806 170.608 150.217C170.342 149.816 170.055 149.43 169.746 149.06L153.397 210.078L151.21 209.492L167.675 148.043C161.946 149.742 157.765 155.349 154.723 160.054C151.356 165.27 148.369 171.432 145.597 178.805C145.401 179.338 145.209 179.838 145.013 180.371C144.949 180.612 144.851 180.844 144.765 181.078C144.498 181.833 144.237 182.589 143.99 183.338C143.452 184.952 142.957 186.513 142.515 188.053C141.927 190.075 141.164 192.748 140.431 195.458C139.406 199.285 138.548 202.706 137.856 205.902L126.669 202.905L131.162 186.136L141.124 188.805L141.816 186.224L136.129 184.701L141.445 183.781C141.685 183.037 141.934 182.283 142.195 181.527C142.413 180.888 142.638 180.245 142.874 179.605C142.907 179.485 142.937 179.37 143.002 179.258L127.97 181.864L113.533 235.746C112.82 235.143 112.17 234.471 111.592 233.738C110.161 232.036 108.534 230.106 104.674 229.071L103.743 232.543C106.515 233.286 107.542 234.505 108.846 236.049C110.282 237.753 111.909 239.683 115.797 240.725C119.684 241.766 122.021 240.875 124.094 240.135L124.902 239.854C126.616 239.183 128.506 239.111 130.266 239.65C132.062 240.063 133.665 241.071 134.815 242.51L135.374 243.158C136.81 244.861 138.432 246.79 142.325 247.833C146.218 248.876 148.555 248.008 150.65 247.251L151.458 246.969C153.174 246.298 155.066 246.227 156.827 246.767C158.621 247.18 160.222 248.188 161.371 249.625L161.93 250.273C163.366 251.976 164.988 253.905 168.881 254.949C172.774 255.992 175.11 255.123 177.206 254.366L178.014 254.085C179.743 253.479 181.614 253.409 183.383 253.883C185.152 254.357 186.738 255.353 187.932 256.742L188.491 257.39C189.922 259.092 191.549 261.022 195.409 262.057C199.269 263.091 201.644 262.233 203.767 261.483C205.662 260.819 207.172 260.257 209.944 261L210.875 257.528C207.015 256.493 204.64 257.352 202.517 258.101C201.653 258.449 200.756 258.705 199.839 258.866L214.379 204.601L192.793 186.745L197.788 168.107C198.159 168.059 198.521 167.959 198.864 167.809C199.3 167.452 199.579 166.937 199.64 166.376L199.662 166.294C199.95 164.925 200.158 163.541 200.287 162.149C200.576 161.958 200.794 161.676 200.906 161.347C200.908 161.329 200.913 161.31 200.92 161.293L201.013 161.318L201.411 161.471L201.829 161.73L201.979 161.823C208.912 166.569 205.754 172.996 205.618 173.264C205.429 173.627 205.392 174.051 205.515 174.441C205.638 174.832 205.91 175.159 206.272 175.349C206.629 175.52 207.037 175.549 207.415 175.432C207.792 175.315 208.112 175.06 208.311 174.718C208.991 173.353 209.389 171.866 209.483 170.344C210.524 173.178 210.473 176.297 209.341 179.096C209.164 179.467 209.141 179.894 209.278 180.282C209.416 180.67 209.702 180.987 210.073 181.164C210.444 181.342 210.871 181.364 211.259 181.227C211.647 181.089 211.964 180.804 212.141 180.432C212.925 178.519 213.307 176.466 213.266 174.399C214.025 177.829 213.929 181.394 212.987 184.778C212.916 184.975 212.885 185.183 212.897 185.391C212.908 185.599 212.962 185.803 213.054 185.99C213.146 186.177 213.275 186.344 213.433 186.48C213.591 186.616 213.775 186.719 213.973 186.783C214.172 186.846 214.381 186.869 214.589 186.85C214.797 186.83 214.998 186.769 215.182 186.67C215.365 186.571 215.527 186.436 215.657 186.273C215.787 186.11 215.883 185.923 215.939 185.722C215.989 185.536 221.595 167.219 203.528 159.062C212.811 158.578 214.985 166.45 215.076 166.791C215.177 167.19 215.433 167.532 215.786 167.742C216.14 167.952 216.563 168.013 216.961 167.912C217.36 167.81 217.702 167.554 217.912 167.201C218.122 166.847 218.183 166.425 218.082 166.026C217.446 163.766 216.243 161.707 214.586 160.044C216.583 160.828 218.39 162.029 219.884 163.568C221.379 165.106 222.528 166.946 223.254 168.965C223.328 169.219 223.467 169.45 223.657 169.634C223.847 169.819 224.081 169.95 224.338 170.017C224.613 170.089 224.904 170.086 225.178 170.008C225.571 169.89 225.901 169.622 226.097 169.261C226.292 168.901 226.337 168.477 226.221 168.084C225.002 164.731 222.841 161.801 219.996 159.648C227.622 163.314 231.065 170.718 231.188 171.044ZM195.58 258.358C193.338 257.605 192.365 256.471 191.188 255.066C190.958 254.787 190.717 254.506 190.46 254.22L197.931 226.336L203.754 227.896L195.58 258.358ZM183.173 222.387L186.207 223.2L179.004 250.084C177.954 250.29 176.925 250.589 175.928 250.977C174.475 251.502 173.255 251.942 171.521 251.788L179.652 221.444L183.173 222.387V222.387ZM168.911 251.206C166.769 250.451 165.809 249.332 164.649 247.954C164.205 247.425 163.765 246.88 163.196 246.335L170.521 218.997L177.082 220.755L168.911 251.206ZM151.481 243.19C150.736 243.388 150.055 243.634 149.4 243.869C147.706 244.481 146.326 244.973 144.095 244.551L152.254 214.102L158.815 215.86L151.481 243.19ZM143.119 211.649L149.68 213.407L141.547 243.763C139.984 243.033 139.125 242.041 138.13 240.855C137.466 240.021 136.727 239.251 135.922 238.552L143.119 211.649ZM131.402 208.509L123.931 236.394C123.57 236.514 123.214 236.641 122.87 236.766C121.143 237.393 119.734 237.883 117.42 237.421L125.584 206.956L131.402 208.509ZM126.88 235.731L133.987 209.208L140.548 210.966L133.561 237.04C132.806 236.68 132.017 236.392 131.207 236.181C129.803 235.775 128.338 235.623 126.88 235.731V235.731ZM154.35 242.804L161.382 216.56L167.943 218.318L160.911 244.562C159.914 243.998 158.848 243.566 157.739 243.278C156.634 242.973 155.493 242.817 154.347 242.815L154.35 242.804ZM181.806 249.95L188.788 223.892L195.349 225.65L188.242 252.173C187.036 251.346 185.692 250.74 184.274 250.383C183.465 250.167 182.638 250.025 181.803 249.961L181.806 249.95Z" fill="#131313"/>
<path d="M193.886 267.499C191.114 266.756 190.087 265.537 188.78 263.986C187.349 262.284 185.721 260.353 181.861 259.319C178.001 258.285 175.627 259.143 173.531 259.9C171.636 260.564 170.13 261.133 167.358 260.39C164.586 259.648 163.55 258.438 162.262 256.88C160.826 255.177 159.204 253.248 155.344 252.214C151.484 251.179 149.109 252.037 146.986 252.787C145.091 253.451 143.58 254.019 140.813 253.278C138.046 252.536 137.008 251.315 135.707 249.765C134.27 248.061 132.648 246.132 128.755 245.089C124.862 244.046 122.526 244.914 120.43 245.671C118.535 246.336 117.024 246.903 114.257 246.162C111.491 245.421 110.453 244.199 109.151 242.649C107.72 240.947 106.092 239.017 102.232 237.982L101.302 241.454C104.074 242.197 105.101 243.416 106.403 244.966C107.841 246.664 109.468 248.594 113.356 249.636C117.243 250.677 119.618 249.819 121.696 249.063C123.591 248.399 125.102 247.832 127.869 248.573C130.635 249.314 131.673 250.536 132.975 252.086C134.413 253.784 136.035 255.713 139.928 256.756C143.821 257.799 146.157 256.931 148.251 256.179C150.146 255.515 151.658 254.947 154.43 255.69C157.202 256.433 158.229 257.651 159.531 259.201C160.969 260.899 162.591 262.828 166.484 263.871C170.376 264.914 172.713 264.046 174.807 263.295C176.702 262.63 178.214 262.063 180.986 262.805C183.758 263.548 184.79 264.768 186.092 266.318C187.524 268.015 189.152 269.945 193.012 270.98C196.872 272.014 199.247 271.156 201.368 270.412C203.263 269.747 204.775 269.18 207.547 269.923L208.477 266.451C204.617 265.416 202.242 266.274 200.12 267.024C198.16 267.712 196.658 268.241 193.886 267.499Z" fill="#131313"/>
<path d="M127.341 211.647C127.567 211.708 127.806 211.702 128.029 211.627C128.251 211.553 128.446 211.414 128.589 211.229C128.732 211.044 128.817 210.82 128.833 210.586C128.849 210.353 128.795 210.12 128.679 209.916C128.562 209.713 128.388 209.549 128.178 209.445C127.968 209.341 127.732 209.302 127.5 209.332C127.268 209.363 127.05 209.461 126.873 209.616C126.697 209.77 126.571 209.973 126.51 210.199C126.429 210.501 126.471 210.823 126.627 211.095C126.783 211.366 127.04 211.564 127.341 211.647V211.647Z" fill="#131313"/>
<path d="M136.824 211.739C136.598 211.676 136.358 211.682 136.136 211.755C135.913 211.829 135.717 211.967 135.573 212.152C135.429 212.337 135.343 212.56 135.326 212.794C135.31 213.028 135.363 213.262 135.479 213.465C135.595 213.669 135.769 213.833 135.979 213.938C136.189 214.042 136.425 214.082 136.658 214.052C136.891 214.022 137.109 213.923 137.285 213.769C137.462 213.615 137.588 213.411 137.649 213.185C137.73 212.884 137.688 212.563 137.534 212.292C137.379 212.021 137.124 211.822 136.824 211.739V211.739Z" fill="#131313"/>
<path d="M146.805 215.638C146.866 215.412 146.858 215.173 146.783 214.951C146.708 214.73 146.569 214.536 146.383 214.393C146.197 214.251 145.974 214.167 145.74 214.151C145.507 214.136 145.274 214.19 145.071 214.307C144.869 214.424 144.705 214.599 144.602 214.808C144.498 215.018 144.459 215.254 144.49 215.486C144.52 215.718 144.619 215.936 144.773 216.112C144.928 216.288 145.131 216.414 145.357 216.474C145.66 216.554 145.982 216.511 146.253 216.354C146.524 216.198 146.723 215.94 146.805 215.638Z" fill="#131313"/>
<path d="M154.535 218.934C154.761 218.996 155 218.989 155.222 218.914C155.444 218.84 155.639 218.702 155.782 218.516C155.925 218.331 156.011 218.107 156.027 217.874C156.043 217.64 155.989 217.407 155.872 217.204C155.756 217 155.581 216.837 155.371 216.733C155.162 216.629 154.926 216.589 154.693 216.62C154.461 216.65 154.243 216.748 154.067 216.903C153.891 217.057 153.764 217.26 153.704 217.486C153.623 217.789 153.665 218.11 153.82 218.382C153.976 218.653 154.233 218.851 154.535 218.934V218.934Z" fill="#131313"/>
<path d="M164.326 219.109C164.1 219.048 163.861 219.056 163.64 219.131C163.418 219.207 163.224 219.346 163.082 219.531C162.939 219.717 162.855 219.941 162.84 220.174C162.824 220.408 162.879 220.641 162.996 220.843C163.113 221.046 163.287 221.209 163.497 221.313C163.707 221.416 163.943 221.455 164.175 221.425C164.407 221.394 164.624 221.295 164.8 221.141C164.976 220.987 165.102 220.784 165.163 220.558C165.242 220.255 165.199 219.933 165.043 219.661C164.886 219.39 164.629 219.191 164.326 219.109Z" fill="#131313"/>
<path d="M172.55 223.762C172.776 223.822 173.015 223.814 173.236 223.739C173.458 223.664 173.652 223.525 173.795 223.339C173.937 223.153 174.021 222.93 174.037 222.696C174.052 222.463 173.998 222.23 173.881 222.027C173.764 221.825 173.589 221.661 173.379 221.558C173.169 221.454 172.934 221.415 172.702 221.446C172.47 221.476 172.252 221.575 172.076 221.729C171.9 221.884 171.774 222.087 171.713 222.313C171.632 222.616 171.675 222.939 171.832 223.21C171.988 223.482 172.247 223.68 172.55 223.762V223.762Z" fill="#131313"/>
<path d="M181.732 226.221C181.861 226.254 181.995 226.264 182.128 226.251C182.37 226.231 182.601 226.137 182.788 225.982C182.974 225.826 183.109 225.616 183.172 225.382C183.234 225.147 183.223 224.898 183.139 224.67C183.055 224.442 182.902 224.245 182.702 224.107C182.594 224.029 182.473 223.971 182.344 223.935C182.041 223.854 181.718 223.896 181.446 224.053C181.174 224.21 180.976 224.469 180.895 224.772C180.814 225.075 180.856 225.398 181.013 225.669C181.17 225.941 181.428 226.139 181.732 226.221V226.221Z" fill="#131313"/>
<path d="M191.531 226.398C191.305 226.337 191.066 226.345 190.845 226.42C190.623 226.496 190.429 226.635 190.287 226.821C190.144 227.006 190.06 227.23 190.045 227.463C190.029 227.697 190.084 227.93 190.201 228.132C190.318 228.335 190.492 228.498 190.702 228.602C190.912 228.705 191.148 228.744 191.38 228.714C191.612 228.683 191.829 228.584 192.005 228.43C192.181 228.276 192.307 228.073 192.368 227.847C192.448 227.544 192.404 227.222 192.248 226.95C192.091 226.679 191.834 226.481 191.531 226.398V226.398Z" fill="#131313"/>
<path d="M199.603 231.01C199.829 231.07 200.067 231.062 200.289 230.987C200.511 230.912 200.705 230.773 200.847 230.587C200.99 230.401 201.074 230.178 201.089 229.944C201.105 229.711 201.05 229.478 200.933 229.275C200.816 229.073 200.642 228.909 200.432 228.806C200.222 228.702 199.986 228.663 199.754 228.694C199.522 228.725 199.305 228.823 199.129 228.977C198.953 229.132 198.827 229.335 198.766 229.561C198.686 229.864 198.73 230.186 198.886 230.457C199.043 230.729 199.3 230.927 199.603 231.01V231.01Z" fill="#131313"/>
<line x1="285.749" y1="194.462" x2="583.254" y2="274.178" stroke="#131313" stroke-width="5"/>
<line x1="318.575" y1="81.6119" x2="241.447" y2="369.458" stroke="#131313" stroke-width="5"/>
<line x1="331.132" y1="84.9771" x2="300.073" y2="200.888" stroke="#131313" stroke-width="5"/>
<line x1="342.721" y1="88.0826" x2="311.663" y2="203.994" stroke="#131313" stroke-width="5"/>
<line x1="354.313" y1="91.1881" x2="323.255" y2="207.099" stroke="#131313" stroke-width="5"/>
<line x1="365.905" y1="94.2955" x2="334.847" y2="210.207" stroke="#131313" stroke-width="5"/>
<line x1="377.495" y1="97.401" x2="346.437" y2="213.312" stroke="#131313" stroke-width="5"/>
<line x1="389.087" y1="100.506" x2="358.028" y2="216.418" stroke="#131313" stroke-width="5"/>
<line x1="400.678" y1="103.612" x2="369.62" y2="219.523" stroke="#131313" stroke-width="5"/>
<line x1="412.268" y1="106.717" x2="381.21" y2="222.628" stroke="#131313" stroke-width="5"/>
<line x1="423.86" y1="109.825" x2="392.802" y2="225.736" stroke="#131313" stroke-width="5"/>
<line x1="435.452" y1="112.93" x2="404.394" y2="228.841" stroke="#131313" stroke-width="5"/>
<line x1="447.042" y1="116.036" x2="415.983" y2="231.947" stroke="#131313" stroke-width="5"/>
<line x1="458.634" y1="119.141" x2="427.575" y2="235.052" stroke="#131313" stroke-width="5"/>
<line x1="470.225" y1="122.247" x2="439.167" y2="238.158" stroke="#131313" stroke-width="5"/>
<line x1="481.815" y1="125.352" x2="450.757" y2="241.263" stroke="#131313" stroke-width="5"/>
<line x1="493.407" y1="128.46" x2="462.349" y2="244.371" stroke="#131313" stroke-width="5"/>
<line x1="504.999" y1="131.565" x2="473.941" y2="247.476" stroke="#131313" stroke-width="5"/>
<line x1="516.589" y1="134.67" x2="485.53" y2="250.582" stroke="#131313" stroke-width="5"/>
<line x1="528.18" y1="137.776" x2="497.122" y2="253.687" stroke="#131313" stroke-width="5"/>
<line x1="539.77" y1="140.881" x2="508.712" y2="256.793" stroke="#131313" stroke-width="5"/>
<line x1="551.362" y1="143.989" x2="520.304" y2="259.9" stroke="#131313" stroke-width="5"/>
<line x1="562.954" y1="147.094" x2="531.896" y2="263.005" stroke="#131313" stroke-width="5"/>
<line x1="574.544" y1="150.2" x2="543.485" y2="266.111" stroke="#131313" stroke-width="5"/>
</svg>
