<svg width="27" height="27" viewBox="0 0 27 27" fill="none" xmlns="http://www.w3.org/2000/svg">
<path d="M11.6609 26.15H15.4109L14.6609 16.85L15.2609 16.55L21.2609 23.75L23.9609 21.05L16.7609 15.05L17.0609 14.45L26.3609 15.2V11.45L17.0609 12.2L16.7609 11.6L23.9609 5.6L21.2609 2.9L15.2609 10.1L14.6609 9.8L15.4109 0.5H11.6609L12.4109 9.8L11.8109 10.1L5.81094 2.9L3.11094 5.6L10.3109 11.6L10.0109 12.2L0.710938 11.45V15.2L10.0109 14.45L10.3109 15.05L3.11094 21.05L5.81094 23.75L11.8109 16.55L12.4109 16.85L11.6609 26.15Z" fill="#1F1A14"/>
</svg>
